<svg xmlns="http://www.w3.org/2000/svg" width="548" height="316.279" viewBox="0 0 548 316.279">
  <g id="banner-princiapal" transform="translate(-862 -165.279)">
    <g id="Group_92249" data-name="Group 92249" transform="translate(1068.564 197.906)">
      <path id="Path_134944" data-name="Path 134944" d="M-3534.678,724.155l20.446,48.353.564-.122,61.033-13.122s-28.643-1.51-31.733-3.933c-2.91-2.284-33.936-29.779-42.726-32.085a3.381,3.381,0,0,0-1.356-.128Z" transform="translate(3534.678 -723.092)" fill="#ffb74d"/>
      <path id="Path_134945" data-name="Path 134945" d="M-3509.2,772.461l61.033-13.122s-28.644-1.51-31.732-3.934c-2.91-2.284-33.937-29.779-42.727-32.085,8.084,8.112,26.859,27.683,26.419,34.054C-3496.623,763.443-3505,769.695-3509.2,772.461Z" transform="translate(3530.207 -723.167)" fill="#ffb74d" opacity="0.5" style="mix-blend-mode: multiply;isolation: isolate"/>
      <path id="Path_134946" data-name="Path 134946" d="M-3506.753,787.154c1.428.228,5.69.818,11.534,1.513,16.8,2,46.65,4.876,59.647,2.594,11.659-2.046,73.311-13.016,115.937-20.994,21.4-4.005,38.01-7.259,41.077-8.25,9.167-2.963,28.009-12.02,25.62-16.129s-9.931-3.993-12.254-5.4c-.032-.019-.063-.038-.1-.06a30.086,30.086,0,0,0-2.725-1.489c-4.591-2.2-14.148-5.265-30.3-2.446,0,0-25.688,4.626-57.736,10.474-49.675,9.065-114.63,21.064-122.859,23.321-13.535,3.713-31.546,7.541-31.546,7.541s-.1.463-.182,1.189C-3510.912,781.377-3510.985,786.471-3506.753,787.154Z" transform="translate(3525.802 -727.118)" fill="#fff"/>
      <path id="Path_134947" data-name="Path 134947" d="M-3507.533,807.448c1.427.23,5.691.819,11.532,1.513,1.6-6.768,7.684-10.219,7.684-10.219l-23.106.572C-3511.692,801.67-3511.767,806.766-3507.533,807.448Z" transform="translate(3526.092 -747.91)" fill="#e6e6e6"/>
      <g id="Group_92247" data-name="Group 92247" transform="translate(70.788 11.326)">
        <g id="Group_92245" data-name="Group 92245" transform="translate(80.241)">
          <g id="Group_92242" data-name="Group 92242" transform="translate(26.159 7.518)">
            <path id="Path_134948" data-name="Path 134948" d="M-3241.3,762.027a.712.712,0,0,1,.815.613l.128.785a.753.753,0,0,1-.574.872.713.713,0,0,1-.815-.613l-.129-.785A.753.753,0,0,1-3241.3,762.027Z" transform="translate(3248.89 -754.705)" fill="#12263f"/>
            <path id="Path_134949" data-name="Path 134949" d="M-3252.436,763.964a.712.712,0,0,1,.815.613l.127.785a.751.751,0,0,1-.573.87.712.712,0,0,1-.815-.612l-.128-.785A.752.752,0,0,1-3252.436,763.964Z" transform="translate(3253.02 -755.341)" fill="#12263f"/>
            <path id="Path_134950" data-name="Path 134950" d="M-3235.6,761.036a.713.713,0,0,1,.815.613l.128.786a.752.752,0,0,1-.574.871.713.713,0,0,1-.815-.613l-.128-.785A.752.752,0,0,1-3235.6,761.036Z" transform="translate(3246.777 -754.38)" fill="#12263f"/>
            <path id="Path_134951" data-name="Path 134951" d="M-3229.909,760.045a.713.713,0,0,1,.815.613l.128.786a.751.751,0,0,1-.573.871.713.713,0,0,1-.815-.613l-.128-.785A.753.753,0,0,1-3229.909,760.045Z" transform="translate(3244.665 -754.055)" fill="#12263f"/>
            <path id="Path_134952" data-name="Path 134952" d="M-3224.215,759.054a.714.714,0,0,1,.816.613l.128.786a.752.752,0,0,1-.574.871.713.713,0,0,1-.815-.614l-.127-.786A.752.752,0,0,1-3224.215,759.054Z" transform="translate(3242.552 -753.73)" fill="#12263f"/>
            <path id="Path_134953" data-name="Path 134953" d="M-3218.519,758.064h0a.713.713,0,0,1,.815.613l.128.786a.752.752,0,0,1-.573.871h0a.713.713,0,0,1-.815-.613l-.128-.785A.751.751,0,0,1-3218.519,758.064Z" transform="translate(3240.439 -753.405)" fill="#12263f"/>
            <path id="Path_134954" data-name="Path 134954" d="M-3212.825,757.073a.712.712,0,0,1,.816.613l.128.786a.752.752,0,0,1-.574.871.713.713,0,0,1-.815-.613l-.128-.785A.753.753,0,0,1-3212.825,757.073Z" transform="translate(3238.327 -753.08)" fill="#12263f"/>
            <path id="Path_134955" data-name="Path 134955" d="M-3207.129,756.082a.712.712,0,0,1,.815.613l.128.786a.752.752,0,0,1-.573.871.713.713,0,0,1-.816-.613l-.127-.786A.752.752,0,0,1-3207.129,756.082Z" transform="translate(3236.215 -752.755)" fill="#12263f"/>
            <path id="Path_134956" data-name="Path 134956" d="M-3201.433,755.091a.713.713,0,0,1,.815.613l.128.786a.752.752,0,0,1-.574.871.713.713,0,0,1-.815-.613l-.127-.786A.752.752,0,0,1-3201.433,755.091Z" transform="translate(3234.102 -752.43)" fill="#12263f"/>
            <path id="Path_134957" data-name="Path 134957" d="M-3195.739,754.1a.713.713,0,0,1,.815.613l.128.785a.752.752,0,0,1-.573.871.713.713,0,0,1-.816-.613l-.127-.785A.751.751,0,0,1-3195.739,754.1Z" transform="translate(3231.99 -752.105)" fill="#12263f"/>
            <path id="Path_134958" data-name="Path 134958" d="M-3190.158,753.13a.713.713,0,0,1,.815.613l.128.786a.752.752,0,0,1-.573.871.713.713,0,0,1-.816-.613l-.128-.785A.753.753,0,0,1-3190.158,753.13Z" transform="translate(3229.92 -751.787)" fill="#12263f"/>
            <path id="Path_134959" data-name="Path 134959" d="M-3184.462,752.139a.713.713,0,0,1,.815.613l.128.785a.753.753,0,0,1-.574.871.712.712,0,0,1-.815-.613l-.128-.785A.752.752,0,0,1-3184.462,752.139Z" transform="translate(3227.808 -751.462)" fill="#12263f"/>
            <path id="Path_134960" data-name="Path 134960" d="M-3178.767,751.148a.713.713,0,0,1,.815.613l.128.786a.752.752,0,0,1-.573.87.712.712,0,0,1-.816-.612l-.128-.786A.753.753,0,0,1-3178.767,751.148Z" transform="translate(3225.695 -751.137)" fill="#12263f"/>
          </g>
          <path id="Path_134961" data-name="Path 134961" d="M-3132.312,741.27l3.895-1.322a30.38,30.38,0,0,1,2.725,1.489l-5.965,2.029a1.008,1.008,0,0,1-.342.053,1.1,1.1,0,0,1-1.013-.8A1.174,1.174,0,0,1-3132.312,741.27Z" transform="translate(3234.684 -739.948)" fill="#12263f"/>
          <g id="Group_92243" data-name="Group 92243" transform="translate(7.118 17.202)">
            <path id="Path_134962" data-name="Path 134962" d="M-3281.116,773.552a1.3,1.3,0,0,0,.238-.022l1.089-.2a1.364,1.364,0,0,0,.893-.606,1.545,1.545,0,0,0,.233-1.1l-.79-4.849a1.393,1.393,0,0,0-1.6-1.2l-1.089.2a1.363,1.363,0,0,0-.892.606,1.542,1.542,0,0,0-.233,1.1l.79,4.849A1.414,1.414,0,0,0-3281.116,773.552Zm.219-.139a1.285,1.285,0,0,1-1.472-1.105l-.79-4.849a1.422,1.422,0,0,1,.215-1.013,1.257,1.257,0,0,1,.82-.558l1.09-.2a1.284,1.284,0,0,1,1.471,1.105l.789,4.849a1.422,1.422,0,0,1-.214,1.013,1.258,1.258,0,0,1-.822.558Z" transform="translate(3283.287 -765.548)" fill="#12263f"/>
          </g>
          <g id="Group_92244" data-name="Group 92244" transform="translate(0 18.524)">
            <path id="Path_134963" data-name="Path 134963" d="M-3292.43,775.521a1.294,1.294,0,0,0,.237-.022l1.09-.2a1.472,1.472,0,0,0,1.125-1.707l-.79-4.849a1.392,1.392,0,0,0-1.6-1.2l-1.09.2a1.474,1.474,0,0,0-1.125,1.707l.79,4.849A1.414,1.414,0,0,0-3292.43,775.521Zm.219-.138a1.284,1.284,0,0,1-1.471-1.105l-.789-4.849a1.355,1.355,0,0,1,1.034-1.572l1.09-.2a1.285,1.285,0,0,1,1.472,1.105l.789,4.849a1.354,1.354,0,0,1-1.035,1.571Z" transform="translate(3294.602 -767.516)" fill="#12263f"/>
          </g>
        </g>
        <g id="Group_92246" data-name="Group 92246" transform="translate(0 17.404)">
          <path id="Path_134964" data-name="Path 134964" d="M-3421.57,793.386a.713.713,0,0,1,.816.613l.128.786a.753.753,0,0,1-.574.871.713.713,0,0,1-.815-.613l-.128-.786A.753.753,0,0,1-3421.57,793.386Z" transform="translate(3422.154 -774.879)" fill="#12263f"/>
          <path id="Path_134965" data-name="Path 134965" d="M-3415.874,792.4a.713.713,0,0,1,.815.612l.128.785a.752.752,0,0,1-.573.871.713.713,0,0,1-.816-.613l-.128-.786A.751.751,0,0,1-3415.874,792.4Z" transform="translate(3420.041 -774.554)" fill="#12263f"/>
          <path id="Path_134966" data-name="Path 134966" d="M-3410.179,791.4a.713.713,0,0,1,.816.613l.128.785a.752.752,0,0,1-.574.871.712.712,0,0,1-.815-.613l-.128-.785A.752.752,0,0,1-3410.179,791.4Z" transform="translate(3417.928 -774.229)" fill="#12263f"/>
          <path id="Path_134967" data-name="Path 134967" d="M-3404.483,790.414a.713.713,0,0,1,.815.613l.128.786a.752.752,0,0,1-.574.871.713.713,0,0,1-.815-.613l-.128-.785A.751.751,0,0,1-3404.483,790.414Z" transform="translate(3415.816 -773.904)" fill="#12263f"/>
          <path id="Path_134968" data-name="Path 134968" d="M-3398.789,789.422a.712.712,0,0,1,.816.613l.128.785a.752.752,0,0,1-.573.871.712.712,0,0,1-.815-.613l-.128-.786A.752.752,0,0,1-3398.789,789.422Z" transform="translate(3413.704 -773.579)" fill="#12263f"/>
          <path id="Path_134969" data-name="Path 134969" d="M-3393.093,788.433a.712.712,0,0,1,.815.612l.128.786a.752.752,0,0,1-.574.871.713.713,0,0,1-.816-.613l-.127-.785A.751.751,0,0,1-3393.093,788.433Z" transform="translate(3411.591 -773.254)" fill="#12263f"/>
          <path id="Path_134970" data-name="Path 134970" d="M-3387.4,787.441a.713.713,0,0,1,.815.614l.128.785a.752.752,0,0,1-.573.871.712.712,0,0,1-.815-.612l-.128-.785A.753.753,0,0,1-3387.4,787.441Z" transform="translate(3409.479 -772.928)" fill="#12263f"/>
          <path id="Path_134971" data-name="Path 134971" d="M-3381.7,786.451a.712.712,0,0,1,.815.613l.128.786a.752.752,0,0,1-.573.871.713.713,0,0,1-.815-.613l-.128-.785A.753.753,0,0,1-3381.7,786.451Z" transform="translate(3407.366 -772.604)" fill="#12263f"/>
          <path id="Path_134972" data-name="Path 134972" d="M-3376.009,785.46a.714.714,0,0,1,.816.613l.128.786a.752.752,0,0,1-.574.871.712.712,0,0,1-.815-.613l-.128-.786A.752.752,0,0,1-3376.009,785.46Z" transform="translate(3405.254 -772.279)" fill="#12263f"/>
          <path id="Path_134973" data-name="Path 134973" d="M-3308.9,773.786a.713.713,0,0,1,.816.613l.128.786a.752.752,0,0,1-.574.871.712.712,0,0,1-.815-.613l-.128-.786A.753.753,0,0,1-3308.9,773.786Z" transform="translate(3380.363 -768.449)" fill="#12263f"/>
          <path id="Path_134974" data-name="Path 134974" d="M-3303.205,772.795a.714.714,0,0,1,.816.614l.128.785a.753.753,0,0,1-.574.871h0a.714.714,0,0,1-.816-.613l-.127-.786A.752.752,0,0,1-3303.205,772.795Z" transform="translate(3378.251 -768.124)" fill="#12263f"/>
          <path id="Path_134975" data-name="Path 134975" d="M-3297.51,771.8a.713.713,0,0,1,.816.613l.128.786a.753.753,0,0,1-.574.871.713.713,0,0,1-.815-.613l-.128-.786A.751.751,0,0,1-3297.51,771.8Z" transform="translate(3376.138 -767.799)" fill="#12263f"/>
          <path id="Path_134976" data-name="Path 134976" d="M-3291.815,770.814a.713.713,0,0,1,.815.613l.128.786a.752.752,0,0,1-.574.871.712.712,0,0,1-.815-.613l-.129-.786A.753.753,0,0,1-3291.815,770.814Z" transform="translate(3374.026 -767.474)" fill="#12263f"/>
          <path id="Path_134977" data-name="Path 134977" d="M-3286.12,769.823a.713.713,0,0,1,.815.613l.128.785a.752.752,0,0,1-.574.871.713.713,0,0,1-.815-.613l-.128-.786A.753.753,0,0,1-3286.12,769.823Z" transform="translate(3371.913 -767.149)" fill="#12263f"/>
          <path id="Path_134978" data-name="Path 134978" d="M-3280.425,768.832a.713.713,0,0,1,.816.614l.128.785a.753.753,0,0,1-.573.871.713.713,0,0,1-.816-.614l-.128-.785A.753.753,0,0,1-3280.425,768.832Z" transform="translate(3369.801 -766.824)" fill="#12263f"/>
          <path id="Path_134979" data-name="Path 134979" d="M-3274.729,767.842a.713.713,0,0,1,.816.613l.128.786a.753.753,0,0,1-.574.871.712.712,0,0,1-.815-.613l-.128-.785A.752.752,0,0,1-3274.729,767.842Z" transform="translate(3367.688 -766.499)" fill="#12263f"/>
          <path id="Path_134980" data-name="Path 134980" d="M-3269.034,766.851a.712.712,0,0,1,.815.613l.128.786a.753.753,0,0,1-.573.871.712.712,0,0,1-.815-.613l-.128-.786A.752.752,0,0,1-3269.034,766.851Z" transform="translate(3365.576 -766.174)" fill="#12263f"/>
          <path id="Path_134981" data-name="Path 134981" d="M-3263.339,765.86a.712.712,0,0,1,.815.613l.129.785a.752.752,0,0,1-.574.871.712.712,0,0,1-.815-.613l-.128-.785A.753.753,0,0,1-3263.339,765.86Z" transform="translate(3363.464 -765.849)" fill="#12263f"/>
          <path id="Path_134982" data-name="Path 134982" d="M-3359.267,782.548a.713.713,0,0,1,.815.613l.128.786a.753.753,0,0,1-.574.871.712.712,0,0,1-.815-.613l-.128-.785A.752.752,0,0,1-3359.267,782.548Z" transform="translate(3399.044 -771.323)" fill="#12263f"/>
          <path id="Path_134983" data-name="Path 134983" d="M-3353.572,781.557a.714.714,0,0,1,.816.613l.128.785a.752.752,0,0,1-.573.871.713.713,0,0,1-.816-.613l-.128-.786A.752.752,0,0,1-3353.572,781.557Z" transform="translate(3396.932 -770.998)" fill="#12263f"/>
          <path id="Path_134984" data-name="Path 134984" d="M-3347.877,780.566a.713.713,0,0,1,.815.614l.128.785a.751.751,0,0,1-.573.871.713.713,0,0,1-.815-.613l-.128-.786A.753.753,0,0,1-3347.877,780.566Z" transform="translate(3394.82 -770.673)" fill="#12263f"/>
          <path id="Path_134985" data-name="Path 134985" d="M-3342.181,779.576a.713.713,0,0,1,.815.613l.128.786a.752.752,0,0,1-.574.871.714.714,0,0,1-.815-.613l-.128-.786A.753.753,0,0,1-3342.181,779.576Z" transform="translate(3392.708 -770.348)" fill="#12263f"/>
          <path id="Path_134986" data-name="Path 134986" d="M-3336.487,778.585a.714.714,0,0,1,.816.613l.127.786a.752.752,0,0,1-.573.871.713.713,0,0,1-.815-.613l-.128-.786A.753.753,0,0,1-3336.487,778.585Z" transform="translate(3390.595 -770.023)" fill="#12263f"/>
          <path id="Path_134987" data-name="Path 134987" d="M-3330.792,777.594a.714.714,0,0,1,.816.613l.128.786a.752.752,0,0,1-.574.871.713.713,0,0,1-.815-.613l-.128-.786A.752.752,0,0,1-3330.792,777.594Z" transform="translate(3388.483 -769.698)" fill="#12263f"/>
          <path id="Path_134988" data-name="Path 134988" d="M-3325.1,776.6a.713.713,0,0,1,.815.613l.128.785a.753.753,0,0,1-.574.871.713.713,0,0,1-.815-.613l-.128-.785A.752.752,0,0,1-3325.1,776.6Z" transform="translate(3386.371 -769.373)" fill="#12263f"/>
          <path id="Path_134989" data-name="Path 134989" d="M-3319.4,775.613a.713.713,0,0,1,.816.613l.128.786a.753.753,0,0,1-.574.871.712.712,0,0,1-.815-.613l-.128-.786A.751.751,0,0,1-3319.4,775.613Z" transform="translate(3384.258 -769.048)" fill="#12263f"/>
          <path id="Path_134990" data-name="Path 134990" d="M-3313.707,774.622a.714.714,0,0,1,.816.613l.127.786a.752.752,0,0,1-.574.871.712.712,0,0,1-.815-.612l-.128-.786A.751.751,0,0,1-3313.707,774.622Z" transform="translate(3382.146 -768.723)" fill="#12263f"/>
        </g>
      </g>
      <path id="Path_134991" data-name="Path 134991" d="M-3290.268,797.861a2.754,2.754,0,0,1-1.139-4.726,13.952,13.952,0,0,1,6.558-3.438c5.4-.944,3.645,8.254,1.856,8.646A25.735,25.735,0,0,1-3290.268,797.861Z" transform="translate(3444.786 -744.921)" fill="#12263f"/>
      <path id="Path_134992" data-name="Path 134992" d="M-3282.555,783.941l1.962,12.045a49.559,49.559,0,0,0,14.8-.413,40.19,40.19,0,0,0,11.091-3.231,13.975,13.975,0,0,0,1.852-1.032l-2.056-12.626a5.467,5.467,0,0,0-2.11-.542c-7.18-.657-24.467,5.181-24.467,5.181Z" transform="translate(3441.162 -741.135)" fill="#5038a1"/>
      <path id="Path_134993" data-name="Path 134993" d="M-3241.95,778.166l2.313,14.2a13.976,13.976,0,0,0,1.852-1.032l-2.056-12.626A5.471,5.471,0,0,0-3241.95,778.166Z" transform="translate(3426.101 -741.16)" fill="#ffb74d"/>
      <g id="Group_92248" data-name="Group 92248" transform="translate(90.746 24.439)">
        <path id="Path_134994" data-name="Path 134994" d="M-3390.427,759.508s8.615,13.266,10.228,15.244,4.974,2.972,4.974,2.972l.02,0,21.308,4.486s26.068-4.693,31.734-5.858h0c.514-.107.861-.184,1-.225,1.715-.5,2.491-1.242,2.134-1.715s-40.759.26-45.229.372l-.128,0c-4.353.086-4.815-1.063-4.815-1.063l-17.352-13.5a2.034,2.034,0,0,0-.994-.55A9.22,9.22,0,0,0-3390.427,759.508Z" transform="translate(3390.427 -759.464)" fill="#5038a1"/>
        <path id="Path_134995" data-name="Path 134995" d="M-3385.844,759.781c4.681,3.878,17.627,14.567,18.842,15.256,1.3.742,37.616,1.278,46.538,1.422h0c.513-.107.86-.184,1-.225,1.715-.5,2.492-1.243,2.134-1.715s-40.759.26-45.229.372-4.944-1.06-4.944-1.06l-17.351-13.5A2.033,2.033,0,0,0-3385.844,759.781Z" transform="translate(3388.727 -759.568)" fill="#5038a1"/>
        <path id="Path_134996" data-name="Path 134996" d="M-3390.427,759.508s8.615,13.266,10.228,15.244,4.974,2.972,4.974,2.972l.02,0a43.945,43.945,0,0,0,10.823-2.938c-4.353.086-4.815-1.063-4.815-1.063l-17.352-13.5a2.034,2.034,0,0,0-.994-.55A9.22,9.22,0,0,0-3390.427,759.508Z" transform="translate(3390.427 -759.464)" fill="#5038a1"/>
      </g>
      <path id="Path_134997" data-name="Path 134997" d="M-3493.919,795.361c-.229-.214-20.662-3.274-33.726.592l13.014,5.015,20.336-3.778S-3492.772,796.427-3493.919,795.361Z" transform="translate(3532.07 -746.357)" fill="#5038a1"/>
    </g>
    <path id="Path_134998" data-name="Path 134998" d="M-3382.86,699.614c-150.832-64.988-332.341,11.064-409.749,61.744-79.224,51.869-84.587,135.78-50.635,199.731,16.6,31.266,33.654,29.069,33.654,29.069s387.868-.574,424.7-.574C-3323.44,989.584-3265.52,750.171-3382.86,699.614Z" transform="translate(4725.034 -509.258)" fill="#fff5db" opacity="0.4"/>
    <g id="Group_92251" data-name="Group 92251" transform="translate(880.743 165.28)" opacity="0.6">
      <path id="Path_135000" data-name="Path 135000" d="M-3667.815,1040l-138.812-209.235a149.64,149.64,0,0,0-28.2,34.68l111.163,174.707Z" transform="translate(3834.83 -725.79)" fill="#fff5db"/>
      <path id="Path_135001" data-name="Path 135001" d="M-3534.892,1020.71l-160.182-251.453q-5.029,2.619-9.8,5.227l157.066,245.478Z" transform="translate(3786.626 -705.611)" fill="#fff5db"/>
      <path id="Path_135002" data-name="Path 135002" d="M-3372.139,676.68l192.278,301.155c9.877-9.664,18.973-24.715,26.416-42.978l-172.687-260.3A414.538,414.538,0,0,0-3372.139,676.68Z" transform="translate(3663.212 -674.538)" fill="#fff5db"/>
      <path id="Path_135003" data-name="Path 135003" d="M-3140,702.294a300.381,300.381,0,0,0-65.5-19.587l128.872,201.832C-3064.089,813.993-3075.863,729.93-3140,702.294Z" transform="translate(3601.405 -677.218)" fill="#fff5db"/>
    </g>
    <g id="Group_92256" data-name="Group 92256" transform="translate(959.785 359.317)">
      <g id="Group_92254" data-name="Group 92254" transform="translate(2.192 16.371)">
        <path id="Path_135026" data-name="Path 135026" d="M-3659.852,1011.082c25.5,0,41.046-16.93,41.724-17.683l-5.267-5.409,2.633,2.7-2.628-2.711a49.074,49.074,0,0,1-10.759,8.231,50.527,50.527,0,0,1-28.9,6.963c-24.4-1.521-35.307-15.365-35.414-15.5l-5.649,4.951c.521.678,13.074,16.627,40.636,18.345Q-3661.631,1011.083-3659.852,1011.082Z" transform="translate(3704.11 -987.673)" fill="#8c6df2"/>
      </g>
      <g id="Group_92255" data-name="Group 92255" transform="translate(84.798 16.371)">
        <path id="Path_135027" data-name="Path 135027" d="M-3528.54,1011.082c25.5,0,41.046-16.93,41.724-17.683l-5.267-5.409,2.634,2.7-2.628-2.711a49.1,49.1,0,0,1-10.759,8.231,50.526,50.526,0,0,1-28.9,6.963c-24.4-1.521-35.306-15.365-35.414-15.5l-5.649,4.951c.521.678,13.075,16.627,40.637,18.345Q-3530.32,1011.083-3528.54,1011.082Z" transform="translate(3572.798 -987.673)" fill="#8c6df2"/>
      </g>
      <path id="Path_135028" data-name="Path 135028" d="M-3444.718,965.493v117.571a2.217,2.217,0,0,0,2.237,2.184h4.1a2.217,2.217,0,0,0,2.237-2.184V965.493a2.217,2.217,0,0,0-2.237-2.184h-4.1A2.217,2.217,0,0,0-3444.718,965.493Z" transform="translate(3610.09 -963.309)" fill="#12263f"/>
      <path id="Path_135029" data-name="Path 135029" d="M-3438.939,965.493v117.571a2.217,2.217,0,0,0,2.236,2.184h.466a2.217,2.217,0,0,0,2.237-2.184V965.493a2.218,2.218,0,0,0-2.237-2.184h-.466A2.217,2.217,0,0,0-3438.939,965.493Z" transform="translate(3607.946 -963.309)" fill="#265287" opacity="0.5"/>
      <path id="Path_135030" data-name="Path 135030" d="M-3576.282,965.493v117.571a2.217,2.217,0,0,0,2.237,2.184h4.163a2.215,2.215,0,0,0,2.175-2.182V965.493a2.214,2.214,0,0,0-2.175-2.182c-.021,0-.041,0-.062,0h-4.1A2.218,2.218,0,0,0-3576.282,965.493Z" transform="translate(3658.889 -963.309)" fill="#12263f"/>
      <path id="Path_135031" data-name="Path 135031" d="M-3569.564,965.494v117.571a2.215,2.215,0,0,0,2.173,2.182,2.215,2.215,0,0,0,2.176-2.182V965.494a2.214,2.214,0,0,0-2.176-2.182A2.214,2.214,0,0,0-3569.564,965.494Z" transform="translate(3656.397 -963.31)" fill="#265287" opacity="0.5"/>
      <path id="Path_135032" data-name="Path 135032" d="M-3707.594,965.493v117.571a2.217,2.217,0,0,0,2.237,2.184h4.162a2.214,2.214,0,0,0,2.176-2.182V965.493a2.214,2.214,0,0,0-2.176-2.182.608.608,0,0,0-.061,0h-4.1A2.218,2.218,0,0,0-3707.594,965.493Z" transform="translate(3707.594 -963.309)" fill="#12263f"/>
      <path id="Path_135033" data-name="Path 135033" d="M-3700.877,965.494v117.571a2.215,2.215,0,0,0,2.173,2.182,2.214,2.214,0,0,0,2.176-2.182V965.494a2.213,2.213,0,0,0-2.176-2.182A2.214,2.214,0,0,0-3700.877,965.494Z" transform="translate(3705.103 -963.31)" fill="#265287" opacity="0.5"/>
    </g>
    <g id="Group_92258" data-name="Group 92258" transform="translate(1222.726 325.987)">
      <path id="Path_135037" data-name="Path 135037" d="M-3241.52,936.035h-40.066l-7.083-22.329h40.066Z" transform="translate(3289.269 -913.706)" fill="#4a75cb"/>
      <path id="Path_135038" data-name="Path 135038" d="M-3242.473,936.035h-40.066l-7.083-22.329h40.066Z" transform="translate(3289.622 -913.706)" fill="#afcdfb"/>
      <path id="Path_135039" data-name="Path 135039" d="M-3239.966,939.1l-38.4,5.263h40.066Z" transform="translate(3285.446 -922.038)" fill="#4a75cb" opacity="0.5"/>
    </g>
    <g id="Group_92260" data-name="Group 92260" transform="translate(1254.417 310.506)">
      <path id="Path_135088" data-name="Path 135088" d="M1.181-.011l2.137-.02a1.119,1.119,0,0,1,1.169,1.1L4.431,6.449a1.174,1.174,0,0,1-1.192,1.12L1.1,7.589a1.119,1.119,0,0,1-1.169-1.1l.055-5.383A1.174,1.174,0,0,1,1.181-.011Z" transform="matrix(0.152, -0.988, 0.988, 0.152, 0, 4.452)" fill="#ffb74d"/>
      <path id="Path_135089" data-name="Path 135089" d="M0,0,1.991.02l.027,2.842L.027,2.842Z" transform="translate(1.451 0.933) rotate(8.725)" fill="#12263f"/>
      <path id="Path_135042" data-name="Path 135042" d="M-3230.078,893.887l-2.446-.4a.354.354,0,0,1-.279-.406h0a.337.337,0,0,1,.38-.3l2.446.4a.355.355,0,0,1,.279.405h0A.338.338,0,0,1-3230.078,893.887Z" transform="translate(3236.858 -891.36)" fill="#12263f"/>
      <path id="Path_135043" data-name="Path 135043" d="M-3230.114,895.563l-2.853-.468a.134.134,0,0,1-.106-.154h0a.128.128,0,0,1,.145-.113l2.853.468a.137.137,0,0,1,.107.155h0A.13.13,0,0,1-3230.114,895.563Z" transform="translate(3236.957 -892.031)" fill="#12263f"/>
      <path id="Path_135044" data-name="Path 135044" d="M-3230.214,896.211l-2.852-.468a.134.134,0,0,1-.106-.154h0a.129.129,0,0,1,.145-.114l2.853.468a.135.135,0,0,1,.106.155h0A.128.128,0,0,1-3230.214,896.211Z" transform="translate(3236.993 -892.244)" fill="#12263f"/>
    </g>
    <g id="Group_92261" data-name="Group 92261" transform="translate(1054.976 298.33)">
      <path id="Path_135045" data-name="Path 135045" d="M-3513.759,942.4s10.772-5.238,18.922-.656,3.168,42.4-8.487,46.064h0S-3528.343,1020.288-3513.759,942.4Z" transform="translate(3542.201 -894.63)" fill="#36256b"/>
      <path id="Path_135046" data-name="Path 135046" d="M-3546.087,944.079c-.531-4.423.5-12.443.5-12.443s-3.659-.2-5.708,4.95c-4.246,10.677-2.4,33.722-2.144,37.021,0,0-1.458,6.552.708,17.883a20.061,20.061,0,0,1-1.009,2.266,1.294,1.294,0,0,0-.106.146h0a1.415,1.415,0,0,0-.018,1.451l1.4,2.375a1.264,1.264,0,0,0,.53.5h0a1.2,1.2,0,0,0,.217.083l1.738.438.172-6.324s-.011,0-.02,0C-3549.223,986.2-3545.6,948.14-3546.087,944.079Zm-4.489,48.8-.036-.052.074.047C-3550.556,992.883-3550.57,992.887-3550.575,992.88Z" transform="translate(3555.455 -891.93)" fill="#ffb27d"/>
      <path id="Path_135047" data-name="Path 135047" d="M-3499.97,1136.408l-1.385,5.338h-11.7S-3516.533,1134.922-3499.97,1136.408Z" transform="translate(3540.359 -959.038)" fill="#36256b"/>
      <path id="Path_135048" data-name="Path 135048" d="M-3539.84,1136.408l-1.385,5.338h-11.7S-3556.4,1134.922-3539.84,1136.408Z" transform="translate(3555.146 -959.038)" fill="#36256b"/>
      <path id="Path_135049" data-name="Path 135049" d="M-3513.482,888.965a11.1,11.1,0,0,0-1.7-8.668c-1.459-2.413-3.507-2.518-5.477-4.561a12.211,12.211,0,0,0-8.059-3.19c-8.8,0-16.423,5.755-14.685,15.515.552,3.1.085,5.543,2.439,9.169,2.936,4.524,6.508,8.155,12.246,8.155a10.57,10.57,0,0,0,8.059-3.12c1.279-1.291,3.112-1.449,4.237-2.854C-3514.146,896.571-3514.316,892.831-3513.482,888.965Z" transform="translate(3551.595 -872.546)" fill="#12263f"/>
      <path id="Path_135050" data-name="Path 135050" d="M-3530.781,911.8s1.931,7.972-1.972,11.362l10.97,5.988,1.444-7.751a40.582,40.582,0,0,1-1.5-14.488Z" transform="translate(3547.553 -883.819)" fill="#ed975d"/>
      <path id="Path_135051" data-name="Path 135051" d="M-3532.713,909.978s11.228,1.461,11.468-6.988-4.44-13.922-7.564-13.859c-6.229.124-7.257,2.813-7.979,5.613S-3537.882,909.383-3532.713,909.978Z" transform="translate(3549.204 -877.987)" fill="#ffb27d"/>
      <path id="Path_135052" data-name="Path 135052" d="M-3548.4,1015.189l22.189,1.959s2.606,41.568-11.974,80.1l-12.432-.253Z" transform="translate(3554.18 -919.341)" fill="#e89b27"/>
      <path id="Path_135053" data-name="Path 135053" d="M-3507.043,1018.743s6.827,28.328,1.291,80.027l-15.061,0-7.224-67.121c-.275-1.988-3.775-4.755-3.775-4.755l-.136-7.67Z" transform="translate(3547.254 -920.507)" fill="#ffb74d"/>
      <path id="Path_135054" data-name="Path 135054" d="M-3515.565,947.117l1.452-12.729c-.22-.329-.4-.61-.617-.892-2.55-3.335-12.356-4.791-14.335-5.026a2.383,2.383,0,0,1-.367.5c-1.8,1.738-4.251,3.589-7.5,3.119-2.771-.376-3.223-1.926-3.135-3.617a29.564,29.564,0,0,0-9.106,2.984c-5.914,2.368-7.1,23.353-7.1,23.353.785-.25,4.71.484,6.531.847l-.733,31.107c14.115,6.576,34.433,2.349,34.433,2.349l-.043-.188-1.363-24.895,1.275-11.368Z" transform="translate(3556.279 -890.892)" fill="#fff"/>
      <path id="Path_135055" data-name="Path 135055" d="M-3506.166,996.768c.96,1.283,5.691,1.735,8.532.8l-1.385-24.86,1.9-16.91-1.84-.913s-8.079,6.922-7.135,12.44S-3507.4,995.118-3506.166,996.768Z" transform="translate(3537.833 -899.56)" fill="#e6e6e6"/>
      <path id="Path_135056" data-name="Path 135056" d="M-3491.208,948.385a68.139,68.139,0,0,0-8.926,4.274,4.183,4.183,0,0,0-1.1.893l-8.531-18.131-1.628-3.429-1.5-3.241-.131-.282s.118.009.352.047a47.317,47.317,0,0,1,5.277.939,32.2,32.2,0,0,1,4.574,1.41h.043a10.211,10.211,0,0,1,4.09,2.63c.22.282.4.564.616.892C-3495.209,938.756-3491.208,948.385-3491.208,948.385Z" transform="translate(3540.233 -890.892)" fill="#fff"/>
      <path id="Path_135057" data-name="Path 135057" d="M-3503.253,982.546s-30.388-34.712-10.995-50.072a20.3,20.3,0,0,1,4-2.537,32.139,32.139,0,0,1,4.574,1.41,14.509,14.509,0,0,0-6.948,4.556c-4.7,5.589-5.757,17.612,10.25,42.366Z" transform="translate(3543.088 -891.373)" fill="#36256b"/>
      <path id="Path_135058" data-name="Path 135058" d="M-3528.279,887.427s9.6-.006,7.391,7.03c-1.39,4.435,3.231,5.124,3.231,5.124l2.224-7.108-1.393-5.538-6.239-3.239Z" transform="translate(3545.894 -876.204)" fill="#12263f"/>
      <path id="Path_135059" data-name="Path 135059" d="M-3494.663,958.207c-2.966.978-7.444,3.107-8.807,4.538,1.508,3.7,2.356,6.154,2.356,6.154-1.134-.539-7-1.047-10.035-1.279-.345-.027-3.124-1-3.124-1a5.574,5.574,0,0,0-5.451-5.469s-2.261.014-1.8,1.662.513.933,1.117,3.275,2.182,4.123,3.861,4.229c8.058,7.237,19.154,7.3,22.5,7.13a1.36,1.36,0,0,0,1.241-1.1C-3491.532,970.47-3492.4,964.37-3494.663,958.207Z" transform="translate(3543.41 -900.648)" fill="#ffb27d"/>
    </g>
    <g id="Group_92250" data-name="Group 92250" transform="translate(1246.649 166.735)">
      <path id="Path_134999" data-name="Path 134999" d="M-3238.959,990.287V678.068q-6.312-.8-12.635-1.364V990.287Z" transform="translate(3251.594 -676.704)" fill="#e8e8e8"/>
    </g>
    <g id="Group_92253" data-name="Group 92253" transform="translate(1201.978 251.331)">
      <path id="Path_135004" data-name="Path 135004" d="M-3253.308,805.089a10.871,10.871,0,0,1,12.781-.687c6.9,4.419,1.319,21.822-2.927,22.8s-15.1-16.313-15.1-16.313S-3258.24,809.36-3253.308,805.089Z" transform="translate(3298.845 -802.602)" fill="#12263f"/>
      <path id="Path_135005" data-name="Path 135005" d="M-3312.652,941.754s-2.833-1.006-4.2-.7-5.614,2.419-5.709,2.872a1.778,1.778,0,0,0,0,.78h9.91s2.215-.46,2.593-1.854S-3312.652,941.754-3312.652,941.754Z" transform="translate(3322.604 -848.002)" fill="#ffb27d"/>
      <path id="Path_135006" data-name="Path 135006" d="M-3261.15,1130.669a2.017,2.017,0,0,1-1.239,1.759.017.017,0,0,1-.011,0c-1.319.618-3.533.478-5.924.134-.307-.044-.582-.079-.829-.1-.065-.007-.13-.013-.193-.017l-.149-.012c-2.381-.167-2.195.616-6.746.592-5.187-.029-6.941-1.9-7.179-2.691-.2-.675,2.071-1.2,4.611-1.8l.37-.089c.338-.079.678-.164,1.017-.245,3.027-.759,6.025-1.717,7.016-4.824,1.052-3.294.8-13.071.8-13.071h9.188s-2.411,10.8-2.159,13.913c.137,1.662.881,2.135,1.168,3.576q.032.151.056.3A10.27,10.27,0,0,1-3261.15,1130.669Z" transform="translate(3308.074 -903.545)" fill="#ffb27d"/>
      <g id="Group_92252" data-name="Group 92252" transform="translate(33.225 86.152)">
        <path id="Path_135007" data-name="Path 135007" d="M-3245.4,966.113c-.775,4.649-1.882,9.454-2.842,14.451-1.544,8.035-2.709,16.57-1.517,25.76a34.114,34.114,0,0,1,.254,3.892c.231,16.244-6.563,45.683-6.563,45.683a11.322,11.322,0,0,1-4.939.687,14.935,14.935,0,0,1-4.036-1.181s-.643-18.251-.682-42.8c-.027-17.792-3.3-41.219-3.959-54.985a187.943,187.943,0,0,1,.469-19.43s13.546-11.634,18.41-5.681C-3246,938.392-3242.5,948.721-3245.4,966.113Z" transform="translate(3269.789 -930.815)" fill="#415da5"/>
      </g>
      <path id="Path_135008" data-name="Path 135008" d="M-3245.1,1020.712a34.068,34.068,0,0,1,.253,3.892c-10.144-15.7-12.387-49.932-12.387-49.932l11.142,5.776s1.222,6.419,2.508,14.5C-3245.129,1002.986-3246.293,1011.521-3245.1,1020.712Z" transform="translate(3298.358 -859.05)" fill="#355493"/>
      <path id="Path_135009" data-name="Path 135009" d="M-3214.564,1130.371a2.017,2.017,0,0,1-1.24,1.759.016.016,0,0,1-.011,0c-1.32.618-3.532.478-5.924.134-.307-.044-.582-.079-.829-.1-.065-.007-.13-.013-.193-.017l-.149-.012c-2.381-.167-2.195.616-6.746.592-5.187-.029-6.941-1.9-7.18-2.691-.2-.675,2.072-1.2,4.611-1.8l.37-.089c.338-.079.678-.164,1.017-.245,3.028-.759,6.025-1.717,7.016-4.824,1.051-3.295-.451-12.921-.451-12.921l8.511-.76s-.528,10.969-.276,14.081c.137,1.662.927,2.576,1.214,4.017q.032.151.057.3A10.361,10.361,0,0,1-3214.564,1130.371Z" transform="translate(3290.796 -903.248)" fill="#ffb27d"/>
      <path id="Path_135010" data-name="Path 135010" d="M-3224.664,1062.6a19.859,19.859,0,0,1-3.763,1.442,16.952,16.952,0,0,1-4.848-.321,251.98,251.98,0,0,0-4.627-30.594,300.686,300.686,0,0,0-13.846-46.87c-1.345-3.393-6.89-19.457-7.831-23.511-2.845-12.248.011-10.929.011-10.929l24.872-3.117s3.064,1.683,4.475,18.978c.422,5.18.474,27.545,1.11,31.784a50.14,50.14,0,0,0,2.135,9.523C-3222.353,1021.095-3224.664,1062.6-3224.664,1062.6Z" transform="translate(3299.695 -850.529)" fill="#415da5"/>
      <path id="Path_135011" data-name="Path 135011" d="M-3214.564,1139.207a2.017,2.017,0,0,1-1.24,1.759.017.017,0,0,1-.011,0c-1.395.532-3.574.417-5.918.118-.307-.039-.583-.068-.834-.088-.065-.007-.13-.013-.193-.016l-.149-.012c-2.381-.167-2.195.616-6.746.592-5.187-.029-6.941-1.9-7.18-2.691-.2-.675,2.072-1.2,4.611-1.8a14.489,14.489,0,0,0,7.837,1.484c3.493-.357,7.06-1.852,9.565-2.224q.032.151.057.3A10.364,10.364,0,0,1-3214.564,1139.207Z" transform="translate(3290.796 -912.083)" fill="#b84c42"/>
      <path id="Path_135012" data-name="Path 135012" d="M-3261.15,1139.207a2.017,2.017,0,0,1-1.239,1.759.019.019,0,0,1-.011,0c-1.395.532-3.574.417-5.918.118-.307-.039-.583-.068-.834-.088-.065-.007-.13-.013-.193-.016l-.149-.012c-2.381-.167-2.195.616-6.746.592-5.187-.029-6.941-1.9-7.179-2.691-.2-.675,2.071-1.2,4.611-1.8a14.493,14.493,0,0,0,7.837,1.484c3.493-.357,7.06-1.852,9.565-2.224q.032.151.056.3A10.271,10.271,0,0,1-3261.15,1139.207Z" transform="translate(3308.074 -912.083)" fill="#b84c42"/>
      <path id="Path_135013" data-name="Path 135013" d="M-3262.331,852.046c.179,0,1.34-.226,3.393-.359a17.323,17.323,0,0,0,.746-3.37,23.586,23.586,0,0,0,.074-4.912c-.051-.561-.1-.886-.1-.886l10.19-3.314c.122,2.877.274,5.126.433,6.887.477,5.166,1.045,6.116,1.218,6.289a78.444,78.444,0,0,1,8.482,1.835s-8.225,40.249-5.431,47.834a84.493,84.493,0,0,1,3.856,14.318l-30.31.4s.423-26.039-.974-35.254S-3262.331,852.046-3262.331,852.046Z" transform="translate(3303.424 -814.609)" fill="#ffb27d"/>
      <path id="Path_135014" data-name="Path 135014" d="M-3250.722,848.317c7.7-.179,10.162-9.112,10.162-9.112l-10.19,3.314s.052.325.1.886A23.6,23.6,0,0,1-3250.722,848.317Z" transform="translate(3295.952 -814.609)" fill="#e8945b"/>
      <path id="Path_135015" data-name="Path 135015" d="M-3240.919,903.21c.443,5.327,5.1,17.5,4.1,20.1-1.057,2.723-2.525,4.1-5.736,4.891a55.788,55.788,0,0,1-9.56,1.036c-9.132.484-18.917-.741-20.249-5.378-.638-2.225-.392-10.836-.054-14.811.7-8.227-.767-20.031-.981-27.669-.177-6.371,3.421-20.869,3.421-20.869s1.623-1.095,6.717-2.19c0,0,.536,7.531,4.215,8.18,6.362,1.121,11.488-5.1,12.986-7.61,0,0,7.306,1.97,9.451,4.581,2.031,2.472-.747,20.789-1.366,22.545-.534,1.508-1.038,2.979-1.477,4.458A33.1,33.1,0,0,0-3240.919,903.21Z" transform="translate(3304.357 -820.879)" fill="#fff"/>
      <path id="Path_135016" data-name="Path 135016" d="M-3181.957,941.8s2.833-1,4.2-.7,5.614,2.4,5.709,2.848a1.736,1.736,0,0,1,0,.773h-9.909s-2.215-.456-2.593-1.838S-3181.957,941.8-3181.957,941.8Z" transform="translate(3271.41 -848.018)" fill="#ffb27d"/>
      <path id="Path_135017" data-name="Path 135017" d="M-3256.224,834.737s12.2,2.616,13.6-5.522,3.931-13.281-3.8-15.3-9.783.791-10.871,3.385S-3259.361,833.847-3256.224,834.737Z" transform="translate(3298.767 -806.089)" fill="#ffb27d"/>
      <path id="Path_135018" data-name="Path 135018" d="M-3251.522,838.778s-.326.966-2.622.527c0,0-1.927-.368-1.75-1.452A5.937,5.937,0,0,1-3251.522,838.778Z" transform="translate(3297.865 -814.134)" fill="#fff"/>
      <path id="Path_135019" data-name="Path 135019" d="M-3253.941,904.1a83.13,83.13,0,0,1,6.159-20.107l6.339-14.1c-.262-2.272,2.168-8.524,2.279-10.81,0,0,7.209.267,10.552,3.172,3.781,3.286,6.312,14.145,10.926,33.164,0,0,7.63,13.583,10.06,18.972a4.455,4.455,0,0,1-1.366,1.292,6.9,6.9,0,0,1-2,.752s-13.764-14.351-14.668-16.62c-.391-.979-3.132-5.175-6.049-11.148a.381.381,0,0,1-.005.042c-.54,4.7-1.076,8.768-1.482,10.552-1.274,5.592,7.926,31.4,7.5,32.955-.151.557-3.345.827-7.514.831-7.489.007-18.127-.837-19.944-2.389C-3254.661,929.37-3255.791,916.145-3253.941,904.1Z" transform="translate(3297.492 -821.132)" fill="#8c6df2"/>
      <path id="Path_135020" data-name="Path 135020" d="M-3235.446,859l-8.137,24.961,8.136-8.217-.615-2.555a5.363,5.363,0,0,0,2.628-.345c.76-.523,2.526-13.286,2.526-13.286a10.268,10.268,0,0,0-2.262-.5A19.341,19.341,0,0,0-3235.446,859Z" transform="translate(3293.294 -821.1)" fill="#5038a1"/>
      <path id="Path_135021" data-name="Path 135021" d="M-3297.38,894.973c6.3-15.584,7.144-30.142,10.924-33.457,3.344-2.932,10.553-3.2,10.553-3.2v.005l.014,0-.012.066c-.848,5.2-1.684,7.96-1.461,13.538a84.543,84.543,0,0,0,1.5,11.823s5.777,47.334,4.915,47.414c-6.534.6-15.706-6.445-15.706-6.445,1.982-5.7,1.268-32.577,1.268-32.581l-.087.165c-2.026,3.795-3.649,6.368-3.943,7.112-.9,2.29-14.669,16.766-14.669,16.766a6.847,6.847,0,0,1-1.994-.759c-.089-.056-.174-.112-.256-.169a4.392,4.392,0,0,1-1.11-1.134C-3305.011,908.674-3297.38,894.973-3297.38,894.973Z" transform="translate(3316.979 -820.878)" fill="#8c6df2"/>
      <path id="Path_135022" data-name="Path 135022" d="M-3260.355,858.315s-1.713,19.732.046,25.426c0,0-5.035-8.516-4.092-10.28l1.824-1.285s-3.523-.488-2.862-2.65,3.382-11.068,3.382-11.068a3.372,3.372,0,0,1,.775-.143Z" transform="translate(3301.431 -820.879)" fill="#5038a1"/>
      <path id="Path_135023" data-name="Path 135023" d="M-3230.942,919.5c0,6.019,3.453,21.38,6.624,28.016,4.169,0,7.363-.274,7.514-.831.425-1.559-8.775-27.364-7.5-32.956.407-1.784.943-5.848,1.483-10.552C-3225.642,906.624-3230.942,913.855-3230.942,919.5Z" transform="translate(3288.605 -835.596)" fill="#5038a1"/>
      <path id="Path_135024" data-name="Path 135024" d="M-3305.675,925.894c.081.057.166.114.256.169a6.852,6.852,0,0,0,1.994.758s13.766-14.476,14.669-16.766c.293-.744,1.917-3.317,3.943-7.112.333-2.812,1.134-10.2-.245-11.99-1.679-2.18-5.759,16.148-7.078,18.2C-3293.2,910.814-3302.822,921.048-3305.675,925.894Z" transform="translate(3316.325 -831.527)" fill="#5038a1"/>
      <path id="Path_135025" data-name="Path 135025" d="M-3258.032,809.46c6.017-6.333,9.487-6.119,12.08-4.165,1.658,1.248,4.083,5.554,4.957,6.861,1.724,2.578-2.207,15.027-2.207,15.027a15.256,15.256,0,0,0,.126-3.325c-.367,1.84-.747,3.1-.747,3.1a44.968,44.968,0,0,0-6.454-10.63,21.228,21.228,0,0,1-2.634-3.757c-3.83,1.515-5.935,8.091-5.935,8.091C-3260.233,817.553-3260.625,812.189-3258.032,809.46Z" transform="translate(3299.36 -803.088)" fill="#12263f"/>
    </g>
    <g id="Group_92257" data-name="Group 92257" transform="translate(1136 347.9)">
      <path id="Path_135034" data-name="Path 135034" d="M-3408.505,977.033a3.253,3.253,0,0,1,3.1-2.61h104.334c.072,0,.143-.01.217-.01h100.175a3.521,3.521,0,0,1,3.371,2.637c.07.243,8.1.521,8.1.764v94.734a16.085,16.085,0,0,1-16.116,15.9h-98.69a.244.244,0,0,1-.065-.015h-89.632c-8.185,0-14.883-7.154-14.883-15.9v-94.7A3.606,3.606,0,0,1-3408.505,977.033Z" transform="translate(3420.476 -955.535)" fill="#f1f1f1"/>
      <path id="Path_135035" data-name="Path 135035" d="M-3408.58,985.819V997.1l117.6,17.736,101.774,17.806V985.819c0-.243-2.7-.521-2.762-.764a3.32,3.32,0,0,0-3.12-2.637h-154.383l-40.294,2.637C-3389.858,985.3-3408.58,985.576-3408.58,985.819Z" transform="translate(3420.471 -958.161)" fill="#d2e1f1" opacity="0.32" style="mix-blend-mode: multiply;isolation: isolate"/>
      <path id="Path_135036" data-name="Path 135036" d="M-3421.01,946.318h232.521a6.464,6.464,0,0,1,6.223,6.647v17.24a6.626,6.626,0,0,1-6.378,6.813h-232.2a6.891,6.891,0,0,1-6.634-7.086v-16.7A6.723,6.723,0,0,1-3421.01,946.318Z" transform="translate(3427.482 -946.318)" fill="#ffb74d"/>
    </g>
    <g id="Group_92259" data-name="Group 92259" transform="translate(1244.499 248.457)">
      <path id="Path_135040" data-name="Path 135040" d="M-3255.012,806.244l1.153-6.853s12.3-3.418,17.364,1.986c0,0,1.038,3.68.1,5.923,0,0-11.735-.7-15.448,1.6Z" transform="translate(3255.012 -798.324)" fill="#2b478b"/>
      <path id="Path_135041" data-name="Path 135041" d="M-3250.336,800.621s9.216-.841,12.972,1.115a37.989,37.989,0,0,0-10.541.675,64.794,64.794,0,0,1,11.832,1.261,15.414,15.414,0,0,0-.422-2.3c-5.065-5.4-17.364-1.986-17.364-1.986l-1.153,6.853,3.171,2.651S-3251.8,802.059-3250.336,800.621Z" transform="translate(3255.012 -798.324)" fill="#415da5"/>
    </g>
    <path id="Path_135087" data-name="Path 135087" d="M-3797.47,832.229a157.717,157.717,0,0,0-12.635,13.228v195.851h12.635Z" transform="translate(4705.402 -560.989)" fill="#e8e8e8"/>
    <g id="Group_92270" data-name="Group 92270" transform="translate(895.165 234.804)">
      <g id="Group_92262" data-name="Group 92262" transform="translate(31.658 106.404)">
        <path id="Path_135060" data-name="Path 135060" d="M-3756.788,1115.3s-3.86,3.822-3.107,6.538,4.238,4.526,4.708,7.846,2.354,5.13,4.049,5.13h8.082s1.248-2.336-1.766-3.04-4.149-4.6-3.96-8.226a69.3,69.3,0,0,0-.283-8.45l-6.4-1.609Z" transform="translate(3759.992 -994.467)" fill="#12263f"/>
        <path id="Path_135061" data-name="Path 135061" d="M-3679,1138.659a8.588,8.588,0,0,0,2.379.371h19.544c-.092-.668-.6-2.592-3.466-3.088-3.375-.583-9.224-2.68-10.529-7.29-.041-.15-.079-.3-.111-.455-1.036-4.929-8.57,1.509-8.57,1.509s-.023.2-.055.531C-3679.985,1132.045-3680.432,1137.894-3679,1138.659Z" transform="translate(3730.328 -998.682)" fill="#12263f"/>
        <path id="Path_135062" data-name="Path 135062" d="M-3669.338,947.451s-1.144,15.248-2.488,33.576c-1.829,24.9-4.026,55.482-4.244,61.275-.375,10.06-1.884,26.153-1.884,26.153s-3.577,3.823-10.735,2.212a279.191,279.191,0,0,1-8.2-47.279c-.028-.4-.057-.8-.084-1.2-1.7-24.744-4.331-76.849-4.331-76.849Z" transform="translate(3738.224 -939.304)" fill="#1d3d66"/>
        <path id="Path_135063" data-name="Path 135063" d="M-3669.338,947.451s-1.144,15.248-2.488,33.576l-25.065,42.361c-.028-.4-.057-.8-.084-1.2-1.7-24.744-4.331-76.849-4.331-76.849Z" transform="translate(3738.224 -939.304)" fill="#12263f"/>
        <path id="Path_135064" data-name="Path 135064" d="M-3694.441,946.315s-20.623,55.222-34.184,81.173-17.8,33.193-17.8,33.193-7.769-3.319-8.476-5.582c0,0,5.186-50.1,14.267-62.313,5.132-6.9,11.159-27.611,11.442-34.853s1.836-21.576,1.836-21.576Z" transform="translate(3758.103 -936.357)" fill="#234b7d"/>
      </g>
      <path id="Path_135065" data-name="Path 135065" d="M-3596.977,939.8s7.277,3.731,8.258,4.689,3.4,5.659,3.212,6.013-.547.464-1.207-.023-2.51-2.524-2.58-2.146,4.941,6.674,4.056,8.006-5.907.939-8.775-1.24-5.729-10.185-6.16-10.621C-3603.83,940.772-3596.977,939.8-3596.977,939.8Z" transform="translate(3732.769 -831.084)" fill="#ffb27d"/>
      <path id="Path_135066" data-name="Path 135066" d="M-3619.817,909.636c2.02-1.877,2.073-2.353,2.073-2.353s-12.9-23.835-14.023-26.128-8.035-38.09-8.035-38.09l-23.911-7.4s16.842,46.517,19.784,52.266c4.86,9.5,20.728,23.482,20.728,23.482A7.249,7.249,0,0,0-3619.817,909.636Z" transform="translate(3755.938 -796.919)" fill="#fff"/>
      <path id="Path_135067" data-name="Path 135067" d="M-3644.352,815.978s8.415,15.813,16.639,17.878c0,0-.342-5.311-2.345-8.946.82-1.033,1.541-1.982,2.163-2.832a53.086,53.086,0,0,0,3.055-4.568l-2.79-8.015-1.9-5.439a26.217,26.217,0,0,1-2.96,4.554C-3637.875,815.231-3644.352,815.978-3644.352,815.978Z" transform="translate(3748.757 -786.551)" fill="#ffb27d"/>
      <path id="Path_135068" data-name="Path 135068" d="M-3625.528,810.833s-1,7.925,4.591,13.468a53.06,53.06,0,0,0,3.054-4.568l-2.791-8.015A15,15,0,0,0-3625.528,810.833Z" transform="translate(3741.801 -788.774)" fill="#ed975d"/>
      <path id="Path_135069" data-name="Path 135069" d="M-3615.654,813.171s-12.573-5.235-9.4-13.548,3.688-14.587,11.849-11.6,8.5,6.838,8.073,9.888S-3612.3,814.319-3615.654,813.171Z" transform="translate(3741.79 -781.044)" fill="#ffb27d"/>
      <path id="Path_135070" data-name="Path 135070" d="M-3713.65,901.872c5.071,7.787,42.993,18.193,42.539,12.8a62.787,62.787,0,0,1,.005-10.632q.144-1.734.4-3.673a88.886,88.886,0,0,1,8.357-26.739q.574-1.185,1.194-2.393a84.59,84.59,0,0,0,5.256-12.616c2.628-8.11,3.691-15.87,2.361-20.941a.267.267,0,0,0-.02-.07c-7.924-3.915-11-19.1-11-19.1s-27.042,5.185-42.192,43.684c0,0-1.455,4.227-3.116,9.965-2.02,6.959-4.344,16.134-4.748,22.679C-3714.8,897.952-3714.561,900.468-3713.65,901.872Z" transform="translate(3774.839 -791.295)" fill="#fff"/>
      <path id="Path_135071" data-name="Path 135071" d="M-3628.632,781.142c-.088-.186-.343-.384-.968-.589a2.458,2.458,0,0,1,1.265-.05c.353-.92,1.211-2.487,2.82-2.5a2.021,2.021,0,0,0-1.263,1.244c2.205-1.493,6.293-1.926,16.5,1.7,13.449,4.785,6.73,13.124,4.692,13.792s-5.791-3.622-9.166-4.208-5.2,4.436-6.487,4.852-.556-.726-1.9-1.87-2.121,1.547-2.092,3.438-2.6,3.683-2.6,3.683l-1.542-3.018c-1.541-3.019-1.122-13.979.351-15.951C-3628.894,781.5-3628.764,781.32-3628.632,781.142Z" transform="translate(3743.563 -778.005)" fill="#12263f"/>
      <path id="Path_135072" data-name="Path 135072" d="M-3714.569,906.687c32.631-10.514,37.822-52.068,37.822-52.068s-18.579,15.166-33.073,29.389C-3711.84,890.968-3714.166,900.143-3714.569,906.687Z" transform="translate(3774.802 -803.139)" fill="#e6e6e6"/>
      <g id="Group_92268" data-name="Group 92268" transform="translate(0 113.044)">
        <path id="Path_135073" data-name="Path 135073" d="M-3737.169,1134.1a4.761,4.761,0,0,1-2.284,6.09,4.245,4.245,0,0,1-5.7-2.44,4.763,4.763,0,0,1,2.284-6.09A4.244,4.244,0,0,1-3737.169,1134.1Z" transform="translate(3786.277 -1006.945)" fill="#cf943e"/>
        <path id="Path_135074" data-name="Path 135074" d="M-3735.945,1134.1a4.763,4.763,0,0,1-2.284,6.09,4.245,4.245,0,0,1-5.7-2.44,4.762,4.762,0,0,1,2.285-6.09A4.245,4.245,0,0,1-3735.945,1134.1Z" transform="translate(3785.823 -1006.945)" fill="#ffdc72"/>
        <path id="Path_135075" data-name="Path 135075" d="M-3776.538,1134.1a4.763,4.763,0,0,1-2.284,6.09,4.245,4.245,0,0,1-5.7-2.44,4.761,4.761,0,0,1,2.284-6.09A4.245,4.245,0,0,1-3776.538,1134.1Z" transform="translate(3800.879 -1006.945)" fill="#cf943e"/>
        <path id="Path_135076" data-name="Path 135076" d="M-3775.315,1134.1a4.761,4.761,0,0,1-2.284,6.09,4.245,4.245,0,0,1-5.7-2.44,4.762,4.762,0,0,1,2.285-6.09A4.244,4.244,0,0,1-3775.315,1134.1Z" transform="translate(3800.425 -1006.945)" fill="#ffdc72"/>
        <g id="Group_92263" data-name="Group 92263" transform="translate(26.054)">
          <path id="Path_135077" data-name="Path 135077" d="M-3742.431,996.552l-1.835-.4c2.482-13.064,7.133-38.69,6.965-42.174-.106-2.2-.736-3.782-1.873-4.714a5.8,5.8,0,0,0-4.477-.911l-.1.017-7.479.839c-8.855.238-9.55,8.06-9.575,8.393l-.012.1-6.24,36.56-1.843-.359,6.233-36.516a12.426,12.426,0,0,1,1.69-4.966c1.387-2.292,4.189-5.054,9.662-5.213l7.323-.825a7.489,7.489,0,0,1,5.944,1.279c1.6,1.3,2.482,3.393,2.617,6.209C-3735.21,958.483-3742.136,995-3742.431,996.552Z" transform="translate(3768.9 -946.239)" fill="#cf943e"/>
        </g>
        <path id="Path_135078" data-name="Path 135078" d="M-3738.458,1015.846l-18.911-4.038-3.7,79.224-34.987,3.3,6.176,2.369a5.28,5.28,0,0,0,1.947.351l33.318-.364q.867.009,1.671-.018h.056c13.035-.474,13.667-8.064,13.667-8.064s4.22-50.962,5.183-60.044C-3732.943,1018.242-3738.458,1015.846-3738.458,1015.846Z" transform="translate(3805.026 -967.749)" fill="#cf943e"/>
        <path id="Path_135079" data-name="Path 135079" d="M-3752.174,1025.776l-5.086,57.072a13.4,13.4,0,0,1-2.152,6.21,11.863,11.863,0,0,1-9.793,5.464l-17.539.116-.434,0-10.985.073a11.393,11.393,0,0,1-3.182-.429c-.238-.066-.471-.141-.7-.222a12.615,12.615,0,0,1-7.812-8.718,13.685,13.685,0,0,1-.311-5.511l7.965-54.606a12.449,12.449,0,0,1,10.782-10.852l3.1-.317.739-.075h0l.621-.063,10.355-1.058,1.271-.129,9.993-1.019a11.342,11.342,0,0,1,4.5.442c.092.028.185.057.277.09l.578.211A12.975,12.975,0,0,1-3752.174,1025.776Z" transform="translate(3810.315 -967.7)" fill="#ffdc72"/>
        <path id="Path_135080" data-name="Path 135080" d="M-3759.4,1123.636a11.864,11.864,0,0,1-9.793,5.464l-17.539.116-.434,0-10.984.073a11.393,11.393,0,0,1-3.183-.429c-.238-.066-.47-.141-.7-.222-3.8-1.347-8.186-6.264-8.248-11.48,0,0,37.1-.518,44.857.761C-3761.424,1118.582-3760.227,1121.57-3759.4,1123.636Z" transform="translate(3810.302 -1002.277)" fill="#ffb74d" opacity="0.5"/>
        <g id="Group_92267" data-name="Group 92267" transform="translate(4.86 44.458)">
          <g id="Group_92264" data-name="Group 92264" transform="translate(0 1.765)">
            <path id="Path_135081" data-name="Path 135081" d="M-3784.1,1015.028c-.077.051-8.212,5.345-9.281,10-1.1,4.781-8.444,60.5-8.518,61.067a13.409,13.409,0,0,0,3.974,9.442l-.558-.142c-.237-.067-.47-.141-.7-.222a12.1,12.1,0,0,1-3.371-9.173c.3-2.3,7.425-56.324,8.53-61.139.97-4.218,6.706-8.424,8.564-9.692l.738-.074h0Z" transform="translate(3802.589 -1015.028)" fill="#cf943e"/>
          </g>
          <g id="Group_92265" data-name="Group 92265" transform="translate(17.122 0.578)">
            <path id="Path_135082" data-name="Path 135082" d="M-3762.375,1013.262a16.983,16.983,0,0,0-6.591,11.166c-1.118,7.852-5.484,64.882-5.528,65.456l0,.042-.012.038c-.008.029-.631,3.107,1.165,5.2l-.44,0-.434,0a6.455,6.455,0,0,1-.934-5.38c.136-1.763,4.423-57.677,5.532-65.465a17.808,17.808,0,0,1,5.973-10.933Z" transform="translate(3775.372 -1013.262)" fill="#cf943e"/>
          </g>
          <g id="Group_92266" data-name="Group 92266" transform="translate(33.371)">
            <path id="Path_135083" data-name="Path 135083" d="M-3737.448,1012.7a13.906,13.906,0,0,0-3.181,2.806,16.592,16.592,0,0,0-3.583,8.318c-1.118,7.847-4.58,64.688-4.615,65.26v.045l-.013.04c-.008.029-.161,3.506,1.636,5.6l-1.1.007c-1.373-1.91-1.288-5.366-1.174-5.776.111-1.818,3.509-57.492,4.618-65.281a16.18,16.18,0,0,1,6.563-11.319c.093.028.186.057.278.09Z" transform="translate(3749.543 -1012.402)" fill="#cf943e"/>
          </g>
        </g>
      </g>
      <g id="Group_92269" data-name="Group 92269" transform="translate(43.196 102.888)">
        <path id="Path_135084" data-name="Path 135084" d="M-3733.561,933.15s-3.422-4.358-4.168-.288c-.087.48-3.777,5.775-3.918,8.666s3.324,4.285,4.5,4.349c.943.052,1.177-1.534,1.367-2.223h0a3.009,3.009,0,0,1,2.537-2.322l.129-.015c.05-.193.088-.363.111-.5A76.221,76.221,0,0,0-3733.561,933.15Z" transform="translate(3741.651 -931.125)" fill="#ffb27d"/>
        <path id="Path_135085" data-name="Path 135085" d="M-3732.167,949.645a3.319,3.319,0,0,0-.19.874c-.024.66.864.622,1.156.6a4.709,4.709,0,0,0,.839-1.681Z" transform="translate(3738.204 -937.134)" fill="#ffb27d"/>
      </g>
      <path id="Path_135086" data-name="Path 135086" d="M-3733.785,901.375c2.589,1.267,3.55-.026,3.55-.026s15.08-26.9,16.667-29.059,29.426-14.923,29.426-14.923,11.329-4.626,11.776-11.966c.39-6.378-3-10.3-6.713-12.661a11.886,11.886,0,0,0-14.091.972c-9.132,7.575-27.234,22.811-30.147,26.943-6.484,9.2-13.671,38.021-13.671,38.021A9.139,9.139,0,0,0-3733.785,901.375Z" transform="translate(3783.117 -795.35)" fill="#fff"/>
    </g>
  </g>
</svg>
