<svg xmlns="http://www.w3.org/2000/svg" width="52.924" height="79" viewBox="0 0 52.924 79">
  <g id="t2-ic7" transform="translate(-84.631)">
    <g id="Group_92375" data-name="Group 92375" transform="translate(85.786 1.155)">
      <g id="Group_92365" data-name="Group 92365" transform="translate(15.352)">
        <path id="Path_135638" data-name="Path 135638" d="M211.69,10.627A3.127,3.127,0,0,0,208.563,7.5H194.907a3.127,3.127,0,0,0-3.127,3.127V25.476h4.93V13.264a.835.835,0,0,1,.835-.835h8.381a.835.835,0,0,1,.835.835V25.676h4.93Z" transform="translate(-191.78 -7.5)" fill="#ffb74d"/>
      </g>
      <path id="Path_135639" data-name="Path 135639" d="M141.6,459.665h-3.108a1.788,1.788,0,0,1-1.788-1.788v-6.523h6.683v6.523A1.787,1.787,0,0,1,141.6,459.665Z" transform="translate(-129.834 -382.977)" fill="#5038a1"/>
      <path id="Path_135640" data-name="Path 135640" d="M335.506,454.59h3.108A1.788,1.788,0,0,0,340.4,452.8v-7.447h-6.683V452.8A1.787,1.787,0,0,0,335.506,454.59Z" transform="translate(-296.501 -377.901)" fill="#5038a1"/>
      <path id="Path_135641" data-name="Path 135641" d="M139.48,128.371l3.263-8.16V84.93l-1.874-2.747-1.907-6.634L130.3,72.127H104.576s-5.32,3.246-5.58,3.3-4.462,4.143-4.462,4.143v3.91l-2.4,1.446v35.28l2.895,6.23s4.3,4.466,4.424,4.466,5.128,2.107,5.128,2.107H130.3l3.423-2.7Z" transform="translate(-92.13 -62.171)" fill="#c6b5ff"/>
      <g id="Group_92374" data-name="Group 92374" transform="translate(0 9.956)">
        <g id="Group_92369" data-name="Group 92369">
          <g id="XMLID_163_">
            <g id="Group_92366" data-name="Group 92366">
              <path id="Path_135642" data-name="Path 135642" d="M352.326,78.993v5.937h-3.218A2.327,2.327,0,0,1,346.78,82.6v-3.61a1.321,1.321,0,0,0-1.32-1.32h-3.252a2.326,2.326,0,0,1-2.328-2.326v-3.22h5.58A6.867,6.867,0,0,1,352.326,78.993Z" transform="translate(-301.713 -72.127)" fill="#ffdc72"/>
              <path id="Path_135643" data-name="Path 135643" d="M139.525,117.9a4.639,4.639,0,0,0-4.639,4.639v.357a2.262,2.262,0,0,1-2.262,2.262,4.633,4.633,0,0,0-3.669,1.8A2.685,2.685,0,0,1,126.831,128H109.2a6.866,6.866,0,0,1-6.866-6.866V81.738a2.105,2.105,0,0,1,1.4-2,4.644,4.644,0,0,0,3.147-4.39v-3.22h-2.311l-1.108,2.12h-3.51l-4.326,4.282-3.5,6.4v35.28l2.576,7.315,6.6,3.96,3.269,1.529H130.3l4.244-2.81,6.351-4.217.61-4.369,1.242-1.407V117.9Z" transform="translate(-92.13 -72.126)" fill="#8c6df2"/>
              <path id="Path_135644" data-name="Path 135644" d="M104.576,72.127v3.22a2.326,2.326,0,0,1-2.328,2.326H99a1.321,1.321,0,0,0-1.32,1.32V82.6a2.327,2.327,0,0,1-2.328,2.328H92.13V78.993A6.867,6.867,0,0,1,99,72.127Z" transform="translate(-92.13 -72.127)" fill="#ffdc72"/>
            </g>
          </g>
          <g id="XMLID_164_" transform="translate(0 48.084)">
            <g id="Group_92368" data-name="Group 92368">
              <g id="Group_92367" data-name="Group 92367">
                <path id="Path_135645" data-name="Path 135645" d="M352.326,384.247v5.937a6.867,6.867,0,0,1-6.866,6.866h-5.58v-3.218a2.327,2.327,0,0,1,2.328-2.328h3.252a1.321,1.321,0,0,0,1.32-1.32v-3.61a2.328,2.328,0,0,1,2.328-2.328Z" transform="translate(-301.713 -384.247)" fill="#ffdc72"/>
                <path id="Path_135646" data-name="Path 135646" d="M104.576,393.832v3.218H99a6.867,6.867,0,0,1-6.866-6.866v-5.937h3.218a2.328,2.328,0,0,1,2.328,2.328v3.61A1.321,1.321,0,0,0,99,391.5h3.252A2.327,2.327,0,0,1,104.576,393.832Z" transform="translate(-92.13 -384.247)" fill="#ffdc72"/>
              </g>
            </g>
          </g>
        </g>
        <g id="Group_92370" data-name="Group 92370" transform="translate(17.66 12.007)">
          <path id="Path_135647" data-name="Path 135647" d="M210.5,186.679h-2.859a.89.89,0,0,1-.881-.9V150.961a.889.889,0,0,1,.881-.9H210.5a.89.89,0,0,1,.881.9v34.821A.89.89,0,0,1,210.5,186.679Z" transform="translate(-206.761 -150.063)" fill="#5038a1"/>
        </g>
        <g id="Group_92371" data-name="Group 92371" transform="translate(6.866 16.805)">
          <path id="Path_135648" data-name="Path 135648" d="M140.441,208.23h-2.859a.89.89,0,0,1-.881-.9V182.109a.889.889,0,0,1,.881-.9h2.859a.89.89,0,0,1,.881.9v25.224A.89.89,0,0,1,140.441,208.23Z" transform="translate(-136.701 -181.211)" fill="#5038a1"/>
        </g>
        <g id="Group_92372" data-name="Group 92372" transform="translate(28.486 12.007)">
          <path id="Path_135649" data-name="Path 135649" d="M277.92,186.679h2.859a.89.89,0,0,0,.881-.9V150.961a.889.889,0,0,0-.881-.9H277.92a.89.89,0,0,0-.881.9v34.821A.89.89,0,0,0,277.92,186.679Z" transform="translate(-277.039 -150.063)" fill="#5038a1"/>
        </g>
        <g id="Group_92373" data-name="Group 92373" transform="translate(39.279 16.805)">
          <path id="Path_135650" data-name="Path 135650" d="M347.98,208.23h2.859a.89.89,0,0,0,.881-.9V182.109a.889.889,0,0,0-.881-.9H347.98a.89.89,0,0,0-.881.9v25.224A.89.89,0,0,0,347.98,208.23Z" transform="translate(-347.099 -181.211)" fill="#8c6df2"/>
        </g>
      </g>
    </g>
    <g id="Group_92376" data-name="Group 92376" transform="translate(84.631 0)">
      <path id="Path_135651" data-name="Path 135651" d="M136.4,213.442a1.155,1.155,0,0,0-1.155,1.155v24h-2.063a3.487,3.487,0,0,0-3.483,3.483v3.609a.165.165,0,0,1-.165.165h-3.252a3.487,3.487,0,0,0-3.483,3.483V251.4H99.388V249.34a3.487,3.487,0,0,0-3.483-3.483H92.653a.165.165,0,0,1-.165-.165v-3.609A3.487,3.487,0,0,0,89,238.6H86.942v-4.349a1.155,1.155,0,1,0-2.311,0v11.441A8.033,8.033,0,0,0,91.5,253.63v2.987a2.946,2.946,0,0,0,2.943,2.943h3.108a2.946,2.946,0,0,0,2.943-2.943v-2.9h21.358v2.9a2.946,2.946,0,0,0,2.943,2.943H127.9a2.946,2.946,0,0,0,2.943-2.943v-3.011a8.033,8.033,0,0,0,6.712-7.913V214.6a1.156,1.156,0,0,0-1.156-1.155ZM86.942,245.693v-4.781H89a1.173,1.173,0,0,1,1.172,1.172v3.609a2.478,2.478,0,0,0,2.476,2.476h3.253a1.173,1.173,0,0,1,1.172,1.172V251.4H92.653a5.717,5.717,0,0,1-5.711-5.711ZM98.18,256.617a.633.633,0,0,1-.632.632H94.44a.633.633,0,0,1-.632-.632v-2.9H98.18v2.9Zm29.72.632h-3.108a.633.633,0,0,1-.632-.632v-2.9h4.372v2.9a.633.633,0,0,1-.632.632Zm1.633-5.846h-4.425V249.34a1.173,1.173,0,0,1,1.172-1.172h3.252a2.478,2.478,0,0,0,2.476-2.476v-3.609a1.173,1.173,0,0,1,1.172-1.172h2.063v4.781a5.717,5.717,0,0,1-5.711,5.711Z" transform="translate(-84.631 -180.56)"/>
      <path id="Path_135652" data-name="Path 135652" d="M129.533,9.957H122.2V4.282A4.287,4.287,0,0,0,117.921,0H111.37a1.155,1.155,0,0,0,0,2.311h6.552a1.973,1.973,0,0,1,1.971,1.971V9.957h-2.619V6.085a1.155,1.155,0,0,0-1.155-1.155H106.068a1.155,1.155,0,0,0-1.155,1.155V9.957h-2.619V4.282a1.973,1.973,0,0,1,1.971-1.971h2.181a1.155,1.155,0,0,0,0-2.311h-2.181a4.287,4.287,0,0,0-4.282,4.282V9.957h-7.33a8.031,8.031,0,0,0-8.022,8.022V48.767a1.155,1.155,0,0,0,2.311,0V25.07H89a3.487,3.487,0,0,0,3.483-3.483V17.978a.165.165,0,0,1,.165-.165h3.253a3.487,3.487,0,0,0,3.483-3.483V12.267H122.8v2.063a3.487,3.487,0,0,0,3.483,3.483h3.252a.165.165,0,0,1,.165.165v3.609a3.487,3.487,0,0,0,3.483,3.483h2.063v4.043a1.155,1.155,0,1,0,2.311,0V17.978A8.031,8.031,0,0,0,129.533,9.957Zm-22.31-2.716h7.74V9.957h-7.74Zm-10.146,7.09A1.173,1.173,0,0,1,95.905,15.5H92.653a2.478,2.478,0,0,0-2.476,2.476v3.609A1.173,1.173,0,0,1,89,22.76H86.942V17.978a5.717,5.717,0,0,1,5.711-5.711h4.425Zm36.1,8.429a1.173,1.173,0,0,1-1.172-1.172V17.978a2.478,2.478,0,0,0-2.476-2.476h-3.252a1.173,1.173,0,0,1-1.172-1.172V12.267h4.425a5.717,5.717,0,0,1,5.711,5.711V22.76Z" transform="translate(-84.631 0)"/>
      <path id="Path_135653" data-name="Path 135653" d="M204.156,181.489a2.047,2.047,0,0,0,2.037-2.053V144.615a2.047,2.047,0,0,0-2.037-2.053H201.3a2.047,2.047,0,0,0-2.037,2.053v34.821a2.047,2.047,0,0,0,2.037,2.053Zm-2.585-36.616h2.311v34.306h-2.311Z" transform="translate(-181.601 -120.599)"/>
      <path id="Path_135654" data-name="Path 135654" d="M134.1,203.041a2.047,2.047,0,0,0,2.037-2.053V175.764a2.047,2.047,0,0,0-2.037-2.053h-2.859a2.047,2.047,0,0,0-2.037,2.053v25.224a2.047,2.047,0,0,0,2.037,2.053Zm-2.585-27.019h2.311V200.73h-2.311Z" transform="translate(-122.335 -146.95)"/>
      <path id="Path_135655" data-name="Path 135655" d="M274.434,181.489a2.047,2.047,0,0,0,2.037-2.053V144.615a2.047,2.047,0,0,0-2.037-2.053h-2.859a2.047,2.047,0,0,0-2.037,2.053v34.821a2.047,2.047,0,0,0,2.037,2.053Zm-2.585-36.616h2.311v34.306h-2.311Z" transform="translate(-241.052 -120.599)"/>
      <path id="Path_135656" data-name="Path 135656" d="M344.495,203.041a2.047,2.047,0,0,0,2.037-2.053V175.764a2.047,2.047,0,0,0-2.037-2.053h-2.859a2.047,2.047,0,0,0-2.037,2.053v25.224a2.047,2.047,0,0,0,2.037,2.053Zm-2.585-27.019h2.311V200.73H341.91Z" transform="translate(-300.32 -146.95)"/>
    </g>
  </g>
</svg>
