<svg xmlns="http://www.w3.org/2000/svg" width="91.616" height="92.948" viewBox="0 0 91.616 92.948">
  <g id="t1-icx" transform="translate(-3.669)">
    <g id="Group_92076" data-name="Group 92076" transform="translate(5.03 75.805)">
      <path id="Path_134296" data-name="Path 134296" d="M26.526,425.926H17.707a6.365,6.365,0,0,1-6.358-6.357h-.182v6.119a6.539,6.539,0,0,0,6.539,6.539h8.819v-6.3Z" transform="translate(-11.168 -419.204)" fill="#5038a1"/>
      <path id="Path_134297" data-name="Path 134297" d="M187.208,417.566v6.358a.363.363,0,0,1-.363.363H147.316v6.3h44.925a.908.908,0,0,0,.908-.908V417.565Z" transform="translate(-122.6 -417.565)" fill="#5038a1"/>
    </g>
    <g id="Group_92077" data-name="Group 92077" transform="translate(5.031 76.169)">
      <path id="Path_134298" data-name="Path 134298" d="M17.325,426.1a6.539,6.539,0,0,1-6.156-6.527v6.119a6.539,6.539,0,0,0,6.539,6.539H23.85a6.538,6.538,0,0,1-6.525-6.131Z" transform="translate(-11.169 -419.574)" fill="#2e205c"/>
    </g>
    <g id="Group_92079" data-name="Group 92079" transform="translate(5.031 12.136)">
      <path id="Path_134299" data-name="Path 134299" d="M391.254,66.848H373.817v56.587a.908.908,0,0,1-.908.908h-4.851v6.174h23.2a.908.908,0,0,0,.908-.908V67.756a.908.908,0,0,0-.908-.908Z" transform="translate(-303.269 -66.848)" fill="#dee4f0"/>
      <g id="Group_92078" data-name="Group 92078" transform="translate(64.789 0)">
        <path id="Path_134300" data-name="Path 134300" d="M399.781,66.848v.12a.9.9,0,0,1,.443-.12Z" transform="translate(-394.022 -66.848)" fill="#c8effe"/>
        <path id="Path_134301" data-name="Path 134301" d="M373.352,388.281V382.9a.9.9,0,0,1-.443.12h-4.851v6.174h6.2A.908.908,0,0,1,373.352,388.281Z" transform="translate(-368.058 -325.52)" fill="#c8effe"/>
      </g>
      <path id="Path_134302" data-name="Path 134302" d="M17.708,383.554a6.539,6.539,0,1,0,0,13.078h8.819v-6.9h9.358v6.9H75.414a.545.545,0,0,0,.545-.545V383.554H17.708Z" transform="translate(-11.169 -326.059)" fill="#fff"/>
    </g>
    <path id="Path_134303" data-name="Path 134303" d="M26.526,389.729h1.687a6.539,6.539,0,0,1,6.528-6.174H17.708a6.539,6.539,0,1,0,0,13.078h8.819Z" transform="translate(-6.138 -313.925)" fill="#f2fbff"/>
    <path id="Path_134304" data-name="Path 134304" d="M26.527,396.625a6.538,6.538,0,0,1,.3-13.07H17.709a6.539,6.539,0,1,0,0,13.078h8.819v-.008Z" transform="translate(-6.139 -313.925)" fill="#ffb74d"/>
    <g id="Group_92080" data-name="Group 92080" transform="translate(20.388 75.805)">
      <path id="Path_134305" data-name="Path 134305" d="M105.124,432.833V417.566H95.765v15.267a.514.514,0,0,0,.807.423l3.873-2.68,3.873,2.68A.514.514,0,0,0,105.124,432.833Z" transform="translate(-95.765 -417.566)" fill="#ffb74d"/>
    </g>
    <g id="Group_92082" data-name="Group 92082" transform="translate(20.388 75.805)" style="mix-blend-mode: multiply;isolation: isolate">
      <g id="Group_92081" data-name="Group 92081">
        <path id="Path_134306" data-name="Path 134306" d="M99.8,417.566H95.765v15.267a.514.514,0,0,0,.807.423l3.23-2.235Z" transform="translate(-95.765 -417.566)" fill="#ffb74d"/>
      </g>
    </g>
    <g id="Group_92083" data-name="Group 92083" transform="translate(5.031 1.362)">
      <path id="Path_134307" data-name="Path 134307" d="M17.709,7.5a6.539,6.539,0,0,0-6.539,6.539V82.308a6.539,6.539,0,0,1,6.539-6.539h63.1a.908.908,0,0,0,.908-.908V8.408a.908.908,0,0,0-.908-.908Z" transform="translate(-11.17 -7.5)" fill="#5038a1"/>
    </g>
    <g id="Group_92084" data-name="Group 92084" transform="translate(5.031 1.362)">
      <path id="Path_134308" data-name="Path 134308" d="M17.709,75.769h6.9V7.5h-6.9a6.539,6.539,0,0,0-6.539,6.539V82.308A6.539,6.539,0,0,1,17.709,75.769Z" transform="translate(-11.17 -7.5)" fill="#8c6df2"/>
    </g>
    <g id="Group_92085" data-name="Group 92085" transform="translate(5.031 1.362)">
      <path id="Path_134309" data-name="Path 134309" d="M15.855,14.039A6.539,6.539,0,0,1,22.393,7.5H17.708a6.539,6.539,0,0,0-6.539,6.539V82.308a6.54,6.54,0,0,1,4.686-6.271Z" transform="translate(-11.169 -7.5)" fill="#5038a1"/>
    </g>
    <g id="Group_92086" data-name="Group 92086" transform="translate(24.467 7.361)">
      <path id="Path_134310" data-name="Path 134310" d="M118.236,96.271V41.09a.545.545,0,0,1,.545-.545H162.8a.545.545,0,0,1,.545.545V96.271a.545.545,0,0,1-.545.545H118.781A.545.545,0,0,1,118.236,96.271Z" transform="translate(-118.236 -40.545)" fill="#af96ff"/>
    </g>
    <g id="Group_92087" data-name="Group 92087" transform="translate(24.467 7.361)">
      <path id="Path_134311" data-name="Path 134311" d="M124.365,96.271V41.09a.545.545,0,0,1,.545-.545h-6.129a.545.545,0,0,0-.545.545V96.271a.545.545,0,0,0,.545.545h6.129A.545.545,0,0,1,124.365,96.271Z" transform="translate(-118.236 -40.545)" fill="#8c6df2"/>
    </g>
    <g id="Group_92088" data-name="Group 92088" transform="translate(36.945 18.079)">
      <path id="Path_134312" data-name="Path 134312" d="M186.97,108.8v-8.67a.545.545,0,0,1,.545-.545h19.067a.545.545,0,0,1,.545.545v8.67a.545.545,0,0,1-.545.545H187.515A.545.545,0,0,1,186.97,108.8Z" transform="translate(-186.97 -99.588)" fill="#ffdc72"/>
    </g>
    <g id="Group_92089" data-name="Group 92089" transform="translate(36.945 18.079)">
      <path id="Path_134313" data-name="Path 134313" d="M193.142,108.8v-8.67a.545.545,0,0,1,.545-.545h-6.172a.545.545,0,0,0-.545.545v8.67a.545.545,0,0,0,.545.545h6.172A.545.545,0,0,1,193.142,108.8Z" transform="translate(-186.97 -99.588)" fill="#ffb74d"/>
    </g>
    <g id="Group_92090" data-name="Group 92090" transform="translate(3.669 0)">
      <path id="Path_134314" data-name="Path 134314" d="M93.923,58.665A1.361,1.361,0,0,0,95.285,57.3V13.043a2.272,2.272,0,0,0-2.269-2.269H76.94v-8.5A2.272,2.272,0,0,0,74.671,0h-63.1a7.909,7.909,0,0,0-7.9,7.9V82.288a7.909,7.909,0,0,0,7.9,7.9h7.457v.883a1.875,1.875,0,0,0,2.943,1.542l3.1-2.144,3.1,2.144a1.876,1.876,0,0,0,2.943-1.542v-.883H74.671A2.272,2.272,0,0,0,76.94,87.92V77.166H93.016A2.272,2.272,0,0,0,95.285,74.9V63.658a1.362,1.362,0,0,0-2.723,0V74.443H71.182V70.992h3.49a2.272,2.272,0,0,0,2.269-2.269V65.128h8.717a1.362,1.362,0,1,0,0-2.723H76.941v-5.2h8.717a1.362,1.362,0,1,0,0-2.723H76.941v-5.2h8.717a1.362,1.362,0,1,0,0-2.723H76.941v-5.2h8.717a1.362,1.362,0,1,0,0-2.723H76.941v-5.2h8.717a1.362,1.362,0,1,0,0-2.723H76.941v-5.2h8.717a1.362,1.362,0,1,0,0-2.723H76.941V13.5H92.562V57.3a1.361,1.361,0,0,0,1.361,1.362ZM6.392,7.9a5.183,5.183,0,0,1,5.177-5.177h5.537V68.269H11.569a7.867,7.867,0,0,0-5.178,1.938V7.9Zm5.177,63.091h3.156a7.886,7.886,0,0,0,0,10.355H11.569a5.177,5.177,0,1,1,0-10.355Zm7.457,16.474H11.569a5.183,5.183,0,0,1-5.178-5.178v-.159a7.865,7.865,0,0,0,5.178,1.94h7.457v3.4Zm9.358,1.989-2.543-1.76a1.362,1.362,0,0,0-1.549,0l-2.543,1.76V77.166h6.635ZM74.217,77.166v10.3H31.108v-3.4h4.935a1.362,1.362,0,1,0,0-2.723H31.108V75.8a1.361,1.361,0,0,0-1.362-1.362H20.388A1.361,1.361,0,0,0,19.027,75.8v5.266a5.176,5.176,0,0,1,1.662-10.079h47.77v3.451H57.342a1.362,1.362,0,1,0,0,2.723H68.459v4.18H42.4a1.362,1.362,0,1,0,0,2.723H69.275a1.908,1.908,0,0,0,1.906-1.906v-5Zm0-8.9H19.83V2.723H74.217Z" transform="translate(-3.669 0)"/>
      <path id="Path_134315" data-name="Path 134315" d="M112.642,92.039h44.023a1.908,1.908,0,0,0,1.906-1.906V50.283a1.362,1.362,0,1,0-2.723,0V89.316H113.459V35.768h42.389v8.161a1.362,1.362,0,1,0,2.723,0V34.951a1.908,1.908,0,0,0-1.906-1.906H112.642a1.908,1.908,0,0,0-1.906,1.906V90.133a1.908,1.908,0,0,0,1.906,1.906Z" transform="translate(-91.299 -27.046)"/>
      <path id="Path_134316" data-name="Path 134316" d="M202.35,93.994a1.908,1.908,0,0,0-1.906-1.906H181.376a1.908,1.908,0,0,0-1.906,1.906v8.67a1.908,1.908,0,0,0,1.906,1.906h19.067a1.908,1.908,0,0,0,1.906-1.906Zm-2.723,7.853H182.193V94.811h17.434Z" transform="translate(-147.555 -75.37)"/>
      <path id="Path_134317" data-name="Path 134317" d="M200.988,270.532H180.832a1.362,1.362,0,1,0,0,2.723h20.157a1.362,1.362,0,1,0,0-2.723Z" transform="translate(-147.555 -221.42)"/>
      <path id="Path_134318" data-name="Path 134318" d="M200.988,237.925H180.832a1.362,1.362,0,1,0,0,2.723h20.157a1.362,1.362,0,1,0,0-2.723Z" transform="translate(-147.555 -194.732)"/>
    </g>
  </g>
</svg>
