<svg xmlns="http://www.w3.org/2000/svg" width="1021" height="424" viewBox="0 0 1021 424">
  <g id="t1-i8" transform="translate(9760 8914)">
    <g id="Rectangle_32090" data-name="Rectangle 32090" opacity="0">
      <rect id="Rectangle_32090-2" data-name="Rectangle 32090" width="1021" height="424" transform="translate(-9760 -8914)" fill="#fff"/>
      <path id="Rectangle_32090_-_Outline" data-name="Rectangle 32090 - Outline" d="M1,1V423H1020V1H1M0,0H1021V424H0Z" transform="translate(-9760 -8914)" fill="#707070"/>
    </g>
    <g id="t1-i8-2" data-name="t1-i8" transform="translate(62.325 -706.513)">
      <path id="Path_135758" data-name="Path 135758" d="M-51.609-1.883h4.977V0h-7.32V-11.375h2.344ZM-41.547.156A4.15,4.15,0,0,1-44.574-.984a4.054,4.054,0,0,1-1.168-3.039v-.219A5.106,5.106,0,0,1-45.25-6.52a3.612,3.612,0,0,1,1.395-1.547A3.914,3.914,0,0,1-41.8-8.609a3.508,3.508,0,0,1,2.73,1.094,4.444,4.444,0,0,1,1,3.1v.922h-5.383a2.1,2.1,0,0,0,.66,1.328,2,2,0,0,0,1.395.5,2.437,2.437,0,0,0,2.039-.945l1.109,1.242A3.389,3.389,0,0,1-39.625-.246,4.511,4.511,0,0,1-41.547.156ZM-41.8-6.789a1.411,1.411,0,0,0-1.09.455,2.357,2.357,0,0,0-.535,1.3h3.141v-.181A1.681,1.681,0,0,0-40.7-6.377,1.456,1.456,0,0,0-41.8-6.789Zm8.07,3.594,1.563-5.258h2.422l-3.4,9.766-.187.445a2.577,2.577,0,0,1-2.5,1.656,3.552,3.552,0,0,1-1-.148V1.555l.344.008a1.857,1.857,0,0,0,.957-.2,1.283,1.283,0,0,0,.5-.648l.266-.7-2.961-8.477h2.43ZM-19.484,0h-2.258V-8.715l-2.7.832V-9.7l4.711-1.687h.242ZM-7.992,0h-7.8V-1.547l3.68-3.922a9.078,9.078,0,0,0,1.121-1.445,2.322,2.322,0,0,0,.363-1.172,1.738,1.738,0,0,0-.383-1.191A1.382,1.382,0,0,0-12.1-9.711a1.49,1.49,0,0,0-1.207.527A2.089,2.089,0,0,0-13.75-7.8h-2.266a3.729,3.729,0,0,1,.5-1.9,3.5,3.5,0,0,1,1.4-1.348,4.262,4.262,0,0,1,2.055-.488,4.036,4.036,0,0,1,2.73.844A2.985,2.985,0,0,1-8.359-8.3,3.825,3.825,0,0,1-8.8-6.586a9.551,9.551,0,0,1-1.5,2.039L-12.883-1.82h4.891Zm5.109-4.289A5.094,5.094,0,0,1-2-7.437,2.877,2.877,0,0,1,.43-8.609a2.589,2.589,0,0,1,2.039.922V-12H4.734V0H2.7L2.586-.9A2.657,2.657,0,0,1,.414.156,2.869,2.869,0,0,1-1.98-1.02,5.258,5.258,0,0,1-2.883-4.289Zm2.258.161A3.355,3.355,0,0,0-.211-2.3a1.348,1.348,0,0,0,1.2.636,1.51,1.51,0,0,0,1.477-.887V-5.9a1.489,1.489,0,0,0-1.461-.887Q-.625-6.789-.625-4.128Zm11,4.285A4.15,4.15,0,0,1,7.348-.984,4.054,4.054,0,0,1,6.18-4.023v-.219A5.106,5.106,0,0,1,6.672-6.52,3.612,3.612,0,0,1,8.066-8.066a3.914,3.914,0,0,1,2.059-.543,3.508,3.508,0,0,1,2.73,1.094,4.444,4.444,0,0,1,1,3.1v.922H8.469a2.1,2.1,0,0,0,.66,1.328,2,2,0,0,0,1.395.5,2.437,2.437,0,0,0,2.039-.945l1.109,1.242A3.389,3.389,0,0,1,12.3-.246,4.511,4.511,0,0,1,10.375.156Zm-.258-6.945a1.411,1.411,0,0,0-1.09.455,2.357,2.357,0,0,0-.535,1.3h3.141v-.181a1.681,1.681,0,0,0-.406-1.165A1.456,1.456,0,0,0,10.117-6.789ZM24.508,0H22.25V-8.715l-2.7.832V-9.7l4.711-1.687h.242Zm8.977-4.547a2.851,2.851,0,0,1-2.062.867,3.049,3.049,0,0,1-2.414-1.035A4.091,4.091,0,0,1,28.1-7.508a4.357,4.357,0,0,1,.488-2.051,3.582,3.582,0,0,1,1.363-1.453,3.782,3.782,0,0,1,1.969-.52,3.617,3.617,0,0,1,2,.563,3.7,3.7,0,0,1,1.359,1.617,5.806,5.806,0,0,1,.492,2.414V-6.1a6.579,6.579,0,0,1-1.414,4.469A5.346,5.346,0,0,1,30.352.1L29.8.109V-1.773l.5-.008Q33.242-1.914,33.484-4.547Zm-1.508-.859a1.579,1.579,0,0,0,.941-.281,1.879,1.879,0,0,0,.6-.68V-7.3a3.1,3.1,0,0,0-.437-1.781,1.358,1.358,0,0,0-1.172-.633,1.318,1.318,0,0,0-1.117.621,2.641,2.641,0,0,0-.437,1.559A2.57,2.57,0,0,0,30.777-6,1.387,1.387,0,0,0,31.977-5.406ZM44.063-4.281h1.289v1.82H44.063V0H41.8V-2.461H37.141l-.1-1.422,4.742-7.492h2.281Zm-4.773,0H41.8V-8.3l-.148.258ZM54.3-10.115,49.9,0H47.516l4.406-9.555H46.266v-1.82H54.3Z" transform="translate(-9727.945 -7905.304)"/>
      <path id="Path_134784" data-name="Path 134784" d="M-172.6,1721.766a68.669,68.669,0,0,0-63.038-62.61,68.129,68.129,0,0,0-49.935,16.595,30.2,30.2,0,0,1-32.135,4.6h0a30.766,30.766,0,0,1-18-27.613q-.042-1.9-.189-3.825a68.692,68.692,0,0,0-63.724-62.868,68.453,68.453,0,0,0-72.829,68.239v.177a27.477,27.477,0,0,1-16.257,25.116l-3.632,1.625a26.767,26.767,0,0,1-28.96-4.319,68.618,68.618,0,0,0-17.271-11.524l-.2-.095c-.7-.326-1.416-.635-2.132-.937-.271-.115-.54-.233-.813-.345-.559-.227-1.125-.442-1.692-.655-.441-.166-.881-.333-1.326-.49s-.883-.3-1.326-.447c-.582-.193-1.166-.381-1.754-.558-.343-.1-.688-.2-1.033-.3-.693-.2-1.389-.385-2.09-.559-.275-.068-.551-.133-.827-.2q-1.15-.272-2.313-.5c-.246-.048-.493-.095-.739-.141q-1.189-.222-2.391-.4c-.262-.04-.525-.077-.788-.113q-1.146-.159-2.3-.277c-.333-.034-.666-.067-1-.1-.316-.028-.628-.068-.945-.092s-.649-.027-.974-.046q-.864-.053-1.732-.083c-.542-.018-1.082-.032-1.621-.039-.273,0-.544-.019-.818-.019-.368,0-.73.019-1.1.025-.471.008-.942.016-1.411.033-.695.025-1.387.066-2.077.112-.41.028-.82.051-1.228.086-.777.065-1.548.151-2.317.243-.317.037-.636.068-.953.11-.945.126-1.883.276-2.817.44-.135.024-.273.042-.408.067a67.768,67.768,0,0,0-9.728,2.537l-.035.012q-1.536.526-3.037,1.123l-.238.1q-1.4.561-2.773,1.183l-.308.143q-1.346.618-2.658,1.291l-.28.145q-1.338.693-2.64,1.444c-.065.037-.13.074-.194.112q-1.368.794-2.7,1.648l-.041.026a68.644,68.644,0,0,0-8.093,6.088c-.348.3-.71.583-1.068.869a30.231,30.231,0,0,1-30.829,3.548h0a30.766,30.766,0,0,1-18-27.613q-.042-1.9-.189-3.825a68.052,68.052,0,0,0-19.683-42.69l-.032-.033q-.957-.965-1.954-1.889c-.084-.078-.166-.159-.25-.236-.6-.551-1.206-1.087-1.822-1.616-.159-.136-.314-.275-.474-.41-.552-.467-1.116-.919-1.683-1.369-.233-.184-.464-.372-.7-.554-.509-.392-1.027-.772-1.547-1.15-.3-.222-.608-.447-.916-.664-.468-.329-.943-.646-1.419-.963-.372-.248-.742-.5-1.118-.739-.433-.276-.872-.541-1.311-.808s-.858-.524-1.294-.776c-.405-.233-.815-.457-1.225-.683-.479-.264-.958-.528-1.443-.781-.386-.2-.776-.392-1.166-.585-.519-.258-1.038-.515-1.565-.76-.372-.173-.749-.337-1.124-.5-.552-.244-1.1-.487-1.663-.717-.369-.152-.742-.3-1.113-.441-.571-.223-1.142-.444-1.72-.652-.379-.136-.762-.264-1.144-.394-.577-.2-1.155-.39-1.739-.571-.4-.123-.795-.236-1.194-.351-.576-.167-1.152-.332-1.735-.484-.423-.11-.849-.211-1.275-.313-.562-.135-1.124-.268-1.691-.389-.458-.1-.919-.184-1.38-.272-.542-.1-1.084-.207-1.63-.3-.5-.083-1-.154-1.5-.225s-1.025-.146-1.541-.207c-.544-.065-1.092-.117-1.639-.168-.324-.031-.644-.074-.968-.1-.14-.011-.278-.011-.418-.021-.216-.016-.43-.043-.647-.057-.557-.035-1.107-.039-1.661-.061-.533-.022-1.067-.051-1.6-.06-.717-.012-1.427,0-2.139.01-.555.007-1.112,0-1.663.026-.661.025-1.316.075-1.972.119-.593.039-1.19.068-1.779.122-.564.052-1.121.13-1.681.2-.67.079-1.343.146-2.007.244-.271.04-.537.1-.807.14a67.754,67.754,0,0,0-9.216,2.136c-.112.035-.227.063-.339.1-.918.287-1.823.6-2.724.93-.208.075-.42.141-.628.219-.867.322-1.721.672-2.572,1.028-.23.1-.464.185-.693.284-.841.363-1.668.751-2.491,1.146-.226.109-.455.212-.68.323-.819.4-1.625.832-2.425,1.268-.218.118-.438.233-.655.355-.8.447-1.588.915-2.368,1.393-.2.125-.407.247-.609.373-.786.493-1.558,1.005-2.322,1.528-.183.125-.365.249-.547.376q-1.159.812-2.282,1.67c-.158.121-.315.241-.472.363q-1.143.89-2.248,1.823l-.386.33q-1.131.972-2.22,1.991l-.283.268q-1.125,1.068-2.2,2.181c-.055.057-.107.114-.161.171q-1.126,1.174-2.2,2.4l-.02.024a68.07,68.07,0,0,0-16.783,45.034,27.473,27.473,0,0,1-16.255,25.084l-3.632,1.625a26.767,26.767,0,0,1-28.96-4.319,68.105,68.105,0,0,0-46.09-17.915,68.077,68.077,0,0,0-45.028,16.966,29.328,29.328,0,0,1-31.319,4.687l-.506-.226a30.8,30.8,0,0,1-18.1-27.654q-.038-1.7-.159-3.414a68.672,68.672,0,0,0-62.661-63.2,68.453,68.453,0,0,0-73.7,73.736,68.667,68.667,0,0,0,63.03,62.615,68.123,68.123,0,0,0,49.945-16.594,30.194,30.194,0,0,1,32.135-4.6,30.763,30.763,0,0,1,18,27.611,70.663,70.663,0,0,0,.527,7.184,68.492,68.492,0,0,0,59.977,59.208,68.457,68.457,0,0,0,76.236-67.937v-.176a27.476,27.476,0,0,1,16.256-25.117l3.633-1.625a26.767,26.767,0,0,1,28.959,4.319,68.614,68.614,0,0,0,17.262,11.519c.068.032.135.066.2.1.707.327,1.423.638,2.143.941.265.113.529.229.8.338.565.23,1.136.446,1.708.662.437.165.875.33,1.316.487s.888.3,1.334.449c.578.191,1.158.378,1.743.554.347.1.7.2,1.047.3q1.033.294,2.079.556c.278.069.557.134.837.2q1.145.268,2.3.5.374.073.749.142,1.187.222,2.387.4.391.058.784.112,1.146.157,2.3.276.5.053,1.006.1c.312.027.621.067.935.09s.649.027.974.047q.868.053,1.741.083.809.029,1.612.039c.276,0,.55.019.827.019.373,0,.742-.019,1.113-.025.455-.008.909-.015,1.361-.031.711-.026,1.418-.067,2.124-.114.391-.027.783-.048,1.172-.081.81-.068,1.615-.157,2.417-.253.279-.034.56-.059.838-.1a67.937,67.937,0,0,0,9.783-2.038l.154-.047q1.5-.434,2.966-.933c.128-.044.253-.091.38-.135q1.36-.471,2.7-1c.143-.056.284-.115.426-.173q1.32-.53,2.611-1.113l.385-.176q1.332-.611,2.632-1.278l.257-.131q1.41-.73,2.781-1.521l.017-.009a68.782,68.782,0,0,0,10.416-7.381,30.635,30.635,0,0,1,27.631-6.511,30.59,30.59,0,0,1,4.765,1.661,30.761,30.761,0,0,1,18,27.611,70.967,70.967,0,0,0,.528,7.184c.073.586.205,1.154.293,1.736q.155,1,.336,1.986.44,2.407,1.051,4.751c.042.16.082.32.125.48a68.688,68.688,0,0,0,39.6,45.348c.093.039.184.082.278.121q1.547.643,3.129,1.212,1.34.484,2.7.916,1.112.347,2.236.656,1.859.513,3.755.924c.538.115,1.079.217,1.621.319,1.487.282,2.987.522,4.505.7.118.014.233.042.351.055.351.039.7.055,1.049.089.428.042.853.1,1.283.132.231.018.459.019.689.035.71.049,1.417.082,2.122.109.6.024,1.194.046,1.788.054.664.009,1.326,0,1.986-.009.625-.009,1.248-.019,1.869-.045s1.229-.068,1.842-.111c.656-.045,1.311-.09,1.962-.154.561-.055,1.117-.126,1.673-.194.692-.085,1.384-.171,2.07-.276.5-.078,1-.171,1.5-.259.728-.129,1.456-.258,2.176-.41.437-.092.868-.2,1.3-.3.77-.178,1.539-.358,2.3-.562.364-.1.722-.209,1.083-.313.818-.234,1.634-.472,2.439-.736.28-.092.555-.195.833-.29.876-.3,1.747-.606,2.607-.94.178-.069.352-.146.53-.217.949-.379,1.892-.769,2.82-1.188.051-.023.1-.049.153-.073a68.445,68.445,0,0,0,40.166-62.492,27.477,27.477,0,0,1,16.255-25.08l3.633-1.625a26.767,26.767,0,0,1,28.959,4.319,68.106,68.106,0,0,0,46.09,17.915,68.073,68.073,0,0,0,44.53-16.532,30.558,30.558,0,0,1,32.422-4.851h0a30.765,30.765,0,0,1,18,27.613q.043,1.911.191,3.844a68.664,68.664,0,0,0,62.618,62.767A68.453,68.453,0,0,0-172.6,1721.766Z" transform="translate(-8670.637 -9687.392)" fill="#c4b3ff"/>
      <circle id="Ellipse_4152" data-name="Ellipse 4152" cx="50.531" cy="50.531" r="50.531" transform="translate(-9782.408 -7986.841) rotate(-85.348)" fill="#8c6df2"/>
      <circle id="Ellipse_4153" data-name="Ellipse 4153" cx="44.482" cy="44.482" r="44.482" transform="translate(-9775.889 -7992.379) rotate(-85.348)" fill="#5038a1"/>
      <path id="Line_137" data-name="Line 137" d="M0,20.574a1,1,0,0,1-1-1v-.006a1,1,0,0,1,1-1,1,1,0,0,1,1,1v.006A1,1,0,0,1,0,20.574Zm0-4.006a1,1,0,0,1-1-1v-.005a1,1,0,0,1,1-1,1,1,0,0,1,1,1v.005A1,1,0,0,1,0,16.568Zm0-4.005a1,1,0,0,1-1-1v-.005a1,1,0,0,1,1-1,1,1,0,0,1,1,1v.005A1,1,0,0,1,0,12.563ZM0,8.557a1,1,0,0,1-1-1V7.552a1,1,0,0,1,1-1,1,1,0,0,1,1,1v.005A1,1,0,0,1,0,8.557ZM0,4.552a1,1,0,0,1-1-1V3.546a1,1,0,0,1,1-1,1,1,0,0,1,1,1v.006A1,1,0,0,1,0,4.552Z" transform="translate(-9564.629 -8063.762)" fill="#2c2c2c"/>
      <path id="Line_138" data-name="Line 138" d="M0,20.574a1,1,0,0,1-1-1v-.006a1,1,0,0,1,1-1,1,1,0,0,1,1,1v.006A1,1,0,0,1,0,20.574Zm0-4.006a1,1,0,0,1-1-1v-.005a1,1,0,0,1,1-1,1,1,0,0,1,1,1v.005A1,1,0,0,1,0,16.568Zm0-4.005a1,1,0,0,1-1-1v-.005a1,1,0,0,1,1-1,1,1,0,0,1,1,1v.005A1,1,0,0,1,0,12.563ZM0,8.557a1,1,0,0,1-1-1V7.552a1,1,0,0,1,1-1,1,1,0,0,1,1,1v.005A1,1,0,0,1,0,8.557ZM0,4.552a1,1,0,0,1-1-1V3.546a1,1,0,0,1,1-1,1,1,0,0,1,1,1v.006A1,1,0,0,1,0,4.552Z" transform="translate(-9237.994 -8063.762)" fill="#2c2c2c"/>
      <path id="Line_139" data-name="Line 139" d="M0,20.574a1,1,0,0,1-1-1v-.006a1,1,0,0,1,1-1,1,1,0,0,1,1,1v.006A1,1,0,0,1,0,20.574Zm0-4.006a1,1,0,0,1-1-1v-.005a1,1,0,0,1,1-1,1,1,0,0,1,1,1v.005A1,1,0,0,1,0,16.568Zm0-4.005a1,1,0,0,1-1-1v-.005a1,1,0,0,1,1-1,1,1,0,0,1,1,1v.005A1,1,0,0,1,0,12.563ZM0,8.557a1,1,0,0,1-1-1V7.552a1,1,0,0,1,1-1,1,1,0,0,1,1,1v.005A1,1,0,0,1,0,8.557ZM0,4.552a1,1,0,0,1-1-1V3.546a1,1,0,0,1,1-1,1,1,0,0,1,1,1v.006A1,1,0,0,1,0,4.552Z" transform="translate(-8911.36 -8063.762)" fill="#2c2c2c"/>
      <g id="Group_92173" data-name="Group 92173" transform="translate(-8670.637 -9687.392)">
        <g id="Group_92170" data-name="Group 92170">
          <path id="Path_134785" data-name="Path 134785" d="M-1057.309,1739.424a.982.982,0,0,1-.379-.069,1.178,1.178,0,0,1-.331-.221.991.991,0,0,1-.29-.71,1.06,1.06,0,0,1,.29-.71,1.068,1.068,0,0,1,.331-.21,1.029,1.029,0,0,1,1.09.21,1.054,1.054,0,0,1,.289.71.986.986,0,0,1-.289.71A.99.99,0,0,1-1057.309,1739.424Z" fill="#2c2c2c"/>
        </g>
        <g id="Group_92171" data-name="Group 92171">
          <path id="Path_134786" data-name="Path 134786" d="M-1058.309,1754.084a1,1,0,0,1,1-1h0a1,1,0,0,1,1,1h0a1,1,0,0,1-1,1h0A1,1,0,0,1-1058.309,1754.084Zm0-3.91a1,1,0,0,1,1-1h0a1,1,0,0,1,1,1h0a1,1,0,0,1-1,1h0A1,1,0,0,1-1058.309,1750.174Zm0-3.92a1,1,0,0,1,1-1h0a1,1,0,0,1,1,1h0a1,1,0,0,1-1,1h0A1,1,0,0,1-1058.309,1746.254Zm0-3.91a1,1,0,0,1,1-1h0a1,1,0,0,1,1,1h0a1,1,0,0,1-1,1h0A1,1,0,0,1-1058.309,1742.344Z" fill="#2c2c2c"/>
        </g>
        <g id="Group_92172" data-name="Group 92172">
          <path id="Path_134787" data-name="Path 134787" d="M-1057.309,1759a1,1,0,0,1-.71-.3.988.988,0,0,1-.29-.7.644.644,0,0,1,.02-.2.722.722,0,0,1,.061-.19.557.557,0,0,1,.09-.17.883.883,0,0,1,.119-.151,1.03,1.03,0,0,1,1.421,0c.039.04.079.1.12.151a.557.557,0,0,1,.09.17.689.689,0,0,1,.06.19,1.231,1.231,0,0,1,.019.2.983.983,0,0,1-.289.7A1,1,0,0,1-1057.309,1759Z" fill="#2c2c2c"/>
        </g>
      </g>
      <g id="Group_92182" data-name="Group 92182" transform="translate(-8670.637 -9687.392)">
        <g id="Group_92177" data-name="Group 92177">
          <g id="Group_92174" data-name="Group 92174">
            <path id="Path_134788" data-name="Path 134788" d="M-1048.516,1673.035a.986.986,0,0,1,.069-.38,1.173,1.173,0,0,1,.221-.33.986.986,0,0,1,.71-.29,1.055,1.055,0,0,1,.71.29,1.07,1.07,0,0,1,.21.33,1.029,1.029,0,0,1-.21,1.09,1.055,1.055,0,0,1-.71.29.986.986,0,0,1-.71-.29A.985.985,0,0,1-1048.516,1673.035Z" fill="#ffdc72"/>
          </g>
          <g id="Group_92175" data-name="Group 92175">
            <path id="Path_134789" data-name="Path 134789" d="M-1063.177,1672.035a1,1,0,0,1,1,1h0a1,1,0,0,1-1,1h0a1,1,0,0,1-1-1h0A1,1,0,0,1-1063.177,1672.035Zm3.911,0a1,1,0,0,1,1,1h0a1,1,0,0,1-1,1h0a1,1,0,0,1-1-1h0A1,1,0,0,1-1059.266,1672.035Zm3.92,0a1,1,0,0,1,1,1h0a1,1,0,0,1-1,1h0a1,1,0,0,1-1-1h0A1,1,0,0,1-1055.346,1672.035Zm3.91,0a1,1,0,0,1,1,1h0a1,1,0,0,1-1,1h0a1,1,0,0,1-1-1h0A1,1,0,0,1-1051.436,1672.035Z" fill="#ffdc72"/>
          </g>
          <g id="Group_92176" data-name="Group 92176">
            <path id="Path_134790" data-name="Path 134790" d="M-1068.1,1673.035a1,1,0,0,1,.3-.71.984.984,0,0,1,.7-.29.644.644,0,0,1,.2.02.681.681,0,0,1,.19.06.558.558,0,0,1,.17.09.888.888,0,0,1,.15.12,1.027,1.027,0,0,1,0,1.42c-.04.04-.1.08-.15.12a.553.553,0,0,1-.17.09.686.686,0,0,1-.19.06,1.229,1.229,0,0,1-.2.02.984.984,0,0,1-.7-.29A1,1,0,0,1-1068.1,1673.035Z" fill="#ffdc72"/>
          </g>
        </g>
        <g id="Group_92181" data-name="Group 92181">
          <g id="Group_92178" data-name="Group 92178">
            <path id="Path_134791" data-name="Path 134791" d="M-1048.516,1635.534a.986.986,0,0,1,.069-.38,1.172,1.172,0,0,1,.221-.33.986.986,0,0,1,.71-.29,1.055,1.055,0,0,1,.71.29,1.069,1.069,0,0,1,.21.33,1.029,1.029,0,0,1-.21,1.09,1.055,1.055,0,0,1-.71.29.987.987,0,0,1-.71-.29A.986.986,0,0,1-1048.516,1635.534Z" fill="#ffdc72"/>
          </g>
          <g id="Group_92179" data-name="Group 92179">
            <path id="Path_134792" data-name="Path 134792" d="M-1063.177,1634.534a1,1,0,0,1,1,1h0a1,1,0,0,1-1,1h0a1,1,0,0,1-1-1h0A1,1,0,0,1-1063.177,1634.534Zm3.911,0a1,1,0,0,1,1,1h0a1,1,0,0,1-1,1h0a1,1,0,0,1-1-1h0A1,1,0,0,1-1059.266,1634.534Zm3.92,0a1,1,0,0,1,1,1h0a1,1,0,0,1-1,1h0a1,1,0,0,1-1-1h0A1,1,0,0,1-1055.346,1634.534Zm3.91,0a1,1,0,0,1,1,1h0a1,1,0,0,1-1,1h0a1,1,0,0,1-1-1h0A1,1,0,0,1-1051.436,1634.534Z" fill="#ffdc72"/>
          </g>
          <g id="Group_92180" data-name="Group 92180">
            <path id="Path_134793" data-name="Path 134793" d="M-1068.1,1635.534a1,1,0,0,1,.3-.71.984.984,0,0,1,.7-.29.648.648,0,0,1,.2.02.686.686,0,0,1,.19.06.555.555,0,0,1,.17.09.888.888,0,0,1,.15.12,1.027,1.027,0,0,1,0,1.42c-.04.04-.1.08-.15.12a.555.555,0,0,1-.17.09.686.686,0,0,1-.19.06,1.229,1.229,0,0,1-.2.02.984.984,0,0,1-.7-.29A1,1,0,0,1-1068.1,1635.534Z" fill="#ffdc72"/>
          </g>
        </g>
      </g>
      <path id="Line_140" data-name="Line 140" d="M0,17.028a1,1,0,0,1-1-1v-.005a1,1,0,0,1,1-1,1,1,0,0,1,1,1v.005A1,1,0,0,1,0,17.028Zm0-4.005a1,1,0,0,1-1-1v-.005a1,1,0,0,1,1-1,1,1,0,0,1,1,1v.005A1,1,0,0,1,0,13.022ZM0,9.017a1,1,0,0,1-1-1V8.011a1,1,0,0,1,1-1,1,1,0,0,1,1,1v.005A1,1,0,0,1,0,9.017ZM0,5.011a1,1,0,0,1-1-1V4.006a1,1,0,0,1,1-1,1,1,0,0,1,1,1v.005A1,1,0,0,1,0,5.011ZM0,1.006a1,1,0,0,1-1-1V0A1,1,0,0,1,0-1,1,1,0,0,1,1,0V.006A1,1,0,0,1,0,1.006Z" transform="translate(-9401.312 -7948.965)" fill="#2c2c2c"/>
      <path id="Line_141" data-name="Line 141" d="M0,17.028a1,1,0,0,1-1-1v-.005a1,1,0,0,1,1-1,1,1,0,0,1,1,1v.005A1,1,0,0,1,0,17.028Zm0-4.005a1,1,0,0,1-1-1v-.005a1,1,0,0,1,1-1,1,1,0,0,1,1,1v.005A1,1,0,0,1,0,13.022ZM0,9.017a1,1,0,0,1-1-1V8.011a1,1,0,0,1,1-1,1,1,0,0,1,1,1v.005A1,1,0,0,1,0,9.017ZM0,5.011a1,1,0,0,1-1-1V4.006a1,1,0,0,1,1-1,1,1,0,0,1,1,1v.005A1,1,0,0,1,0,5.011ZM0,1.006a1,1,0,0,1-1-1V0A1,1,0,0,1,0-1,1,1,0,0,1,1,0V.006A1,1,0,0,1,0,1.006Z" transform="translate(-9074.678 -7948.965)" fill="#2c2c2c"/>
      <circle id="Ellipse_4154" data-name="Ellipse 4154" cx="50.531" cy="50.531" r="50.531" transform="translate(-9615.159 -8010.576)" fill="#8c6df2"/>
      <circle id="Ellipse_4155" data-name="Ellipse 4155" cx="50.531" cy="50.531" r="50.531" transform="translate(-9459.357 -7991.425) rotate(-80.682)" fill="#8c6df2"/>
      <circle id="Ellipse_4156" data-name="Ellipse 4156" cx="50.531" cy="50.531" r="50.531" transform="translate(-9132.736 -7991.425) rotate(-80.682)" fill="#8c6df2"/>
      <circle id="Ellipse_4157" data-name="Ellipse 4157" cx="50.531" cy="50.531" r="50.531" transform="translate(-9288.525 -8010.576)" fill="#8c6df2"/>
      <circle id="Ellipse_4158" data-name="Ellipse 4158" cx="50.531" cy="50.531" r="50.531" transform="translate(-8961.905 -8010.576)" fill="#8c6df2"/>
      <path id="Path_135764" data-name="Path 135764" d="M-13.884,0H-16.8V-11.4l-2.84,1.1v-2.42l5.445-2.225h.308ZM-4.02-5.773a2.785,2.785,0,0,1-2.02.943A3.121,3.121,0,0,1-8.721-6.2,6.159,6.159,0,0,1-9.7-9.854a6.486,6.486,0,0,1,.554-2.7,4.467,4.467,0,0,1,1.543-1.9,3.826,3.826,0,0,1,2.21-.677,3.612,3.612,0,0,1,2.246.749A4.8,4.8,0,0,1-1.62-12.238a8.746,8.746,0,0,1,.543,3.184V-8A9.472,9.472,0,0,1-2.753-2.035,5.783,5.783,0,0,1-7.506.154h-.3v-2.5h.195A3.467,3.467,0,0,0-5.05-3.23,4.124,4.124,0,0,0-4.02-5.773ZM-5.3-7.106q.841,0,1.323-1.148V-9.587a5.426,5.426,0,0,0-.4-2.3q-.4-.836-1.036-.836t-1.01.825a4.751,4.751,0,0,0-.385,2.015,4.329,4.329,0,0,0,.4,2.035A1.223,1.223,0,0,0-5.3-7.106ZM8.624-5.64H9.9v2.41H8.624V0h-2.9V-3.23H.779L.646-5.106,5.711-14.93H8.624Zm-5.158,0H5.722v-4.994l-.062.113Zm16.888-7.619L15.637,0H12.571l4.737-12.52H11.32v-2.41h9.034Z" transform="translate(-9727.946 -8026.971)" fill="#fff"/>
      <circle id="Ellipse_4159" data-name="Ellipse 4159" cx="44.482" cy="44.482" r="44.482" transform="translate(-9612.571 -7919.317) rotate(-85.348)" fill="#5038a1"/>
      <circle id="Ellipse_4160" data-name="Ellipse 4160" cx="44.482" cy="44.482" r="44.482" transform="translate(-9449.254 -7992.379) rotate(-85.348)" fill="#5038a1"/>
      <path id="Path_135760" data-name="Path 135760" d="M-13.884,0H-16.8V-11.4l-2.84,1.1v-2.42l5.445-2.225h.308ZM-4.02-5.773a2.785,2.785,0,0,1-2.02.943A3.121,3.121,0,0,1-8.721-6.2,6.159,6.159,0,0,1-9.7-9.854a6.486,6.486,0,0,1,.554-2.7,4.467,4.467,0,0,1,1.543-1.9,3.826,3.826,0,0,1,2.21-.677,3.612,3.612,0,0,1,2.246.749A4.8,4.8,0,0,1-1.62-12.238a8.746,8.746,0,0,1,.543,3.184V-8A9.472,9.472,0,0,1-2.753-2.035,5.783,5.783,0,0,1-7.506.154h-.3v-2.5h.195A3.467,3.467,0,0,0-5.05-3.23,4.124,4.124,0,0,0-4.02-5.773ZM-5.3-7.106q.841,0,1.323-1.148V-9.587a5.426,5.426,0,0,0-.4-2.3q-.4-.836-1.036-.836t-1.01.825a4.751,4.751,0,0,0-.385,2.015,4.329,4.329,0,0,0,.4,2.035A1.223,1.223,0,0,0-5.3-7.106ZM6.6-5.773a2.785,2.785,0,0,1-2.02.943A3.121,3.121,0,0,1,1.9-6.2,6.159,6.159,0,0,1,.923-9.854a6.486,6.486,0,0,1,.554-2.7,4.467,4.467,0,0,1,1.543-1.9,3.826,3.826,0,0,1,2.21-.677,3.612,3.612,0,0,1,2.246.749A4.8,4.8,0,0,1,9-12.238a8.746,8.746,0,0,1,.543,3.184V-8A9.472,9.472,0,0,1,7.87-2.035,5.783,5.783,0,0,1,3.117.154h-.3v-2.5h.195A3.467,3.467,0,0,0,5.573-3.23,4.124,4.124,0,0,0,6.6-5.773ZM5.322-7.106q.841,0,1.323-1.148V-9.587a5.426,5.426,0,0,0-.4-2.3q-.4-.836-1.036-.836T4.2-11.9a4.751,4.751,0,0,0-.385,2.015,4.329,4.329,0,0,0,.4,2.035A1.223,1.223,0,0,0,5.322-7.106Zm8.859-1.682h1.4a1.312,1.312,0,0,0,1.174-.559,2.642,2.642,0,0,0,.374-1.492,2.224,2.224,0,0,0-.385-1.389,1.236,1.236,0,0,0-1.031-.5,1.219,1.219,0,0,0-.99.472,1.821,1.821,0,0,0-.385,1.189h-2.9a4.1,4.1,0,0,1,.538-2.1,3.78,3.78,0,0,1,1.507-1.451,4.45,4.45,0,0,1,2.148-.523A4.434,4.434,0,0,1,18.867-14a4.15,4.15,0,0,1,1.169,3.117A3.549,3.549,0,0,1,19.508-9,3.6,3.6,0,0,1,18.119-7.67a3.193,3.193,0,0,1,1.574,1.354,4.213,4.213,0,0,1,.518,2.133A4.187,4.187,0,0,1,18.944-.995a4.639,4.639,0,0,1-3.327,1.2A4.229,4.229,0,0,1,12.5-.979,4.188,4.188,0,0,1,11.31-4.091h2.9a2.129,2.129,0,0,0,.42,1.343A1.294,1.294,0,0,0,15.7-2.2a1.427,1.427,0,0,0,1.184-.554,2.322,2.322,0,0,0,.436-1.477q0-2.2-1.712-2.215H14.181Z" transform="translate(-9401.312 -8026.971)" fill="#fff"/>
      <circle id="Ellipse_4161" data-name="Ellipse 4161" cx="44.482" cy="44.482" r="44.482" transform="translate(-9285.938 -7919.317) rotate(-85.348)" fill="#5038a1"/>
      <path id="Path_135761" data-name="Path 135761" d="M-11.474,0h-8.8V-2.051l4.04-5.137A11.254,11.254,0,0,0-15.1-9.059a3.743,3.743,0,0,0,.364-1.543,2.994,2.994,0,0,0-.344-1.559,1.094,1.094,0,0,0-.99-.564,1.273,1.273,0,0,0-1.123.656,3.45,3.45,0,0,0-.415,1.846h-2.912a5.538,5.538,0,0,1,.569-2.512,4.25,4.25,0,0,1,1.6-1.769,4.379,4.379,0,0,1,2.333-.631,4.194,4.194,0,0,1,3.1,1.1,4.237,4.237,0,0,1,1.1,3.133,5.978,5.978,0,0,1-.61,2.558,15.73,15.73,0,0,1-2.21,3.194L-16.55-2.41h5.076Zm10.5-6.173A8.364,8.364,0,0,1-2.1-1.436,3.652,3.652,0,0,1-5.3.205,3.664,3.664,0,0,1-8.485-1.389,8.076,8.076,0,0,1-9.649-5.958v-2.82A8.346,8.346,0,0,1-8.531-13.5a3.652,3.652,0,0,1,3.209-1.635,3.663,3.663,0,0,1,3.209,1.62A8.2,8.2,0,0,1-.974-8.89ZM-3.886-9.2a7.6,7.6,0,0,0-.349-2.646,1.162,1.162,0,0,0-1.087-.882q-1.384,0-1.436,3.23v3.722A7.653,7.653,0,0,0-6.4-3.086,1.176,1.176,0,0,0-5.3-2.2,1.125,1.125,0,0,0-4.25-3.03a7.2,7.2,0,0,0,.364-2.528ZM7.362,0H4.45V-11.4l-2.84,1.1v-2.42L7.055-14.95h.308ZM20.4,0H11.6V-2.051l4.04-5.137A11.254,11.254,0,0,0,16.77-9.059a3.743,3.743,0,0,0,.364-1.543,2.994,2.994,0,0,0-.344-1.559,1.094,1.094,0,0,0-.99-.564,1.273,1.273,0,0,0-1.123.656,3.45,3.45,0,0,0-.415,1.846H11.351a5.538,5.538,0,0,1,.569-2.512,4.25,4.25,0,0,1,1.6-1.769,4.379,4.379,0,0,1,2.333-.631,4.194,4.194,0,0,1,3.1,1.1,4.237,4.237,0,0,1,1.1,3.133,5.978,5.978,0,0,1-.61,2.558,15.73,15.73,0,0,1-2.21,3.194L15.319-2.41H20.4Z" transform="translate(-9237.994 -7953.908)" fill="#fff"/>
      <circle id="Ellipse_4162" data-name="Ellipse 4162" cx="44.482" cy="44.482" r="44.482" transform="translate(-9122.634 -7992.379) rotate(-85.348)" fill="#5038a1"/>
      <path id="Path_135762" data-name="Path 135762" d="M-33.25-2.765h-3.72L-37.694,0h-2.885l4.221-13.508h2.5L-29.613,0h-2.913Zm-3.126-2.273h2.523l-1.262-4.815Zm11.522,3.043q1.141,0,1.16-1.484h2.468A3.688,3.688,0,0,1-22.238-.826,3.431,3.431,0,0,1-24.8.186a3.66,3.66,0,0,1-2.959-1.206A5.445,5.445,0,0,1-28.8-4.574v-.8A5.619,5.619,0,0,1-27.79-8.98a3.6,3.6,0,0,1,2.973-1.243A3.4,3.4,0,0,1-22.2-9.2a4.17,4.17,0,0,1,.974,2.908h-2.468a2.632,2.632,0,0,0-.278-1.3.953.953,0,0,0-.891-.455,1.061,1.061,0,0,0-.983.487,4.153,4.153,0,0,0-.315,1.888v1.021a8.191,8.191,0,0,0,.121,1.712,1.289,1.289,0,0,0,.4.714A1.216,1.216,0,0,0-24.854-1.995Zm8.164-10.511v2.468h1.345v1.967H-16.69v4.99a1.472,1.472,0,0,0,.162.818.733.733,0,0,0,.626.223,2.453,2.453,0,0,0,.622-.065L-15.3-.065a4.089,4.089,0,0,1-1.447.25q-2.542,0-2.57-2.916v-5.34h-1.16v-1.967h1.16v-2.468ZM-8.971-.918a2.586,2.586,0,0,1-2.189,1.1,2.459,2.459,0,0,1-2.1-.951,4.558,4.558,0,0,1-.714-2.769v-6.5h2.625V-3.47Q-11.328-2-10.372-2a1.354,1.354,0,0,0,1.3-.779v-7.255h2.644V0H-8.9ZM.213,0A3.669,3.669,0,0,1-.009-.779,2.244,2.244,0,0,1-1.92.186,2.828,2.828,0,0,1-4.012-.649a2.934,2.934,0,0,1-.83-2.162,3.039,3.039,0,0,1,1.007-2.44,4.4,4.4,0,0,1,2.9-.881h.8v-.807A1.512,1.512,0,0,0-.371-7.9a.831.831,0,0,0-.677-.278q-.983,0-.983,1.15H-4.657a2.906,2.906,0,0,1,1.044-2.3,3.885,3.885,0,0,1,2.639-.9,3.568,3.568,0,0,1,2.556.858,3.221,3.221,0,0,1,.9,2.454v4.722A4.941,4.941,0,0,0,2.857-.158V0ZM-1.336-1.874A1.465,1.465,0,0,0-.594-2.05a1.248,1.248,0,0,0,.455-.417V-4.555H-.77a1.347,1.347,0,0,0-1.053.427,1.639,1.639,0,0,0-.385,1.141Q-2.208-1.874-1.336-1.874ZM7.144,0H4.509V-14.25H7.144Zm4.787,0H9.3V-10.038h2.635ZM9.175-12.636a1.356,1.356,0,0,1,.39-1,1.4,1.4,0,0,1,1.039-.39,1.4,1.4,0,0,1,1.039.39,1.356,1.356,0,0,1,.39,1,1.385,1.385,0,0,1-.385,1,1.383,1.383,0,0,1-1.044.4,1.383,1.383,0,0,1-1.044-.4A1.385,1.385,0,0,1,9.175-12.636ZM13.61-5.325a6.554,6.554,0,0,1,.835-3.683,2.764,2.764,0,0,1,2.431-1.215,2.344,2.344,0,0,1,1.93,1V-14.25h2.644V0H19.065l-.121-1.021A2.418,2.418,0,0,1,16.866.186a2.741,2.741,0,0,1-2.407-1.206,6.342,6.342,0,0,1-.849-3.544Zm2.635.659a4.79,4.79,0,0,0,.315,2.073A1.112,1.112,0,0,0,17.627-2a1.28,1.28,0,0,0,1.178-.7V-7.283a1.251,1.251,0,0,0-1.169-.742,1.13,1.13,0,0,0-1.058.584,4.549,4.549,0,0,0-.334,2.078ZM28.147,0a3.669,3.669,0,0,1-.223-.779,2.244,2.244,0,0,1-1.911.965,2.828,2.828,0,0,1-2.092-.835,2.934,2.934,0,0,1-.83-2.162A3.039,3.039,0,0,1,24.1-5.251,4.4,4.4,0,0,1,27-6.132h.8v-.807a1.512,1.512,0,0,0-.232-.956.831.831,0,0,0-.677-.278q-.983,0-.983,1.15H23.277a2.906,2.906,0,0,1,1.044-2.3,3.885,3.885,0,0,1,2.639-.9,3.568,3.568,0,0,1,2.556.858,3.221,3.221,0,0,1,.9,2.454v4.722a4.941,4.941,0,0,0,.371,2.032V0ZM26.6-1.874a1.465,1.465,0,0,0,.742-.176,1.248,1.248,0,0,0,.455-.417V-4.555h-.631a1.347,1.347,0,0,0-1.053.427,1.639,1.639,0,0,0-.385,1.141Q25.726-1.874,26.6-1.874ZM31.97-5.325A6.554,6.554,0,0,1,32.8-9.008a2.764,2.764,0,0,1,2.431-1.215,2.344,2.344,0,0,1,1.93,1V-14.25h2.644V0H37.425L37.3-1.021A2.418,2.418,0,0,1,35.226.186a2.741,2.741,0,0,1-2.407-1.206,6.342,6.342,0,0,1-.849-3.544Zm2.635.659a4.79,4.79,0,0,0,.315,2.073A1.112,1.112,0,0,0,35.987-2a1.28,1.28,0,0,0,1.178-.7V-7.283A1.251,1.251,0,0,0,36-8.025a1.13,1.13,0,0,0-1.058.584A4.549,4.549,0,0,0,34.6-5.362Z" transform="translate(-9074.691 -8027.556)" fill="#fff"/>
      <path id="Path_135755" data-name="Path 135755" d="M-62.734-4.945h-4.5v3.063h5.281V0h-7.625V-11.375h7.609v1.9h-5.266v2.711h4.5ZM-58.344,0h-2.266V-12h2.266ZM-45.93-2.344h-4.109L-50.82,0h-2.492l4.234-11.375h2.172L-42.648,0h-2.492Zm-3.477-1.9h2.844L-47.992-8.5Zm12.422-2.094A6.134,6.134,0,0,0-37.8-6.4a1.654,1.654,0,0,0-1.68.867V0h-2.258V-8.453H-39.6l.063,1.008a2.092,2.092,0,0,1,1.883-1.164,2.366,2.366,0,0,1,.7.1Zm4.18-4.2v2.078h1.445V-6.8H-32.8v4.219a1.007,1.007,0,0,0,.18.672.9.9,0,0,0,.688.2,3.6,3.6,0,0,0,.664-.055V-.047a4.648,4.648,0,0,1-1.367.2,2.156,2.156,0,0,1-2.422-2.4V-6.8H-36.3V-8.453h1.234v-2.078ZM-27.664,0h-2.258V-8.453h2.258Zm-.664-11.883h2.461l-2.164,2.422h-1.836ZM-22.2-1.664a1.481,1.481,0,0,0,1.016-.344,1.2,1.2,0,0,0,.406-.914h2.117a2.9,2.9,0,0,1-.469,1.574A3.093,3.093,0,0,1-20.395-.238a3.949,3.949,0,0,1-1.77.395A3.67,3.67,0,0,1-25.023-1,4.56,4.56,0,0,1-26.07-4.18v-.148a4.508,4.508,0,0,1,1.039-3.117A3.627,3.627,0,0,1-22.18-8.609a3.555,3.555,0,0,1,2.543.9,3.2,3.2,0,0,1,.973,2.4h-2.117a1.551,1.551,0,0,0-.406-1.072,1.354,1.354,0,0,0-1.031-.412,1.36,1.36,0,0,0-1.191.575,3.333,3.333,0,0,0-.4,1.866v.235a3.375,3.375,0,0,0,.4,1.878A1.377,1.377,0,0,0-22.2-1.664Zm9.891.8A2.831,2.831,0,0,1-14.625.156,2.67,2.67,0,0,1-16.7-.625a3.335,3.335,0,0,1-.73-2.289V-8.453h2.258v5.467q0,1.322,1.2,1.322a1.63,1.63,0,0,0,1.578-.8V-8.453h2.266V0H-12.25ZM-6.039,0H-8.3V-12h2.266Zm1.508-4.3a5.013,5.013,0,0,1,.484-2.242A3.546,3.546,0,0,1-2.652-8.07,4.069,4.069,0,0,1-.539-8.609,3.849,3.849,0,0,1,2.254-7.562,4.2,4.2,0,0,1,3.461-4.719l.016.578A4.418,4.418,0,0,1,2.391-1.02,3.775,3.775,0,0,1-.523.156,3.793,3.793,0,0,1-3.441-1.016,4.5,4.5,0,0,1-4.531-4.2Zm2.258.16A3.16,3.16,0,0,0-1.82-2.3a1.5,1.5,0,0,0,1.3.638,1.5,1.5,0,0,0,1.281-.63,3.457,3.457,0,0,0,.461-2.015A3.128,3.128,0,0,0,.758-6.14a1.5,1.5,0,0,0-1.3-.649,1.474,1.474,0,0,0-1.281.646A3.516,3.516,0,0,0-2.273-4.144ZM14.242,0H11.984V-8.715l-2.7.832V-9.7L14-11.391h.242Zm11.43-10.115L21.273,0H18.891L23.3-9.555H17.641v-1.82h8.031Zm8.859,1.763a2.646,2.646,0,0,1-.414,1.469,2.98,2.98,0,0,1-1.141,1.023,3.3,3.3,0,0,1,1.313,1.1,2.816,2.816,0,0,1,.484,1.645A2.981,2.981,0,0,1,33.742-.723a4.183,4.183,0,0,1-2.8.879,4.2,4.2,0,0,1-2.812-.883,2.974,2.974,0,0,1-1.039-2.391,2.834,2.834,0,0,1,.484-1.648,3.239,3.239,0,0,1,1.3-1.094,2.95,2.95,0,0,1-1.137-1.023,2.664,2.664,0,0,1-.41-1.469,2.948,2.948,0,0,1,.969-2.316,3.814,3.814,0,0,1,2.633-.863,3.839,3.839,0,0,1,2.629.855A2.937,2.937,0,0,1,34.531-8.352Zm-2.023,5.07a1.638,1.638,0,0,0-.43-1.187,1.532,1.532,0,0,0-1.156-.445,1.529,1.529,0,0,0-1.148.441,1.635,1.635,0,0,0-.43,1.191,1.634,1.634,0,0,0,.422,1.172,1.537,1.537,0,0,0,1.172.445,1.533,1.533,0,0,0,1.152-.43A1.631,1.631,0,0,0,32.508-3.281Zm-.234-4.961a1.563,1.563,0,0,0-.352-1.066,1.247,1.247,0,0,0-.992-.4,1.256,1.256,0,0,0-.984.391,1.553,1.553,0,0,0-.352,1.078,1.633,1.633,0,0,0,.352,1.094,1.23,1.23,0,0,0,.992.414,1.219,1.219,0,0,0,.988-.414A1.645,1.645,0,0,0,32.273-8.242ZM44.094,0H36.3V-1.547l3.68-3.922A9.078,9.078,0,0,0,41.1-6.914a2.322,2.322,0,0,0,.363-1.172,1.738,1.738,0,0,0-.383-1.191,1.382,1.382,0,0,0-1.094-.434,1.49,1.49,0,0,0-1.207.527A2.089,2.089,0,0,0,38.336-7.8H36.07a3.729,3.729,0,0,1,.5-1.9,3.5,3.5,0,0,1,1.4-1.348,4.262,4.262,0,0,1,2.055-.488,4.036,4.036,0,0,1,2.73.844A2.985,2.985,0,0,1,43.727-8.3a3.825,3.825,0,0,1-.437,1.719,9.551,9.551,0,0,1-1.5,2.039L39.2-1.82h4.891ZM49.2-4.289a5.094,5.094,0,0,1,.887-3.148,2.877,2.877,0,0,1,2.426-1.172,2.589,2.589,0,0,1,2.039.922V-12H56.82V0H54.781l-.109-.9A2.657,2.657,0,0,1,52.5.156,2.869,2.869,0,0,1,50.105-1.02,5.258,5.258,0,0,1,49.2-4.289Zm2.258.161A3.355,3.355,0,0,0,51.875-2.3a1.348,1.348,0,0,0,1.2.636,1.51,1.51,0,0,0,1.477-.887V-5.9a1.489,1.489,0,0,0-1.461-.887Q51.461-6.789,51.461-4.128Zm11,4.285A4.15,4.15,0,0,1,59.434-.984a4.054,4.054,0,0,1-1.168-3.039v-.219a5.106,5.106,0,0,1,.492-2.277,3.612,3.612,0,0,1,1.395-1.547,3.914,3.914,0,0,1,2.059-.543,3.508,3.508,0,0,1,2.73,1.094,4.444,4.444,0,0,1,1,3.1v.922H60.555a2.1,2.1,0,0,0,.66,1.328,2,2,0,0,0,1.395.5,2.437,2.437,0,0,0,2.039-.945l1.109,1.242A3.389,3.389,0,0,1,64.383-.246,4.511,4.511,0,0,1,62.461.156ZM62.2-6.789a1.411,1.411,0,0,0-1.09.455,2.357,2.357,0,0,0-.535,1.3h3.141v-.181a1.681,1.681,0,0,0-.406-1.165A1.456,1.456,0,0,0,62.2-6.789ZM69.6,0H67.336V-12H69.6ZM-66.453,17.536a1.481,1.481,0,0,0,1.016-.344,1.2,1.2,0,0,0,.406-.914h2.117a2.9,2.9,0,0,1-.469,1.574,3.093,3.093,0,0,1-1.262,1.109,3.949,3.949,0,0,1-1.77.395A3.67,3.67,0,0,1-69.273,18.2,4.56,4.56,0,0,1-70.32,15.02v-.148a4.508,4.508,0,0,1,1.039-3.117,3.627,3.627,0,0,1,2.852-1.164,3.555,3.555,0,0,1,2.543.9,3.2,3.2,0,0,1,.973,2.4h-2.117a1.551,1.551,0,0,0-.406-1.072,1.354,1.354,0,0,0-1.031-.412,1.36,1.36,0,0,0-1.191.575,3.333,3.333,0,0,0-.4,1.866v.235a3.375,3.375,0,0,0,.4,1.878A1.377,1.377,0,0,0-66.453,17.536Zm4.477-2.641a5.013,5.013,0,0,1,.484-2.242A3.546,3.546,0,0,1-60.1,11.13a4.069,4.069,0,0,1,2.113-.539,3.849,3.849,0,0,1,2.793,1.047,4.2,4.2,0,0,1,1.207,2.844l.016.578a4.418,4.418,0,0,1-1.086,3.121,3.775,3.775,0,0,1-2.914,1.176,3.793,3.793,0,0,1-2.918-1.172A4.5,4.5,0,0,1-61.977,15Zm2.258.16a3.16,3.16,0,0,0,.453,1.843,1.5,1.5,0,0,0,1.3.638,1.5,1.5,0,0,0,1.281-.63,3.457,3.457,0,0,0,.461-2.015,3.128,3.128,0,0,0-.461-1.831,1.5,1.5,0,0,0-1.3-.649,1.474,1.474,0,0,0-1.281.646A3.516,3.516,0,0,0-59.719,15.056Zm2.18-7.856h2.461l-2.164,2.422h-1.836Zm4.609,7.711a5.094,5.094,0,0,1,.887-3.148,2.877,2.877,0,0,1,2.426-1.172,2.589,2.589,0,0,1,2.039.922V7.2h2.266v12h-2.039l-.109-.9a2.657,2.657,0,0,1-2.172,1.055,2.869,2.869,0,0,1-2.395-1.176A5.258,5.258,0,0,1-52.93,14.911Zm2.258.161a3.355,3.355,0,0,0,.414,1.829,1.348,1.348,0,0,0,1.2.636,1.51,1.51,0,0,0,1.477-.887V13.3a1.489,1.489,0,0,0-1.461-.887Q-50.672,12.411-50.672,15.072ZM-41.18,19.2h-2.266V10.747h2.266Zm-2.4-10.641a1.112,1.112,0,0,1,.34-.836,1.277,1.277,0,0,1,.926-.328,1.28,1.28,0,0,1,.922.328,1.105,1.105,0,0,1,.344.836,1.108,1.108,0,0,1-.348.844,1.283,1.283,0,0,1-.918.328A1.283,1.283,0,0,1-43.23,9.4,1.108,1.108,0,0,1-43.578,8.559Zm3.93,6.352a4.954,4.954,0,0,1,.926-3.133,3,3,0,0,1,2.5-1.187,2.631,2.631,0,0,1,2.164.953l.094-.8h2.047v8.172a3.613,3.613,0,0,1-.5,1.93,3.236,3.236,0,0,1-1.418,1.25,4.985,4.985,0,0,1-2.141.43,4.635,4.635,0,0,1-1.812-.371,3.217,3.217,0,0,1-1.336-.957l1-1.375a2.645,2.645,0,0,0,2.047.945,1.936,1.936,0,0,0,1.4-.48,1.8,1.8,0,0,0,.5-1.363v-.453a2.612,2.612,0,0,1-2.055.883,2.992,2.992,0,0,1-2.465-1.191A4.953,4.953,0,0,1-39.648,15Zm2.258.161a3.1,3.1,0,0,0,.461,1.809,1.465,1.465,0,0,0,1.266.655,1.567,1.567,0,0,0,1.477-.777V13.188a1.563,1.563,0,0,0-1.461-.777,1.474,1.474,0,0,0-1.277.667A3.5,3.5,0,0,0-37.391,15.072Zm6.852-.176a5.013,5.013,0,0,1,.484-2.242A3.546,3.546,0,0,1-28.66,11.13a4.069,4.069,0,0,1,2.113-.539,3.849,3.849,0,0,1,2.793,1.047,4.2,4.2,0,0,1,1.207,2.844l.016.578a4.418,4.418,0,0,1-1.086,3.121,3.775,3.775,0,0,1-2.914,1.176,3.793,3.793,0,0,1-2.918-1.172A4.5,4.5,0,0,1-30.539,15Zm2.258.16a3.16,3.16,0,0,0,.453,1.843,1.5,1.5,0,0,0,1.3.638,1.5,1.5,0,0,0,1.281-.63,3.457,3.457,0,0,0,.461-2.015,3.128,3.128,0,0,0-.461-1.831,1.5,1.5,0,0,0-1.3-.649,1.474,1.474,0,0,0-1.281.646A3.516,3.516,0,0,0-28.281,15.056Zm10.773-.145a5.094,5.094,0,0,1,.887-3.148A2.877,2.877,0,0,1-14.2,10.591a2.589,2.589,0,0,1,2.039.922V7.2h2.266v12H-11.93l-.109-.9a2.657,2.657,0,0,1-2.172,1.055,2.869,2.869,0,0,1-2.395-1.176A5.258,5.258,0,0,1-17.508,14.911Zm2.258.161a3.355,3.355,0,0,0,.414,1.829,1.348,1.348,0,0,0,1.2.636,1.51,1.51,0,0,0,1.477-.887V13.3a1.489,1.489,0,0,0-1.461-.887Q-15.25,12.411-15.25,15.072Zm11,4.285a4.15,4.15,0,0,1-3.027-1.141,4.054,4.054,0,0,1-1.168-3.039v-.219a5.106,5.106,0,0,1,.492-2.277,3.612,3.612,0,0,1,1.395-1.547A3.914,3.914,0,0,1-4.5,10.591a3.508,3.508,0,0,1,2.73,1.094,4.444,4.444,0,0,1,1,3.1v.922H-6.156a2.1,2.1,0,0,0,.66,1.328,2,2,0,0,0,1.395.5,2.437,2.437,0,0,0,2.039-.945l1.109,1.242a3.389,3.389,0,0,1-1.375,1.121A4.511,4.511,0,0,1-4.25,19.356Zm-.258-6.945a1.411,1.411,0,0,0-1.09.455,2.357,2.357,0,0,0-.535,1.3h3.141v-.181A1.681,1.681,0,0,0-3.4,12.823,1.456,1.456,0,0,0-4.508,12.411ZM8.008,17.536a1.481,1.481,0,0,0,1.016-.344,1.2,1.2,0,0,0,.406-.914h2.117a2.9,2.9,0,0,1-.469,1.574,3.093,3.093,0,0,1-1.262,1.109,3.949,3.949,0,0,1-1.77.395A3.67,3.67,0,0,1,5.188,18.2,4.56,4.56,0,0,1,4.141,15.02v-.148A4.508,4.508,0,0,1,5.18,11.755a3.627,3.627,0,0,1,2.852-1.164,3.555,3.555,0,0,1,2.543.9,3.2,3.2,0,0,1,.973,2.4H9.43a1.551,1.551,0,0,0-.406-1.072,1.354,1.354,0,0,0-1.031-.412,1.36,1.36,0,0,0-1.191.575,3.333,3.333,0,0,0-.4,1.866v.235a3.375,3.375,0,0,0,.4,1.878A1.377,1.377,0,0,0,8.008,17.536ZM12.484,14.9a5.013,5.013,0,0,1,.484-2.242,3.546,3.546,0,0,1,1.395-1.523,4.069,4.069,0,0,1,2.113-.539,3.849,3.849,0,0,1,2.793,1.047,4.2,4.2,0,0,1,1.207,2.844l.016.578a4.418,4.418,0,0,1-1.086,3.121,3.775,3.775,0,0,1-2.914,1.176,3.793,3.793,0,0,1-2.918-1.172A4.5,4.5,0,0,1,12.484,15Zm2.258.16A3.16,3.16,0,0,0,15.2,16.9a1.628,1.628,0,0,0,2.578.008,3.457,3.457,0,0,0,.461-2.015,3.128,3.128,0,0,0-.461-1.831,1.5,1.5,0,0,0-1.3-.649,1.474,1.474,0,0,0-1.281.646A3.516,3.516,0,0,0,14.742,15.056ZM24,10.747l.07.945a2.971,2.971,0,0,1,2.43-1.1,2.255,2.255,0,0,1,2.242,1.289,2.9,2.9,0,0,1,2.539-1.289,2.521,2.521,0,0,1,2.047.8A3.681,3.681,0,0,1,34,13.8v5.4H31.734V13.8a1.616,1.616,0,0,0-.281-1.053,1.245,1.245,0,0,0-.992-.333,1.409,1.409,0,0,0-1.406.971l.008,5.818H26.8V13.8a1.6,1.6,0,0,0-.289-1.065,1.257,1.257,0,0,0-.984-.329,1.463,1.463,0,0,0-1.391.8V19.2H21.883V10.747Zm15.625,8.609A4.15,4.15,0,0,1,36.6,18.216a4.054,4.054,0,0,1-1.168-3.039v-.219a5.106,5.106,0,0,1,.492-2.277,3.612,3.612,0,0,1,1.395-1.547,3.914,3.914,0,0,1,2.059-.543,3.508,3.508,0,0,1,2.73,1.094,4.444,4.444,0,0,1,1,3.1v.922H37.719a2.1,2.1,0,0,0,.66,1.328,2,2,0,0,0,1.395.5,2.437,2.437,0,0,0,2.039-.945l1.109,1.242a3.389,3.389,0,0,1-1.375,1.121A4.511,4.511,0,0,1,39.625,19.356Zm-.258-6.945a1.411,1.411,0,0,0-1.09.455,2.357,2.357,0,0,0-.535,1.3h3.141v-.181a1.681,1.681,0,0,0-.406-1.165A1.456,1.456,0,0,0,39.367,12.411Zm9.766.453a6.134,6.134,0,0,0-.812-.062,1.654,1.654,0,0,0-1.68.867V19.2H44.383V10.747h2.133l.063,1.008a2.092,2.092,0,0,1,1.883-1.164,2.366,2.366,0,0,1,.7.1Zm4.453,4.672a1.481,1.481,0,0,0,1.016-.344,1.2,1.2,0,0,0,.406-.914h2.117a2.9,2.9,0,0,1-.469,1.574,3.093,3.093,0,0,1-1.262,1.109,3.949,3.949,0,0,1-1.77.395A3.67,3.67,0,0,1,50.766,18.2a4.56,4.56,0,0,1-1.047-3.184v-.148a4.508,4.508,0,0,1,1.039-3.117,3.627,3.627,0,0,1,2.852-1.164,3.555,3.555,0,0,1,2.543.9,3.2,3.2,0,0,1,.973,2.4H55.008a1.551,1.551,0,0,0-.406-1.072,1.51,1.51,0,0,0-2.223.163,3.333,3.333,0,0,0-.4,1.866v.235a3.375,3.375,0,0,0,.4,1.878A1.377,1.377,0,0,0,53.586,17.536ZM60.8,19.2H58.531V10.747H60.8ZM58.4,8.559a1.112,1.112,0,0,1,.34-.836,1.465,1.465,0,0,1,1.848,0,1.193,1.193,0,0,1,0,1.68,1.448,1.448,0,0,1-1.836,0A1.108,1.108,0,0,1,58.4,8.559ZM62.3,14.9a5.013,5.013,0,0,1,.484-2.242,3.546,3.546,0,0,1,1.395-1.523,4.069,4.069,0,0,1,2.113-.539,3.849,3.849,0,0,1,2.793,1.047A4.2,4.2,0,0,1,70.3,14.481l.016.578a4.418,4.418,0,0,1-1.086,3.121,4.209,4.209,0,0,1-5.832,0A4.5,4.5,0,0,1,62.3,15Zm2.258.16a3.16,3.16,0,0,0,.453,1.843,1.628,1.628,0,0,0,2.578.008,3.457,3.457,0,0,0,.461-2.015,3.128,3.128,0,0,0-.461-1.831,1.5,1.5,0,0,0-1.3-.649,1.474,1.474,0,0,0-1.281.646A3.516,3.516,0,0,0,64.563,15.056Z" transform="translate(-9564.629 -8091.871)"/>
      <rect id="Rectangle_32030" data-name="Rectangle 32030" width="115.39" height="1.286" transform="translate(-9506.934 -8111.201) rotate(180)" fill="#ffb74d"/>
      <path id="Path_135756" data-name="Path 135756" d="M-59.211-4.945h-4.5v3.063h5.281V0h-7.625V-11.375h7.609v1.9h-5.266v2.711h4.5ZM-54.82,0h-2.266V-12h2.266Zm5.492-4.289a5.094,5.094,0,0,1,.887-3.148,2.877,2.877,0,0,1,2.426-1.172,2.589,2.589,0,0,1,2.039.922V-12h2.266V0H-43.75l-.109-.9A2.657,2.657,0,0,1-46.031.156,2.869,2.869,0,0,1-48.426-1.02,5.258,5.258,0,0,1-49.328-4.289Zm2.258.161A3.355,3.355,0,0,0-46.656-2.3a1.348,1.348,0,0,0,1.2.636,1.51,1.51,0,0,0,1.477-.887V-5.9a1.489,1.489,0,0,0-1.461-.887Q-47.07-6.789-47.07-4.128Zm11,4.285A4.15,4.15,0,0,1-39.1-.984a4.054,4.054,0,0,1-1.168-3.039v-.219a5.106,5.106,0,0,1,.492-2.277,3.612,3.612,0,0,1,1.395-1.547,3.914,3.914,0,0,1,2.059-.543,3.508,3.508,0,0,1,2.73,1.094,4.444,4.444,0,0,1,1,3.1v.922h-5.383a2.1,2.1,0,0,0,.66,1.328,2,2,0,0,0,1.395.5,2.437,2.437,0,0,0,2.039-.945l1.109,1.242A3.389,3.389,0,0,1-34.148-.246,4.511,4.511,0,0,1-36.07.156Zm-.258-6.945a1.411,1.411,0,0,0-1.09.455,2.357,2.357,0,0,0-.535,1.3h3.141v-.181a1.681,1.681,0,0,0-.406-1.165A1.456,1.456,0,0,0-36.328-6.789ZM-27.8-1.664a1.481,1.481,0,0,0,1.016-.344,1.2,1.2,0,0,0,.406-.914h2.117a2.9,2.9,0,0,1-.469,1.574A3.093,3.093,0,0,1-25.988-.238a3.949,3.949,0,0,1-1.77.395A3.67,3.67,0,0,1-30.617-1,4.56,4.56,0,0,1-31.664-4.18v-.148a4.508,4.508,0,0,1,1.039-3.117,3.627,3.627,0,0,1,2.852-1.164,3.555,3.555,0,0,1,2.543.9,3.2,3.2,0,0,1,.973,2.4h-2.117a1.551,1.551,0,0,0-.406-1.072,1.354,1.354,0,0,0-1.031-.412A1.36,1.36,0,0,0-29-6.214a3.333,3.333,0,0,0-.4,1.866v.235a3.375,3.375,0,0,0,.4,1.878A1.377,1.377,0,0,0-27.8-1.664Zm9.578-4.672a6.134,6.134,0,0,0-.812-.062,1.654,1.654,0,0,0-1.68.867V0h-2.258V-8.453h2.133l.063,1.008a2.092,2.092,0,0,1,1.883-1.164,2.366,2.366,0,0,1,.7.1ZM-13.391.156A4.15,4.15,0,0,1-16.418-.984a4.054,4.054,0,0,1-1.168-3.039v-.219a5.106,5.106,0,0,1,.492-2.277A3.612,3.612,0,0,1-15.7-8.066a3.914,3.914,0,0,1,2.059-.543,3.508,3.508,0,0,1,2.73,1.094,4.444,4.444,0,0,1,1,3.1v.922H-15.3a2.1,2.1,0,0,0,.66,1.328,2,2,0,0,0,1.395.5A2.437,2.437,0,0,0-11.2-2.609l1.109,1.242A3.389,3.389,0,0,1-11.469-.246,4.511,4.511,0,0,1-13.391.156Zm-.258-6.945a1.411,1.411,0,0,0-1.09.455,2.357,2.357,0,0,0-.535,1.3h3.141v-.181a1.681,1.681,0,0,0-.406-1.165A1.456,1.456,0,0,0-13.648-6.789Zm7.719-3.742v2.078h1.445V-6.8H-5.93v4.219a1.007,1.007,0,0,0,.18.672.9.9,0,0,0,.688.2A3.6,3.6,0,0,0-4.4-1.758V-.047a4.648,4.648,0,0,1-1.367.2,2.156,2.156,0,0,1-2.422-2.4V-6.8H-9.422V-8.453h1.234v-2.078ZM-3.812-4.3a5.013,5.013,0,0,1,.484-2.242A3.546,3.546,0,0,1-1.934-8.07,4.069,4.069,0,0,1,.18-8.609,3.849,3.849,0,0,1,2.973-7.562,4.2,4.2,0,0,1,4.18-4.719l.016.578A4.418,4.418,0,0,1,3.109-1.02,3.775,3.775,0,0,1,.2.156,3.793,3.793,0,0,1-2.723-1.016,4.5,4.5,0,0,1-3.812-4.2Zm2.258.16A3.16,3.16,0,0,0-1.1-2.3a1.5,1.5,0,0,0,1.3.638,1.5,1.5,0,0,0,1.281-.63,3.457,3.457,0,0,0,.461-2.015A3.128,3.128,0,0,0,1.477-6.14a1.5,1.5,0,0,0-1.3-.649A1.474,1.474,0,0,0-1.1-6.144,3.516,3.516,0,0,0-1.555-4.144ZM17.133-4.7a5.763,5.763,0,0,1-.977,3.609A3.409,3.409,0,0,1,13.3.156,3.433,3.433,0,0,1,10.453-1.07,5.594,5.594,0,0,1,9.445-4.586V-6.68a5.687,5.687,0,0,1,.988-3.617,3.434,3.434,0,0,1,2.848-1.234,3.437,3.437,0,0,1,2.844,1.223A5.576,5.576,0,0,1,17.133-6.8Zm-2.258-2.3a4.165,4.165,0,0,0-.387-2.061,1.307,1.307,0,0,0-1.207-.645,1.284,1.284,0,0,0-1.176.614,3.9,3.9,0,0,0-.4,1.92v2.768a4.372,4.372,0,0,0,.379,2.068,1.29,1.29,0,0,0,1.215.676,1.268,1.268,0,0,0,1.2-.649A4.268,4.268,0,0,0,14.875-4.3ZM26.313-4.7a5.763,5.763,0,0,1-.977,3.609A3.409,3.409,0,0,1,22.477.156,3.433,3.433,0,0,1,19.633-1.07a5.594,5.594,0,0,1-1.008-3.516V-6.68a5.687,5.687,0,0,1,.988-3.617,3.434,3.434,0,0,1,2.848-1.234A3.437,3.437,0,0,1,25.3-10.309,5.576,5.576,0,0,1,26.313-6.8Zm-2.258-2.3a4.165,4.165,0,0,0-.387-2.061,1.307,1.307,0,0,0-1.207-.645,1.284,1.284,0,0,0-1.176.614,3.9,3.9,0,0,0-.4,1.92v2.768a4.373,4.373,0,0,0,.379,2.068,1.29,1.29,0,0,0,1.215.676,1.268,1.268,0,0,0,1.2-.649A4.268,4.268,0,0,0,24.055-4.3ZM33.32,0H31.063V-8.715l-2.7.832V-9.7l4.711-1.687h.242ZM42.3-4.547a2.851,2.851,0,0,1-2.062.867A3.049,3.049,0,0,1,37.82-4.715a4.091,4.091,0,0,1-.906-2.793A4.357,4.357,0,0,1,37.4-9.559a3.582,3.582,0,0,1,1.363-1.453,3.782,3.782,0,0,1,1.969-.52,3.617,3.617,0,0,1,2,.563,3.7,3.7,0,0,1,1.359,1.617,5.806,5.806,0,0,1,.492,2.414V-6.1a6.579,6.579,0,0,1-1.414,4.469A5.346,5.346,0,0,1,39.164.1l-.555.008V-1.773l.5-.008Q42.055-1.914,42.3-4.547Zm-1.508-.859a1.579,1.579,0,0,0,.941-.281,1.879,1.879,0,0,0,.6-.68V-7.3a3.1,3.1,0,0,0-.437-1.781,1.358,1.358,0,0,0-1.172-.633A1.318,1.318,0,0,0,39.6-9.09a2.641,2.641,0,0,0-.437,1.559A2.57,2.57,0,0,0,39.59-6,1.387,1.387,0,0,0,40.789-5.406Zm9.133,1.117a5.094,5.094,0,0,1,.887-3.148,2.877,2.877,0,0,1,2.426-1.172,2.589,2.589,0,0,1,2.039.922V-12h2.266V0H55.5l-.109-.9A2.657,2.657,0,0,1,53.219.156,2.869,2.869,0,0,1,50.824-1.02,5.258,5.258,0,0,1,49.922-4.289Zm2.258.161A3.355,3.355,0,0,0,52.594-2.3a1.348,1.348,0,0,0,1.2.636,1.51,1.51,0,0,0,1.477-.887V-5.9a1.489,1.489,0,0,0-1.461-.887Q52.18-6.789,52.18-4.128Zm11,4.285A4.15,4.15,0,0,1,60.152-.984a4.054,4.054,0,0,1-1.168-3.039v-.219a5.106,5.106,0,0,1,.492-2.277,3.612,3.612,0,0,1,1.395-1.547,3.914,3.914,0,0,1,2.059-.543,3.508,3.508,0,0,1,2.73,1.094,4.444,4.444,0,0,1,1,3.1v.922H61.273a2.1,2.1,0,0,0,.66,1.328,2,2,0,0,0,1.395.5,2.437,2.437,0,0,0,2.039-.945l1.109,1.242A3.389,3.389,0,0,1,65.1-.246,4.511,4.511,0,0,1,63.18.156Zm-.258-6.945a1.411,1.411,0,0,0-1.09.455,2.357,2.357,0,0,0-.535,1.3h3.141v-.181a1.681,1.681,0,0,0-.406-1.165A1.456,1.456,0,0,0,62.922-6.789ZM-73.137,19.2h-7.8V17.653l3.68-3.922a9.078,9.078,0,0,0,1.121-1.445,2.322,2.322,0,0,0,.363-1.172,1.738,1.738,0,0,0-.383-1.191,1.382,1.382,0,0,0-1.094-.434,1.49,1.49,0,0,0-1.207.527,2.089,2.089,0,0,0-.441,1.387H-81.16a3.729,3.729,0,0,1,.5-1.9,3.5,3.5,0,0,1,1.4-1.348,4.262,4.262,0,0,1,2.055-.488,4.036,4.036,0,0,1,2.73.844A2.985,2.985,0,0,1-73.5,10.9a3.825,3.825,0,0,1-.437,1.719,9.551,9.551,0,0,1-1.5,2.039l-2.586,2.727h4.891Zm9.039-4.7a5.763,5.763,0,0,1-.977,3.609,3.409,3.409,0,0,1-2.859,1.25,3.433,3.433,0,0,1-2.844-1.227,5.594,5.594,0,0,1-1.008-3.516V12.52A5.687,5.687,0,0,1-70.8,8.9a3.434,3.434,0,0,1,2.848-1.234,3.437,3.437,0,0,1,2.844,1.223A5.576,5.576,0,0,1-64.1,12.4Zm-2.258-2.3a4.165,4.165,0,0,0-.387-2.061,1.307,1.307,0,0,0-1.207-.645,1.284,1.284,0,0,0-1.176.614,3.9,3.9,0,0,0-.4,1.92v2.768a4.373,4.373,0,0,0,.379,2.068,1.29,1.29,0,0,0,1.215.676,1.268,1.268,0,0,0,1.2-.649,4.268,4.268,0,0,0,.383-1.986ZM-57.09,19.2h-2.258V10.485l-2.7.832V9.5l4.711-1.687h.242Zm11.492,0h-7.8V17.653l3.68-3.922a9.078,9.078,0,0,0,1.121-1.445,2.322,2.322,0,0,0,.363-1.172,1.738,1.738,0,0,0-.383-1.191,1.382,1.382,0,0,0-1.094-.434,1.49,1.49,0,0,0-1.207.527,2.089,2.089,0,0,0-.441,1.387h-2.266a3.729,3.729,0,0,1,.5-1.9,3.5,3.5,0,0,1,1.4-1.348,4.262,4.262,0,0,1,2.055-.488,4.036,4.036,0,0,1,2.73.844,2.985,2.985,0,0,1,.973,2.383,3.825,3.825,0,0,1-.437,1.719,9.551,9.551,0,0,1-1.5,2.039l-2.586,2.727H-45.6Zm10.039-2.336a.727.727,0,0,0-.41-.652,4.659,4.659,0,0,0-1.316-.426q-3.016-.633-3.016-2.562a2.323,2.323,0,0,1,.934-1.879,3.766,3.766,0,0,1,2.441-.754,4.053,4.053,0,0,1,2.574.758,2.388,2.388,0,0,1,.965,1.969h-2.258a1.092,1.092,0,0,0-.312-.8,1.322,1.322,0,0,0-.977-.316,1.351,1.351,0,0,0-.883.258.814.814,0,0,0-.312.656.7.7,0,0,0,.355.605,3.657,3.657,0,0,0,1.2.4,9.8,9.8,0,0,1,1.422.379,2.336,2.336,0,0,1,1.789,2.273,2.2,2.2,0,0,1-.992,1.871,4.28,4.28,0,0,1-2.562.715,4.47,4.47,0,0,1-1.887-.379A3.166,3.166,0,0,1-40.1,17.938a2.414,2.414,0,0,1-.469-1.426h2.141a1.179,1.179,0,0,0,.445.922,1.766,1.766,0,0,0,1.109.32,1.635,1.635,0,0,0,.98-.246A.766.766,0,0,0-35.559,16.864Zm8.711,1.477a2.831,2.831,0,0,1-2.312,1.016,2.67,2.67,0,0,1-2.074-.781,3.335,3.335,0,0,1-.73-2.289V10.747h2.258v5.467q0,1.322,1.2,1.322a1.63,1.63,0,0,0,1.578-.8V10.747h2.266V19.2h-2.125Zm11.5-3.289a5.07,5.07,0,0,1-.887,3.129,2.843,2.843,0,0,1-2.395,1.176,2.633,2.633,0,0,1-2.07-.891V22.45h-2.258v-11.7h2.094l.078.828a2.654,2.654,0,0,1,2.141-.984,2.862,2.862,0,0,1,2.43,1.156,5.207,5.207,0,0,1,.867,3.188Zm-2.258-.172a3.345,3.345,0,0,0-.418-1.826,1.36,1.36,0,0,0-1.215-.643,1.478,1.478,0,0,0-1.461.815V16.7a1.5,1.5,0,0,0,1.477.839Q-17.605,17.536-17.605,14.879ZM-9.2,12.864a6.134,6.134,0,0,0-.812-.062,1.654,1.654,0,0,0-1.68.867V19.2h-2.258V10.747h2.133l.063,1.008a2.092,2.092,0,0,1,1.883-1.164,2.366,2.366,0,0,1,.7.1ZM-5.73,19.2H-8V10.747H-5.73Zm-2.4-10.641a1.112,1.112,0,0,1,.34-.836A1.277,1.277,0,0,1-6.863,7.4a1.28,1.28,0,0,1,.922.328,1.105,1.105,0,0,1,.344.836,1.108,1.108,0,0,1-.348.844,1.283,1.283,0,0,1-.918.328A1.283,1.283,0,0,1-7.781,9.4,1.108,1.108,0,0,1-8.129,8.559Zm6.375,2.187.07.945a2.971,2.971,0,0,1,2.43-1.1A2.255,2.255,0,0,1,2.988,11.88a2.9,2.9,0,0,1,2.539-1.289,2.521,2.521,0,0,1,2.047.8,3.681,3.681,0,0,1,.672,2.41v5.4H5.98V13.8A1.616,1.616,0,0,0,5.7,12.744a1.245,1.245,0,0,0-.992-.333,1.409,1.409,0,0,0-1.406.971L3.309,19.2H1.051V13.8A1.6,1.6,0,0,0,.762,12.74a1.257,1.257,0,0,0-.984-.329,1.463,1.463,0,0,0-1.391.8V19.2H-3.871V10.747Zm15.625,8.609a4.15,4.15,0,0,1-3.027-1.141,4.054,4.054,0,0,1-1.168-3.039v-.219a5.106,5.106,0,0,1,.492-2.277,3.612,3.612,0,0,1,1.395-1.547,3.914,3.914,0,0,1,2.059-.543,3.508,3.508,0,0,1,2.73,1.094,4.444,4.444,0,0,1,1,3.1v.922H11.965a2.1,2.1,0,0,0,.66,1.328,2,2,0,0,0,1.395.5,2.437,2.437,0,0,0,2.039-.945l1.109,1.242a3.389,3.389,0,0,1-1.375,1.121A4.511,4.511,0,0,1,13.871,19.356Zm-.258-6.945a1.411,1.411,0,0,0-1.09.455,2.357,2.357,0,0,0-.535,1.3h3.141v-.181a1.681,1.681,0,0,0-.406-1.165A1.456,1.456,0,0,0,13.613,12.411Zm11.7-3.742v2.078h1.445V12.4H25.316v4.219a1.007,1.007,0,0,0,.18.672.9.9,0,0,0,.688.2,3.6,3.6,0,0,0,.664-.055v1.711a4.648,4.648,0,0,1-1.367.2,2.156,2.156,0,0,1-2.422-2.4V12.4H21.824V10.747h1.234V8.669Zm7.453,4.2a6.134,6.134,0,0,0-.812-.062,1.654,1.654,0,0,0-1.68.867V19.2H28.02V10.747h2.133l.063,1.008A2.092,2.092,0,0,1,32.1,10.591a2.366,2.366,0,0,1,.7.1ZM38.52,19.2a2.507,2.507,0,0,1-.227-.758,2.732,2.732,0,0,1-2.133.914,3,3,0,0,1-2.059-.719,2.312,2.312,0,0,1-.816-1.812,2.389,2.389,0,0,1,1-2.062,4.915,4.915,0,0,1,2.879-.727H38.2v-.484a1.393,1.393,0,0,0-.3-.937,1.183,1.183,0,0,0-.949-.352,1.345,1.345,0,0,0-.895.273.929.929,0,0,0-.324.75H33.473a2.268,2.268,0,0,1,.453-1.359,3,3,0,0,1,1.281-.98,4.669,4.669,0,0,1,1.859-.355,3.689,3.689,0,0,1,2.48.785,2.747,2.747,0,0,1,.918,2.207v3.664a4.041,4.041,0,0,0,.336,1.82V19.2Zm-1.867-1.57a1.945,1.945,0,0,0,.922-.223,1.462,1.462,0,0,0,.625-.6V15.356h-.844q-1.7,0-1.8,1.172l-.008.133a.9.9,0,0,0,.3.7A1.153,1.153,0,0,0,36.652,17.63ZM37.512,7.2h2.461L37.809,9.622H35.973Zm6.8,3.547.07.945a2.971,2.971,0,0,1,2.43-1.1,2.255,2.255,0,0,1,2.242,1.289A2.9,2.9,0,0,1,51.6,10.591a2.521,2.521,0,0,1,2.047.8,3.681,3.681,0,0,1,.672,2.41v5.4H52.051V13.8a1.616,1.616,0,0,0-.281-1.053,1.245,1.245,0,0,0-.992-.333,1.409,1.409,0,0,0-1.406.971l.008,5.818H47.121V13.8a1.6,1.6,0,0,0-.289-1.065,1.257,1.257,0,0,0-.984-.329,1.463,1.463,0,0,0-1.391.8V19.2H42.2V10.747ZM58.434,19.2H56.168V10.747h2.266Zm-2.4-10.641a1.112,1.112,0,0,1,.34-.836,1.465,1.465,0,0,1,1.848,0,1.193,1.193,0,0,1,0,1.68,1.448,1.448,0,0,1-1.836,0A1.108,1.108,0,0,1,56.035,8.559ZM63,8.669v2.078h1.445V12.4H63v4.219a1.007,1.007,0,0,0,.18.672.9.9,0,0,0,.688.2,3.6,3.6,0,0,0,.664-.055v1.711a4.648,4.648,0,0,1-1.367.2,2.156,2.156,0,0,1-2.422-2.4V12.4H59.5V10.747h1.234V8.669ZM69.59,19.356a4.15,4.15,0,0,1-3.027-1.141,4.054,4.054,0,0,1-1.168-3.039v-.219a5.106,5.106,0,0,1,.492-2.277,3.612,3.612,0,0,1,1.395-1.547,3.914,3.914,0,0,1,2.059-.543,3.508,3.508,0,0,1,2.73,1.094,4.444,4.444,0,0,1,1,3.1v.922H67.684a2.1,2.1,0,0,0,.66,1.328,2,2,0,0,0,1.395.5,2.437,2.437,0,0,0,2.039-.945l1.109,1.242a3.389,3.389,0,0,1-1.375,1.121A4.511,4.511,0,0,1,69.59,19.356Zm-.258-6.945a1.411,1.411,0,0,0-1.09.455,2.357,2.357,0,0,0-.535,1.3h3.141v-.181a1.681,1.681,0,0,0-.406-1.165A1.456,1.456,0,0,0,69.332,12.411Zm9.594,4.453a.727.727,0,0,0-.41-.652,4.659,4.659,0,0,0-1.316-.426q-3.016-.633-3.016-2.562a2.323,2.323,0,0,1,.934-1.879,3.766,3.766,0,0,1,2.441-.754,4.053,4.053,0,0,1,2.574.758,2.388,2.388,0,0,1,.965,1.969H78.84a1.092,1.092,0,0,0-.312-.8,1.322,1.322,0,0,0-.977-.316,1.351,1.351,0,0,0-.883.258.814.814,0,0,0-.312.656.7.7,0,0,0,.355.605,3.657,3.657,0,0,0,1.2.4,9.8,9.8,0,0,1,1.422.379,2.336,2.336,0,0,1,1.789,2.273,2.2,2.2,0,0,1-.992,1.871,4.28,4.28,0,0,1-2.562.715,4.47,4.47,0,0,1-1.887-.379,3.166,3.166,0,0,1-1.293-1.039,2.414,2.414,0,0,1-.469-1.426h2.141a1.179,1.179,0,0,0,.445.922,1.766,1.766,0,0,0,1.109.32,1.635,1.635,0,0,0,.98-.246A.766.766,0,0,0,78.926,16.864Z" transform="translate(-9237.994 -8091.871)"/>
      <rect id="Rectangle_32033" data-name="Rectangle 32033" width="115.39" height="1.286" transform="translate(-9180.3 -8111.201) rotate(180)" fill="#ffb74d"/>
      <path id="Path_135752" data-name="Path 135752" d="M-50.312-4.945h-4.5v3.063h5.281V0h-7.625V-11.375h7.609v1.9h-5.266v2.711h4.5Zm4.086-3.508.07.977a2.951,2.951,0,0,1,2.43-1.133,2.453,2.453,0,0,1,2,.789,3.682,3.682,0,0,1,.672,2.359V0h-2.258V-5.419a1.47,1.47,0,0,0-.312-1.045,1.4,1.4,0,0,0-1.039-.325,1.553,1.553,0,0,0-1.43.814V0h-2.258V-8.453ZM-31.469.156A4.15,4.15,0,0,1-34.5-.984a4.054,4.054,0,0,1-1.168-3.039v-.219a5.106,5.106,0,0,1,.492-2.277,3.612,3.612,0,0,1,1.395-1.547,3.914,3.914,0,0,1,2.059-.543,3.508,3.508,0,0,1,2.73,1.094,4.444,4.444,0,0,1,1,3.1v.922h-5.383a2.1,2.1,0,0,0,.66,1.328,2,2,0,0,0,1.395.5,2.437,2.437,0,0,0,2.039-.945l1.109,1.242A3.389,3.389,0,0,1-29.547-.246,4.511,4.511,0,0,1-31.469.156Zm-.258-6.945a1.411,1.411,0,0,0-1.09.455,2.357,2.357,0,0,0-.535,1.3h3.141v-.181a1.681,1.681,0,0,0-.406-1.165A1.456,1.456,0,0,0-31.727-6.789ZM-24.328,0h-2.266V-12h2.266Zm10.742,0a2.507,2.507,0,0,1-.227-.758,2.732,2.732,0,0,1-2.133.914A3,3,0,0,1-18-.562a2.312,2.312,0,0,1-.816-1.812,2.389,2.389,0,0,1,1-2.062,4.915,4.915,0,0,1,2.879-.727h1.039v-.484a1.393,1.393,0,0,0-.3-.937,1.183,1.183,0,0,0-.949-.352,1.345,1.345,0,0,0-.895.273.929.929,0,0,0-.324.75h-2.258a2.268,2.268,0,0,1,.453-1.359,3,3,0,0,1,1.281-.98,4.669,4.669,0,0,1,1.859-.355,3.689,3.689,0,0,1,2.48.785,2.747,2.747,0,0,1,.918,2.207v3.664A4.041,4.041,0,0,0-11.3-.133V0Zm-1.867-1.57a1.945,1.945,0,0,0,.922-.223,1.462,1.462,0,0,0,.625-.6V-3.844h-.844q-1.7,0-1.8,1.172l-.008.133a.9.9,0,0,0,.3.7A1.153,1.153,0,0,0-15.453-1.57Zm10.3-4.766A6.134,6.134,0,0,0-5.969-6.4a1.654,1.654,0,0,0-1.68.867V0H-9.906V-8.453h2.133l.063,1.008A2.092,2.092,0,0,1-5.828-8.609a2.366,2.366,0,0,1,.7.1Zm4.18-4.2v2.078H.469V-6.8H-.977v4.219a1.007,1.007,0,0,0,.18.672.9.9,0,0,0,.688.2,3.6,3.6,0,0,0,.664-.055V-.047a4.648,4.648,0,0,1-1.367.2,2.156,2.156,0,0,1-2.422-2.4V-6.8H-4.469V-8.453h1.234v-2.078ZM4.164,0H1.906V-8.453H4.164ZM3.5-11.883H5.961L3.8-9.461H1.961ZM9.625-1.664a1.481,1.481,0,0,0,1.016-.344,1.2,1.2,0,0,0,.406-.914h2.117A2.9,2.9,0,0,1,12.7-1.348,3.093,3.093,0,0,1,11.434-.238a3.949,3.949,0,0,1-1.77.395A3.67,3.67,0,0,1,6.8-1,4.56,4.56,0,0,1,5.758-4.18v-.148A4.508,4.508,0,0,1,6.8-7.445,3.627,3.627,0,0,1,9.648-8.609a3.555,3.555,0,0,1,2.543.9,3.2,3.2,0,0,1,.973,2.4H11.047a1.551,1.551,0,0,0-.406-1.072,1.354,1.354,0,0,0-1.031-.412,1.36,1.36,0,0,0-1.191.575,3.333,3.333,0,0,0-.4,1.866v.235a3.375,3.375,0,0,0,.4,1.878A1.377,1.377,0,0,0,9.625-1.664Zm9.891.8A2.831,2.831,0,0,1,17.2.156a2.67,2.67,0,0,1-2.074-.781,3.335,3.335,0,0,1-.73-2.289V-8.453h2.258v5.467q0,1.322,1.2,1.322a1.63,1.63,0,0,0,1.578-.8V-8.453H21.7V0H19.578ZM25.789,0H23.523V-12h2.266ZM27.3-4.3a5.013,5.013,0,0,1,.484-2.242A3.546,3.546,0,0,1,29.176-8.07a4.069,4.069,0,0,1,2.113-.539,3.849,3.849,0,0,1,2.793,1.047,4.2,4.2,0,0,1,1.207,2.844l.016.578A4.418,4.418,0,0,1,34.219-1.02,3.775,3.775,0,0,1,31.3.156a3.793,3.793,0,0,1-2.918-1.172A4.5,4.5,0,0,1,27.3-4.2Zm2.258.16A3.16,3.16,0,0,0,30.008-2.3a1.5,1.5,0,0,0,1.3.638,1.5,1.5,0,0,0,1.281-.63,3.457,3.457,0,0,0,.461-2.015,3.128,3.128,0,0,0-.461-1.831,1.5,1.5,0,0,0-1.3-.649,1.474,1.474,0,0,0-1.281.646A3.516,3.516,0,0,0,29.555-4.144ZM40.922-5.594l.656-5.781h6.375v1.883H43.43l-.281,2.445a3.58,3.58,0,0,1,1.711-.43,3.279,3.279,0,0,1,2.547,1.008,4.026,4.026,0,0,1,.922,2.82,4.124,4.124,0,0,1-.465,1.973A3.281,3.281,0,0,1,46.531-.324a4.158,4.158,0,0,1-2.047.48A4.416,4.416,0,0,1,42.57-.262a3.4,3.4,0,0,1-1.395-1.176,3.2,3.2,0,0,1-.543-1.727h2.234a1.669,1.669,0,0,0,.5,1.105,1.573,1.573,0,0,0,1.113.395,1.388,1.388,0,0,0,1.18-.551,2.551,2.551,0,0,0,.414-1.559,2.11,2.11,0,0,0-.477-1.484,1.749,1.749,0,0,0-1.352-.516,1.954,1.954,0,0,0-1.3.422l-.219.2Zm9.18,0,.656-5.781h6.375v1.883H52.609l-.281,2.445a3.58,3.58,0,0,1,1.711-.43,3.279,3.279,0,0,1,2.547,1.008,4.026,4.026,0,0,1,.922,2.82,4.124,4.124,0,0,1-.465,1.973A3.281,3.281,0,0,1,55.711-.324a4.158,4.158,0,0,1-2.047.48A4.416,4.416,0,0,1,51.75-.262a3.4,3.4,0,0,1-1.395-1.176,3.2,3.2,0,0,1-.543-1.727h2.234a1.669,1.669,0,0,0,.5,1.105,1.573,1.573,0,0,0,1.113.395,1.388,1.388,0,0,0,1.18-.551,2.551,2.551,0,0,0,.414-1.559,2.11,2.11,0,0,0-.477-1.484,1.749,1.749,0,0,0-1.352-.516,1.954,1.954,0,0,0-1.3.422l-.219.2Zm-109.363,20.5a5.094,5.094,0,0,1,.887-3.148,2.877,2.877,0,0,1,2.426-1.172,2.589,2.589,0,0,1,2.039.922V7.2h2.266v12h-2.039l-.109-.9a2.657,2.657,0,0,1-2.172,1.055,2.869,2.869,0,0,1-2.395-1.176A5.258,5.258,0,0,1-59.262,14.911Zm2.258.161A3.355,3.355,0,0,0-56.59,16.9a1.348,1.348,0,0,0,1.2.636,1.51,1.51,0,0,0,1.477-.887V13.3a1.489,1.489,0,0,0-1.461-.887Q-57,12.411-57,15.072Zm11,4.285a4.15,4.15,0,0,1-3.027-1.141A4.054,4.054,0,0,1-50.2,15.177v-.219a5.106,5.106,0,0,1,.492-2.277,3.612,3.612,0,0,1,1.395-1.547,3.914,3.914,0,0,1,2.059-.543,3.508,3.508,0,0,1,2.73,1.094,4.444,4.444,0,0,1,1,3.1v.922H-47.91a2.1,2.1,0,0,0,.66,1.328,2,2,0,0,0,1.395.5,2.437,2.437,0,0,0,2.039-.945l1.109,1.242a3.389,3.389,0,0,1-1.375,1.121A4.511,4.511,0,0,1-46,19.356Zm-.258-6.945a1.411,1.411,0,0,0-1.09.455,2.357,2.357,0,0,0-.535,1.3h3.141v-.181a1.681,1.681,0,0,0-.406-1.165A1.456,1.456,0,0,0-46.262,12.411ZM-34.879,19.2h-2.266V7.2h2.266Zm6.758,0a2.507,2.507,0,0,1-.227-.758,2.732,2.732,0,0,1-2.133.914,3,3,0,0,1-2.059-.719,2.312,2.312,0,0,1-.816-1.812,2.389,2.389,0,0,1,1-2.062,4.915,4.915,0,0,1,2.879-.727h1.039v-.484a1.393,1.393,0,0,0-.3-.937,1.183,1.183,0,0,0-.949-.352,1.345,1.345,0,0,0-.895.273.929.929,0,0,0-.324.75h-2.258a2.268,2.268,0,0,1,.453-1.359,3,3,0,0,1,1.281-.98,4.669,4.669,0,0,1,1.859-.355,3.689,3.689,0,0,1,2.48.785,2.747,2.747,0,0,1,.918,2.207v3.664a4.041,4.041,0,0,0,.336,1.82V19.2Zm-1.867-1.57a1.945,1.945,0,0,0,.922-.223,1.462,1.462,0,0,0,.625-.6V15.356h-.844q-1.7,0-1.8,1.172l-.008.133a.9.9,0,0,0,.3.7A1.153,1.153,0,0,0-29.988,17.63Zm12.023-.312h4.977V19.2h-7.32V7.825h2.344ZM-7.9,19.356a4.15,4.15,0,0,1-3.027-1.141A4.054,4.054,0,0,1-12.1,15.177v-.219a5.106,5.106,0,0,1,.492-2.277,3.612,3.612,0,0,1,1.395-1.547,3.914,3.914,0,0,1,2.059-.543,3.508,3.508,0,0,1,2.73,1.094,4.444,4.444,0,0,1,1,3.1v.922H-9.809a2.1,2.1,0,0,0,.66,1.328,2,2,0,0,0,1.395.5,2.437,2.437,0,0,0,2.039-.945l1.109,1.242A3.389,3.389,0,0,1-5.98,18.954,4.511,4.511,0,0,1-7.9,19.356Zm-.258-6.945a1.411,1.411,0,0,0-1.09.455,2.357,2.357,0,0,0-.535,1.3h3.141v-.181a1.681,1.681,0,0,0-.406-1.165A1.456,1.456,0,0,0-8.16,12.411ZM-.09,16l1.563-5.258H3.895L.5,20.513l-.187.445a2.577,2.577,0,0,1-2.5,1.656,3.552,3.552,0,0,1-1-.148V20.755l.344.008a1.857,1.857,0,0,0,.957-.2,1.283,1.283,0,0,0,.5-.648l.266-.7L-4.09,10.747h2.43Zm14.25,3.2H11.9V10.485l-2.7.832V9.5l4.711-1.687h.242Zm11.352-4.7a5.763,5.763,0,0,1-.977,3.609,3.409,3.409,0,0,1-2.859,1.25,3.433,3.433,0,0,1-2.844-1.227,5.594,5.594,0,0,1-1.008-3.516V12.52A5.687,5.687,0,0,1,18.813,8.9,3.434,3.434,0,0,1,21.66,7.669,3.437,3.437,0,0,1,24.5,8.891,5.576,5.576,0,0,1,25.512,12.4Zm-2.258-2.3a4.165,4.165,0,0,0-.387-2.061,1.307,1.307,0,0,0-1.207-.645,1.284,1.284,0,0,0-1.176.614,3.9,3.9,0,0,0-.4,1.92v2.768a4.373,4.373,0,0,0,.379,2.068,1.29,1.29,0,0,0,1.215.676,1.268,1.268,0,0,0,1.2-.649,4.268,4.268,0,0,0,.383-1.986Zm4.117,1.411.656-5.781H34.4V9.708H29.879L29.6,12.153a3.58,3.58,0,0,1,1.711-.43,3.279,3.279,0,0,1,2.547,1.008,4.026,4.026,0,0,1,.922,2.82,4.124,4.124,0,0,1-.465,1.973,3.281,3.281,0,0,1-1.332,1.352,4.158,4.158,0,0,1-2.047.48,4.416,4.416,0,0,1-1.914-.418,3.4,3.4,0,0,1-1.395-1.176,3.2,3.2,0,0,1-.543-1.727h2.234a1.669,1.669,0,0,0,.5,1.105,1.573,1.573,0,0,0,1.113.395,1.388,1.388,0,0,0,1.18-.551,2.551,2.551,0,0,0,.414-1.559,2.11,2.11,0,0,0-.477-1.484,1.749,1.749,0,0,0-1.352-.516,1.954,1.954,0,0,0-1.3.422l-.219.2Zm9.648,6.57H35.34L39.527,7.825h1.68Zm10.453-5.523a2.851,2.851,0,0,1-2.062.867A3.049,3.049,0,0,1,43,14.485a4.091,4.091,0,0,1-.906-2.793,4.357,4.357,0,0,1,.488-2.051,3.582,3.582,0,0,1,1.363-1.453,3.782,3.782,0,0,1,1.969-.52,3.617,3.617,0,0,1,2,.563A3.7,3.7,0,0,1,49.27,9.848a5.806,5.806,0,0,1,.492,2.414V13.1a6.579,6.579,0,0,1-1.414,4.469A5.346,5.346,0,0,1,44.34,19.3l-.555.008V17.427l.5-.008Q47.23,17.286,47.473,14.653Zm-1.508-.859a1.579,1.579,0,0,0,.941-.281,1.879,1.879,0,0,0,.6-.68V11.9a3.1,3.1,0,0,0-.437-1.781,1.358,1.358,0,0,0-1.172-.633,1.318,1.318,0,0,0-1.117.621,2.641,2.641,0,0,0-.437,1.559,2.57,2.57,0,0,0,.426,1.527A1.387,1.387,0,0,0,45.965,13.794Zm7.7-1.281h1.2a1.7,1.7,0,0,0,1.273-.43,1.574,1.574,0,0,0,.414-1.141,1.392,1.392,0,0,0-.41-1.07,1.59,1.59,0,0,0-1.129-.383,1.666,1.666,0,0,0-1.086.355,1.137,1.137,0,0,0-.437.926H51.238a2.777,2.777,0,0,1,.48-1.6,3.2,3.2,0,0,1,1.344-1.105,4.485,4.485,0,0,1,1.9-.4,4.253,4.253,0,0,1,2.828.863,2.945,2.945,0,0,1,1.023,2.379,2.394,2.394,0,0,1-.477,1.438,3.1,3.1,0,0,1-1.25,1.008,2.826,2.826,0,0,1,1.434,1.031A2.8,2.8,0,0,1,59,16.013a2.994,2.994,0,0,1-1.105,2.43,4.445,4.445,0,0,1-2.926.914,4.214,4.214,0,0,1-2.785-.9A2.934,2.934,0,0,1,51.1,16.083h2.258a1.308,1.308,0,0,0,.48,1.047,2,2,0,0,0,2.445-.02,1.47,1.47,0,0,0,.457-1.129q0-1.7-1.875-1.7h-1.2Z" transform="translate(-9401.312 -7909.739)"/>
      <rect id="Rectangle_32035" data-name="Rectangle 32035" width="115.39" height="1.286" transform="translate(-9459.007 -7880.559)" fill="#ffb74d"/>
      <rect id="Rectangle_32037" data-name="Rectangle 32037" width="115.39" height="1.286" transform="translate(-9785.641 -7895.327)" fill="#ffb74d"/>
      <path id="Path_135757" data-name="Path 135757" d="M-76.684-4.945h-4.5v3.063H-75.9V0h-7.625V-11.375h7.609v1.9h-5.266v2.711h4.5ZM-70.1-2.336a.727.727,0,0,0-.41-.652,4.659,4.659,0,0,0-1.316-.426q-3.016-.633-3.016-2.562a2.323,2.323,0,0,1,.934-1.879,3.766,3.766,0,0,1,2.441-.754,4.053,4.053,0,0,1,2.574.758,2.388,2.388,0,0,1,.965,1.969h-2.258a1.092,1.092,0,0,0-.312-.8A1.322,1.322,0,0,0-71.473-7a1.351,1.351,0,0,0-.883.258.814.814,0,0,0-.312.656.7.7,0,0,0,.355.605,3.657,3.657,0,0,0,1.2.4,9.8,9.8,0,0,1,1.422.379A2.336,2.336,0,0,1-67.9-2.43a2.2,2.2,0,0,1-.992,1.871,4.28,4.28,0,0,1-2.562.715,4.47,4.47,0,0,1-1.887-.379,3.166,3.166,0,0,1-1.293-1.039,2.414,2.414,0,0,1-.469-1.426h2.141a1.179,1.179,0,0,0,.445.922,1.766,1.766,0,0,0,1.109.32,1.635,1.635,0,0,0,.98-.246A.766.766,0,0,0-70.1-2.336ZM-61.848,0V-6.8h-1.258V-8.453h1.258v-.719a2.918,2.918,0,0,1,.816-2.207,3.162,3.162,0,0,1,2.285-.785,5.321,5.321,0,0,1,1.148.155l-.023,1.736a2.878,2.878,0,0,0-.687-.07q-1.273,0-1.273,1.205v.685h1.68V-6.8h-1.68V0Zm10.18-.859A2.831,2.831,0,0,1-53.98.156a2.67,2.67,0,0,1-2.074-.781,3.335,3.335,0,0,1-.73-2.289V-8.453h2.258v5.467q0,1.322,1.2,1.322a1.63,1.63,0,0,0,1.578-.8V-8.453h2.266V0h-2.125ZM-45.7-8.453l.07.977A2.951,2.951,0,0,1-43.2-8.609a2.453,2.453,0,0,1,2,.789,3.682,3.682,0,0,1,.672,2.359V0h-2.258V-5.419A1.47,1.47,0,0,0-43.1-6.464a1.4,1.4,0,0,0-1.039-.325,1.553,1.553,0,0,0-1.43.814V0h-2.258V-8.453Zm10.4,6.789a1.481,1.481,0,0,0,1.016-.344,1.2,1.2,0,0,0,.406-.914h2.117a2.9,2.9,0,0,1-.469,1.574A3.093,3.093,0,0,1-33.492-.238a3.949,3.949,0,0,1-1.77.395A3.67,3.67,0,0,1-38.121-1,4.56,4.56,0,0,1-39.168-4.18v-.148a4.508,4.508,0,0,1,1.039-3.117,3.627,3.627,0,0,1,2.852-1.164,3.555,3.555,0,0,1,2.543.9,3.2,3.2,0,0,1,.973,2.4h-2.117a1.551,1.551,0,0,0-.406-1.072,1.354,1.354,0,0,0-1.031-.412,1.36,1.36,0,0,0-1.191.575,3.333,3.333,0,0,0-.4,1.866v.235a3.375,3.375,0,0,0,.4,1.878A1.377,1.377,0,0,0-35.3-1.664ZM-28.09,0h-2.266V-8.453h2.266Zm-2.4-10.641a1.112,1.112,0,0,1,.34-.836,1.277,1.277,0,0,1,.926-.328,1.28,1.28,0,0,1,.922.328,1.105,1.105,0,0,1,.344.836A1.108,1.108,0,0,1-28.3-9.8a1.283,1.283,0,0,1-.918.328,1.283,1.283,0,0,1-.918-.328A1.108,1.108,0,0,1-30.488-10.641ZM-26.582-4.3A5.013,5.013,0,0,1-26.1-6.547,3.546,3.546,0,0,1-24.7-8.07a4.069,4.069,0,0,1,2.113-.539A3.849,3.849,0,0,1-19.8-7.562,4.2,4.2,0,0,1-18.59-4.719l.016.578A4.418,4.418,0,0,1-19.66-1.02,3.775,3.775,0,0,1-22.574.156a3.793,3.793,0,0,1-2.918-1.172A4.5,4.5,0,0,1-26.582-4.2Zm2.258.16A3.16,3.16,0,0,0-23.871-2.3a1.5,1.5,0,0,0,1.3.638,1.5,1.5,0,0,0,1.281-.63,3.457,3.457,0,0,0,.461-2.015,3.128,3.128,0,0,0-.461-1.831,1.5,1.5,0,0,0-1.3-.649,1.474,1.474,0,0,0-1.281.646A3.516,3.516,0,0,0-24.324-4.144ZM-22.145-12h2.461l-2.164,2.422h-1.836Zm7.039,3.547.07.977a2.951,2.951,0,0,1,2.43-1.133,2.453,2.453,0,0,1,2,.789,3.682,3.682,0,0,1,.672,2.359V0h-2.258V-5.419A1.47,1.47,0,0,0-12.5-6.464a1.4,1.4,0,0,0-1.039-.325,1.553,1.553,0,0,0-1.43.814V0H-17.23V-8.453ZM-4.59-4.289A5.094,5.094,0,0,1-3.7-7.437,2.877,2.877,0,0,1-1.277-8.609a2.589,2.589,0,0,1,2.039.922V-12H3.027V0H.988L.879-.9A2.657,2.657,0,0,1-1.293.156,2.869,2.869,0,0,1-3.687-1.02,5.258,5.258,0,0,1-4.59-4.289Zm2.258.161A3.355,3.355,0,0,0-1.918-2.3a1.348,1.348,0,0,0,1.2.636A1.51,1.51,0,0,0,.762-2.551V-5.9A1.489,1.489,0,0,0-.7-6.789Q-2.332-6.789-2.332-4.128Zm11,4.285A4.15,4.15,0,0,1,5.641-.984,4.054,4.054,0,0,1,4.473-4.023v-.219A5.106,5.106,0,0,1,4.965-6.52,3.612,3.612,0,0,1,6.359-8.066a3.914,3.914,0,0,1,2.059-.543,3.508,3.508,0,0,1,2.73,1.094,4.444,4.444,0,0,1,1,3.1v.922H6.762a2.1,2.1,0,0,0,.66,1.328,2,2,0,0,0,1.395.5,2.437,2.437,0,0,0,2.039-.945l1.109,1.242A3.389,3.389,0,0,1,10.59-.246,4.511,4.511,0,0,1,8.668.156ZM8.41-6.789a1.411,1.411,0,0,0-1.09.455,2.357,2.357,0,0,0-.535,1.3H9.926v-.181A1.681,1.681,0,0,0,9.52-6.377,1.456,1.456,0,0,0,8.41-6.789ZM19.793,0H17.527V-12h2.266Zm6.758,0a2.507,2.507,0,0,1-.227-.758,2.732,2.732,0,0,1-2.133.914,3,3,0,0,1-2.059-.719,2.312,2.312,0,0,1-.816-1.812,2.389,2.389,0,0,1,1-2.062,4.915,4.915,0,0,1,2.879-.727H26.23v-.484a1.393,1.393,0,0,0-.3-.937,1.183,1.183,0,0,0-.949-.352,1.345,1.345,0,0,0-.895.273.929.929,0,0,0-.324.75H21.5a2.268,2.268,0,0,1,.453-1.359,3,3,0,0,1,1.281-.98A4.669,4.669,0,0,1,25.1-8.609a3.689,3.689,0,0,1,2.48.785A2.747,2.747,0,0,1,28.5-5.617v3.664a4.041,4.041,0,0,0,.336,1.82V0ZM24.684-1.57a1.945,1.945,0,0,0,.922-.223,1.462,1.462,0,0,0,.625-.6V-3.844h-.844q-1.7,0-1.8,1.172l-.008.133a.9.9,0,0,0,.3.7A1.153,1.153,0,0,0,24.684-1.57Zm18.289-9.8v7.492A3.836,3.836,0,0,1,41.8-.93,4.5,4.5,0,0,1,38.613.156,4.553,4.553,0,0,1,35.449-.9a3.77,3.77,0,0,1-1.2-2.9v-7.578H36.6v7.508a2.167,2.167,0,0,0,.535,1.629,2.054,2.054,0,0,0,1.48.512q1.977,0,2.008-2.078v-7.57Zm8.172,9.031H47.035L46.254,0H43.762L48-11.375h2.172L54.426,0H51.934Zm-3.477-1.9h2.844L49.082-8.5Zm14.664-.7h-4.5v3.063h5.281V0H55.488V-11.375H63.1v1.9H57.832v2.711h4.5Zm8.578,2.6H66.8L66.02,0H63.527l4.234-11.375h2.172L74.191,0H71.7Zm-3.477-1.9h2.844L68.848-8.5Zm16.586.453A4.025,4.025,0,0,1,82.664-.9,4.76,4.76,0,0,1,79.441.156,4.28,4.28,0,0,1,76-1.316a6.038,6.038,0,0,1-1.254-4.043v-.7a6.819,6.819,0,0,1,.578-2.891,4.332,4.332,0,0,1,1.652-1.918,4.629,4.629,0,0,1,2.5-.668,4.637,4.637,0,0,1,3.172,1.055,4.326,4.326,0,0,1,1.391,2.961H81.691a2.376,2.376,0,0,0-.613-1.6,2.271,2.271,0,0,0-1.605-.5,1.991,1.991,0,0,0-1.754.84,4.707,4.707,0,0,0-.6,2.605V-5.3a5.038,5.038,0,0,0,.559,2.7,1.954,1.954,0,0,0,1.762.852,2.314,2.314,0,0,0,1.621-.5,2.241,2.241,0,0,0,.613-1.535Z" transform="translate(-8911.36 -8073.383)"/>
      <rect id="Rectangle_32039" data-name="Rectangle 32039" width="115.39" height="1.286" transform="translate(-8853.666 -8092.715) rotate(180)" fill="#ffb74d"/>
      <g id="Group_92196" data-name="Group 92196" transform="translate(-8670.637 -9687.392)">
        <g id="Group_92191" data-name="Group 92191">
          <g id="Group_92188" data-name="Group 92188">
            <path id="Path_134804" data-name="Path 134804" d="M-885.2,1746.1a.988.988,0,0,1,.069-.38,1.173,1.173,0,0,1,.221-.33.987.987,0,0,1,.71-.29,1.058,1.058,0,0,1,.71.29,1.062,1.062,0,0,1,.21.33,1.03,1.03,0,0,1-.21,1.091,1.057,1.057,0,0,1-.71.289.985.985,0,0,1-.71-.289A.994.994,0,0,1-885.2,1746.1Z" fill="#ffdc72"/>
          </g>
          <g id="Group_92189" data-name="Group 92189">
            <path id="Path_134805" data-name="Path 134805" d="M-899.859,1745.1a1,1,0,0,1,1,1h0a1,1,0,0,1-1,1h0a1,1,0,0,1-1-1h0A1,1,0,0,1-899.859,1745.1Zm3.91,0a1,1,0,0,1,1,1h0a1,1,0,0,1-1,1h0a1,1,0,0,1-1-1h0A1,1,0,0,1-895.949,1745.1Zm3.92,0a1,1,0,0,1,1,1h0a1,1,0,0,1-1,1h0a1,1,0,0,1-1-1h0A1,1,0,0,1-892.029,1745.1Zm3.91,0a1,1,0,0,1,1,1h0a1,1,0,0,1-1,1h0a1,1,0,0,1-1-1h0A1,1,0,0,1-888.119,1745.1Z" fill="#ffdc72"/>
          </g>
          <g id="Group_92190" data-name="Group 92190">
            <path id="Path_134806" data-name="Path 134806" d="M-904.779,1746.1a1,1,0,0,1,.3-.71.981.981,0,0,1,.7-.29.648.648,0,0,1,.2.02.75.75,0,0,1,.19.06.55.55,0,0,1,.17.091.888.888,0,0,1,.151.119,1.028,1.028,0,0,1,0,1.421c-.04.039-.1.079-.151.119a.545.545,0,0,1-.17.091.675.675,0,0,1-.19.06,1.232,1.232,0,0,1-.2.019.979.979,0,0,1-.7-.289A1,1,0,0,1-904.779,1746.1Z" fill="#ffdc72"/>
          </g>
        </g>
        <g id="Group_92195" data-name="Group 92195">
          <g id="Group_92192" data-name="Group 92192">
            <path id="Path_134807" data-name="Path 134807" d="M-885.2,1708.6a.985.985,0,0,1,.069-.38,1.171,1.171,0,0,1,.221-.33.987.987,0,0,1,.71-.29,1.054,1.054,0,0,1,.71.29,1.051,1.051,0,0,1,.21.33,1.03,1.03,0,0,1-.21,1.091,1.057,1.057,0,0,1-.71.289.99.99,0,0,1-.71-.289A.994.994,0,0,1-885.2,1708.6Z" fill="#ffdc72"/>
          </g>
          <g id="Group_92193" data-name="Group 92193">
            <path id="Path_134808" data-name="Path 134808" d="M-899.859,1707.6a1,1,0,0,1,1,1h0a1,1,0,0,1-1,1h0a1,1,0,0,1-1-1h0A1,1,0,0,1-899.859,1707.6Zm3.91,0a1,1,0,0,1,1,1h0a1,1,0,0,1-1,1h0a1,1,0,0,1-1-1h0A1,1,0,0,1-895.949,1707.6Zm3.92,0a1,1,0,0,1,1,1h0a1,1,0,0,1-1,1h0a1,1,0,0,1-1-1h0A1,1,0,0,1-892.029,1707.6Zm3.91,0a1,1,0,0,1,1,1h0a1,1,0,0,1-1,1h0a1,1,0,0,1-1-1h0A1,1,0,0,1-888.119,1707.6Z" fill="#ffdc72"/>
          </g>
          <g id="Group_92194" data-name="Group 92194">
            <path id="Path_134809" data-name="Path 134809" d="M-904.779,1708.6a1,1,0,0,1,.3-.71.981.981,0,0,1,.7-.29.644.644,0,0,1,.2.02.675.675,0,0,1,.19.06.545.545,0,0,1,.17.09.887.887,0,0,1,.151.12,1.028,1.028,0,0,1,0,1.421c-.04.039-.1.079-.151.119a.547.547,0,0,1-.17.09.711.711,0,0,1-.19.061,1.354,1.354,0,0,1-.2.019.984.984,0,0,1-.7-.289A1,1,0,0,1-904.779,1708.6Z" fill="#ffdc72"/>
          </g>
        </g>
      </g>
      <g id="Group_92205" data-name="Group 92205" transform="translate(-8670.637 -9687.392)">
        <g id="Group_92200" data-name="Group 92200">
          <g id="Group_92197" data-name="Group 92197">
            <path id="Path_134810" data-name="Path 134810" d="M-721.882,1673.035a1,1,0,0,1,.069-.38,1.173,1.173,0,0,1,.221-.33.99.99,0,0,1,.71-.29,1.052,1.052,0,0,1,.71.29,1.051,1.051,0,0,1,.21.33,1.029,1.029,0,0,1-.21,1.09,1.051,1.051,0,0,1-.71.29.99.99,0,0,1-.71-.29A.99.99,0,0,1-721.882,1673.035Z" fill="#ffdc72"/>
          </g>
          <g id="Group_92198" data-name="Group 92198">
            <path id="Path_134811" data-name="Path 134811" d="M-736.542,1672.035a1,1,0,0,1,1,1h0a1,1,0,0,1-1,1h0a1,1,0,0,1-1-1h0A1,1,0,0,1-736.542,1672.035Zm3.91,0a1,1,0,0,1,1,1h0a1,1,0,0,1-1,1h0a1,1,0,0,1-1-1h0A1,1,0,0,1-732.632,1672.035Zm3.92,0a1,1,0,0,1,1,1h0a1,1,0,0,1-1,1h0a1,1,0,0,1-1-1h0A1,1,0,0,1-728.712,1672.035Zm3.91,0a1,1,0,0,1,1,1h0a1,1,0,0,1-1,1h0a1,1,0,0,1-1-1h0A1,1,0,0,1-724.8,1672.035Z" fill="#ffdc72"/>
          </g>
          <g id="Group_92199" data-name="Group 92199">
            <path id="Path_134812" data-name="Path 134812" d="M-741.462,1673.035a1,1,0,0,1,.3-.71.98.98,0,0,1,.7-.29.641.641,0,0,1,.2.02.688.688,0,0,1,.191.06.57.57,0,0,1,.17.09.925.925,0,0,1,.15.12,1.027,1.027,0,0,1,0,1.42c-.04.04-.1.08-.15.12a.565.565,0,0,1-.17.09.692.692,0,0,1-.191.06,1.218,1.218,0,0,1-.2.02.98.98,0,0,1-.7-.29A1,1,0,0,1-741.462,1673.035Z" fill="#ffdc72"/>
          </g>
        </g>
        <g id="Group_92204" data-name="Group 92204">
          <g id="Group_92201" data-name="Group 92201">
            <path id="Path_134813" data-name="Path 134813" d="M-721.882,1635.534a1,1,0,0,1,.069-.38,1.172,1.172,0,0,1,.221-.33.99.99,0,0,1,.71-.29,1.052,1.052,0,0,1,.71.29,1.05,1.05,0,0,1,.21.33,1.029,1.029,0,0,1-.21,1.09,1.052,1.052,0,0,1-.71.29.99.99,0,0,1-.71-.29A.99.99,0,0,1-721.882,1635.534Z" fill="#ffdc72"/>
          </g>
          <g id="Group_92202" data-name="Group 92202">
            <path id="Path_134814" data-name="Path 134814" d="M-736.542,1634.534a1,1,0,0,1,1,1h0a1,1,0,0,1-1,1h0a1,1,0,0,1-1-1h0A1,1,0,0,1-736.542,1634.534Zm3.91,0a1,1,0,0,1,1,1h0a1,1,0,0,1-1,1h0a1,1,0,0,1-1-1h0A1,1,0,0,1-732.632,1634.534Zm3.92,0a1,1,0,0,1,1,1h0a1,1,0,0,1-1,1h0a1,1,0,0,1-1-1h0A1,1,0,0,1-728.712,1634.534Zm3.91,0a1,1,0,0,1,1,1h0a1,1,0,0,1-1,1h0a1,1,0,0,1-1-1h0A1,1,0,0,1-724.8,1634.534Z" fill="#ffdc72"/>
          </g>
          <g id="Group_92203" data-name="Group 92203">
            <path id="Path_134815" data-name="Path 134815" d="M-741.462,1635.534a1,1,0,0,1,.3-.71.98.98,0,0,1,.7-.29.645.645,0,0,1,.2.02.692.692,0,0,1,.191.06.568.568,0,0,1,.17.09.925.925,0,0,1,.15.12,1.027,1.027,0,0,1,0,1.42c-.04.04-.1.08-.15.12a.568.568,0,0,1-.17.09.692.692,0,0,1-.191.06,1.218,1.218,0,0,1-.2.02.98.98,0,0,1-.7-.29A1,1,0,0,1-741.462,1635.534Z" fill="#ffdc72"/>
          </g>
        </g>
      </g>
      <g id="Group_92214" data-name="Group 92214" transform="translate(-8670.637 -9687.392)">
        <g id="Group_92209" data-name="Group 92209">
          <g id="Group_92206" data-name="Group 92206">
            <path id="Path_134816" data-name="Path 134816" d="M-558.565,1746.1a.989.989,0,0,1,.07-.38,1.149,1.149,0,0,1,.22-.33.99.99,0,0,1,.71-.29,1.056,1.056,0,0,1,.71.29,1.062,1.062,0,0,1,.21.33,1.028,1.028,0,0,1-.21,1.091,1.055,1.055,0,0,1-.71.289.989.989,0,0,1-.71-.289A.994.994,0,0,1-558.565,1746.1Z" fill="#ffdc72"/>
          </g>
          <g id="Group_92207" data-name="Group 92207">
            <path id="Path_134817" data-name="Path 134817" d="M-573.225,1745.1a1,1,0,0,1,1,1h0a1,1,0,0,1-1,1h0a1,1,0,0,1-1-1h0A1,1,0,0,1-573.225,1745.1Zm3.91,0a1,1,0,0,1,1,1h0a1,1,0,0,1-1,1h0a1,1,0,0,1-1-1h0A1,1,0,0,1-569.315,1745.1Zm3.92,0a1,1,0,0,1,1,1h0a1,1,0,0,1-1,1h0a1,1,0,0,1-1-1h0A1,1,0,0,1-565.4,1745.1Zm3.91,0a1,1,0,0,1,1,1h0a1,1,0,0,1-1,1h0a1,1,0,0,1-1-1h0A1,1,0,0,1-561.485,1745.1Z" fill="#ffdc72"/>
          </g>
          <g id="Group_92208" data-name="Group 92208">
            <path id="Path_134818" data-name="Path 134818" d="M-578.145,1746.1a1,1,0,0,1,.3-.71.98.98,0,0,1,.7-.29.645.645,0,0,1,.2.02.77.77,0,0,1,.191.06.572.572,0,0,1,.17.091.917.917,0,0,1,.15.119,1.028,1.028,0,0,1,0,1.421c-.04.039-.1.079-.15.119a.567.567,0,0,1-.17.091.692.692,0,0,1-.191.06,1.221,1.221,0,0,1-.2.019.979.979,0,0,1-.7-.289A1,1,0,0,1-578.145,1746.1Z" fill="#ffdc72"/>
          </g>
        </g>
        <g id="Group_92213" data-name="Group 92213">
          <g id="Group_92210" data-name="Group 92210">
            <path id="Path_134819" data-name="Path 134819" d="M-558.565,1708.6a.986.986,0,0,1,.07-.38,1.147,1.147,0,0,1,.22-.33.99.99,0,0,1,.71-.29,1.052,1.052,0,0,1,.71.29,1.05,1.05,0,0,1,.21.33,1.028,1.028,0,0,1-.21,1.091,1.055,1.055,0,0,1-.71.289.993.993,0,0,1-.71-.289A.994.994,0,0,1-558.565,1708.6Z" fill="#ffdc72"/>
          </g>
          <g id="Group_92211" data-name="Group 92211">
            <path id="Path_134820" data-name="Path 134820" d="M-573.225,1707.6a1,1,0,0,1,1,1h0a1,1,0,0,1-1,1h0a1,1,0,0,1-1-1h0A1,1,0,0,1-573.225,1707.6Zm3.91,0a1,1,0,0,1,1,1h0a1,1,0,0,1-1,1h0a1,1,0,0,1-1-1h0A1,1,0,0,1-569.315,1707.6Zm3.92,0a1,1,0,0,1,1,1h0a1,1,0,0,1-1,1h0a1,1,0,0,1-1-1h0A1,1,0,0,1-565.4,1707.6Zm3.91,0a1,1,0,0,1,1,1h0a1,1,0,0,1-1,1h0a1,1,0,0,1-1-1h0A1,1,0,0,1-561.485,1707.6Z" fill="#ffdc72"/>
          </g>
          <g id="Group_92212" data-name="Group 92212">
            <path id="Path_134821" data-name="Path 134821" d="M-578.145,1708.6a1,1,0,0,1,.3-.71.98.98,0,0,1,.7-.29.641.641,0,0,1,.2.02.692.692,0,0,1,.191.06.567.567,0,0,1,.17.09.917.917,0,0,1,.15.12,1.028,1.028,0,0,1,0,1.421c-.04.039-.1.079-.15.119a.569.569,0,0,1-.17.09.73.73,0,0,1-.191.061,1.341,1.341,0,0,1-.2.019.983.983,0,0,1-.7-.289A1,1,0,0,1-578.145,1708.6Z" fill="#ffdc72"/>
          </g>
        </g>
      </g>
      <g id="Group_92223" data-name="Group 92223" transform="translate(-8670.637 -9687.392)">
        <g id="Group_92218" data-name="Group 92218">
          <g id="Group_92215" data-name="Group 92215">
            <path id="Path_134822" data-name="Path 134822" d="M-395.262,1673.035a.985.985,0,0,1,.07-.38,1.191,1.191,0,0,1,.22-.33.99.99,0,0,1,.71-.29,1.052,1.052,0,0,1,.71.29,1.034,1.034,0,0,1,.21.33,1.025,1.025,0,0,1-.21,1.09,1.051,1.051,0,0,1-.71.29.989.989,0,0,1-.71-.29A.99.99,0,0,1-395.262,1673.035Z" fill="#ffdc72"/>
          </g>
          <g id="Group_92216" data-name="Group 92216">
            <path id="Path_134823" data-name="Path 134823" d="M-409.922,1672.035a1,1,0,0,1,1,1h0a1,1,0,0,1-1,1h0a1,1,0,0,1-1-1h0A1,1,0,0,1-409.922,1672.035Zm3.91,0a1,1,0,0,1,1,1h0a1,1,0,0,1-1,1h0a1,1,0,0,1-1-1h0A1,1,0,0,1-406.012,1672.035Zm3.92,0a1,1,0,0,1,1,1h0a1,1,0,0,1-1,1h0a1,1,0,0,1-1-1h0A1,1,0,0,1-402.092,1672.035Zm3.911,0a1,1,0,0,1,1,1h0a1,1,0,0,1-1,1h0a1,1,0,0,1-1-1h0A1,1,0,0,1-398.181,1672.035Z" fill="#ffdc72"/>
          </g>
          <g id="Group_92217" data-name="Group 92217">
            <path id="Path_134824" data-name="Path 134824" d="M-414.842,1673.035a1,1,0,0,1,.3-.71.984.984,0,0,1,.7-.29.647.647,0,0,1,.2.02.692.692,0,0,1,.19.06.558.558,0,0,1,.17.09.883.883,0,0,1,.15.12,1.027,1.027,0,0,1,0,1.42c-.04.04-.1.08-.15.12a.553.553,0,0,1-.17.09.7.7,0,0,1-.19.06,1.23,1.23,0,0,1-.2.02.983.983,0,0,1-.7-.29A1,1,0,0,1-414.842,1673.035Z" fill="#ffdc72"/>
          </g>
        </g>
        <g id="Group_92222" data-name="Group 92222">
          <g id="Group_92219" data-name="Group 92219">
            <path id="Path_134825" data-name="Path 134825" d="M-395.262,1635.534a.985.985,0,0,1,.07-.38,1.189,1.189,0,0,1,.22-.33.99.99,0,0,1,.71-.29,1.052,1.052,0,0,1,.71.29,1.032,1.032,0,0,1,.21.33,1.025,1.025,0,0,1-.21,1.09,1.052,1.052,0,0,1-.71.29.99.99,0,0,1-.71-.29A.99.99,0,0,1-395.262,1635.534Z" fill="#ffdc72"/>
          </g>
          <g id="Group_92220" data-name="Group 92220">
            <path id="Path_134826" data-name="Path 134826" d="M-409.922,1634.534a1,1,0,0,1,1,1h0a1,1,0,0,1-1,1h0a1,1,0,0,1-1-1h0A1,1,0,0,1-409.922,1634.534Zm3.91,0a1,1,0,0,1,1,1h0a1,1,0,0,1-1,1h0a1,1,0,0,1-1-1h0A1,1,0,0,1-406.012,1634.534Zm3.92,0a1,1,0,0,1,1,1h0a1,1,0,0,1-1,1h0a1,1,0,0,1-1-1h0A1,1,0,0,1-402.092,1634.534Zm3.911,0a1,1,0,0,1,1,1h0a1,1,0,0,1-1,1h0a1,1,0,0,1-1-1h0A1,1,0,0,1-398.181,1634.534Z" fill="#ffdc72"/>
          </g>
          <g id="Group_92221" data-name="Group 92221">
            <path id="Path_134827" data-name="Path 134827" d="M-414.842,1635.534a1,1,0,0,1,.3-.71.984.984,0,0,1,.7-.29.651.651,0,0,1,.2.02.7.7,0,0,1,.19.06.555.555,0,0,1,.17.09.883.883,0,0,1,.15.12,1.027,1.027,0,0,1,0,1.42c-.04.04-.1.08-.15.12a.555.555,0,0,1-.17.09.7.7,0,0,1-.19.06,1.23,1.23,0,0,1-.2.02.984.984,0,0,1-.7-.29A1,1,0,0,1-414.842,1635.534Z" fill="#ffdc72"/>
          </g>
        </g>
      </g>
      <circle id="Ellipse_4163" data-name="Ellipse 4163" cx="44.482" cy="44.482" r="44.482" transform="translate(-8959.316 -7919.317) rotate(-85.348)" fill="#5038a1"/>
      <path id="Path_135763" data-name="Path 135763" d="M-33.25-2.765h-3.72L-37.694,0h-2.885l4.221-13.508h2.5L-29.613,0h-2.913Zm-3.126-2.273h2.523l-1.262-4.815Zm11.522,3.043q1.141,0,1.16-1.484h2.468A3.688,3.688,0,0,1-22.238-.826,3.431,3.431,0,0,1-24.8.186a3.66,3.66,0,0,1-2.959-1.206A5.445,5.445,0,0,1-28.8-4.574v-.8A5.619,5.619,0,0,1-27.79-8.98a3.6,3.6,0,0,1,2.973-1.243A3.4,3.4,0,0,1-22.2-9.2a4.17,4.17,0,0,1,.974,2.908h-2.468a2.632,2.632,0,0,0-.278-1.3.953.953,0,0,0-.891-.455,1.061,1.061,0,0,0-.983.487,4.153,4.153,0,0,0-.315,1.888v1.021a8.191,8.191,0,0,0,.121,1.712,1.289,1.289,0,0,0,.4.714A1.216,1.216,0,0,0-24.854-1.995Zm8.164-10.511v2.468h1.345v1.967H-16.69v4.99a1.472,1.472,0,0,0,.162.818.733.733,0,0,0,.626.223,2.453,2.453,0,0,0,.622-.065L-15.3-.065a4.089,4.089,0,0,1-1.447.25q-2.542,0-2.57-2.916v-5.34h-1.16v-1.967h1.16v-2.468ZM-8.971-.918a2.586,2.586,0,0,1-2.189,1.1,2.459,2.459,0,0,1-2.1-.951,4.558,4.558,0,0,1-.714-2.769v-6.5h2.625V-3.47Q-11.328-2-10.372-2a1.354,1.354,0,0,0,1.3-.779v-7.255h2.644V0H-8.9ZM.213,0A3.669,3.669,0,0,1-.009-.779,2.244,2.244,0,0,1-1.92.186,2.828,2.828,0,0,1-4.012-.649a2.934,2.934,0,0,1-.83-2.162,3.039,3.039,0,0,1,1.007-2.44,4.4,4.4,0,0,1,2.9-.881h.8v-.807A1.512,1.512,0,0,0-.371-7.9a.831.831,0,0,0-.677-.278q-.983,0-.983,1.15H-4.657a2.906,2.906,0,0,1,1.044-2.3,3.885,3.885,0,0,1,2.639-.9,3.568,3.568,0,0,1,2.556.858,3.221,3.221,0,0,1,.9,2.454v4.722A4.941,4.941,0,0,0,2.857-.158V0ZM-1.336-1.874A1.465,1.465,0,0,0-.594-2.05a1.248,1.248,0,0,0,.455-.417V-4.555H-.77a1.347,1.347,0,0,0-1.053.427,1.639,1.639,0,0,0-.385,1.141Q-2.208-1.874-1.336-1.874ZM7.144,0H4.509V-14.25H7.144Zm4.787,0H9.3V-10.038h2.635ZM9.175-12.636a1.356,1.356,0,0,1,.39-1,1.4,1.4,0,0,1,1.039-.39,1.4,1.4,0,0,1,1.039.39,1.356,1.356,0,0,1,.39,1,1.385,1.385,0,0,1-.385,1,1.383,1.383,0,0,1-1.044.4,1.383,1.383,0,0,1-1.044-.4A1.385,1.385,0,0,1,9.175-12.636ZM13.61-5.325a6.554,6.554,0,0,1,.835-3.683,2.764,2.764,0,0,1,2.431-1.215,2.344,2.344,0,0,1,1.93,1V-14.25h2.644V0H19.065l-.121-1.021A2.418,2.418,0,0,1,16.866.186a2.741,2.741,0,0,1-2.407-1.206,6.342,6.342,0,0,1-.849-3.544Zm2.635.659a4.79,4.79,0,0,0,.315,2.073A1.112,1.112,0,0,0,17.627-2a1.28,1.28,0,0,0,1.178-.7V-7.283a1.251,1.251,0,0,0-1.169-.742,1.13,1.13,0,0,0-1.058.584,4.549,4.549,0,0,0-.334,2.078ZM28.147,0a3.669,3.669,0,0,1-.223-.779,2.244,2.244,0,0,1-1.911.965,2.828,2.828,0,0,1-2.092-.835,2.934,2.934,0,0,1-.83-2.162A3.039,3.039,0,0,1,24.1-5.251,4.4,4.4,0,0,1,27-6.132h.8v-.807a1.512,1.512,0,0,0-.232-.956.831.831,0,0,0-.677-.278q-.983,0-.983,1.15H23.277a2.906,2.906,0,0,1,1.044-2.3,3.885,3.885,0,0,1,2.639-.9,3.568,3.568,0,0,1,2.556.858,3.221,3.221,0,0,1,.9,2.454v4.722a4.941,4.941,0,0,0,.371,2.032V0ZM26.6-1.874a1.465,1.465,0,0,0,.742-.176,1.248,1.248,0,0,0,.455-.417V-4.555h-.631a1.347,1.347,0,0,0-1.053.427,1.639,1.639,0,0,0-.385,1.141Q25.726-1.874,26.6-1.874ZM31.97-5.325A6.554,6.554,0,0,1,32.8-9.008a2.764,2.764,0,0,1,2.431-1.215,2.344,2.344,0,0,1,1.93,1V-14.25h2.644V0H37.425L37.3-1.021A2.418,2.418,0,0,1,35.226.186a2.741,2.741,0,0,1-2.407-1.206,6.342,6.342,0,0,1-.849-3.544Zm2.635.659a4.79,4.79,0,0,0,.315,2.073A1.112,1.112,0,0,0,35.987-2a1.28,1.28,0,0,0,1.178-.7V-7.283A1.251,1.251,0,0,0,36-8.025a1.13,1.13,0,0,0-1.058.584A4.549,4.549,0,0,0,34.6-5.362Z" transform="translate(-8911.374 -7954.493)" fill="#fff"/>
      <g id="Group_92232" data-name="Group 92232" transform="translate(-8670.637 -9687.392)">
        <g id="Group_92227" data-name="Group 92227">
          <g id="Group_92224" data-name="Group 92224">
            <path id="Path_134828" data-name="Path 134828" d="M-231.944,1746.1a.988.988,0,0,1,.069-.38,1.174,1.174,0,0,1,.221-.33.987.987,0,0,1,.71-.29,1.056,1.056,0,0,1,.709.29,1.045,1.045,0,0,1,.21.33,1.026,1.026,0,0,1-.21,1.091,1.054,1.054,0,0,1-.709.289.985.985,0,0,1-.71-.289A.99.99,0,0,1-231.944,1746.1Z" fill="#ffdc72"/>
          </g>
          <g id="Group_92225" data-name="Group 92225">
            <path id="Path_134829" data-name="Path 134829" d="M-246.6,1745.1a1,1,0,0,1,1,1h0a1,1,0,0,1-1,1h0a1,1,0,0,1-1-1h0A1,1,0,0,1-246.6,1745.1Zm3.911,0a1,1,0,0,1,1,1h0a1,1,0,0,1-1,1h0a1,1,0,0,1-1-1h0A1,1,0,0,1-242.694,1745.1Zm3.919,0a1,1,0,0,1,1,1h0a1,1,0,0,1-1,1h0a1,1,0,0,1-1-1h0A1,1,0,0,1-238.775,1745.1Zm3.911,0a1,1,0,0,1,1,1h0a1,1,0,0,1-1,1h0a1,1,0,0,1-1-1h0A1,1,0,0,1-234.864,1745.1Z" fill="#ffdc72"/>
          </g>
          <g id="Group_92226" data-name="Group 92226">
            <path id="Path_134830" data-name="Path 134830" d="M-251.525,1746.1a1,1,0,0,1,.3-.71.984.984,0,0,1,.7-.29.651.651,0,0,1,.2.02.763.763,0,0,1,.19.06.561.561,0,0,1,.17.091.878.878,0,0,1,.15.119,1.028,1.028,0,0,1,0,1.421c-.04.039-.1.079-.15.119a.556.556,0,0,1-.17.091.686.686,0,0,1-.19.06,1.234,1.234,0,0,1-.2.019.983.983,0,0,1-.7-.289A1,1,0,0,1-251.525,1746.1Z" fill="#ffdc72"/>
          </g>
        </g>
        <g id="Group_92231" data-name="Group 92231">
          <g id="Group_92228" data-name="Group 92228">
            <path id="Path_134831" data-name="Path 134831" d="M-231.944,1708.6a.985.985,0,0,1,.069-.38,1.172,1.172,0,0,1,.221-.33.987.987,0,0,1,.71-.29,1.051,1.051,0,0,1,.709.29,1.033,1.033,0,0,1,.21.33,1.027,1.027,0,0,1-.21,1.091,1.055,1.055,0,0,1-.709.289.99.99,0,0,1-.71-.289A.99.99,0,0,1-231.944,1708.6Z" fill="#ffdc72"/>
          </g>
          <g id="Group_92229" data-name="Group 92229">
            <path id="Path_134832" data-name="Path 134832" d="M-246.6,1707.6a1,1,0,0,1,1,1h0a1,1,0,0,1-1,1h0a1,1,0,0,1-1-1h0A1,1,0,0,1-246.6,1707.6Zm3.911,0a1,1,0,0,1,1,1h0a1,1,0,0,1-1,1h0a1,1,0,0,1-1-1h0A1,1,0,0,1-242.694,1707.6Zm3.919,0a1,1,0,0,1,1,1h0a1,1,0,0,1-1,1h0a1,1,0,0,1-1-1h0A1,1,0,0,1-238.775,1707.6Zm3.911,0a1,1,0,0,1,1,1h0a1,1,0,0,1-1,1h0a1,1,0,0,1-1-1h0A1,1,0,0,1-234.864,1707.6Z" fill="#ffdc72"/>
          </g>
          <g id="Group_92230" data-name="Group 92230">
            <path id="Path_134833" data-name="Path 134833" d="M-251.525,1708.6a1,1,0,0,1,.3-.71.984.984,0,0,1,.7-.29.647.647,0,0,1,.2.02.686.686,0,0,1,.19.06.555.555,0,0,1,.17.09.877.877,0,0,1,.15.12,1.028,1.028,0,0,1,0,1.421c-.04.039-.1.079-.15.119a.558.558,0,0,1-.17.09.723.723,0,0,1-.19.061,1.354,1.354,0,0,1-.2.019.987.987,0,0,1-.7-.289A1,1,0,0,1-251.525,1708.6Z" fill="#ffdc72"/>
          </g>
        </g>
      </g>
      <path id="Path_135759" data-name="Path 135759" d="M-13.884,0H-16.8V-11.4l-2.84,1.1v-2.42l5.445-2.225h.308ZM-4.02-5.773a2.785,2.785,0,0,1-2.02.943A3.121,3.121,0,0,1-8.721-6.2,6.159,6.159,0,0,1-9.7-9.854a6.486,6.486,0,0,1,.554-2.7,4.467,4.467,0,0,1,1.543-1.9,3.826,3.826,0,0,1,2.21-.677,3.612,3.612,0,0,1,2.246.749A4.8,4.8,0,0,1-1.62-12.238a8.746,8.746,0,0,1,.543,3.184V-8A9.472,9.472,0,0,1-2.753-2.035,5.783,5.783,0,0,1-7.506.154h-.3v-2.5h.195A3.467,3.467,0,0,0-5.05-3.23,4.124,4.124,0,0,0-4.02-5.773ZM-5.3-7.106q.841,0,1.323-1.148V-9.587a5.426,5.426,0,0,0-.4-2.3q-.4-.836-1.036-.836t-1.01.825a4.751,4.751,0,0,0-.385,2.015,4.329,4.329,0,0,0,.4,2.035A1.223,1.223,0,0,0-5.3-7.106ZM6.6-5.773a2.785,2.785,0,0,1-2.02.943A3.121,3.121,0,0,1,1.9-6.2,6.159,6.159,0,0,1,.923-9.854a6.486,6.486,0,0,1,.554-2.7,4.467,4.467,0,0,1,1.543-1.9,3.826,3.826,0,0,1,2.21-.677,3.612,3.612,0,0,1,2.246.749A4.8,4.8,0,0,1,9-12.238a8.746,8.746,0,0,1,.543,3.184V-8A9.472,9.472,0,0,1,7.87-2.035,5.783,5.783,0,0,1,3.117.154h-.3v-2.5h.195A3.467,3.467,0,0,0,5.573-3.23,4.124,4.124,0,0,0,6.6-5.773ZM5.322-7.106q.841,0,1.323-1.148V-9.587a5.426,5.426,0,0,0-.4-2.3q-.4-.836-1.036-.836T4.2-11.9a4.751,4.751,0,0,0-.385,2.015,4.329,4.329,0,0,0,.4,2.035A1.223,1.223,0,0,0,5.322-7.106ZM20.4,0H11.6V-2.051l4.04-5.137A11.254,11.254,0,0,0,16.77-9.059a3.743,3.743,0,0,0,.364-1.543,2.994,2.994,0,0,0-.344-1.559,1.094,1.094,0,0,0-.99-.564,1.273,1.273,0,0,0-1.123.656,3.45,3.45,0,0,0-.415,1.846H11.351a5.538,5.538,0,0,1,.569-2.512,4.25,4.25,0,0,1,1.6-1.769,4.379,4.379,0,0,1,2.333-.631,4.194,4.194,0,0,1,3.1,1.1,4.237,4.237,0,0,1,1.1,3.133,5.978,5.978,0,0,1-.61,2.558,15.73,15.73,0,0,1-2.21,3.194L15.319-2.41H20.4Z" transform="translate(-9564.629 -7953.908)" fill="#fff"/>
      <path id="Path_135751" data-name="Path 135751" d="M-43.281-1.883H-38.3V0h-7.32V-11.375h2.344ZM-32.211,0a2.507,2.507,0,0,1-.227-.758A2.732,2.732,0,0,1-34.57.156a3,3,0,0,1-2.059-.719,2.312,2.312,0,0,1-.816-1.812,2.389,2.389,0,0,1,1-2.062,4.915,4.915,0,0,1,2.879-.727h1.039v-.484a1.393,1.393,0,0,0-.3-.937,1.183,1.183,0,0,0-.949-.352,1.345,1.345,0,0,0-.895.273.929.929,0,0,0-.324.75h-2.258A2.268,2.268,0,0,1-36.8-7.273a3,3,0,0,1,1.281-.98,4.669,4.669,0,0,1,1.859-.355,3.689,3.689,0,0,1,2.48.785,2.747,2.747,0,0,1,.918,2.207v3.664a4.041,4.041,0,0,0,.336,1.82V0Zm-1.867-1.57a1.945,1.945,0,0,0,.922-.223,1.462,1.462,0,0,0,.625-.6V-3.844h-.844q-1.7,0-1.8,1.172l-.008.133a.9.9,0,0,0,.3.7A1.153,1.153,0,0,0-34.078-1.57Zm18.289-9.8v7.492A3.836,3.836,0,0,1-16.957-.93,4.5,4.5,0,0,1-20.148.156,4.553,4.553,0,0,1-23.312-.9a3.77,3.77,0,0,1-1.2-2.9v-7.578h2.344v7.508a2.167,2.167,0,0,0,.535,1.629,2.054,2.054,0,0,0,1.48.512q1.977,0,2.008-2.078v-7.57Zm8.172,9.031h-4.109L-12.508,0H-15l4.234-11.375h2.172L-4.336,0H-6.828Zm-3.477-1.9H-8.25L-9.68-8.5Zm14.664-.7H-.93v3.063H4.352V0H-3.273V-11.375H4.336v1.9H-.93v2.711h4.5Zm8.578,2.6H8.039L7.258,0H4.766L9-11.375h2.172L15.43,0H12.938Zm-3.477-1.9h2.844L10.086-8.5Zm16.586.453A4.025,4.025,0,0,1,23.9-.9,4.76,4.76,0,0,1,20.68.156a4.28,4.28,0,0,1-3.441-1.473,6.038,6.038,0,0,1-1.254-4.043v-.7a6.819,6.819,0,0,1,.578-2.891,4.332,4.332,0,0,1,1.652-1.918,4.629,4.629,0,0,1,2.5-.668,4.637,4.637,0,0,1,3.172,1.055,4.326,4.326,0,0,1,1.391,2.961H22.93a2.376,2.376,0,0,0-.613-1.6,2.271,2.271,0,0,0-1.605-.5,1.991,1.991,0,0,0-1.754.84,4.707,4.707,0,0,0-.6,2.605V-5.3a5.038,5.038,0,0,0,.559,2.7,1.954,1.954,0,0,0,1.762.852,2.314,2.314,0,0,0,1.621-.5,2.241,2.241,0,0,0,.613-1.535Zm9.953,1.453a.727.727,0,0,0-.41-.652,4.659,4.659,0,0,0-1.316-.426q-3.016-.633-3.016-2.562A2.323,2.323,0,0,1,31.4-7.855a3.766,3.766,0,0,1,2.441-.754,4.053,4.053,0,0,1,2.574.758,2.388,2.388,0,0,1,.965,1.969H35.125a1.092,1.092,0,0,0-.312-.8A1.322,1.322,0,0,0,33.836-7a1.351,1.351,0,0,0-.883.258.814.814,0,0,0-.312.656A.7.7,0,0,0,33-5.48a3.657,3.657,0,0,0,1.2.4,9.8,9.8,0,0,1,1.422.379A2.336,2.336,0,0,1,37.406-2.43a2.2,2.2,0,0,1-.992,1.871,4.28,4.28,0,0,1-2.562.715,4.47,4.47,0,0,1-1.887-.379,3.166,3.166,0,0,1-1.293-1.039A2.414,2.414,0,0,1,30.2-2.687h2.141a1.179,1.179,0,0,0,.445.922,1.766,1.766,0,0,0,1.109.32,1.635,1.635,0,0,0,.98-.246A.766.766,0,0,0,35.211-2.336ZM42.75.156A4.15,4.15,0,0,1,39.723-.984a4.054,4.054,0,0,1-1.168-3.039v-.219a5.106,5.106,0,0,1,.492-2.277,3.612,3.612,0,0,1,1.395-1.547A3.914,3.914,0,0,1,42.5-8.609a3.508,3.508,0,0,1,2.73,1.094,4.444,4.444,0,0,1,1,3.1v.922H40.844a2.1,2.1,0,0,0,.66,1.328,2,2,0,0,0,1.395.5,2.437,2.437,0,0,0,2.039-.945l1.109,1.242A3.389,3.389,0,0,1,44.672-.246,4.511,4.511,0,0,1,42.75.156Zm-.258-6.945a1.411,1.411,0,0,0-1.09.455,2.357,2.357,0,0,0-.535,1.3h3.141v-.181A1.681,1.681,0,0,0,43.6-6.377,1.456,1.456,0,0,0,42.492-6.789ZM-62.523,15.052a5.07,5.07,0,0,1-.887,3.129A2.843,2.843,0,0,1-65.8,19.356a2.633,2.633,0,0,1-2.07-.891V22.45h-2.258v-11.7h2.094l.078.828a2.654,2.654,0,0,1,2.141-.984,2.862,2.862,0,0,1,2.43,1.156,5.207,5.207,0,0,1,.867,3.188Zm-2.258-.172a3.345,3.345,0,0,0-.418-1.826,1.36,1.36,0,0,0-1.215-.643,1.478,1.478,0,0,0-1.461.815V16.7a1.5,1.5,0,0,0,1.477.839Q-64.781,17.536-64.781,14.879Zm8.406-2.015a6.134,6.134,0,0,0-.812-.062,1.654,1.654,0,0,0-1.68.867V19.2h-2.258V10.747h2.133l.063,1.008a2.092,2.092,0,0,1,1.883-1.164,2.366,2.366,0,0,1,.7.1Zm.453,2.031a5.013,5.013,0,0,1,.484-2.242,3.546,3.546,0,0,1,1.395-1.523,4.069,4.069,0,0,1,2.113-.539,3.849,3.849,0,0,1,2.793,1.047,4.2,4.2,0,0,1,1.207,2.844l.016.578A4.418,4.418,0,0,1-49,18.18a3.775,3.775,0,0,1-2.914,1.176,3.793,3.793,0,0,1-2.918-1.172A4.5,4.5,0,0,1-55.922,15Zm2.258.16a3.16,3.16,0,0,0,.453,1.843,1.5,1.5,0,0,0,1.3.638,1.5,1.5,0,0,0,1.281-.63,3.457,3.457,0,0,0,.461-2.015,3.128,3.128,0,0,0-.461-1.831,1.5,1.5,0,0,0-1.3-.649,1.474,1.474,0,0,0-1.281.646A3.516,3.516,0,0,0-53.664,15.056Zm10.656,2.48a1.481,1.481,0,0,0,1.016-.344,1.2,1.2,0,0,0,.406-.914h2.117a2.9,2.9,0,0,1-.469,1.574A3.093,3.093,0,0,1-41.2,18.962a3.949,3.949,0,0,1-1.77.395A3.67,3.67,0,0,1-45.828,18.2a4.56,4.56,0,0,1-1.047-3.184v-.148a4.508,4.508,0,0,1,1.039-3.117,3.627,3.627,0,0,1,2.852-1.164,3.555,3.555,0,0,1,2.543.9,3.2,3.2,0,0,1,.973,2.4h-2.117a1.551,1.551,0,0,0-.406-1.072,1.354,1.354,0,0,0-1.031-.412,1.36,1.36,0,0,0-1.191.575,3.333,3.333,0,0,0-.4,1.866v.235a3.375,3.375,0,0,0,.4,1.878A1.377,1.377,0,0,0-43.008,17.536Zm9.891.8a2.831,2.831,0,0,1-2.312,1.016,2.67,2.67,0,0,1-2.074-.781,3.335,3.335,0,0,1-.73-2.289V10.747h2.258v5.467q0,1.322,1.2,1.322a1.63,1.63,0,0,0,1.578-.8V10.747h2.266V19.2h-2.125Zm8.641-5.477a6.134,6.134,0,0,0-.812-.062,1.654,1.654,0,0,0-1.68.867V19.2h-2.258V10.747h2.133l.063,1.008a2.092,2.092,0,0,1,1.883-1.164,2.366,2.366,0,0,1,.7.1Zm5.75,6.336a2.507,2.507,0,0,1-.227-.758,2.732,2.732,0,0,1-2.133.914,3,3,0,0,1-2.059-.719,2.312,2.312,0,0,1-.816-1.812,2.389,2.389,0,0,1,1-2.062,4.915,4.915,0,0,1,2.879-.727h1.039v-.484a1.393,1.393,0,0,0-.3-.937,1.183,1.183,0,0,0-.949-.352,1.345,1.345,0,0,0-.895.273.929.929,0,0,0-.324.75h-2.258a2.268,2.268,0,0,1,.453-1.359,3,3,0,0,1,1.281-.98,4.669,4.669,0,0,1,1.859-.355,3.689,3.689,0,0,1,2.48.785,2.747,2.747,0,0,1,.918,2.207v3.664a4.041,4.041,0,0,0,.336,1.82V19.2Zm-1.867-1.57a1.945,1.945,0,0,0,.922-.223,1.462,1.462,0,0,0,.625-.6V15.356h-.844q-1.7,0-1.8,1.172l-.008.133a.9.9,0,0,0,.3.7A1.153,1.153,0,0,0-20.594,17.63Zm9.18-2.719a5.094,5.094,0,0,1,.887-3.148A2.877,2.877,0,0,1-8.1,10.591a2.589,2.589,0,0,1,2.039.922V7.2H-3.8v12H-5.836l-.109-.9a2.657,2.657,0,0,1-2.172,1.055,2.869,2.869,0,0,1-2.395-1.176A5.258,5.258,0,0,1-11.414,14.911Zm2.258.161A3.355,3.355,0,0,0-8.742,16.9a1.348,1.348,0,0,0,1.2.636,1.51,1.51,0,0,0,1.477-.887V13.3a1.489,1.489,0,0,0-1.461-.887Q-9.156,12.411-9.156,15.072Zm11,4.285a4.15,4.15,0,0,1-3.027-1.141,4.054,4.054,0,0,1-1.168-3.039v-.219a5.106,5.106,0,0,1,.492-2.277A3.612,3.612,0,0,1-.465,11.134a3.914,3.914,0,0,1,2.059-.543,3.508,3.508,0,0,1,2.73,1.094,4.444,4.444,0,0,1,1,3.1v.922H-.062A2.1,2.1,0,0,0,.6,17.036a2,2,0,0,0,1.395.5,2.437,2.437,0,0,0,2.039-.945l1.109,1.242a3.389,3.389,0,0,1-1.375,1.121A4.511,4.511,0,0,1,1.844,19.356Zm-.258-6.945a1.411,1.411,0,0,0-1.09.455,2.357,2.357,0,0,0-.535,1.3H3.1v-.181A1.681,1.681,0,0,0,2.7,12.823,1.456,1.456,0,0,0,1.586,12.411ZM18.2,15.052a5.07,5.07,0,0,1-.887,3.129,2.843,2.843,0,0,1-2.395,1.176,2.633,2.633,0,0,1-2.07-.891V22.45H10.586v-11.7H12.68l.078.828a2.654,2.654,0,0,1,2.141-.984,2.862,2.862,0,0,1,2.43,1.156,5.207,5.207,0,0,1,.867,3.188Zm-2.258-.172a3.345,3.345,0,0,0-.418-1.826,1.36,1.36,0,0,0-1.215-.643,1.478,1.478,0,0,0-1.461.815V16.7a1.5,1.5,0,0,0,1.477.839Q15.938,17.536,15.938,14.879Zm8.406-2.015a6.134,6.134,0,0,0-.812-.062,1.654,1.654,0,0,0-1.68.867V19.2H19.594V10.747h2.133l.063,1.008a2.092,2.092,0,0,1,1.883-1.164,2.366,2.366,0,0,1,.7.1ZM24.8,14.9a5.013,5.013,0,0,1,.484-2.242,3.546,3.546,0,0,1,1.395-1.523,4.069,4.069,0,0,1,2.113-.539,3.849,3.849,0,0,1,2.793,1.047,4.2,4.2,0,0,1,1.207,2.844l.016.578a4.418,4.418,0,0,1-1.086,3.121A3.775,3.775,0,0,1,28.8,19.356a3.793,3.793,0,0,1-2.918-1.172A4.5,4.5,0,0,1,24.8,15Zm2.258.16a3.16,3.16,0,0,0,.453,1.843,1.628,1.628,0,0,0,2.578.008,3.457,3.457,0,0,0,.461-2.015,3.128,3.128,0,0,0-.461-1.831,1.5,1.5,0,0,0-1.3-.649,1.474,1.474,0,0,0-1.281.646A3.516,3.516,0,0,0,27.055,15.056ZM36.9,8.669v2.078h1.445V12.4H36.9v4.219a1.007,1.007,0,0,0,.18.672.9.9,0,0,0,.688.2,3.6,3.6,0,0,0,.664-.055v1.711a4.648,4.648,0,0,1-1.367.2,2.156,2.156,0,0,1-2.422-2.4V12.4H33.406V10.747h1.234V8.669Zm6.594,10.687a4.15,4.15,0,0,1-3.027-1.141A4.054,4.054,0,0,1,39.3,15.177v-.219a5.106,5.106,0,0,1,.492-2.277,3.612,3.612,0,0,1,1.395-1.547,3.914,3.914,0,0,1,2.059-.543,3.508,3.508,0,0,1,2.73,1.094,4.444,4.444,0,0,1,1,3.1v.922H41.586a2.1,2.1,0,0,0,.66,1.328,2,2,0,0,0,1.395.5,2.437,2.437,0,0,0,2.039-.945l1.109,1.242a3.389,3.389,0,0,1-1.375,1.121A4.511,4.511,0,0,1,43.492,19.356Zm-.258-6.945a1.411,1.411,0,0,0-1.09.455,2.357,2.357,0,0,0-.535,1.3H44.75v-.181a1.681,1.681,0,0,0-.406-1.165A1.456,1.456,0,0,0,43.234,12.411Zm4.688,2.5a4.954,4.954,0,0,1,.926-3.133,3,3,0,0,1,2.5-1.187,2.631,2.631,0,0,1,2.164.953l.094-.8h2.047v8.172a3.613,3.613,0,0,1-.5,1.93,3.236,3.236,0,0,1-1.418,1.25,4.985,4.985,0,0,1-2.141.43,4.635,4.635,0,0,1-1.812-.371,3.217,3.217,0,0,1-1.336-.957l1-1.375a2.645,2.645,0,0,0,2.047.945,1.936,1.936,0,0,0,1.4-.48,1.8,1.8,0,0,0,.5-1.363v-.453a2.612,2.612,0,0,1-2.055.883,2.992,2.992,0,0,1-2.465-1.191A4.953,4.953,0,0,1,47.922,15Zm2.258.161a3.1,3.1,0,0,0,.461,1.809,1.465,1.465,0,0,0,1.266.655,1.567,1.567,0,0,0,1.477-.777V13.188a1.563,1.563,0,0,0-1.461-.777,1.474,1.474,0,0,0-1.277.667A3.5,3.5,0,0,0,50.18,15.072Zm11.094,4.285a4.15,4.15,0,0,1-3.027-1.141,4.054,4.054,0,0,1-1.168-3.039v-.219a5.106,5.106,0,0,1,.492-2.277,3.612,3.612,0,0,1,1.395-1.547,3.914,3.914,0,0,1,2.059-.543,3.508,3.508,0,0,1,2.73,1.094,4.444,4.444,0,0,1,1,3.1v.922H59.367a2.1,2.1,0,0,0,.66,1.328,2,2,0,0,0,1.395.5,2.437,2.437,0,0,0,2.039-.945l1.109,1.242A3.389,3.389,0,0,1,63.2,18.954,4.511,4.511,0,0,1,61.273,19.356Zm-.258-6.945a1.411,1.411,0,0,0-1.09.455,2.357,2.357,0,0,0-.535,1.3h3.141v-.181a1.681,1.681,0,0,0-.406-1.165A1.456,1.456,0,0,0,61.016,12.411Zm9.766.453a6.134,6.134,0,0,0-.812-.062,1.654,1.654,0,0,0-1.68.867V19.2H66.031V10.747h2.133l.063,1.008a2.092,2.092,0,0,1,1.883-1.164,2.366,2.366,0,0,1,.7.1Z" transform="translate(-9074.678 -7909.739)"/>
      <rect id="Rectangle_32040" data-name="Rectangle 32040" width="115.39" height="1.286" transform="translate(-9132.372 -7880.559)" fill="#ffb74d"/>
    </g>
  </g>
</svg>
