<svg xmlns="http://www.w3.org/2000/svg" xmlns:xlink="http://www.w3.org/1999/xlink" width="295" height="340" viewBox="0 0 295 340">
  <defs>
    <clipPath id="clip-path">
      <rect id="Rectangle_7705" data-name="Rectangle 7705" width="295" height="340" transform="translate(285 4383)" fill="#ffdc72"/>
    </clipPath>
  </defs>
  <g id="t1-i12" transform="translate(-285 -4383)" clip-path="url(#clip-path)">
    <g id="Group_92099" data-name="Group 92099" transform="translate(378.541 3369.403)">
      <g id="freepik--background-complete--inject-437">
        <rect id="Rectangle_31879" data-name="Rectangle 31879" width="471.686" height="0.236" transform="translate(-188.541 1302.925)" fill="#ebebeb"/>
        <rect id="Rectangle_31880" data-name="Rectangle 31880" width="31.244" height="0.236" transform="translate(204.637 1318.104)" fill="#ebebeb"/>
        <rect id="Rectangle_31881" data-name="Rectangle 31881" width="8.198" height="0.236" transform="translate(115.725 1320.67)" fill="#ebebeb"/>
        <rect id="Rectangle_31882" data-name="Rectangle 31882" width="18.103" height="0.236" transform="translate(185.591 1309.35)" fill="#ebebeb"/>
        <rect id="Rectangle_31883" data-name="Rectangle 31883" width="40.744" height="0.236" transform="translate(-139.052 1310.935)" fill="#ebebeb"/>
        <rect id="Rectangle_31884" data-name="Rectangle 31884" width="5.972" height="0.236" transform="translate(-89.902 1310.935)" fill="#ebebeb"/>
        <rect id="Rectangle_31885" data-name="Rectangle 31885" width="88.375" height="0.236" transform="translate(-64.516 1314.916)" fill="#ebebeb"/>
        <path id="Path_134472" data-name="Path 134472" d="M35.038,1260.851H-147.118a5.386,5.386,0,0,1-5.377-5.387V999.405a5.387,5.387,0,0,1,5.377-5.339H35.038a5.386,5.386,0,0,1,5.387,5.386h0v256.012A5.387,5.387,0,0,1,35.038,1260.851Zm-182.156-266.6a5.151,5.151,0,0,0-5.141,5.151v256.059a5.151,5.151,0,0,0,5.141,5.151H35.038a5.16,5.16,0,0,0,5.151-5.151V999.405a5.16,5.16,0,0,0-5.151-5.151Z" fill="#ebebeb"/>
        <path id="Path_134473" data-name="Path 134473" d="M239.1,1260.851H56.934a5.4,5.4,0,0,1-5.387-5.387V999.405a5.4,5.4,0,0,1,5.387-5.339H239.1a5.387,5.387,0,0,1,5.368,5.339v256.059A5.387,5.387,0,0,1,239.1,1260.851ZM56.934,994.254a5.16,5.16,0,0,0-5.151,5.151v256.059a5.16,5.16,0,0,0,5.151,5.151H239.1a5.161,5.161,0,0,0,5.151-5.151V999.405a5.161,5.161,0,0,0-5.151-5.151Z" fill="#ebebeb"/>
        <rect id="Rectangle_31886" data-name="Rectangle 31886" width="283.219" height="207.995" transform="translate(-85.817 1038.847)" fill="#f5f5f5"/>
        <path id="Path_134474" data-name="Path 134474" d="M82.131,1091.8a5.859,5.859,0,0,1,5.859-5.859,5.792,5.792,0,0,1,1.679.246,12.394,12.394,0,0,1,12.264-14.2h.009a12.838,12.838,0,0,1,2.283.208,10.839,10.839,0,0,1,20.1,5.481h.179a9.99,9.99,0,1,1,0,19.98H87.867A5.858,5.858,0,0,1,82.131,1091.8Z" fill="#fafafa"/>
        <path id="Path_134475" data-name="Path 134475" d="M2.02,1142.448a5.858,5.858,0,0,1,5.858-5.858h0a5.8,5.8,0,0,1,1.68.245,12.393,12.393,0,0,1,12.263-14.2h.01a13.062,13.062,0,0,1,2.283.207,10.839,10.839,0,0,1,20.1,5.481H44.4a9.99,9.99,0,1,1,0,19.981H7.68A5.849,5.849,0,0,1,2.02,1142.448Z" fill="#fafafa"/>
        <path id="Path_134476" data-name="Path 134476" d="M-59.648,1113.289a3.056,3.056,0,0,1,3.056-3.057h0a3,3,0,0,1,.878.132,6.193,6.193,0,0,1-.066-.943,6.462,6.462,0,0,1,6.462-6.462h0a7.186,7.186,0,0,1,1.2.1,5.66,5.66,0,0,1,7.792-1.835,5.661,5.661,0,0,1,2.679,4.665h.095a5.207,5.207,0,0,1,5.631,4.745,5.208,5.208,0,0,1-4.746,5.632,5.226,5.226,0,0,1-.885,0H-56.677A3.057,3.057,0,0,1-59.648,1113.289Z" fill="#fafafa"/>
        <path id="Path_134477" data-name="Path 134477" d="M160.073,1174a3.046,3.046,0,0,1,3.933-2.924,6.483,6.483,0,0,1,6.4-7.406h0a6.331,6.331,0,0,1,1.189.113,5.66,5.66,0,0,1,10.481,2.831h.094a5.207,5.207,0,1,1,0,10.377H163.044A3.056,3.056,0,0,1,160.073,1174Z" fill="#fafafa"/>
        <path id="Path_134478" data-name="Path 134478" d="M197.4,1246.851v-7.962H162.176l-3-70.357-.377-5.066h4.613l18.292-9.3,1.887-8.434,1.519-6.811,1.877-8.415,1.594-7.132-6.877-5.792h-21.32v-3.057h2.575L164,1108.43l2.783-16.462.311-1.84h-6.707v-4.255h-7.17v-6.406h-1.745v-3.047h1.745V1074.9H139.8v1.519h1.755v3.047H139.8v6.406h-7.16v4.255h-6.707l.311,1.84,2.783,16.462,1.038,6.094h2.575v3.057h-21.32l-6.877,5.792,1.594,7.132,1.877,8.415,1.519,6.811,1.887,8.434,18.292,9.3h4.623l-.387,5.066-3,70.357H60.566v-24.254H57.688v-7.67h-27.7v-11.9H-20.093v-6.858h1.019v-2.075h-49.47v2.075h1.217v6.858h-2.434v11.9H-85.817v39.886Z" fill="#e0e0e0"/>
        <path id="Path_134479" data-name="Path 134479" d="M130.536,1130.505h4.3l-.283-7.132h-4.443Z" fill="#ebebeb"/>
        <path id="Path_134480" data-name="Path 134480" d="M129.62,1130.505l-.425-7.132h-3.99l.575,7.132Z" fill="#ebebeb"/>
        <path id="Path_134481" data-name="Path 134481" d="M140.365,1123.374h-4.9l.283,7.132h4.755Z" fill="#ebebeb"/>
        <path id="Path_134482" data-name="Path 134482" d="M141.422,1130.505h4.83v-7.132h-4.972Z" fill="#ebebeb"/>
        <path id="Path_134483" data-name="Path 134483" d="M120.1,1130.505l-.717-7.132h-3.519l.858,7.132Z" fill="#ebebeb"/>
        <path id="Path_134484" data-name="Path 134484" d="M111.961,1130.505l-1.009-7.132h-2.6l1.151,7.132Z" fill="#ebebeb"/>
        <path id="Path_134485" data-name="Path 134485" d="M124.866,1130.505l-.575-7.132h-3.981l.717,7.132Z" fill="#ebebeb"/>
        <path id="Path_134486" data-name="Path 134486" d="M115.8,1130.505l-.858-7.132h-3.066l1.009,7.132Z" fill="#ebebeb"/>
        <path id="Path_134487" data-name="Path 134487" d="M147.167,1130.505h4.821l.141-7.132h-4.962Z" fill="#ebebeb"/>
        <path id="Path_134488" data-name="Path 134488" d="M173.11,1123.374h-3.981l-.575,7.132h3.84Z" fill="#ebebeb"/>
        <path id="Path_134489" data-name="Path 134489" d="M183.911,1130.505l1.151-7.132h-2.6l-1,7.132Z" fill="#ebebeb"/>
        <path id="Path_134490" data-name="Path 134490" d="M107.423,1123.374h-2.981l1.594,7.132h2.538Z" fill="#ebebeb"/>
        <path id="Path_134491" data-name="Path 134491" d="M185.987,1123.374l-1.142,7.132h2.141l1.594-7.132Z" fill="#ebebeb"/>
        <path id="Path_134492" data-name="Path 134492" d="M181.534,1123.374h-3.057l-.868,7.132h2.924Z" fill="#ebebeb"/>
        <path id="Path_134493" data-name="Path 134493" d="M163.8,1130.505h3.84l.575-7.132h-3.99Z" fill="#ebebeb"/>
        <path id="Path_134494" data-name="Path 134494" d="M177.553,1123.374h-3.528l-.717,7.132h3.387Z" fill="#ebebeb"/>
        <path id="Path_134495" data-name="Path 134495" d="M158.582,1130.505h4.292l.434-7.132h-4.443Z" fill="#ebebeb"/>
        <path id="Path_134496" data-name="Path 134496" d="M152.9,1130.505h4.764l.283-7.132h-4.906Z" fill="#ebebeb"/>
        <path id="Path_134497" data-name="Path 134497" d="M136.375,1108.43l-.925-16.462h-4.028l1.34,16.462Z" fill="#ebebeb"/>
        <path id="Path_134498" data-name="Path 134498" d="M141.29,1108.43l-.462-16.462h-4.481l.9,16.462Z" fill="#ebebeb"/>
        <path id="Path_134499" data-name="Path 134499" d="M164,1108.43l1.943-11.528.538-4.934h-3.594l-1.368,16.462Z" fill="#ebebeb"/>
        <path id="Path_134500" data-name="Path 134500" d="M129.026,1108.43h2.868l-1.368-16.462h-3.585l1.226,11.405Z" fill="#ebebeb"/>
        <path id="Path_134501" data-name="Path 134501" d="M151.7,1091.969h-4.538l-.019,16.462h4.113Z" fill="#ebebeb"/>
        <path id="Path_134502" data-name="Path 134502" d="M160.648,1108.43,162,1091.969h-4.038l-.924,16.462Z" fill="#ebebeb"/>
        <path id="Path_134503" data-name="Path 134503" d="M157.073,1091.969h-4.481l-.472,16.462h4.047Z" fill="#ebebeb"/>
        <path id="Path_134504" data-name="Path 134504" d="M141.714,1091.969l.453,16.462h4.1l-.009-16.462Z" fill="#ebebeb"/>
        <path id="Path_134505" data-name="Path 134505" d="M136.092,1138.92l.274,6.811h4.453l-.141-6.811Z" fill="#ebebeb"/>
        <path id="Path_134506" data-name="Path 134506" d="M131.045,1138.92l.415,6.811h3.99l-.274-6.811Z" fill="#ebebeb"/>
        <path id="Path_134507" data-name="Path 134507" d="M141.733,1145.731h4.519v-6.811h-4.66Z" fill="#ebebeb"/>
        <path id="Path_134508" data-name="Path 134508" d="M147.167,1145.731h4.519l.132-6.811h-4.651Z" fill="#ebebeb"/>
        <path id="Path_134509" data-name="Path 134509" d="M126.46,1138.92l.547,6.811h3.538l-.415-6.811Z" fill="#ebebeb"/>
        <path id="Path_134510" data-name="Path 134510" d="M110.857,1138.92l1.094,6.811H114.1l-.953-6.811Z" fill="#ebebeb"/>
        <path id="Path_134511" data-name="Path 134511" d="M121.875,1138.92l.679,6.811h3.538l-.547-6.811Z" fill="#ebebeb"/>
        <path id="Path_134512" data-name="Path 134512" d="M114.074,1138.92l.953,6.811h2.613l-.821-6.811Z" fill="#ebebeb"/>
        <path id="Path_134513" data-name="Path 134513" d="M117.743,1138.92l.821,6.811h3.075l-.689-6.811Z" fill="#ebebeb"/>
        <path id="Path_134514" data-name="Path 134514" d="M167.327,1145.731h3.528l.689-6.811h-3.67Z" fill="#ebebeb"/>
        <path id="Path_134515" data-name="Path 134515" d="M180.27,1138.92l-.962,6.811h2.151l1.1-6.811Z" fill="#ebebeb"/>
        <path id="Path_134516" data-name="Path 134516" d="M171.78,1145.731h3.075l.821-6.811h-3.207Z" fill="#ebebeb"/>
        <path id="Path_134517" data-name="Path 134517" d="M176.6,1138.92l-.83,6.811h2.613l.962-6.811Z" fill="#ebebeb"/>
        <path id="Path_134518" data-name="Path 134518" d="M107.914,1138.92l1.519,6.811h1.594l-1.094-6.811Z" fill="#ebebeb"/>
        <path id="Path_134519" data-name="Path 134519" d="M157.969,1145.731h3.99l.415-6.811h-4.132Z" fill="#ebebeb"/>
        <path id="Path_134520" data-name="Path 134520" d="M152.6,1145.731h4.443l.283-6.811h-4.594Z" fill="#ebebeb"/>
        <path id="Path_134521" data-name="Path 134521" d="M162.874,1145.731h3.538l.547-6.811h-3.67Z" fill="#ebebeb"/>
        <path id="Path_134522" data-name="Path 134522" d="M182.393,1145.731h1.2l1.519-6.811h-1.623Z" fill="#ebebeb"/>
        <rect id="Rectangle_31887" data-name="Rectangle 31887" width="2.245" height="2.443" transform="translate(-67.072 1188.617)" fill="#ebebeb"/>
        <rect id="Rectangle_31888" data-name="Rectangle 31888" width="2.245" height="2.443" transform="translate(-63.714 1188.617)" fill="#ebebeb"/>
        <rect id="Rectangle_31889" data-name="Rectangle 31889" width="2.245" height="2.443" transform="translate(-60.346 1188.617)" fill="#ebebeb"/>
        <rect id="Rectangle_31890" data-name="Rectangle 31890" width="2.245" height="2.443" transform="translate(-56.988 1188.617)" fill="#ebebeb"/>
        <rect id="Rectangle_31891" data-name="Rectangle 31891" width="2.245" height="2.443" transform="translate(-53.629 1188.617)" fill="#ebebeb"/>
        <rect id="Rectangle_31892" data-name="Rectangle 31892" width="2.245" height="2.443" transform="translate(-50.271 1188.617)" fill="#ebebeb"/>
        <rect id="Rectangle_31893" data-name="Rectangle 31893" width="2.245" height="2.443" transform="translate(-46.903 1188.617)" fill="#ebebeb"/>
        <rect id="Rectangle_31894" data-name="Rectangle 31894" width="2.245" height="2.443" transform="translate(-43.545 1188.617)" fill="#ebebeb"/>
        <rect id="Rectangle_31895" data-name="Rectangle 31895" width="2.245" height="2.443" transform="translate(-40.186 1188.617)" fill="#ebebeb"/>
        <rect id="Rectangle_31896" data-name="Rectangle 31896" width="2.245" height="2.443" transform="translate(-36.828 1188.617)" fill="#ebebeb"/>
        <rect id="Rectangle_31897" data-name="Rectangle 31897" width="2.245" height="2.443" transform="translate(-33.46 1188.617)" fill="#ebebeb"/>
        <rect id="Rectangle_31898" data-name="Rectangle 31898" width="2.245" height="2.443" transform="translate(-30.102 1188.617)" fill="#ebebeb"/>
        <rect id="Rectangle_31899" data-name="Rectangle 31899" width="2.245" height="2.443" transform="translate(-26.743 1188.617)" fill="#ebebeb"/>
        <rect id="Rectangle_31900" data-name="Rectangle 31900" width="2.245" height="2.443" transform="translate(-23.375 1188.617)" fill="#ebebeb"/>
        <rect id="Rectangle_31901" data-name="Rectangle 31901" width="2.245" height="2.443" transform="translate(-68.752 1197.805)" fill="#ebebeb"/>
        <rect id="Rectangle_31902" data-name="Rectangle 31902" width="2.245" height="2.443" transform="translate(-65.242 1197.805)" fill="#ebebeb"/>
        <rect id="Rectangle_31903" data-name="Rectangle 31903" width="2.245" height="2.443" transform="translate(-61.733 1197.805)" fill="#ebebeb"/>
        <rect id="Rectangle_31904" data-name="Rectangle 31904" width="2.245" height="2.443" transform="translate(-58.233 1197.805)" fill="#ebebeb"/>
        <rect id="Rectangle_31905" data-name="Rectangle 31905" width="2.245" height="2.443" transform="translate(-54.724 1197.805)" fill="#ebebeb"/>
        <rect id="Rectangle_31906" data-name="Rectangle 31906" width="2.245" height="2.443" transform="translate(-51.214 1197.805)" fill="#ebebeb"/>
        <rect id="Rectangle_31907" data-name="Rectangle 31907" width="2.245" height="2.443" transform="translate(-47.705 1197.805)" fill="#ebebeb"/>
        <rect id="Rectangle_31908" data-name="Rectangle 31908" width="2.245" height="2.443" transform="translate(-44.196 1197.805)" fill="#ebebeb"/>
        <rect id="Rectangle_31909" data-name="Rectangle 31909" width="2.245" height="2.443" transform="translate(-40.686 1197.805)" fill="#ebebeb"/>
        <rect id="Rectangle_31910" data-name="Rectangle 31910" width="2.245" height="2.443" transform="translate(-37.186 1197.805)" fill="#ebebeb"/>
        <rect id="Rectangle_31911" data-name="Rectangle 31911" width="2.245" height="2.443" transform="translate(-33.677 1197.805)" fill="#ebebeb"/>
        <rect id="Rectangle_31912" data-name="Rectangle 31912" width="2.245" height="2.443" transform="translate(-30.168 1197.805)" fill="#ebebeb"/>
        <rect id="Rectangle_31913" data-name="Rectangle 31913" width="2.245" height="2.443" transform="translate(-26.658 1197.805)" fill="#ebebeb"/>
        <rect id="Rectangle_31914" data-name="Rectangle 31914" width="2.245" height="2.443" transform="translate(-23.149 1197.805)" fill="#ebebeb"/>
        <rect id="Rectangle_31915" data-name="Rectangle 31915" width="2.245" height="2.443" transform="translate(-19.64 1197.805)" fill="#ebebeb"/>
        <rect id="Rectangle_31916" data-name="Rectangle 31916" width="2.245" height="2.443" transform="translate(-16.13 1197.805)" fill="#ebebeb"/>
        <rect id="Rectangle_31917" data-name="Rectangle 31917" width="2.245" height="2.443" transform="translate(-12.63 1197.805)" fill="#ebebeb"/>
        <rect id="Rectangle_31918" data-name="Rectangle 31918" width="2.245" height="2.443" transform="translate(-9.121 1197.805)" fill="#ebebeb"/>
        <rect id="Rectangle_31919" data-name="Rectangle 31919" width="2.245" height="2.443" transform="translate(-5.612 1197.805)" fill="#ebebeb"/>
        <rect id="Rectangle_31920" data-name="Rectangle 31920" width="2.245" height="2.443" transform="translate(-2.102 1197.805)" fill="#ebebeb"/>
        <rect id="Rectangle_31921" data-name="Rectangle 31921" width="2.245" height="2.443" transform="translate(1.407 1197.805)" fill="#ebebeb"/>
        <rect id="Rectangle_31922" data-name="Rectangle 31922" width="2.245" height="2.443" transform="translate(4.916 1197.805)" fill="#ebebeb"/>
        <rect id="Rectangle_31923" data-name="Rectangle 31923" width="2.245" height="2.443" transform="translate(8.416 1197.805)" fill="#ebebeb"/>
        <rect id="Rectangle_31924" data-name="Rectangle 31924" width="2.245" height="2.443" transform="translate(11.925 1197.805)" fill="#ebebeb"/>
        <rect id="Rectangle_31925" data-name="Rectangle 31925" width="2.245" height="2.443" transform="translate(15.435 1197.805)" fill="#ebebeb"/>
        <rect id="Rectangle_31926" data-name="Rectangle 31926" width="2.245" height="2.443" transform="translate(18.944 1197.805)" fill="#ebebeb"/>
        <rect id="Rectangle_31927" data-name="Rectangle 31927" width="2.245" height="2.443" transform="translate(22.453 1197.805)" fill="#ebebeb"/>
        <rect id="Rectangle_31928" data-name="Rectangle 31928" width="2.245" height="2.443" transform="translate(25.963 1197.805)" fill="#ebebeb"/>
        <rect id="Rectangle_31929" data-name="Rectangle 31929" width="1.972" height="207.995" transform="translate(101.404 1038.847)" fill="#fff"/>
        <rect id="Rectangle_31930" data-name="Rectangle 31930" width="1.972" height="207.995" transform="translate(7.303 1038.847)" fill="#fff"/>
      </g>
      <g id="freepik--Shadow--inject-437">
        <ellipse id="freepik--path--inject-437" cx="193.89" cy="11.32" rx="193.89" ry="11.32" transform="translate(-135.433 1329.369)" fill="#f5f5f5"/>
      </g>
      <g id="freepik--Plant--inject-437">
        <path id="Path_134523" data-name="Path 134523" d="M-46.5,1304.058c0-.344-1.181-35.031-6.8-40.494-5.366-5.269-11.677-.193-11.935,0l-.687-.826c.065-.064,7.256-5.924,13.373,0,5.924,5.763,7.083,39.785,7.126,41.234Z" fill="#e69622"/>
        <path id="Path_134524" data-name="Path 134524" d="M-46.015,1310.894c-.161-1.7-3.864-41.727,11.237-59.028l.805.7c-14.789,16.989-11.012,57.837-10.969,58.244Z" fill="#e69622"/>
        <path id="Path_134525" data-name="Path 134525" d="M-46.38,1306.526l-1.073-.075c0-.472,2.951-46.868-8.071-57.011l.719-.783C-43.407,1259.175-46.251,1304.594-46.38,1306.526Z" fill="#e69622"/>
        <path id="Path_134526" data-name="Path 134526" d="M-44.942,1306.494h-1.073c0-1.288.365-31.424,8.962-36.351a6.15,6.15,0,0,1,5.613-.547c5.216,2.146,7.781,11.4,7.888,11.806l-1.073.289c0-.1-2.544-9.133-7.266-11.086a5.1,5.1,0,0,0-4.669.483C-44.555,1275.681-44.942,1306.183-44.942,1306.494Z" fill="#e69622"/>
        <path id="Path_134527" data-name="Path 134527" d="M-48.269,1306.515l-1.073-.064c0-.236,1.288-23.74-5.044-32q-2.286-2.984-4.894-2.812c-4.111.29-7.577,6.332-7.61,6.44l-.944-.526c.161-.269,3.789-6.611,8.479-6.944,2.146-.161,4.067.944,5.817,3.22C-46.959,1282.368-48.215,1305.539-48.269,1306.515Z" fill="#e69622"/>
        <path id="Path_134528" data-name="Path 134528" d="M-47.067,1309.724c-.171-2.286-4.153-56.076,2.866-65.585l.869.644c-6.793,9.176-2.7,64.3-2.662,64.856Z" fill="#e69622"/>
        <path id="Path_134529" data-name="Path 134529" d="M-29.53,1275.123s-4.2,1.546-2.951,5.2,14.531,9.66,14.531,9.66,5.57-5.1.462-13.4S-29.455,1272.5-29.53,1275.123Z" fill="#ffb74d"/>
        <path id="Path_134530" data-name="Path 134530" d="M-47.839,1268.158s4.475-.183,4.733,3.67-9.66,14.521-9.66,14.521-7.1-2.565-5.581-12.181S-48.945,1265.786-47.839,1268.158Z" fill="#ffb74d"/>
        <path id="Path_134531" data-name="Path 134531" d="M-51.628,1249.7s2.984-.322,2.747-2.146-11.6-6.493-18.245,1.073c0,0,4.293,7.362,10.5,7.459S-51.628,1249.7-51.628,1249.7Z" fill="#ffb74d"/>
        <path id="Path_134532" data-name="Path 134532" d="M-46.069,1245.287s-2.693,1.309-3.455-.365,6.439-11.645,16.1-8.768c0,0,.258,8.521-4.947,11.891S-46.069,1245.287-46.069,1245.287Z" fill="#ffb74d"/>
        <path id="Path_134533" data-name="Path 134533" d="M-60.192,1273.653s2.06-1.664-.161-2.479-13.126-.58-13.234,10.217c0,0,12.7,2.146,14.264-2S-60.192,1273.653-60.192,1273.653Z" fill="#ffb74d"/>
        <path id="Path_134534" data-name="Path 134534" d="M-34.295,1249.43s-2.061-1.664.161-2.469,13.126-.59,13.233,10.218c0,0-12.7,2.146-14.263-2.007S-34.295,1249.43-34.295,1249.43Z" fill="#ffb74d"/>
        <path id="Path_134535" data-name="Path 134535" d="M-41.014,1258.1s-.182-2.029,1.449-1.235,7.32,6.923,1.428,12.74c0,0-7.932-5.871-6.5-8.93S-41.014,1258.1-41.014,1258.1Z" fill="#ffb74d"/>
        <path id="Path_134536" data-name="Path 134536" d="M-62.028,1261.01s1.224-1.61-.579-1.814-9.874,1.954-8,10.024c0,0,9.842-.74,10.26-4.089S-62.028,1261.01-62.028,1261.01Z" fill="#ffb74d"/>
        <path id="Path_134537" data-name="Path 134537" d="M-28.789,1336.416H-62.554l-3.638-36.962H-25.14Z" fill="#8c6df2"/>
        <rect id="Rectangle_31931" data-name="Rectangle 31931" width="44.658" height="8.157" transform="translate(-67.995 1295.375)" fill="#c4b3ff"/>
      </g>
      <g id="freepik--Screen--inject-437">
        <rect id="Rectangle_31932" data-name="Rectangle 31932" width="12.46" height="39.533" transform="translate(-65.004 1011.91)" fill="#263238"/>
        <rect id="Rectangle_31933" data-name="Rectangle 31933" width="12.46" height="39.533" transform="translate(-65.004 1011.91)" fill="#fff" opacity="0.2" style="isolation: isolate"/>
        <rect id="Rectangle_31934" data-name="Rectangle 31934" width="12.46" height="39.533" transform="translate(54.996 1011.91)" fill="#263238"/>
        <rect id="Rectangle_31935" data-name="Rectangle 31935" width="12.46" height="39.533" transform="translate(54.996 1011.91)" fill="#fff" opacity="0.2" style="isolation: isolate"/>
        <rect id="Rectangle_31936" data-name="Rectangle 31936" width="185.97" height="109.99" transform="translate(-91.754 1049.892)" fill="#263238"/>
        <rect id="Rectangle_31937" data-name="Rectangle 31937" width="175.97" height="99.99" transform="translate(-86.754 1054.892)" fill="#ffb74d"/>
        <rect id="Rectangle_31938" data-name="Rectangle 31938" width="14.8" height="12.31" transform="translate(-81.884 1059.712)" opacity="0.2" style="isolation: isolate"/>
        <path id="Path_134538" data-name="Path 134538" d="M-73.794,1066.712l1.72,1.2.51-.36a.39.39,0,0,0,.109-.54.482.482,0,0,0-.039-.05l-1-1.14Z" fill="#fff"/>
        <path id="Path_134539" data-name="Path 134539" d="M-70.254,1063.012h-.45a1.371,1.371,0,0,0-.78.25l-2.15,1.52-4.8-.89a.654.654,0,0,0-.49.1l-.73.53,4.21,1.54-2,1.44h-1.49a.863.863,0,0,0-.51.16l-.67.48,2,1.05,7.26-5.15,1.44-1,.58-.41A2.946,2.946,0,0,0-70.254,1063.012Z" fill="#fff"/>
        <rect id="Rectangle_31939" data-name="Rectangle 31939" width="80.97" height="12.31" transform="translate(-62.634 1059.712)" opacity="0.2" style="isolation: isolate"/>
        <path id="Path_134540" data-name="Path 134540" d="M-8.694,1064.882h-48.66a1,1,0,0,1-1-1,1,1,0,0,1,1-1h48.66a1,1,0,0,1,1,1A1,1,0,0,1-8.694,1064.882Z" fill="#fff"/>
        <path id="Path_134541" data-name="Path 134541" d="M-39.944,1068.852h-17.41a1,1,0,0,1-1-1,1,1,0,0,1,1-1h17.41a1,1,0,0,1,1,1A1,1,0,0,1-39.944,1068.852Z" fill="#fff"/>
        <rect id="Rectangle_31940" data-name="Rectangle 31940" width="61.71" height="12.31" transform="translate(22.626 1059.722)" opacity="0.4" style="isolation: isolate"/>
        <rect id="Rectangle_31941" data-name="Rectangle 31941" width="14.8" height="12.31" transform="translate(-81.884 1075.222)" opacity="0.2" style="isolation: isolate"/>
        <path id="Path_134542" data-name="Path 134542" d="M-73.794,1082.222l1.72,1.2.51-.36a.389.389,0,0,0,.1-.542.384.384,0,0,0-.059-.068l-1-1.14Z" fill="#fff"/>
        <path id="Path_134543" data-name="Path 134543" d="M-70.254,1078.522h-.45a1.371,1.371,0,0,0-.78.25l-2.15,1.52-4.8-.89a.654.654,0,0,0-.49.1l-.73.53,4.21,1.54-2,1.44h-1.49a.863.863,0,0,0-.51.16l-.67.48,2,1.05,7.26-5.15,1.44-1,.58-.41A2.946,2.946,0,0,0-70.254,1078.522Z" fill="#fff"/>
        <rect id="Rectangle_31942" data-name="Rectangle 31942" width="80.97" height="12.31" transform="translate(-62.634 1075.222)" opacity="0.2" style="isolation: isolate"/>
        <path id="Path_134544" data-name="Path 134544" d="M-8.694,1080.452h-48.66a1,1,0,0,1-1-1,1,1,0,0,1,1-1h48.66a1,1,0,0,1,1,1A1,1,0,0,1-8.694,1080.452Z" fill="#fff"/>
        <path id="Path_134545" data-name="Path 134545" d="M-39.944,1084.362h-17.41a1,1,0,0,1-1-1,1,1,0,0,1,1-1h17.41a1,1,0,0,1,1,1A1,1,0,0,1-39.944,1084.362Z" fill="#fff"/>
        <rect id="Rectangle_31943" data-name="Rectangle 31943" width="61.71" height="12.31" transform="translate(22.626 1075.232)" opacity="0.4" style="isolation: isolate"/>
        <rect id="Rectangle_31944" data-name="Rectangle 31944" width="14.8" height="12.31" transform="translate(-81.884 1090.732)" opacity="0.2" style="isolation: isolate"/>
        <path id="Path_134546" data-name="Path 134546" d="M-73.794,1097.732l1.72,1.2.51-.36a.39.39,0,0,0,.109-.54.482.482,0,0,0-.039-.05l-1-1.14Z" fill="#fff"/>
        <path id="Path_134547" data-name="Path 134547" d="M-70.254,1094.032h-.45a1.371,1.371,0,0,0-.78.25l-2.15,1.52-4.8-.89a.654.654,0,0,0-.49.1l-.73.53,4.21,1.54-2,1.44h-1.49a.863.863,0,0,0-.51.16l-.67.48,2,1,7.26-5.14,1.44-1,.58-.41A2.945,2.945,0,0,0-70.254,1094.032Z" fill="#fff"/>
        <rect id="Rectangle_31945" data-name="Rectangle 31945" width="80.97" height="12.31" transform="translate(-62.634 1090.732)" opacity="0.2" style="isolation: isolate"/>
        <path id="Path_134548" data-name="Path 134548" d="M-8.694,1095.912h-48.66a1,1,0,0,1-1-1,1,1,0,0,1,1-1h48.66a1,1,0,0,1,1,1A1,1,0,0,1-8.694,1095.912Z" fill="#fff"/>
        <path id="Path_134549" data-name="Path 134549" d="M-39.944,1099.872h-17.41a1,1,0,0,1-1-1,1,1,0,0,1,1-1h17.41a1,1,0,0,1,1,1A1,1,0,0,1-39.944,1099.872Z" fill="#fff"/>
        <rect id="Rectangle_31946" data-name="Rectangle 31946" width="61.71" height="12.31" transform="translate(22.626 1090.742)" opacity="0.4" style="isolation: isolate"/>
        <rect id="Rectangle_31947" data-name="Rectangle 31947" width="14.8" height="12.31" transform="translate(-81.884 1106.242)" opacity="0.2" style="isolation: isolate"/>
        <path id="Path_134550" data-name="Path 134550" d="M-73.794,1113.242l1.72,1.2.51-.36a.39.39,0,0,0,.121-.538.376.376,0,0,0-.081-.092l-1-1.14Z" fill="#fff"/>
        <path id="Path_134551" data-name="Path 134551" d="M-70.254,1109.542h-.45a1.37,1.37,0,0,0-.78.25l-2.15,1.52-4.8-.89a.7.7,0,0,0-.49.1l-.73.53,4.21,1.54-2,1.44h-1.49a.863.863,0,0,0-.51.16l-.67.48,2,1.05,7.26-5.14,1.44-1,.58-.41A2.95,2.95,0,0,0-70.254,1109.542Z" fill="#fff"/>
        <rect id="Rectangle_31948" data-name="Rectangle 31948" width="80.97" height="12.31" transform="translate(-62.634 1106.242)" opacity="0.2" style="isolation: isolate"/>
        <path id="Path_134552" data-name="Path 134552" d="M-8.694,1111.452h-48.66a1,1,0,0,1-1-1,1,1,0,0,1,1-1h48.66a1,1,0,0,1,1,1A1,1,0,0,1-8.694,1111.452Z" fill="#fff"/>
        <path id="Path_134553" data-name="Path 134553" d="M-39.944,1115.382h-17.41a1,1,0,0,1-1-1,1,1,0,0,1,1-1h17.41a1,1,0,0,1,1,1A1,1,0,0,1-39.944,1115.382Z" fill="#fff"/>
        <rect id="Rectangle_31949" data-name="Rectangle 31949" width="61.71" height="12.31" transform="translate(22.626 1106.252)" opacity="0.4" style="isolation: isolate"/>
        <rect id="Rectangle_31950" data-name="Rectangle 31950" width="14.8" height="12.31" transform="translate(-81.884 1121.762)" opacity="0.2" style="isolation: isolate"/>
        <path id="Path_134554" data-name="Path 134554" d="M-73.794,1128.752l1.72,1.2.51-.36a.39.39,0,0,0,.109-.54.484.484,0,0,0-.039-.05l-1-1.14Z" fill="#fff"/>
        <path id="Path_134555" data-name="Path 134555" d="M-70.254,1125.052h-.45a1.37,1.37,0,0,0-.78.25l-2.15,1.52-4.8-.89a.666.666,0,0,0-.49.11l-.73.52,4.21,1.54-2,1.44h-1.49a.862.862,0,0,0-.51.16l-.67.48,2,1.05,7.26-5.14,1.44-1,.58-.41A2.95,2.95,0,0,0-70.254,1125.052Z" fill="#fff"/>
        <rect id="Rectangle_31951" data-name="Rectangle 31951" width="80.97" height="12.31" transform="translate(-62.634 1121.762)" opacity="0.2" style="isolation: isolate"/>
        <path id="Path_134556" data-name="Path 134556" d="M-8.694,1126.932h-48.66a1,1,0,0,1-1-1,1,1,0,0,1,1-1h48.66a1,1,0,0,1,1,1A1,1,0,0,1-8.694,1126.932Z" fill="#fff"/>
        <path id="Path_134557" data-name="Path 134557" d="M-39.944,1130.892h-17.41a1,1,0,0,1-1-1,1,1,0,0,1,1-1h17.41a1,1,0,0,1,1,1A1,1,0,0,1-39.944,1130.892Z" fill="#fff"/>
        <rect id="Rectangle_31952" data-name="Rectangle 31952" width="61.71" height="12.31" transform="translate(22.626 1121.752)" opacity="0.4" style="isolation: isolate"/>
        <rect id="Rectangle_31953" data-name="Rectangle 31953" width="14.8" height="12.31" transform="translate(-81.884 1137.272)" opacity="0.2" style="isolation: isolate"/>
        <path id="Path_134558" data-name="Path 134558" d="M-73.794,1144.262l1.72,1.2.51-.36a.39.39,0,0,0,.109-.54.471.471,0,0,0-.039-.05l-1-1.14Z" fill="#fff"/>
        <path id="Path_134559" data-name="Path 134559" d="M-70.254,1140.562h-.45a1.37,1.37,0,0,0-.78.25l-2.15,1.52-4.8-.89a.666.666,0,0,0-.49.11l-.73.52,4.21,1.54-2,1.44h-1.49a.862.862,0,0,0-.51.16l-.67.48,2,1,7.26-5.14,1.44-1,.58-.41A2.946,2.946,0,0,0-70.254,1140.562Z" fill="#fff"/>
        <rect id="Rectangle_31954" data-name="Rectangle 31954" width="80.97" height="12.31" transform="translate(-62.634 1137.272)" opacity="0.2" style="isolation: isolate"/>
        <path id="Path_134560" data-name="Path 134560" d="M-8.694,1142.452h-48.66a1,1,0,0,1-1-1,1,1,0,0,1,1-1h48.66a1,1,0,0,1,1,1A1,1,0,0,1-8.694,1142.452Z" fill="#fff"/>
        <path id="Path_134561" data-name="Path 134561" d="M-39.944,1146.452h-17.41a1,1,0,0,1-1-1,1,1,0,0,1,1-1h17.41a1,1,0,0,1,1,1A1,1,0,0,1-39.944,1146.452Z" fill="#fff"/>
        <rect id="Rectangle_31955" data-name="Rectangle 31955" width="61.71" height="12.31" transform="translate(22.626 1137.262)" opacity="0.4" style="isolation: isolate"/>
        <g id="Group_92093" data-name="Group 92093">
          <path id="Path_134562" data-name="Path 134562" d="M36.452,1066.726a1.759,1.759,0,0,1-.575,1.215,1.958,1.958,0,0,1-1.333.436,1.905,1.905,0,0,1-1.025-.275,1.808,1.808,0,0,1-.683-.784,2.826,2.826,0,0,1-.251-1.18v-.455a2.843,2.843,0,0,1,.244-1.213,1.844,1.844,0,0,1,.7-.809,1.958,1.958,0,0,1,1.055-.284,1.886,1.886,0,0,1,1.3.436,1.824,1.824,0,0,1,.571,1.235H35.61a1.2,1.2,0,0,0-.306-.757,1.015,1.015,0,0,0-.72-.232.989.989,0,0,0-.848.4,2.014,2.014,0,0,0-.3,1.183v.431a2.136,2.136,0,0,0,.282,1.2.938.938,0,0,0,.828.415,1.093,1.093,0,0,0,.748-.223,1.174,1.174,0,0,0,.318-.746Z" fill="#fff"/>
          <path id="Path_134563" data-name="Path 134563" d="M40.274,1067.177H38.389l-.4,1.133h-.879l1.838-4.866h.759l1.842,4.866h-.883Zm-1.648-.681h1.41l-.7-2.019Z" fill="#fff"/>
          <path id="Path_134564" data-name="Path 134564" d="M46.308,1068.31h-.846l-2.169-3.452v3.452h-.846v-4.866h.846l2.176,3.466v-3.466h.839Z" fill="#fff"/>
          <path id="Path_134565" data-name="Path 134565" d="M51.362,1066.726a1.755,1.755,0,0,1-.575,1.215,1.956,1.956,0,0,1-1.333.436,1.9,1.9,0,0,1-1.024-.275,1.8,1.8,0,0,1-.684-.784,2.841,2.841,0,0,1-.251-1.18v-.455a2.858,2.858,0,0,1,.244-1.213,1.84,1.84,0,0,1,.7-.809,1.955,1.955,0,0,1,1.054-.284,1.886,1.886,0,0,1,1.3.436,1.824,1.824,0,0,1,.571,1.235H50.52a1.2,1.2,0,0,0-.306-.757,1.013,1.013,0,0,0-.72-.232.985.985,0,0,0-.847.4,2.021,2.021,0,0,0-.3,1.183v.431a2.127,2.127,0,0,0,.283,1.2.936.936,0,0,0,.827.415,1.1,1.1,0,0,0,.749-.223,1.168,1.168,0,0,0,.317-.746Z" fill="#fff"/>
          <path id="Path_134566" data-name="Path 134566" d="M55.3,1066.138h-2v1.491h2.336v.681H52.46v-4.866h3.158v.682H53.306v1.344h2Z" fill="#fff"/>
          <path id="Path_134567" data-name="Path 134567" d="M57.518,1067.629h2.209v.681H56.673v-4.866h.845Z" fill="#fff"/>
          <path id="Path_134568" data-name="Path 134568" d="M63.506,1067.177H61.621l-.395,1.133h-.879l1.838-4.866h.759l1.842,4.866H63.9Zm-1.648-.681h1.41l-.705-2.019Z" fill="#fff"/>
          <path id="Path_134569" data-name="Path 134569" d="M65.679,1068.31v-4.866h1.438a2.248,2.248,0,0,1,1.144.288,1.957,1.957,0,0,1,.774.815,2.584,2.584,0,0,1,.274,1.21V1066a2.579,2.579,0,0,1-.276,1.217,1.929,1.929,0,0,1-.785.808,2.353,2.353,0,0,1-1.168.284Zm.846-4.184v3.5h.551a1.273,1.273,0,0,0,1.022-.416,1.8,1.8,0,0,0,.362-1.192v-.271a1.855,1.855,0,0,0-.344-1.207,1.223,1.223,0,0,0-1-.417Z" fill="#fff"/>
          <path id="Path_134570" data-name="Path 134570" d="M74.377,1066a2.984,2.984,0,0,1-.247,1.255,1.874,1.874,0,0,1-.707.829,2.074,2.074,0,0,1-2.112,0,1.9,1.9,0,0,1-.716-.824,2.889,2.889,0,0,1-.255-1.233v-.274a2.963,2.963,0,0,1,.252-1.257,1.894,1.894,0,0,1,.712-.834,1.943,1.943,0,0,1,1.054-.289,1.963,1.963,0,0,1,1.055.286,1.88,1.88,0,0,1,.71.822,2.955,2.955,0,0,1,.254,1.249Zm-.846-.254a2.128,2.128,0,0,0-.305-1.24,1.079,1.079,0,0,0-1.725,0,2.09,2.09,0,0,0-.316,1.215v.28a2.106,2.106,0,0,0,.313,1.24,1,1,0,0,0,.867.438.994.994,0,0,0,.864-.428,2.154,2.154,0,0,0,.3-1.25Z" fill="#fff"/>
        </g>
        <g id="Group_92094" data-name="Group 92094">
          <path id="Path_134571" data-name="Path 134571" d="M36.452,1082.236a1.759,1.759,0,0,1-.575,1.215,1.959,1.959,0,0,1-1.333.436,1.905,1.905,0,0,1-1.025-.275,1.814,1.814,0,0,1-.683-.784,2.826,2.826,0,0,1-.251-1.18v-.455a2.843,2.843,0,0,1,.244-1.213,1.844,1.844,0,0,1,.7-.809,1.958,1.958,0,0,1,1.055-.284,1.886,1.886,0,0,1,1.3.436,1.824,1.824,0,0,1,.571,1.235H35.61a1.2,1.2,0,0,0-.306-.757,1.015,1.015,0,0,0-.72-.232.989.989,0,0,0-.848.4,2.014,2.014,0,0,0-.3,1.183v.431a2.136,2.136,0,0,0,.282,1.2.938.938,0,0,0,.828.415,1.093,1.093,0,0,0,.748-.223,1.174,1.174,0,0,0,.318-.746Z" fill="#fff"/>
          <path id="Path_134572" data-name="Path 134572" d="M40.274,1082.687H38.389l-.4,1.133h-.879l1.838-4.866h.759l1.842,4.866h-.883Zm-1.648-.681h1.41l-.7-2.019Z" fill="#fff"/>
          <path id="Path_134573" data-name="Path 134573" d="M46.308,1083.82h-.846l-2.169-3.452v3.452h-.846v-4.866h.846l2.176,3.466v-3.466h.839Z" fill="#fff"/>
          <path id="Path_134574" data-name="Path 134574" d="M51.362,1082.236a1.755,1.755,0,0,1-.575,1.215,1.957,1.957,0,0,1-1.333.436,1.9,1.9,0,0,1-1.024-.275,1.809,1.809,0,0,1-.684-.784,2.842,2.842,0,0,1-.251-1.18v-.455a2.858,2.858,0,0,1,.244-1.213,1.84,1.84,0,0,1,.7-.809,1.955,1.955,0,0,1,1.054-.284,1.886,1.886,0,0,1,1.3.436,1.824,1.824,0,0,1,.571,1.235H50.52a1.2,1.2,0,0,0-.306-.757,1.013,1.013,0,0,0-.72-.232.985.985,0,0,0-.847.4,2.021,2.021,0,0,0-.3,1.183v.431a2.127,2.127,0,0,0,.283,1.2.936.936,0,0,0,.827.415,1.1,1.1,0,0,0,.749-.223,1.168,1.168,0,0,0,.317-.746Z" fill="#fff"/>
          <path id="Path_134575" data-name="Path 134575" d="M55.3,1081.648h-2v1.491h2.336v.681H52.46v-4.866h3.158v.682H53.306v1.344h2Z" fill="#fff"/>
          <path id="Path_134576" data-name="Path 134576" d="M57.518,1083.139h2.209v.681H56.673v-4.866h.845Z" fill="#fff"/>
          <path id="Path_134577" data-name="Path 134577" d="M63.506,1082.687H61.621l-.395,1.133h-.879l1.838-4.866h.759l1.842,4.866H63.9Zm-1.648-.681h1.41l-.705-2.019Z" fill="#fff"/>
          <path id="Path_134578" data-name="Path 134578" d="M65.679,1083.82v-4.866h1.438a2.249,2.249,0,0,1,1.144.288,1.958,1.958,0,0,1,.774.815,2.584,2.584,0,0,1,.274,1.21v.244a2.579,2.579,0,0,1-.276,1.217,1.929,1.929,0,0,1-.785.808,2.353,2.353,0,0,1-1.168.284Zm.846-4.184v3.5h.551a1.273,1.273,0,0,0,1.022-.416,1.8,1.8,0,0,0,.362-1.192v-.271a1.855,1.855,0,0,0-.344-1.207,1.223,1.223,0,0,0-1-.417Z" fill="#fff"/>
          <path id="Path_134579" data-name="Path 134579" d="M74.377,1081.514a2.984,2.984,0,0,1-.247,1.255,1.874,1.874,0,0,1-.707.829,2.074,2.074,0,0,1-2.112,0,1.9,1.9,0,0,1-.716-.824,2.889,2.889,0,0,1-.255-1.233v-.274a2.963,2.963,0,0,1,.252-1.257,1.894,1.894,0,0,1,.712-.834,1.943,1.943,0,0,1,1.054-.289,1.963,1.963,0,0,1,1.055.286,1.879,1.879,0,0,1,.71.822,2.955,2.955,0,0,1,.254,1.249Zm-.846-.254a2.128,2.128,0,0,0-.305-1.24,1.079,1.079,0,0,0-1.725,0,2.09,2.09,0,0,0-.316,1.215v.28a2.106,2.106,0,0,0,.313,1.24,1,1,0,0,0,.867.438.994.994,0,0,0,.864-.428,2.154,2.154,0,0,0,.3-1.25Z" fill="#fff"/>
        </g>
        <g id="Group_92095" data-name="Group 92095">
          <path id="Path_134580" data-name="Path 134580" d="M36.452,1113.256a1.759,1.759,0,0,1-.575,1.215,1.958,1.958,0,0,1-1.333.436,1.905,1.905,0,0,1-1.025-.275,1.813,1.813,0,0,1-.683-.784,2.826,2.826,0,0,1-.251-1.18v-.455a2.843,2.843,0,0,1,.244-1.213,1.844,1.844,0,0,1,.7-.809,1.957,1.957,0,0,1,1.055-.284,1.886,1.886,0,0,1,1.3.436,1.824,1.824,0,0,1,.571,1.235H35.61a1.2,1.2,0,0,0-.306-.757,1.015,1.015,0,0,0-.72-.232.989.989,0,0,0-.848.4,2.015,2.015,0,0,0-.3,1.183v.431a2.136,2.136,0,0,0,.282,1.2.938.938,0,0,0,.828.415,1.092,1.092,0,0,0,.748-.223,1.173,1.173,0,0,0,.318-.746Z" fill="#fff"/>
          <path id="Path_134581" data-name="Path 134581" d="M40.274,1113.707H38.389l-.4,1.133h-.879l1.838-4.866h.759l1.842,4.866h-.883Zm-1.648-.681h1.41l-.7-2.019Z" fill="#fff"/>
          <path id="Path_134582" data-name="Path 134582" d="M46.308,1114.84h-.846l-2.169-3.452v3.452h-.846v-4.866h.846l2.176,3.466v-3.466h.839Z" fill="#fff"/>
          <path id="Path_134583" data-name="Path 134583" d="M51.362,1113.256a1.755,1.755,0,0,1-.575,1.215,1.956,1.956,0,0,1-1.333.436,1.9,1.9,0,0,1-1.024-.275,1.808,1.808,0,0,1-.684-.784,2.842,2.842,0,0,1-.251-1.18v-.455a2.858,2.858,0,0,1,.244-1.213,1.84,1.84,0,0,1,.7-.809,1.953,1.953,0,0,1,1.054-.284,1.886,1.886,0,0,1,1.3.436,1.824,1.824,0,0,1,.571,1.235H50.52a1.2,1.2,0,0,0-.306-.757,1.013,1.013,0,0,0-.72-.232.986.986,0,0,0-.847.4,2.022,2.022,0,0,0-.3,1.183v.431a2.127,2.127,0,0,0,.283,1.2.936.936,0,0,0,.827.415A1.1,1.1,0,0,0,50.2,1114a1.168,1.168,0,0,0,.317-.746Z" fill="#fff"/>
          <path id="Path_134584" data-name="Path 134584" d="M55.3,1112.668h-2v1.491h2.336v.681H52.46v-4.866h3.158v.682H53.306V1112h2Z" fill="#fff"/>
          <path id="Path_134585" data-name="Path 134585" d="M57.518,1114.159h2.209v.681H56.673v-4.866h.845Z" fill="#fff"/>
          <path id="Path_134586" data-name="Path 134586" d="M63.506,1113.707H61.621l-.395,1.133h-.879l1.838-4.866h.759l1.842,4.866H63.9Zm-1.648-.681h1.41l-.705-2.019Z" fill="#fff"/>
          <path id="Path_134587" data-name="Path 134587" d="M65.679,1114.84v-4.866h1.438a2.248,2.248,0,0,1,1.144.288,1.958,1.958,0,0,1,.774.815,2.584,2.584,0,0,1,.274,1.21v.244a2.579,2.579,0,0,1-.276,1.217,1.93,1.93,0,0,1-.785.808,2.353,2.353,0,0,1-1.168.284Zm.846-4.184v3.5h.551a1.273,1.273,0,0,0,1.022-.416,1.8,1.8,0,0,0,.362-1.192v-.271a1.855,1.855,0,0,0-.344-1.207,1.223,1.223,0,0,0-1-.417Z" fill="#fff"/>
          <path id="Path_134588" data-name="Path 134588" d="M74.377,1112.534a2.983,2.983,0,0,1-.247,1.255,1.874,1.874,0,0,1-.707.829,2.074,2.074,0,0,1-2.112,0,1.9,1.9,0,0,1-.716-.824,2.888,2.888,0,0,1-.255-1.233v-.274a2.963,2.963,0,0,1,.252-1.257,1.894,1.894,0,0,1,.712-.834,1.943,1.943,0,0,1,1.054-.289,1.963,1.963,0,0,1,1.055.286,1.879,1.879,0,0,1,.71.822,2.955,2.955,0,0,1,.254,1.249Zm-.846-.254a2.128,2.128,0,0,0-.305-1.24,1.079,1.079,0,0,0-1.725,0,2.09,2.09,0,0,0-.316,1.215v.28a2.106,2.106,0,0,0,.313,1.24,1,1,0,0,0,.867.438.994.994,0,0,0,.864-.428,2.154,2.154,0,0,0,.3-1.25Z" fill="#fff"/>
        </g>
        <g id="Group_92096" data-name="Group 92096">
          <path id="Path_134589" data-name="Path 134589" d="M36.452,1144.266a1.759,1.759,0,0,1-.575,1.215,1.958,1.958,0,0,1-1.333.436,1.905,1.905,0,0,1-1.025-.275,1.813,1.813,0,0,1-.683-.784,2.826,2.826,0,0,1-.251-1.18v-.455a2.843,2.843,0,0,1,.244-1.213,1.844,1.844,0,0,1,.7-.809,1.957,1.957,0,0,1,1.055-.284,1.886,1.886,0,0,1,1.3.436,1.824,1.824,0,0,1,.571,1.235H35.61a1.2,1.2,0,0,0-.306-.757,1.015,1.015,0,0,0-.72-.232.989.989,0,0,0-.848.4,2.015,2.015,0,0,0-.3,1.183v.431a2.136,2.136,0,0,0,.282,1.2.937.937,0,0,0,.828.415,1.092,1.092,0,0,0,.748-.223,1.173,1.173,0,0,0,.318-.746Z" fill="#fff"/>
          <path id="Path_134590" data-name="Path 134590" d="M40.274,1144.717H38.389l-.4,1.133h-.879l1.838-4.866h.759l1.842,4.866h-.883Zm-1.648-.681h1.41l-.7-2.019Z" fill="#fff"/>
          <path id="Path_134591" data-name="Path 134591" d="M46.308,1145.85h-.846l-2.169-3.452v3.452h-.846v-4.866h.846l2.176,3.466v-3.466h.839Z" fill="#fff"/>
          <path id="Path_134592" data-name="Path 134592" d="M51.362,1144.266a1.755,1.755,0,0,1-.575,1.215,1.956,1.956,0,0,1-1.333.436,1.9,1.9,0,0,1-1.024-.275,1.808,1.808,0,0,1-.684-.784,2.842,2.842,0,0,1-.251-1.18v-.455a2.858,2.858,0,0,1,.244-1.213,1.84,1.84,0,0,1,.7-.809,1.953,1.953,0,0,1,1.054-.284,1.886,1.886,0,0,1,1.3.436,1.824,1.824,0,0,1,.571,1.235H50.52a1.2,1.2,0,0,0-.306-.757,1.013,1.013,0,0,0-.72-.232.986.986,0,0,0-.847.4,2.022,2.022,0,0,0-.3,1.183v.431a2.127,2.127,0,0,0,.283,1.2.936.936,0,0,0,.827.415,1.1,1.1,0,0,0,.749-.223,1.168,1.168,0,0,0,.317-.746Z" fill="#fff"/>
          <path id="Path_134593" data-name="Path 134593" d="M55.3,1143.678h-2v1.491h2.336v.681H52.46v-4.866h3.158v.682H53.306v1.344h2Z" fill="#fff"/>
          <path id="Path_134594" data-name="Path 134594" d="M57.518,1145.169h2.209v.681H56.673v-4.866h.845Z" fill="#fff"/>
          <path id="Path_134595" data-name="Path 134595" d="M63.506,1144.717H61.621l-.395,1.133h-.879l1.838-4.866h.759l1.842,4.866H63.9Zm-1.648-.681h1.41l-.705-2.019Z" fill="#fff"/>
          <path id="Path_134596" data-name="Path 134596" d="M65.679,1145.85v-4.866h1.438a2.248,2.248,0,0,1,1.144.288,1.958,1.958,0,0,1,.774.815,2.584,2.584,0,0,1,.274,1.21v.244a2.579,2.579,0,0,1-.276,1.217,1.93,1.93,0,0,1-.785.808,2.353,2.353,0,0,1-1.168.284Zm.846-4.184v3.5h.551a1.273,1.273,0,0,0,1.022-.416,1.8,1.8,0,0,0,.362-1.192v-.271a1.855,1.855,0,0,0-.344-1.207,1.223,1.223,0,0,0-1-.417Z" fill="#fff"/>
          <path id="Path_134597" data-name="Path 134597" d="M74.377,1143.544a2.984,2.984,0,0,1-.247,1.255,1.874,1.874,0,0,1-.707.829,2.074,2.074,0,0,1-2.112,0,1.9,1.9,0,0,1-.716-.824,2.888,2.888,0,0,1-.255-1.233v-.274a2.963,2.963,0,0,1,.252-1.257,1.894,1.894,0,0,1,.712-.834,2.077,2.077,0,0,1,2.109,0,1.879,1.879,0,0,1,.71.822,2.955,2.955,0,0,1,.254,1.249Zm-.846-.254a2.128,2.128,0,0,0-.305-1.24,1.079,1.079,0,0,0-1.725,0,2.09,2.09,0,0,0-.316,1.215v.28a2.106,2.106,0,0,0,.313,1.24,1,1,0,0,0,.867.438.994.994,0,0,0,.864-.428,2.154,2.154,0,0,0,.3-1.25Z" fill="#fff"/>
        </g>
        <g id="Group_92097" data-name="Group 92097">
          <path id="Path_134598" data-name="Path 134598" d="M38.135,1098.2H36.25l-.394,1.133h-.879l1.838-4.866h.759l1.842,4.866h-.883Zm-1.647-.681H37.9l-.7-2.019Z" fill="#fff"/>
          <path id="Path_134599" data-name="Path 134599" d="M43.424,1095.146H41.907v4.184h-.839v-4.184h-1.5v-.682h3.86Z" fill="#fff"/>
          <path id="Path_134600" data-name="Path 134600" d="M46.193,1097.459h-.942v1.871H44.4v-4.866h1.711a1.988,1.988,0,0,1,1.3.378,1.336,1.336,0,0,1,.458,1.094,1.371,1.371,0,0,1-.235.818,1.508,1.508,0,0,1-.657.507l1.093,2.026v.043h-.906Zm-.942-.682h.868a.965.965,0,0,0,.669-.216.751.751,0,0,0,.241-.589.8.8,0,0,0-.223-.605.939.939,0,0,0-.663-.221h-.892Z" fill="#fff"/>
          <path id="Path_134601" data-name="Path 134601" d="M51.742,1098.2H49.857l-.394,1.133h-.879l1.838-4.866h.759l1.841,4.866H52.14Zm-1.647-.681h1.41L50.8,1095.5Z" fill="#fff"/>
          <path id="Path_134602" data-name="Path 134602" d="M56.46,1098.077a.59.59,0,0,0-.226-.495,2.735,2.735,0,0,0-.814-.35,3.968,3.968,0,0,1-.936-.4,1.249,1.249,0,0,1-.665-1.089,1.186,1.186,0,0,1,.48-.97,1.943,1.943,0,0,1,1.245-.381,2.12,2.12,0,0,1,.906.187,1.491,1.491,0,0,1,.625.534,1.369,1.369,0,0,1,.227.767H56.46a.756.756,0,0,0-.239-.592.993.993,0,0,0-.684-.214,1.029,1.029,0,0,0-.643.177.585.585,0,0,0-.229.492.531.531,0,0,0,.247.445,2.875,2.875,0,0,0,.816.346,3.767,3.767,0,0,1,.912.383,1.452,1.452,0,0,1,.505.495,1.288,1.288,0,0,1,.16.653,1.158,1.158,0,0,1-.466.968,2.021,2.021,0,0,1-1.265.359,2.382,2.382,0,0,1-.971-.195,1.637,1.637,0,0,1-.689-.54,1.349,1.349,0,0,1-.245-.8h.845a.791.791,0,0,0,.274.642,1.205,1.205,0,0,0,.786.227,1.043,1.043,0,0,0,.663-.179A.578.578,0,0,0,56.46,1098.077Z" fill="#fff"/>
          <path id="Path_134603" data-name="Path 134603" d="M61.113,1098.2H59.228l-.394,1.133h-.879l1.838-4.866h.759l1.841,4.866h-.882Zm-1.647-.681h1.41l-.7-2.019Z" fill="#fff"/>
          <path id="Path_134604" data-name="Path 134604" d="M63.287,1099.33v-4.866h1.437a2.253,2.253,0,0,1,1.145.288,1.958,1.958,0,0,1,.774.815,2.584,2.584,0,0,1,.274,1.21v.244a2.579,2.579,0,0,1-.276,1.217,1.935,1.935,0,0,1-.785.808,2.353,2.353,0,0,1-1.168.284Zm.846-4.184v3.5h.551a1.27,1.27,0,0,0,1.021-.416,1.8,1.8,0,0,0,.363-1.192v-.271a1.855,1.855,0,0,0-.344-1.207,1.223,1.223,0,0,0-1-.417Z" fill="#fff"/>
          <path id="Path_134605" data-name="Path 134605" d="M71.985,1097.024a2.984,2.984,0,0,1-.247,1.255,1.874,1.874,0,0,1-.707.829,2.074,2.074,0,0,1-2.112,0,1.9,1.9,0,0,1-.716-.824,2.889,2.889,0,0,1-.255-1.233v-.274a2.966,2.966,0,0,1,.252-1.257,1.9,1.9,0,0,1,.712-.834,2.077,2.077,0,0,1,2.109,0,1.879,1.879,0,0,1,.71.822,2.955,2.955,0,0,1,.254,1.249Zm-.845-.254a2.128,2.128,0,0,0-.306-1.24,1.079,1.079,0,0,0-1.725,0,2.089,2.089,0,0,0-.316,1.215v.28a2.106,2.106,0,0,0,.313,1.24,1,1,0,0,0,.867.438.994.994,0,0,0,.864-.428,2.154,2.154,0,0,0,.3-1.25Z" fill="#fff"/>
        </g>
        <g id="Group_92098" data-name="Group 92098">
          <path id="Path_134606" data-name="Path 134606" d="M31.561,1130.34v-4.866H33a2.254,2.254,0,0,1,1.145.288,1.95,1.95,0,0,1,.773.815,2.584,2.584,0,0,1,.274,1.21v.244a2.591,2.591,0,0,1-.275,1.217,1.938,1.938,0,0,1-.786.808,2.353,2.353,0,0,1-1.168.284Zm.845-4.184v3.5h.552a1.273,1.273,0,0,0,1.021-.416,1.8,1.8,0,0,0,.362-1.192v-.271a1.849,1.849,0,0,0-.344-1.207,1.22,1.22,0,0,0-1-.417Z" fill="#fff"/>
          <path id="Path_134607" data-name="Path 134607" d="M39.219,1128.168h-2v1.491h2.337v.681H36.375v-4.866h3.158v.682H37.22v1.344h2Z" fill="#fff"/>
          <path id="Path_134608" data-name="Path 134608" d="M41.684,1125.474l1.4,3.73,1.4-3.73h1.093v4.866h-.842v-1.6l.083-2.146-1.437,3.75h-.6l-1.434-3.746.084,2.142v1.6h-.842v-4.866Z" fill="#fff"/>
          <path id="Path_134609" data-name="Path 134609" d="M50.806,1128.034a3,3,0,0,1-.247,1.255,1.874,1.874,0,0,1-.707.829,2.076,2.076,0,0,1-2.113,0,1.9,1.9,0,0,1-.715-.824,2.9,2.9,0,0,1-.256-1.233v-.274a2.966,2.966,0,0,1,.253-1.257,1.894,1.894,0,0,1,.712-.834,2.077,2.077,0,0,1,2.109,0,1.879,1.879,0,0,1,.71.822,2.955,2.955,0,0,1,.254,1.249Zm-.846-.254a2.128,2.128,0,0,0-.306-1.24,1.078,1.078,0,0,0-1.724,0,2.083,2.083,0,0,0-.316,1.215v.28a2.106,2.106,0,0,0,.313,1.24,1,1,0,0,0,.867.438.994.994,0,0,0,.864-.428,2.162,2.162,0,0,0,.3-1.25Z" fill="#fff"/>
          <path id="Path_134610" data-name="Path 134610" d="M53.779,1128.469h-.943v1.871H51.99v-4.866H53.7a1.99,1.99,0,0,1,1.3.378,1.339,1.339,0,0,1,.458,1.094,1.371,1.371,0,0,1-.236.818,1.5,1.5,0,0,1-.657.507l1.093,2.026v.043h-.906Zm-.943-.682h.869a.964.964,0,0,0,.668-.216.748.748,0,0,0,.241-.589.8.8,0,0,0-.222-.605.94.94,0,0,0-.664-.221h-.892Z" fill="#fff"/>
          <path id="Path_134611" data-name="Path 134611" d="M59.328,1129.207H57.443l-.394,1.133H56.17l1.838-4.866h.759l1.841,4.866h-.882Zm-1.648-.681h1.411l-.7-2.019Z" fill="#fff"/>
          <path id="Path_134612" data-name="Path 134612" d="M65.362,1130.34h-.845l-2.17-3.452v3.452H61.5v-4.866h.845l2.176,3.466v-3.466h.839Z" fill="#fff"/>
          <path id="Path_134613" data-name="Path 134613" d="M66.7,1130.34v-4.866h1.437a2.251,2.251,0,0,1,1.145.288,1.95,1.95,0,0,1,.773.815,2.584,2.584,0,0,1,.275,1.21v.244a2.579,2.579,0,0,1-.276,1.217,1.938,1.938,0,0,1-.786.808,2.35,2.35,0,0,1-1.168.284Zm.845-4.184v3.5H68.1a1.271,1.271,0,0,0,1.021-.416,1.811,1.811,0,0,0,.363-1.192v-.271a1.849,1.849,0,0,0-.345-1.207,1.22,1.22,0,0,0-1-.417Z" fill="#fff"/>
          <path id="Path_134614" data-name="Path 134614" d="M75.4,1128.034a2.983,2.983,0,0,1-.247,1.255,1.868,1.868,0,0,1-.707.829,2.074,2.074,0,0,1-2.112,0,1.893,1.893,0,0,1-.715-.824,2.873,2.873,0,0,1-.256-1.233v-.274a2.966,2.966,0,0,1,.252-1.257,1.907,1.907,0,0,1,.712-.834,2.077,2.077,0,0,1,2.109,0,1.873,1.873,0,0,1,.71.822,2.94,2.94,0,0,1,.254,1.249Zm-.845-.254a2.128,2.128,0,0,0-.306-1.24,1.079,1.079,0,0,0-1.725,0,2.083,2.083,0,0,0-.315,1.215v.28a2.114,2.114,0,0,0,.312,1.24,1.006,1.006,0,0,0,.867.438.992.992,0,0,0,.864-.428,2.154,2.154,0,0,0,.3-1.25Z" fill="#fff"/>
        </g>
      </g>
      <g id="freepik--Character--inject-437">
        <rect id="Rectangle_31956" data-name="Rectangle 31956" width="2.77" height="45.23" transform="translate(76.687 1189.076)" fill="#263238"/>
        <rect id="Rectangle_31957" data-name="Rectangle 31957" width="2.77" height="45.23" transform="translate(76.687 1189.076)" fill="#fff" opacity="0.4" style="isolation: isolate"/>
        <rect id="Rectangle_31958" data-name="Rectangle 31958" width="2.77" height="45.23" transform="translate(86.687 1189.076)" fill="#263238"/>
        <rect id="Rectangle_31959" data-name="Rectangle 31959" width="2.77" height="45.23" transform="translate(86.687 1189.076)" fill="#fff" opacity="0.4" style="isolation: isolate"/>
        <path id="Path_134615" data-name="Path 134615" d="M68.947,1226.656h4.09a1.119,1.119,0,0,1,1.12,1.12v4h-6.33v-4A1.12,1.12,0,0,1,68.947,1226.656Z" fill="#263238"/>
        <path id="Path_134616" data-name="Path 134616" d="M68.947,1226.656h4.09a1.119,1.119,0,0,1,1.12,1.12v4h-6.33v-4A1.12,1.12,0,0,1,68.947,1226.656Z" fill="#fff" opacity="0.2" style="isolation: isolate"/>
        <path id="Path_134617" data-name="Path 134617" d="M76.027,1228.816h4.09a1.119,1.119,0,0,1,1.12,1.12v4h-6.32v-4A1.12,1.12,0,0,1,76.027,1228.816Z" fill="#263238"/>
        <path id="Path_134618" data-name="Path 134618" d="M76.027,1228.816h4.09a1.119,1.119,0,0,1,1.12,1.12v4h-6.32v-4A1.12,1.12,0,0,1,76.027,1228.816Z" fill="#fff" opacity="0.2" style="isolation: isolate"/>
        <path id="Path_134619" data-name="Path 134619" d="M85.547,1332.566a3.86,3.86,0,1,1-3.86-3.86h0a3.849,3.849,0,0,1,3.86,3.84Z" fill="#263238"/>
        <path id="Path_134620" data-name="Path 134620" d="M93.277,1325.656H57.147v10.61h2.39l1.59-5.78h1.48v5.93h2.4l1.62-5.93h26.65Z" fill="#263238"/>
        <path id="Path_134621" data-name="Path 134621" d="M62.687,1325.656v10.76h2.32l1.62-5.93h26.65v-4.83Z" fill="#fff" opacity="0.2" style="isolation: isolate"/>
        <path id="Path_134622" data-name="Path 134622" d="M57.077,1230.2h31.45v97.12H57.077a7.08,7.08,0,0,1-7.08-7.08v-83A7.08,7.08,0,0,1,57.077,1230.2Z" fill="#5038a1"/>
        <path id="Path_134623" data-name="Path 134623" d="M57.077,1230.2h31.45v97.12H57.077a7.08,7.08,0,0,1-7.08-7.08v-83A7.08,7.08,0,0,1,57.077,1230.2Z" fill="#fff" opacity="0.4" style="isolation: isolate"/>
        <path id="Path_134624" data-name="Path 134624" d="M55.627,1322.236h0a1.52,1.52,0,0,1-1.52-1.52v-84.07a1.521,1.521,0,0,1,1.52-1.52h0a1.52,1.52,0,0,1,1.52,1.52v84.07A1.519,1.519,0,0,1,55.627,1322.236Z" opacity="0.2" style="isolation: isolate"/>
        <path id="Path_134625" data-name="Path 134625" d="M66.627,1232.986h20.05v90.69H66.627a5,5,0,0,1-5-5v-80.67a5,5,0,0,1,4.98-5.02Z" opacity="0.2" style="isolation: isolate"/>
        <path id="Path_134626" data-name="Path 134626" d="M86.607,1228.766h2.82a1.4,1.4,0,0,1,1.4,1.4v98.4h-5.62v-98.4A1.4,1.4,0,0,1,86.607,1228.766Z" fill="#263238"/>
        <path id="Path_134627" data-name="Path 134627" d="M94.547,1332.566a3.86,3.86,0,1,1-3.86-3.86h0a3.849,3.849,0,0,1,3.86,3.84Z" fill="#263238"/>
        <path id="Path_134628" data-name="Path 134628" d="M94.547,1332.566a3.86,3.86,0,1,1-3.86-3.86h0a3.849,3.849,0,0,1,3.86,3.84Z" fill="#fff" opacity="0.4" style="isolation: isolate"/>
        <path id="Path_134629" data-name="Path 134629" d="M92.827,1332.566a2.145,2.145,0,1,1,0-.01Z" fill="#5038a1"/>
        <path id="Path_134630" data-name="Path 134630" d="M86.607,1228.766h2.82a1.4,1.4,0,0,1,1.4,1.4v98.4h-5.62v-98.4A1.4,1.4,0,0,1,86.607,1228.766Z" fill="#fff" opacity="0.2" style="isolation: isolate"/>
        <rect id="Rectangle_31960" data-name="Rectangle 31960" width="15.22" height="4.52" rx="1.2" transform="translate(75.607 1187.756)" fill="#263238"/>
        <rect id="Rectangle_31961" data-name="Rectangle 31961" width="15.22" height="4.52" rx="1.2" transform="translate(75.607 1187.756)" fill="#fff" opacity="0.2" style="isolation: isolate"/>
        <path id="Path_134631" data-name="Path 134631" d="M187.787,1327H109.3l.91,4.64h.8l.71,4.78h4.26l.71-4.78h15.99l.71,4.78h4.26l.71-4.78h20.51l.71,4.78h4.26l.71-4.78h15.99l.71,4.78h4.26l.71-4.78h.67Z" fill="#263238"/>
        <rect id="Rectangle_31962" data-name="Rectangle 31962" width="88.75" height="65.46" rx="4.55" transform="translate(104.237 1264.146)" fill="#5038a1"/>
        <path id="Path_134632" data-name="Path 134632" d="M192.987,1268.256v57.24a4.1,4.1,0,0,1-4.09,4.11h-27.07a4.1,4.1,0,0,0,4.1-4.1v-57.25a4.1,4.1,0,0,0-4.09-4.11h27.08A4.1,4.1,0,0,1,192.987,1268.256Z" opacity="0.2" style="isolation: isolate"/>
        <path id="Path_134633" data-name="Path 134633" d="M180.827,1268.446v50.73a.439.439,0,0,1-.429.45h-.021a.45.45,0,0,1-.45-.45h0v-50.73a4.309,4.309,0,0,0-4.07-4.29h2.71A5.19,5.19,0,0,1,180.827,1268.446Z" fill="#263238"/>
        <ellipse id="Ellipse_4150" data-name="Ellipse 4150" cx="4.36" cy="5.05" rx="4.36" ry="5.05" transform="translate(141.567 1274.856)" fill="#fff" opacity="0.2" style="isolation: isolate"/>
        <path id="Path_134634" data-name="Path 134634" d="M148.827,1279.906a3,3,0,1,1-2.93-3.39A3.189,3.189,0,0,1,148.827,1279.906Z" fill="#fff" opacity="0.2" style="isolation: isolate"/>
        <path id="Path_134635" data-name="Path 134635" d="M141.207,1286.386l10.77-2.56.48,1.78-10.89,2.39Z" fill="#fff" opacity="0.2" style="isolation: isolate"/>
        <path id="Path_134636" data-name="Path 134636" d="M144.327,1303.026l1.9,9.9a1.211,1.211,0,0,1-1.56,1.39c-2.41-.75-6.41-2.17-8.93-3.08a1.481,1.481,0,0,1-.49-2.5l7.08-6.38a1.21,1.21,0,0,1,1.709.086A1.2,1.2,0,0,1,144.327,1303.026Z" fill="#fff" opacity="0.2" style="isolation: isolate"/>
        <path id="Path_134637" data-name="Path 134637" d="M137.967,1308.446l3.11-2.66a1.219,1.219,0,0,1,2,.67l.88,4.06a1.209,1.209,0,0,1-1.59,1.4l-4-1.39a1.231,1.231,0,0,1-.4-2.08Z" fill="#fff" opacity="0.2" style="isolation: isolate"/>
        <path id="Path_134638" data-name="Path 134638" d="M120.877,1299.186c0,3.19-2.27,5.77-5.08,5.77s-5.08-2.58-5.08-5.77,2.28-5.74,5.11-5.74S120.877,1296,120.877,1299.186Z" fill="#fff" opacity="0.2" style="isolation: isolate"/>
        <rect id="Rectangle_31963" data-name="Rectangle 31963" width="16.09" height="3.45" transform="translate(107.757 1297.456)" fill="#5038a1"/>
        <rect id="Rectangle_31964" data-name="Rectangle 31964" width="16.09" height="3.45" transform="translate(107.757 1297.456)" fill="#fff" opacity="0.4" style="isolation: isolate"/>
        <rect id="Rectangle_31965" data-name="Rectangle 31965" width="8.72" height="8.72" rx="1.78" transform="matrix(0.38, -0.925, 0.925, 0.38, 113.783, 1320.216)" opacity="0.2" style="isolation: isolate"/>
        <rect id="Rectangle_31966" data-name="Rectangle 31966" width="1.47" height="12.61" transform="matrix(0.38, -0.925, 0.925, 0.38, 112.198, 1318.437)" fill="#5038a1"/>
        <rect id="Rectangle_31967" data-name="Rectangle 31967" width="1.47" height="12.61" transform="matrix(0.38, -0.925, 0.925, 0.38, 112.198, 1318.437)" fill="#fff" opacity="0.4" style="isolation: isolate"/>
        <path id="Path_134639" data-name="Path 134639" d="M118.677,1276.516l16.69-8.95,1.43,4.48-17.33,8.62Z" opacity="0.2" style="isolation: isolate"/>
        <rect id="Rectangle_31968" data-name="Rectangle 31968" width="10.14" height="4.52" rx="1.7" transform="translate(150.287 1292.936)" opacity="0.2" style="isolation: isolate"/>
        <rect id="Rectangle_31969" data-name="Rectangle 31969" width="4.52" height="10.14" rx="1.7" transform="translate(127.838 1292.293) rotate(-70.16)" fill="#fff" opacity="0.4" style="isolation: isolate"/>
        <path id="Path_134640" data-name="Path 134640" d="M161.947,1319.666a4.75,4.75,0,1,1-4.76-4.74h.01A4.75,4.75,0,0,1,161.947,1319.666Z" opacity="0.2" style="isolation: isolate"/>
        <circle id="Ellipse_4151" data-name="Ellipse 4151" cx="3.01" cy="3.01" r="3.01" transform="translate(154.187 1316.596)" fill="#fff" opacity="0.2" style="isolation: isolate"/>
        <path id="Path_134641" data-name="Path 134641" d="M102,1147.386s1.25-6.34,4.24-5.56,3.95,3,6.33,1.37,5.52-2.68,7-1.44.71,4.67,3.88,5.63,4.46.16,6.18,4.31-2.71,5.9,0,9.08,4.89,3.38,3.91,6-4.64,6.43-3.91,8.67-4.13,11.36-9.33,11.7-8.65,7.39-8.29,10.22-1.42,3.7-4,4.36-4.85,4-4,5-2.5,4-2.5,4,2.58-1.59,0-4.16-5.56-3.88-3.38-7.58c0,0-5.14-.92-4.75-5.27s2-6.85-.79-8.67-5.34-7.15-2.77-9,3.36-9,1.78-14.13,2.77-9.6,3.36-8.86S93.527,1144.776,102,1147.386Z" fill="#263238"/>
        <path id="Path_134642" data-name="Path 134642" d="M93.007,1179.686l5.93-3.26a30.244,30.244,0,0,1,4.28,0c.66.2-2.33-10.62-2.27-10.85s-3-.86-4.09,0-.1,6.84-.1,6.84l-7,4.4Z" fill="#d58745"/>
        <path id="Path_134643" data-name="Path 134643" d="M109.657,1182.066s-16.8.63-18.1.52,5-4.07,5-4.07l-4.22-4.2s-13.19,5.56-14.11,9.7,20.23,10.82,28.6,10.87S109.657,1182.066,109.657,1182.066Z" fill="#5038a1"/>
        <path id="Path_134644" data-name="Path 134644" d="M108.417,1194.7a5.843,5.843,0,0,1-1.58.19,52.531,52.531,0,0,1-11.93-2.08c-8.5-2.32-17.28-6.09-16.67-8.79.92-4.14,14.11-9.7,14.11-9.7l4.22,4.2s-6.32,4-5,4.07,18.1-.52,18.1-.52S114.447,1193.176,108.417,1194.7Z" fill="#fff" opacity="0.2" style="isolation: isolate"/>
        <path id="Path_134645" data-name="Path 134645" d="M108.417,1194.7a5.843,5.843,0,0,1-1.58.19,52.531,52.531,0,0,1-11.93-2.08c2.69-3.33,11.33-2.84,11.33-2.84S107.437,1192.586,108.417,1194.7Z" opacity="0.2" style="isolation: isolate"/>
        <path id="Path_134646" data-name="Path 134646" d="M95.787,1328.706l6.19-1.3-.79-8.82-.73-8.09-7.59.34,1.54,9.46Z" fill="#ebb376"/>
        <path id="Path_134647" data-name="Path 134647" d="M104.007,1325.1c-.05-.7-8.57.2-8.57.2s-5,5.57-10.1,7-2.07,4.36,3.64,4.12l14.12-.59C107.157,1335.646,104.477,1332.3,104.007,1325.1Z" fill="#263238"/>
        <path id="Path_134648" data-name="Path 134648" d="M90.927,1327.7a1.128,1.128,0,0,1-.67-.18.832.832,0,0,1-.25-.92.933.933,0,0,1,.44-.61,3.449,3.449,0,0,1,1.81-.3c-.68-.34-1.25-.75-1.3-1.19s.16-.55.54-.76a1.331,1.331,0,0,1,1.12-.07c1.19.43,2,2.41,2,2.49a.266.266,0,0,1,0,.2h0a.232.232,0,0,1-.09.08A10.193,10.193,0,0,1,90.927,1327.7Zm1-1.53a2.457,2.457,0,0,0-1.22.23.5.5,0,0,0-.22.3c0,.22,0,.36.07.43.4.31,1.91-.21,3.14-.78a9.847,9.847,0,0,0-1.78-.18Zm.22-2.11a.937.937,0,0,0-.41.11c-.09,0-.3.17-.29.28,0,.38,1.26,1,2.53,1.4a3.707,3.707,0,0,0-1.52-1.73.811.811,0,0,0-.32-.06Z" fill="#ffb74d"/>
        <path id="Path_134649" data-name="Path 134649" d="M94.457,1320.486l6.77-1.73-.75-8.17-7.6.3Z" fill="#d58745"/>
        <path id="Path_134650" data-name="Path 134650" d="M70.247,1247.926c1.66-9.42,36.64-9.54,59.57-12.65l25.17,29.8s-31.29-8.12-62.1-8.12c0,0,6.73,17.67,9,57.61l-11.06,2.17S68.577,1257.356,70.247,1247.926Z" fill="#263238"/>
        <path id="Path_134651" data-name="Path 134651" d="M70.247,1247.926c1.66-9.42,36.64-9.54,59.57-12.65l25.17,29.8s-31.29-8.12-62.1-8.12c0,0,6.73,17.67,9,57.61l-11.06,2.17S68.577,1257.356,70.247,1247.926Z" opacity="0.2" style="isolation: isolate"/>
        <path id="Path_134652" data-name="Path 134652" d="M122.107,1173.426h19.55l13.33,50.38-36.86,4.16,1.46-15.4-5.53-6.86Z" fill="#5038a1"/>
        <path id="Path_134653" data-name="Path 134653" d="M122.107,1173.426h19.55l13.33,50.38-36.86,4.16,1.46-15.4-5.53-6.86Z" fill="#fff" opacity="0.2" style="isolation: isolate"/>
        <path id="Path_134654" data-name="Path 134654" d="M31.687,1321.8l4.88,4.01,6.38-6.14,5.85-5.64-5.03-5.7-6.4,7.13Z" fill="#ebb376"/>
        <path id="Path_134655" data-name="Path 134655" d="M39.417,1324.116c.38-.59-7-4.93-7-4.93s-7.36,1.48-12.27-.39-4.26,2.28.47,5.48l11.71,7.92C35.677,1334.446,35.517,1330.186,39.417,1324.116Z" fill="#263238"/>
        <path id="Path_134656" data-name="Path 134656" d="M31.027,1319.586h0c-.63-.1-3.75-.62-4.07-1.7a.851.851,0,0,1,.34-.89,1,1,0,0,1,.72-.22,3.342,3.342,0,0,1,1.64.84c-.35-.68-.57-1.35-.34-1.73s.45-.36.89-.29a1.339,1.339,0,0,1,.94.6c.69,1.06.17,3.12.15,3.21h0a.219.219,0,0,1-.1.11h-.06Zm-3.13-2.33a.421.421,0,0,0-.31.11c-.16.14-.23.28-.2.39.15.48,1.67,1,3,1.23-.67-.71-1.74-1.68-2.43-1.73Zm2-1.2c-.1,0-.19,0-.22.08-.2.32.43,1.53,1.19,2.62a3.649,3.649,0,0,0-.18-2.29.868.868,0,0,0-.62-.39Z" fill="#ffb74d"/>
        <path id="Path_134657" data-name="Path 134657" d="M37.247,1315.606l5.59,4.19,5.9-5.71-4.99-5.73Z" fill="#d58745"/>
        <path id="Path_134658" data-name="Path 134658" d="M126.457,1222.056c.29,6.49,1,14.84,1,14.84-29.09,7.16-41,14.8-46.42,21.29-10.17,12.2-39.46,50.69-39.46,50.69l9.69,7.09c28.24-27.21,49.56-46.71,49.56-46.71,28.86.05,61.16-1.92,67.31-8,9-8.93,1.52-34.19-8.76-46.17Z" fill="#263238"/>
        <path id="Path_134659" data-name="Path 134659" d="M54.607,1313.686l-11.06-8.29-3.94,4.73,9.5,7.07Z" fill="#ffb74d"/>
        <path id="Path_134660" data-name="Path 134660" d="M158.417,1212.566l1.59,4.56-32,8.46-1.88-5.4Z"/>
        <rect id="Rectangle_31970" data-name="Rectangle 31970" width="1.64" height="8.35" transform="translate(147.48 1214.198) rotate(-16.26)" fill="#263238"/>
        <rect id="Rectangle_31971" data-name="Rectangle 31971" width="7.24" height="5.49" transform="translate(133.915 1218.719) rotate(-14.07)" fill="#fff"/>
        <rect id="Rectangle_31972" data-name="Rectangle 31972" width="1.64" height="8.35" transform="translate(127.703 1218.737) rotate(-16.27)" fill="#263238"/>
        <path id="Path_134661" data-name="Path 134661" d="M126.127,1220.186s-9.23-20.25-19.89-32.51c0,0,3.33-5.85,16.41-9.16s24.55,3.69,24.55,3.69l11.79,32S139.277,1219.736,126.127,1220.186Z" fill="#fff"/>
        <path id="Path_134662" data-name="Path 134662" d="M135.467,1175.446s-.85,22.49,0,26.84,16.09,25.72,16.09,25.72l16.81-6.33-11.08-16.62S155.387,1179.216,135.467,1175.446Z" fill="#5038a1"/>
        <path id="Path_134663" data-name="Path 134663" d="M112.027,1181.086s4.88,23.2,7.56,31.48v17.77h-3.76l1.92-17.77S93.827,1186.816,112.027,1181.086Z" fill="#5038a1"/>
        <path id="Path_134664" data-name="Path 134664" d="M135.467,1175.446s-.85,22.49,0,26.84,16.09,25.72,16.09,25.72l16.81-6.33-11.08-16.62S155.387,1179.216,135.467,1175.446Z" fill="#fff" opacity="0.4" style="isolation: isolate"/>
        <path id="Path_134665" data-name="Path 134665" d="M112.027,1181.086s4.88,23.2,7.56,31.48v17.77h-3.76l1.92-17.77S93.827,1186.816,112.027,1181.086Z" fill="#fff" opacity="0.4" style="isolation: isolate"/>
        <path id="Path_134666" data-name="Path 134666" d="M135.1,1198.906s-3.91-15.83-4.12-18.54c-.1-1.4,1.77-4.47,3.62-7.12a5.18,5.18,0,0,1,7.93-.7c2.57,2.63,5,5.92,3.36,7.82,0,0-5-2.63-7.19-1.85S135.1,1198.906,135.1,1198.906Z" fill="#5038a1"/>
        <path id="Path_134667" data-name="Path 134667" d="M115.637,1197.326s-4.93-10.17-6-13.57,3.48-11.58,6-12.86,8.94,4.51,8.94,4.51S111.677,1178.766,115.637,1197.326Z" fill="#5038a1"/>
        <path id="Path_134668" data-name="Path 134668" d="M135.1,1198.906s-3.91-15.83-4.12-18.54c-.1-1.4,1.77-4.47,3.62-7.12a5.18,5.18,0,0,1,7.93-.7c2.57,2.63,5,5.92,3.36,7.82,0,0-5-2.63-7.19-1.85S135.1,1198.906,135.1,1198.906Z" fill="#fff" opacity="0.2" style="isolation: isolate"/>
        <path id="Path_134669" data-name="Path 134669" d="M115.637,1197.326s-4.93-10.17-6-13.57,3.48-11.58,6-12.86,8.94,4.51,8.94,4.51S111.677,1178.766,115.637,1197.326Z" fill="#fff" opacity="0.2" style="isolation: isolate"/>
        <path id="Path_134670" data-name="Path 134670" d="M122.667,1188.386s-4.78.68-5.62-2.87c0,0,1.09-1,0-3.31a11.863,11.863,0,0,0-2-2.92,28.539,28.539,0,0,0-3-2.84l6.14-7.85a17.858,17.858,0,0,0,2.15,4.73c1.47,2.29,3.81,4.56,7.3,4.68C127.617,1178.006,128.077,1182.236,122.667,1188.386Z" fill="#ebb376"/>
        <path id="Path_134671" data-name="Path 134671" d="M120.317,1173.326a42.336,42.336,0,0,1-3.24,8.88,11.863,11.863,0,0,0-2-2.92,28.539,28.539,0,0,0-3-2.84l6.14-7.85A17.869,17.869,0,0,0,120.317,1173.326Z" fill="#d58745"/>
        <path id="Path_134672" data-name="Path 134672" d="M110.477,1149.986c-8.5.64-10.89,5.39-10.86,14.2,0,11,3.06,18.6,13.51,15.46C127.327,1175.446,124.6,1148.926,110.477,1149.986Z" fill="#ebb376"/>
        <path id="Path_134673" data-name="Path 134673" d="M105.077,1163.3a17.886,17.886,0,0,1-2.21,3.71,2.371,2.371,0,0,0,2.32.8Z" fill="#d58745"/>
        <path id="Path_134674" data-name="Path 134674" d="M110.227,1162.216c0,.69.45,1.24.91,1.22s.82-.61.78-1.31-.44-1.25-.91-1.22S110.2,1161.516,110.227,1162.216Z" fill="#263238"/>
        <path id="Path_134675" data-name="Path 134675" d="M111.207,1160.926l-1.55-.52S110.477,1161.646,111.207,1160.926Z" fill="#263238"/>
        <path id="Path_134676" data-name="Path 134676" d="M101.527,1162.516c0,.7.44,1.24.91,1.22s.81-.61.78-1.31-.44-1.25-.91-1.22S101.487,1161.816,101.527,1162.516Z" fill="#263238"/>
        <path id="Path_134677" data-name="Path 134677" d="M102.507,1161.226l-1.56-.52S101.827,1161.946,102.507,1161.226Z" fill="#263238"/>
        <path id="Path_134678" data-name="Path 134678" d="M113.657,1157.706a.381.381,0,0,1-.26-.11,4.107,4.107,0,0,0-3.45-.91.359.359,0,0,1-.428-.274l0-.006a.371.371,0,0,1,.29-.43,4.739,4.739,0,0,1,4.11,1.12.351.351,0,0,1,.016.495l-.016.015A.35.35,0,0,1,113.657,1157.706Z" fill="#263238"/>
        <path id="Path_134679" data-name="Path 134679" d="M100.337,1157.756a.365.365,0,0,1-.23-.65,4.391,4.391,0,0,1,3.66-1,.361.361,0,0,1,.253.442l0,.008a.349.349,0,0,1-.422.258l-.028-.008a3.6,3.6,0,0,0-3,.89A.367.367,0,0,1,100.337,1157.756Z" fill="#263238"/>
        <path id="Path_134680" data-name="Path 134680" d="M120.827,1163.616s-4.5-6.69-4.3-12.13c0,0-17.36-5.61-16.91,11.55,0,0-2.79-15.06,11.8-16.5s16.15,19.91,9.08,26.91C120.5,1173.446,123.627,1167.8,120.827,1163.616Z" fill="#263238"/>
        <path id="Path_134681" data-name="Path 134681" d="M119.587,1165.516a3.75,3.75,0,0,1,3.76-3.71c2.66.09,4.32,5.4-2.13,7.19C120.287,1169.256,119.687,1168.376,119.587,1165.516Z" fill="#ebb376"/>
        <path id="Path_134682" data-name="Path 134682" d="M106.237,1173.126a.315.315,0,0,1-.13,0,.361.361,0,0,1-.213-.462l0-.008s1.77-4.38,5.86-3.93a.35.35,0,0,1,.323.375l0,.025a.369.369,0,0,1-.4.32c-3.55-.41-5.09,3.44-5.1,3.48A.379.379,0,0,1,106.237,1173.126Z" fill="#263238"/>
        <path id="Path_134683" data-name="Path 134683" d="M105.687,1236.606l5.77-5.07s8.92,2.87,11.06,4.6,9.52,6.62,9.52,6.62l-7.46,3.69s-6.6-6.87-8.87-7.46S105.687,1236.606,105.687,1236.606Z" fill="#5038a1"/>
        <path id="Path_134684" data-name="Path 134684" d="M105.687,1236.606l5.77-5.07s8.92,2.87,11.06,4.6,9.52,6.62,9.52,6.62l-7.46,3.69s-6.6-6.87-8.87-7.46S105.687,1236.606,105.687,1236.606Z" fill="#fff" opacity="0.4" style="isolation: isolate"/>
        <path id="Path_134685" data-name="Path 134685" d="M112.567,1235.606l5.06-1.87s9.45,7.83,8.5,7.83-9.09,4-9.09,4l-6.89-8.12A7.012,7.012,0,0,1,112.567,1235.606Z" fill="#5038a1"/>
        <path id="Path_134686" data-name="Path 134686" d="M130.977,1227.966l-4.85,5.16a32.435,32.435,0,0,0-3.61,0c-.77.13-6.81,3.68-6.81,3.68s4.1,4.49,4.61,4.76,7.25-1.71,7.31-2.51.11-2.76.11-2.76,6.37-5.72,6.06-6S130.977,1227.966,130.977,1227.966Z" fill="#ebb376"/>
        <path id="Path_134687" data-name="Path 134687" d="M143.277,1181.3c-5.18,2.13.17,26.8-.11,28.45s-17,22-17,22l5.26,3.89s15.45-16.27,18.4-21.19,2.4-23.44,1.6-25.51S145.917,1180.206,143.277,1181.3Z" fill="#5038a1"/>
        <path id="Path_134688" data-name="Path 134688" d="M143.277,1181.3c-5.18,2.13.17,26.8-.11,28.45s-17,22-17,22l5.26,3.89s15.45-16.27,18.4-21.19,2.4-23.44,1.6-25.51S145.917,1180.206,143.277,1181.3Z" fill="#fff" opacity="0.2" style="isolation: isolate"/>
        <path id="Path_134689" data-name="Path 134689" d="M88.577,1312.986l13.4-2.28v5.11l-11.77,1.8Z" fill="#ffb74d"/>
      </g>
    </g>
  </g>
</svg>
