<svg xmlns="http://www.w3.org/2000/svg" width="79" height="78.432" viewBox="0 0 79 78.432">
  <g id="t2-ic4" transform="translate(0 -1.839)">
    <g id="Group_92359" data-name="Group 92359" transform="translate(1.149 8.505)">
      <g id="Group_92358" data-name="Group 92358">
        <path id="Path_135590" data-name="Path 135590" d="M76.236,78.807a5.7,5.7,0,0,0,1.248-2.547c.685-3.337,1.626-11.942-2.933-24.33a5.706,5.706,0,0,0-3.386-3.386c-12.388-4.559-20.993-3.618-24.329-2.932a5.67,5.67,0,0,0-2.547,1.248A311.529,311.529,0,0,0,8.842,81.954a5.706,5.706,0,0,0-.173,7.273,153.257,153.257,0,0,0,25.2,25.2,5.706,5.706,0,0,0,7.273-.173A311.541,311.541,0,0,0,76.236,78.807ZM61.306,61.791a4.479,4.479,0,1,1,6.334,0A4.479,4.479,0,0,1,61.306,61.791Z" transform="translate(-7.444 -45.035)" fill="#ffdc72"/>
        <path id="Path_135591" data-name="Path 135591" d="M46.834,45.614a5.677,5.677,0,0,0-2.547,1.248A311.645,311.645,0,0,0,8.838,81.954a5.707,5.707,0,0,0-.172,7.273c.128.163.258.326.387.487A6.042,6.042,0,0,1,10.607,84.7,378.5,378.5,0,0,1,46.82,48.8a6.523,6.523,0,0,1,2.5-1.381,38.294,38.294,0,0,1,16.2-.656c-9.361-2.479-15.884-1.723-18.687-1.146Z" transform="translate(-7.441 -45.036)" fill="#ffb74d"/>
        <g id="Group_92357" data-name="Group 92357" transform="translate(17.885 15.42)">
          <path id="Path_135592" data-name="Path 135592" d="M124,248.123a2.251,2.251,0,0,1,.741-3.673l27.678-11.314a2.25,2.25,0,1,1,1.7,4.165L126.44,248.615A2.25,2.25,0,0,1,124,248.123Z" transform="translate(-123.338 -219.388)" fill="#8c6df2"/>
          <path id="Path_135593" data-name="Path 135593" d="M174.012,158.538c-2.871-2.871-2.608-7.8.586-11s8.128-3.456,11-.586,2.608,7.8-.586,11-8.128,3.456-11,.586Zm8.4-8.4c-1.1-1.1-3.219-.829-4.634.586s-1.683,3.537-.586,4.634,3.22.829,4.635-.586S183.512,151.233,182.414,150.136Z" transform="translate(-164.508 -144.962)" fill="#8c6df2"/>
          <path id="Path_135594" data-name="Path 135594" d="M179.86,337.145c-2.871-2.871-2.608-7.8.586-11s8.128-3.457,11-.586,2.608,7.8-.586,11S182.731,340.016,179.86,337.145Zm8.4-8.4c-1.1-1.1-3.22-.829-4.635.586s-1.683,3.537-.586,4.635,3.219.829,4.634-.586,1.683-3.537.586-4.634Z" transform="translate(-169.453 -296.007)" fill="#8c6df2"/>
        </g>
      </g>
    </g>
    <g id="Group_92360" data-name="Group 92360" transform="translate(0 1.839)">
      <path id="Path_135595" data-name="Path 135595" d="M150.089,227.6a3.412,3.412,0,0,0-4.442-1.864l-27.673,11.312a3.408,3.408,0,0,0-1.121,5.562h0a3.4,3.4,0,0,0,3.7.745l27.673-11.312a3.411,3.411,0,0,0,1.864-4.443Zm-2.74,2.3-27.673,11.312a1.092,1.092,0,1,1-.827-2.022l27.673-11.312a1.092,1.092,0,1,1,.827,2.022Z" transform="translate(-97.976 -190.968)"/>
      <path id="Path_135596" data-name="Path 135596" d="M179.51,152.457c3.644-3.644,3.907-9.312.586-12.633s-8.989-3.059-12.633.586-3.907,9.311-.586,12.633a8.086,8.086,0,0,0,5.778,2.329,9.753,9.753,0,0,0,6.855-2.915ZM169.1,142.046a7.449,7.449,0,0,1,5.217-2.241,5.784,5.784,0,0,1,4.142,1.655c2.419,2.419,2.156,6.618-.586,9.36s-6.941,3-9.36.586S166.357,144.788,169.1,142.046Z" transform="translate(-139.156 -116.561)"/>
      <path id="Path_135597" data-name="Path 135597" d="M200.966,173.914a5.4,5.4,0,0,0,1.565-3.109,3.548,3.548,0,0,0-4.14-4.14,5.547,5.547,0,0,0-4.674,4.674,3.746,3.746,0,0,0,.979,3.161,3.63,3.63,0,0,0,2.6,1.015,4.488,4.488,0,0,0,.562-.036A5.4,5.4,0,0,0,200.966,173.914Zm-4.633-1.051a1.469,1.469,0,0,1-.319-1.234,3.237,3.237,0,0,1,2.668-2.668,2.172,2.172,0,0,1,.275-.018,1.336,1.336,0,0,1,.959.337h0a1.469,1.469,0,0,1,.319,1.234,3.237,3.237,0,0,1-2.668,2.668,1.469,1.469,0,0,1-1.234-.319Z" transform="translate(-163.793 -141.2)"/>
      <path id="Path_135598" data-name="Path 135598" d="M206.813,352.491a5.4,5.4,0,0,0,1.565-3.109,3.548,3.548,0,0,0-4.14-4.14,5.546,5.546,0,0,0-4.674,4.673,3.747,3.747,0,0,0,.979,3.161,3.631,3.631,0,0,0,2.6,1.015,4.493,4.493,0,0,0,.562-.036,5.4,5.4,0,0,0,3.109-1.565Zm-4.633-1.051a1.469,1.469,0,0,1-.319-1.234,3.237,3.237,0,0,1,2.668-2.668,2.2,2.2,0,0,1,.275-.018,1.337,1.337,0,0,1,.959.337h0a1.469,1.469,0,0,1,.319,1.234,3.237,3.237,0,0,1-2.668,2.668A1.469,1.469,0,0,1,202.18,351.441Z" transform="translate(-168.738 -292.22)"/>
      <path id="Path_135599" data-name="Path 135599" d="M179.772,333.85a1.162,1.162,0,0,0,.185-.015,9.957,9.957,0,0,0,5.4-2.8c3.644-3.644,3.907-9.311.586-12.633s-8.989-3.058-12.634.585-3.906,9.313-.585,12.634a7.808,7.808,0,0,0,2.026,1.461,1.157,1.157,0,0,0,1.037-2.069,5.491,5.491,0,0,1-1.427-1.029c-2.419-2.419-2.157-6.619.584-9.361s6.942-3,9.361-.585,2.156,6.618-.586,9.36a7.625,7.625,0,0,1-4.133,2.151,1.157,1.157,0,0,0,.182,2.3Z" transform="translate(-144.103 -267.584)"/>
      <path id="Path_135600" data-name="Path 135600" d="M78.605,5.847a5.964,5.964,0,0,0-5.05-3.969c-4.063-.432-9.375,2.713-12.89,7.552A55.448,55.448,0,0,0,52.61,7.742a1.157,1.157,0,1,0-.3,2.295,56.511,56.511,0,0,1,12.156,3.069,4.54,4.54,0,0,1,2.7,2.7c.113.308.221.613.328.916-1.423.764-2.974,1.517-4.632,2.249a5.649,5.649,0,1,0,.859,2.151c1.6-.706,3.111-1.433,4.51-2.171,3.253,10.5,2.392,17.759,1.82,20.548a4.547,4.547,0,0,1-1,2.027,309.961,309.961,0,0,1-34.964,35.32,4.55,4.55,0,0,1-5.8.138A152.643,152.643,0,0,1,3.289,51.975a4.547,4.547,0,0,1,.138-5.794,309.8,309.8,0,0,1,35.32-34.965,4.552,4.552,0,0,1,2.027-1,31.311,31.311,0,0,1,7.058-.54,1.157,1.157,0,0,0,.06-2.314,33.677,33.677,0,0,0-7.585.587,6.87,6.87,0,0,0-3.063,1.5A312.01,312.01,0,0,0,1.679,44.666a6.863,6.863,0,0,0-.2,8.745A154.957,154.957,0,0,0,26.859,78.8a6.866,6.866,0,0,0,8.747-.2,312.122,312.122,0,0,0,35.21-35.567,6.868,6.868,0,0,0,1.5-3.064,34.968,34.968,0,0,0,.522-9.071A54.039,54.039,0,0,0,70.3,17.8a27.1,27.1,0,0,0,6.362-4.851C78.857,10.524,79.512,8.134,78.605,5.847ZM60.662,19.9c-.543.221-1.032.414-1.443.572a13.742,13.742,0,0,1,.066-1.505,3.305,3.305,0,0,1,1.237.779C60.572,19.8,60.616,19.852,60.662,19.9Zm-.14,4.542a3.321,3.321,0,1,1-3.564-5.438,15.7,15.7,0,0,0,.068,3.235,1.157,1.157,0,0,0,1.528.948c.059-.02,1.2-.42,2.939-1.125a3.31,3.31,0,0,1-.97,2.381Zm9.015-8.884c-.066-.185-.131-.371-.2-.556a6.85,6.85,0,0,0-4.071-4.072q-1.126-.415-2.247-.781c3-3.792,7.225-6.3,10.292-5.973A3.656,3.656,0,0,1,76.454,6.7c1.267,3.2-3.33,6.7-6.916,8.862Z" transform="translate(0 -1.839)"/>
    </g>
  </g>
</svg>
