<svg id="t2-ic7" xmlns="http://www.w3.org/2000/svg" width="79" height="70.977" viewBox="0 0 79 70.977">
  <g id="Group_92377" data-name="Group 92377" transform="translate(1.543 1.543)">
    <path id="Path_135657" data-name="Path 135657" d="M28.516,56.172H10V93.2a3.1,3.1,0,0,0,3.086,3.086H67.4A3.1,3.1,0,0,0,70.484,93.2V50h-35.8A6.19,6.19,0,0,1,28.516,56.172Zm0,0" transform="translate(-10 -43.828)" fill="#f8f8f8" fill-rule="evenodd"/>
    <path id="Path_135658" data-name="Path 135658" d="M70.484,16.172V13.086A3.1,3.1,0,0,0,67.4,10H13.086A3.1,3.1,0,0,0,10,13.086v9.258H28.516a6.19,6.19,0,0,0,6.172-6.172Zm0,0" transform="translate(-10 -10)" fill="#ffdc72" fill-rule="evenodd"/>
    <path id="Path_135659" data-name="Path 135659" d="M317.426,280.853A15.43,15.43,0,1,0,302,265.422,15.46,15.46,0,0,0,317.426,280.853Zm0,0" transform="translate(-256.942 -212.962)" fill="#ffdc72" fill-rule="evenodd"/>
    <path id="Path_135660" data-name="Path 135660" d="M365.617,305.9a3.086,3.086,0,0,1,4.364,4.364l-1.676,1.676,1.676,1.676a3.086,3.086,0,1,1-4.364,4.364l-1.676-1.676-1.676,1.676a3.086,3.086,0,1,1-4.364-4.364l1.676-1.676-1.676-1.676a3.086,3.086,0,1,1,4.364-4.364l1.676,1.676Zm0,0" transform="translate(-303.458 -259.481)" fill="#8c6df2" fill-rule="evenodd"/>
    <path id="Path_135661" data-name="Path 135661" d="M140.007,132.563c4.7-5.019,7.759-4.86,8.81-3.809s1.21,4.115-3.809,8.81l3.384,11.254-3.249,3.249-5.487-9.75-4.363,4.1-.312,4.021-2.974,2.974-2.574-5.278-5.278-2.574,2.974-2.974,4.021-.312,4.1-4.363-9.75-5.486,3.249-3.249Zm0,0" transform="translate(-106.543 -109.927)" fill="#8c6df2" fill-rule="evenodd"/>
  </g>
  <path id="Path_135662" data-name="Path 135662" d="M123.087,41.543A1.543,1.543,0,0,0,121.544,40h0a1.543,1.543,0,1,0,1.544,1.543Zm0,0" transform="translate(-101.484 -33.828)"/>
  <path id="Path_135663" data-name="Path 135663" d="M81.54,43.086a1.543,1.543,0,0,0,0-3.086h0a1.543,1.543,0,0,0,0,3.086Zm0,0" transform="translate(-67.653 -33.828)"/>
  <path id="Path_135664" data-name="Path 135664" d="M41.54,40h0a1.543,1.543,0,1,0,1.544,1.543A1.543,1.543,0,0,0,41.538,40Zm0,0" transform="translate(-33.825 -33.828)"/>
  <path id="Path_135665" data-name="Path 135665" d="M63.57,37.1V4.629A4.634,4.634,0,0,0,58.941,0H20.059a1.543,1.543,0,1,0,0,3.086H58.941a1.544,1.544,0,0,1,1.543,1.543V6.172H26.23a1.543,1.543,0,0,0-1.543,1.543,4.634,4.634,0,0,1-4.629,4.629H3.086V4.629A1.544,1.544,0,0,1,4.629,3.086H7.715A1.543,1.543,0,0,0,7.715,0H4.629A4.634,4.634,0,0,0,0,4.629V50.917a4.634,4.634,0,0,0,4.629,4.629H31.167a1.543,1.543,0,1,0,0-3.086H4.629a1.544,1.544,0,0,1-1.543-1.543V15.43H20.059a7.728,7.728,0,0,0,7.559-6.172H60.484V37.1A17,17,0,0,0,45.125,52.46H43.511a1.543,1.543,0,0,0,0,3.086h1.614A16.973,16.973,0,1,0,63.57,37.1ZM62.027,67.891A13.887,13.887,0,1,1,75.914,54,13.9,13.9,0,0,1,62.027,67.891Zm0,0"/>
  <path id="Path_135666" data-name="Path 135666" d="M141.414,139.917,138.3,129.564c3.4-3.4,4.172-5.937,4.2-7.5a3.615,3.615,0,0,0-3.9-3.9c-1.565.026-4.105.8-7.5,4.2l-10.354-3.113a1.544,1.544,0,0,0-1.535.387l-3.249,3.248a1.543,1.543,0,0,0,.335,2.436l8.032,4.52-2.343,2.492-3.425.265a1.549,1.549,0,0,0-.972.447l-2.974,2.974a1.544,1.544,0,0,0,.415,2.478l4.8,2.34,2.341,4.8a1.544,1.544,0,0,0,1.132.846,1.579,1.579,0,0,0,.254.021,1.544,1.544,0,0,0,1.092-.452l2.974-2.974a1.543,1.543,0,0,0,.447-.972l.265-3.425,2.492-2.343,4.52,8.033a1.544,1.544,0,0,0,2.436.334l3.248-3.248A1.543,1.543,0,0,0,141.414,139.917Zm-4.379,1.164-4.489-7.978a1.544,1.544,0,0,0-2.4-.367l-4.362,4.1a1.541,1.541,0,0,0-.482,1.005l-.267,3.452-1.041,1.04L122.367,139a1.544,1.544,0,0,0-.711-.711l-3.334-1.625,1.041-1.041,3.452-.268a1.543,1.543,0,0,0,1-.481l4.1-4.363a1.544,1.544,0,0,0-.367-2.4l-7.977-4.488,1.158-1.158,10.371,3.118a1.542,1.542,0,0,0,1.571-.424c3.273-3.5,5.266-3.9,5.971-3.915a.977.977,0,0,1,.621.143.951.951,0,0,1,.143.621c-.011.705-.416,2.7-3.915,5.971a1.543,1.543,0,0,0-.424,1.571l3.118,10.37Zm0,0" transform="translate(-96.545 -99.928)"/>
  <path id="Path_135667" data-name="Path 135667" d="M363.971,299.628a4.628,4.628,0,0,0-7.9-3.273l-.585.585-.584-.585a4.629,4.629,0,0,0-6.546,6.546l.585.585-.585.585a4.629,4.629,0,1,0,6.546,6.546l.584-.584.585.584a4.628,4.628,0,1,0,6.546-6.546l-.584-.585.584-.585A4.6,4.6,0,0,0,363.971,299.628Zm-5.213,4.948,1.676,1.676a1.543,1.543,0,1,1-2.182,2.182l-1.675-1.676a1.543,1.543,0,0,0-2.182,0l-1.676,1.676a1.543,1.543,0,0,1-2.181-2.182l1.676-1.676a1.543,1.543,0,0,0,0-2.182l-1.676-1.676a1.543,1.543,0,0,1,2.181-2.182l1.676,1.676a1.543,1.543,0,0,0,2.182,0l1.675-1.676a1.543,1.543,0,1,1,2.182,2.182l-1.676,1.676A1.542,1.542,0,0,0,358.758,304.577Zm0,0" transform="translate(-293.459 -249.482)"/>
  <path id="Path_135668" data-name="Path 135668" d="M81.544,3.086a1.543,1.543,0,1,0,0-3.086h0a1.543,1.543,0,1,0,0,3.086Zm0,0" transform="translate(-67.656)"/>
  <path id="Path_135669" data-name="Path 135669" d="M233.536,340h0a1.543,1.543,0,1,0,1.544,1.543A1.543,1.543,0,0,0,233.534,340Zm0,0" transform="translate(-196.196 -287.536)"/>
</svg>
