<svg xmlns="http://www.w3.org/2000/svg" width="168" height="150" viewBox="0 0 168 150">
  <g id="t2-ic2" transform="translate(-307 -3823)">
    <rect id="Rectangle_5165" data-name="Rectangle 5165" width="168" height="150" transform="translate(307 3823)" fill="none"/>
    <g id="airport" transform="translate(334.676 3836.47)">
      <g id="Group_92235" data-name="Group 92235" transform="translate(1.655 9.179)">
        <path id="Path_134836" data-name="Path 134836" d="M72.522,364.814V391.3H14.647A7.145,7.145,0,0,1,7.5,384.154v-19.34Z" transform="translate(-7.501 -287.605)" fill="#5038a1"/>
        <path id="Path_134837" data-name="Path 134837" d="M60.138,364.814V391.3H14.647A7.145,7.145,0,0,1,7.5,384.154v-19.34Z" transform="translate(-7.501 -287.605)" fill="#8c6df2"/>
        <path id="Path_134838" data-name="Path 134838" d="M72.521,316.133v10.744H7.5l9.188-9.408a4.442,4.442,0,0,1,3.176-1.337H72.521Z" transform="translate(-7.5 -249.668)" fill="#ffb74d"/>
        <path id="Path_134839" data-name="Path 134839" d="M60.138,316.133v10.744H7.5l9.188-9.408a4.442,4.442,0,0,1,3.176-1.337H60.138Z" transform="translate(-7.5 -249.668)" fill="#ffdc72"/>
        <path id="Path_134840" data-name="Path 134840" d="M315.782,197.266v60a3.471,3.471,0,0,1-3.471,3.471H275.8V197.266Z" transform="translate(-216.584 -157.037)" fill="#5038a1"/>
        <path id="Path_134841" data-name="Path 134841" d="M310.295,197.266v60a3.471,3.471,0,0,1-3.471,3.471H275.8V197.266Z" transform="translate(-216.584 -157.037)" fill="#8c6df2"/>
        <path id="Path_134842" data-name="Path 134842" d="M294.989,158.395,290.6,176.5a2.438,2.438,0,0,1-2.371,1.864H246.012a2.438,2.438,0,0,1-2.371-1.864l-4.39-18.108a2.439,2.439,0,0,1,2.369-3.016h51a2.441,2.441,0,0,1,2.371,3.016Z" transform="translate(-188.044 -124.395)" fill="#ffb74d"/>
        <path id="Path_134843" data-name="Path 134843" d="M289.039,158.395l-4.39,18.108a2.442,2.442,0,0,1-2.371,1.864H246.012a2.438,2.438,0,0,1-2.371-1.864l-4.39-18.108a2.439,2.439,0,0,1,2.369-3.016h45.049A2.441,2.441,0,0,1,289.039,158.395Z" transform="translate(-188.044 -124.395)" fill="#ffdc72"/>
        <path id="Path_134844" data-name="Path 134844" d="M314.811,54.628l-4.75,19.587H279.482l-4.75-19.587a2.753,2.753,0,0,1,2.676-3.4h34.727A2.753,2.753,0,0,1,314.811,54.628Z" transform="translate(-215.688 -43.232)" fill="#5038a1"/>
        <path id="Path_134845" data-name="Path 134845" d="M308.664,54.628l-4.75,19.587H279.482l-4.75-19.587a2.753,2.753,0,0,1,2.676-3.4h28.58A2.753,2.753,0,0,1,308.664,54.628Z" transform="translate(-215.688 -43.232)" fill="#8c6df2"/>
        <path id="Path_134846" data-name="Path 134846" d="M301.841,189.341h28.985v8H301.841Z" transform="translate(-236.875 -150.861)" fill="#fff6db"/>
        <path id="Path_134847" data-name="Path 134847" d="M179.968,409.783v14.159H163.727V409.783a3.082,3.082,0,0,1,3.082-3.082h10.078A3.082,3.082,0,0,1,179.968,409.783Z" transform="translate(-129.245 -320.246)" fill="#ffdc72"/>
        <path id="Path_134848" data-name="Path 134848" d="M345.253,409.783v14.159H329.011V409.783a3.082,3.082,0,0,1,3.082-3.082h10.078A3.082,3.082,0,0,1,345.253,409.783Z" transform="translate(-258.048 -320.246)" fill="#ffdc72"/>
        <path id="Path_134849" data-name="Path 134849" d="M28.123,40.328,61.9,18.97s-4.494-6.011-9.052-3.235S39.6,24.426,39.6,24.426L26.812,19.507l-5.781,2.479,8.624,7.662-6.308,5.717-7.268-.989-2.642,1.818,3.943,3.334a8.663,8.663,0,0,0,5.775,2.046l.893-.019a7.935,7.935,0,0,0,4.075-1.227Z" transform="translate(-12.127 -15.002)" fill="#d3e1f5"/>
      </g>
      <g id="Group_92236" data-name="Group 92236" transform="translate(0 7.53)">
        <path id="Path_134850" data-name="Path 134850" d="M109.446,43.578a4.071,4.071,0,0,0-3.219-1.563H98.134l4.253-17.541A4.408,4.408,0,0,0,98.1,19.026H82.769V15.341h2.093a1.655,1.655,0,0,0,0-3.311h-7.5a1.655,1.655,0,0,0,0,3.311h2.092v3.686H63.375a4.408,4.408,0,0,0-4.284,5.447l4.253,17.541H55.231a4.1,4.1,0,0,0-3.98,5.06l4.391,18.108a4.082,4.082,0,0,0,3.577,3.109v9.2H14.02a6.131,6.131,0,0,0-4.361,1.837L.471,88.739A1.674,1.674,0,0,0,0,89.9v19.34a8.812,8.812,0,0,0,8.8,8.8H97.382a5.132,5.132,0,0,0,5.127-5.127V98.3a1.655,1.655,0,0,0-3.311,0V112.91a1.818,1.818,0,0,1-1.816,1.816H90.515v-12.5a4.742,4.742,0,0,0-4.737-4.737H75.7a4.742,4.742,0,0,0-4.737,4.737v12.5H62.53V68.313H99.2V90.7a1.655,1.655,0,0,0,3.311,0V68.257a4.082,4.082,0,0,0,3.308-3.075l4.391-18.108a4.072,4.072,0,0,0-.761-3.5ZM74.274,102.222A1.428,1.428,0,0,1,75.7,100.8H85.778a1.428,1.428,0,0,1,1.426,1.426v12.5H74.274ZM62.309,23.693a1.1,1.1,0,0,1,1.067-1.356H98.1a1.1,1.1,0,0,1,1.067,1.356L94.727,42.014H66.751ZM12.027,81.646a2.8,2.8,0,0,1,1.993-.839h45.2V88.24H5.586Zm-8.717,27.59V91.551H59.219v23.175H54.034v-12.5A4.742,4.742,0,0,0,49.3,97.485H39.219a4.742,4.742,0,0,0-4.737,4.737v12.5H8.8a5.5,5.5,0,0,1-5.491-5.491Zm34.482,5.491v-12.5a1.428,1.428,0,0,1,1.426-1.426H49.3a1.428,1.428,0,0,1,1.426,1.426v12.5Zm69.2-68.432L102.6,64.4a.782.782,0,0,1-.762.6H59.622a.782.782,0,0,1-.762-.6L54.469,46.294a.784.784,0,0,1,.762-.969h51a.784.784,0,0,1,.762.969Z" transform="translate(0 -11.037)"/>
        <path id="Path_134851" data-name="Path 134851" d="M324.981,181.841H296a1.655,1.655,0,0,0-1.655,1.655v8A1.655,1.655,0,0,0,296,193.148h28.985a1.655,1.655,0,0,0,1.655-1.655v-8A1.655,1.655,0,0,0,324.981,181.841Zm-1.655,8H297.652v-4.685h25.674Z" transform="translate(-229.375 -143.368)"/>
        <path id="Path_134852" data-name="Path 134852" d="M58.652,399.2H42.41a1.655,1.655,0,1,0,0,3.311H58.652a1.655,1.655,0,1,0,0-3.311Z" transform="translate(-31.76 -312.752)"/>
        <path id="Path_134853" data-name="Path 134853" d="M323.166,283.728a1.655,1.655,0,1,0,0,3.311h16.241a1.655,1.655,0,0,0,0-3.311Z" transform="translate(-250.548 -222.766)"/>
        <path id="Path_134854" data-name="Path 134854" d="M338.354,95.379a1.835,1.835,0,1,0,1.835,1.835A1.835,1.835,0,0,0,338.354,95.379Z" transform="translate(-262.243 -75.989)"/>
        <path id="Path_134855" data-name="Path 134855" d="M378.744,95.379a1.835,1.835,0,1,0,1.835,1.835A1.835,1.835,0,0,0,378.744,95.379Z" transform="translate(-293.719 -75.989)"/>
        <path id="Path_134856" data-name="Path 134856" d="M6.525,31.634l3.942,3.334a10.309,10.309,0,0,0,6.662,2.44l.217,0,.893-.019A9.591,9.591,0,0,0,23.164,35.9L56.936,14.546a1.655,1.655,0,0,0,.441-2.39C55.511,9.66,50.761,5.683,46.138,8.5c-3.829,2.332-10.411,6.768-12.6,8.249L21.563,12.139a1.657,1.657,0,0,0-1.247.024l-5.78,2.479a1.655,1.655,0,0,0-.447,2.759l7.245,6.437-4.37,3.96-6.5-.886a1.656,1.656,0,0,0-1.161.276L6.655,29.006a1.655,1.655,0,0,0-.131,2.628Zm4.122-1.355,6.634.9a1.653,1.653,0,0,0,1.335-.414l6.308-5.717a1.655,1.655,0,0,0-.012-2.464l-6.675-5.931L21,15.471,33.16,20.148a1.656,1.656,0,0,0,1.526-.177c.087-.059,8.7-5.923,13.174-8.646,2.059-1.254,4.287.239,5.629,1.483l-32.095,20.3a6.279,6.279,0,0,1-3.225.971l-.893.019A7,7,0,0,1,12.6,32.44l-2.287-1.935Z" transform="translate(-4.627 -7.53)"/>
        <path id="Path_134857" data-name="Path 134857" d="M48.339,227.369,41.286,231.7a1.655,1.655,0,1,0,1.734,2.82l7.053-4.336a1.655,1.655,0,1,0-1.734-2.82Z" transform="translate(-31.559 -178.655)"/>
        <path id="Path_134858" data-name="Path 134858" d="M84.755,140.723a1.656,1.656,0,0,0-2.284-.512l-16.3,10.333a1.655,1.655,0,1,0,1.773,2.8l16.3-10.333a1.655,1.655,0,0,0,.512-2.285Z" transform="translate(-50.967 -110.725)"/>
      </g>
    </g>
  </g>
</svg>
