<svg xmlns="http://www.w3.org/2000/svg" width="79" height="80.721" viewBox="0 0 79 80.721">
  <g id="t2-ic9" transform="translate(-95.502 -92.01)">
    <g id="Group_92378" data-name="Group 92378" transform="translate(96.486 92.992)">
      <path id="Path_135670" data-name="Path 135670" d="M150.992,342.506H105.817V331.891a13.377,13.377,0,0,1,13.377-13.377h18.421a13.377,13.377,0,0,1,13.377,13.377Z" transform="translate(-104.263 -263.752)" fill="#fff"/>
      <path id="Path_135671" data-name="Path 135671" d="M118.91,318.543a13.374,13.374,0,0,0-13.092,13.37v10.615H118.91Z" transform="translate(-104.264 -263.774)" fill="#8c6df2"/>
      <path id="Path_135672" data-name="Path 135672" d="M236.176,318.543a13.374,13.374,0,0,1,13.092,13.37v10.615H236.176Z" transform="translate(-202.539 -263.774)" fill="#8c6df2"/>
      <path id="Path_135673" data-name="Path 135673" d="M159.3,318.514c-.1,0-.19.005-.285.007l9.419,17.445,9.421-17.449c-.045,0-.09,0-.135,0Z" transform="translate(-144.367 -263.752)" fill="#ffcca6"/>
      <path id="Path_135674" data-name="Path 135674" d="M110.032,251.727v14.822c0,7.616,3.3,13.614,12.055,13.614V251.727Z" transform="translate(-107.44 -213.402)" fill="#ffdc72"/>
      <path id="Path_135675" data-name="Path 135675" d="M248.232,251.727v14.822c0,7.616-3.3,13.614-12.055,13.614V251.727Z" transform="translate(-202.54 -213.402)" fill="#ffdc72"/>
      <path id="Path_135676" data-name="Path 135676" d="M183.726,280.048H170.581a2,2,0,0,1,0-4h13.145a2,2,0,0,1,0,4Z" transform="translate(-153.088 -233.245)" fill="#17171d"/>
      <path id="Path_135677" data-name="Path 135677" d="M143.315,201.7a17.72,17.72,0,0,1-17.72-17.72V162.326h35.439v21.657A17.719,17.719,0,0,1,143.315,201.7Z" transform="translate(-119.173 -146.003)" fill="#ffcca6"/>
      <path id="Path_135678" data-name="Path 135678" d="M157.875,219.149a2.52,2.52,0,0,1-2.52-2.52v-1.985a2.52,2.52,0,1,1,5.04,0v1.985A2.52,2.52,0,0,1,157.875,219.149Z" transform="translate(-141.609 -183.545)" fill="#17171d"/>
      <path id="Path_135679" data-name="Path 135679" d="M221.876,219.149a2.52,2.52,0,0,1-2.52-2.52v-1.985a2.52,2.52,0,1,1,5.04,0v1.985A2.52,2.52,0,0,1,221.876,219.149Z" transform="translate(-189.859 -183.545)" fill="#17171d"/>
      <path id="Path_135680" data-name="Path 135680" d="M125.6,175.056a23.308,23.308,0,0,0,15.092-1.909l10.5-5.181,9.844,7.09v-12.73H125.6Z" transform="translate(-119.173 -146.003)" fill="#f4ad7d"/>
      <path id="Path_135681" data-name="Path 135681" d="M173.469,266.325h-7.875c0,3.251,3.273,6.5,7.876,6.5h0c4.6,0,7.876-3.251,7.876-6.5h-7.876Z" transform="translate(-149.328 -224.407)" fill="#e50707"/>
      <path id="Path_135682" data-name="Path 135682" d="M166.456,269.21h14.028a5.6,5.6,0,0,0,.85-2.559c0-.109.012-.217.012-.326H165.594c0,.109.008.217.012.326A5.6,5.6,0,0,0,166.456,269.21Z" transform="translate(-149.328 -224.407)" fill="#fff"/>
      <path id="Path_135683" data-name="Path 135683" d="M139.457,114.293l-10.5,5.181a23.307,23.307,0,0,1-15.092,1.909l-3.83,2.608V110.7a15.126,15.126,0,0,1,14.083-14.45,80.027,80.027,0,0,1,15.813.324c8.32.988,13.6,7.15,13.6,14.4v13.43l-4.228-3.021Z" transform="translate(-107.44 -96.001)" fill="#ffdc72"/>
      <path id="Path_135684" data-name="Path 135684" d="M139.927,96.574a80.046,80.046,0,0,0-15.813-.324,15.126,15.126,0,0,0-14.083,14.45v4.09a15.126,15.126,0,0,1,14.083-14.45,80.028,80.028,0,0,1,15.813.324c8.32.988,13.6,7.15,13.6,14.4v-4.09c0-7.252-5.282-13.414-13.6-14.4Z" transform="translate(-107.44 -96.001)" fill="#ffb74d"/>
      <path id="Path_135685" data-name="Path 135685" d="M99.5,211.112a6.422,6.422,0,0,0,6.422,6.422V204.69A6.422,6.422,0,0,0,99.5,211.112Z" transform="translate(-99.502 -177.941)" fill="#eaa178"/>
      <path id="Path_135686" data-name="Path 135686" d="M276.017,211.112a6.422,6.422,0,0,1-6.422,6.422V204.69A6.422,6.422,0,0,1,276.017,211.112Z" transform="translate(-227.734 -177.941)" fill="#eaa178"/>
      <path id="Path_135687" data-name="Path 135687" d="M305.581,120.908l3.376,6.842a1.712,1.712,0,0,0,1.289.936l7.55,1.1a1.712,1.712,0,0,1,.949,2.92l-5.463,5.325a1.712,1.712,0,0,0-.492,1.515l1.29,7.519a1.712,1.712,0,0,1-2.484,1.8l-6.753-3.55a1.713,1.713,0,0,0-1.593,0l-6.753,3.55a1.712,1.712,0,0,1-2.484-1.8l1.29-7.519a1.712,1.712,0,0,0-.492-1.515l-5.463-5.325a1.712,1.712,0,0,1,.949-2.92l7.55-1.1a1.711,1.711,0,0,0,1.289-.936l3.376-6.842A1.712,1.712,0,0,1,305.581,120.908Z" transform="translate(-242.233 -114.059)" fill="#ffdc72"/>
      <path id="Path_135688" data-name="Path 135688" d="M317.8,129.783l-7.55-1.1a1.711,1.711,0,0,1-1.289-.936l-3.376-6.842a1.712,1.712,0,0,0-3.07,0l-3.376,6.842a1.712,1.712,0,0,1-1.289.936l-7.55,1.1a1.712,1.712,0,0,0-.949,2.92l1.37,1.335a1.5,1.5,0,0,1,1.071-.7l6.731-.978a1.526,1.526,0,0,0,1.149-.835l3.01-6.1a1.526,1.526,0,0,1,2.737,0l3.01,6.1a1.526,1.526,0,0,0,1.149.835l6.731.978a1.5,1.5,0,0,1,1.071.7l1.37-1.335A1.712,1.712,0,0,0,317.8,129.783Z" transform="translate(-242.236 -114.059)" fill="#ffe699"/>
      <path id="Path_135689" data-name="Path 135689" d="M329.372,207.4a1.7,1.7,0,0,1-1.974.273l-6.753-3.55a1.713,1.713,0,0,0-1.593,0l-6.753,3.55a1.7,1.7,0,0,1-1.975-.273l-.509,2.97a1.712,1.712,0,0,0,2.484,1.8l6.753-3.55a1.713,1.713,0,0,1,1.593,0l6.753,3.55a1.712,1.712,0,0,0,2.484-1.8Z" transform="translate(-258.035 -177.361)" fill="#ffb74d"/>
    </g>
    <g id="Group_92379" data-name="Group 92379" transform="translate(95.502 92.01)">
      <path id="Path_135690" data-name="Path 135690" d="M160.395,216.629v-1.985a2.52,2.52,0,0,0-5.04,0v1.985a2.52,2.52,0,1,0,5.04,0Z" transform="translate(-140.625 -182.563)" fill="#17171d"/>
      <path id="Path_135691" data-name="Path 135691" d="M221.876,212.124a2.52,2.52,0,0,0-2.52,2.52v1.985a2.52,2.52,0,1,0,5.04,0v-1.985A2.52,2.52,0,0,0,221.876,212.124Z" transform="translate(-188.874 -182.563)" fill="#17171d"/>
      <path id="Path_135692" data-name="Path 135692" d="M178.329,262.325H162.577a.984.984,0,0,0-.984.985c0,3.615,3.561,7.486,8.86,7.486h0a9.547,9.547,0,0,0,6.312-2.275,7.041,7.041,0,0,0,2.548-5.211A.985.985,0,0,0,178.329,262.325Zm-1.107,1.969a4.929,4.929,0,0,1-.608,1.408H164.293a4.929,4.929,0,0,1-.608-1.408Zm-6.769,4.533a7.43,7.43,0,0,1-5.39-2.14h10.78A7.429,7.429,0,0,1,170.453,268.827Z" transform="translate(-145.327 -220.409)" fill="#17171d"/>
      <path id="Path_135693" data-name="Path 135693" d="M173.686,112.341a2.7,2.7,0,0,0-1.494-4.6l-7.55-1.1a.727.727,0,0,1-.548-.4l-3.377-6.841a2.7,2.7,0,0,0-4.836,0l-3.377,6.841a.727.727,0,0,1-.548.4l-7.55,1.1a2.708,2.708,0,0,0-.847.276v-.052c0-8.044-5.95-14.368-14.47-15.379a81.42,81.42,0,0,0-16.01-.327,16.109,16.109,0,0,0-14.986,15.386c0,.015,0,.03,0,.045v12.852a7.391,7.391,0,0,0,0,11.241V146.14a19.446,19.446,0,0,0,1.233,7.243,14.287,14.287,0,0,0-2.27,7.748v10.615a.984.984,0,0,0,.984.984h45.174a.984.984,0,0,0,.984-.984V161.132c0-.216-.006-.432-.016-.647a14.254,14.254,0,0,0-2.254-7.1,19.45,19.45,0,0,0,1.233-7.241V131.783a7.392,7.392,0,0,0,.4-10.876v-7.936l4.816,4.694a.727.727,0,0,1,.209.644l-1.29,7.52a2.7,2.7,0,0,0,3.912,2.842l6.753-3.55a.726.726,0,0,1,.677,0l6.753,3.55a2.7,2.7,0,0,0,3.912-2.842l-1.29-7.52a.728.728,0,0,1,.209-.644Zm-73.624-4.628a14.157,14.157,0,0,1,13.18-13.491,79.411,79.411,0,0,1,15.616.32c7.5.89,12.734,6.41,12.734,13.424v11.517l-2.668-1.907-9.844-7.09a.984.984,0,0,0-1.011-.084l-10.5,5.181a22.421,22.421,0,0,1-14.454,1.828h0c-.024,0-.049,0-.074-.008a.985.985,0,0,0-.126-.013h0c-.016,0-.031,0-.047,0a.759.759,0,0,0-.288.058c-.015.005-.031.008-.046.014a.98.98,0,0,0-.172.093h0l-2.292,1.561V107.713Zm26.4,41.026h1.859l-7.773,14.4-7.773-14.4h1.932c.015,0,.029,0,.044,0a18.706,18.706,0,0,0,11.711,0Zm-14.349,11.015v-8.1l7.569,14.017a.984.984,0,0,0,1.733,0l7.721-14.3v19.386H112.118V159.754Zm8.511-12.046a16.729,16.729,0,0,1-16.735-16.735v-11.42a24.408,24.408,0,0,0,14.543-2.2l9.973-4.92,8.955,6.45v12.094A16.754,16.754,0,0,1,120.628,147.708ZM97.471,126.163a5.446,5.446,0,0,1,4.453-5.348v10.7A5.446,5.446,0,0,1,97.471,126.163Zm4.627,7.361a18.613,18.613,0,0,0,8.051,12.943v12.275c-8.3-.478-10.086-7.053-10.086-12.6V133A7.335,7.335,0,0,0,102.1,133.524Zm-3.073,37.238v-9.63c0-.294.011-.587.032-.878,0-.031,0-.061.007-.091a12.3,12.3,0,0,1,1.326-4.685q.308.486.656.933c2.079,2.656,5.139,4.1,9.1,4.3v10.051Zm43.206,0H131.108V160.711c3.964-.2,7.024-1.645,9.1-4.3.233-.3.451-.609.656-.932a12.3,12.3,0,0,1,1.354,5.147q.01.253.011.508Zm-1.037-24.622a17.574,17.574,0,0,1-1.17,6.718.981.981,0,0,0-.2.442c-1.373,2.915-3.985,5.17-8.719,5.442V146.457a18.727,18.727,0,0,0,8.046-12.933,7.341,7.341,0,0,0,2.04-.525v13.14Zm2.591-19.976a5.446,5.446,0,0,1-4.453,5.348v-10.7a5.392,5.392,0,0,1,1.351.438l1.32.943a.98.98,0,0,0,.145.085A5.42,5.42,0,0,1,143.785,126.163Zm22.288-7.52,1.29,7.52a.727.727,0,0,1-1.056.767l-6.753-3.55a2.7,2.7,0,0,0-2.509,0l-6.753,3.55a.727.727,0,0,1-1.056-.767l1.29-7.519a2.7,2.7,0,0,0-.775-2.387l-5.463-5.325a.728.728,0,0,1,.4-1.241l7.55-1.1a2.7,2.7,0,0,0,2.03-1.475l3.377-6.842a.727.727,0,0,1,1.3,0l3.377,6.841a2.7,2.7,0,0,0,2.03,1.475l7.55,1.1a.728.728,0,0,1,.4,1.241l-5.463,5.325A2.7,2.7,0,0,0,166.073,118.643Z" transform="translate(-95.502 -92.01)" fill="#17171d"/>
    </g>
  </g>
</svg>
