<svg xmlns="http://www.w3.org/2000/svg" width="79" height="71.697" viewBox="0 0 79 71.697">
  <g id="t2-ic6" transform="translate(0 -23.488)">
    <g id="Group_92363" data-name="Group 92363" transform="translate(1.166 24.653)">
      <path id="Path_135615" data-name="Path 135615" d="M73.639,66.775H47.381V42.565A11.582,11.582,0,0,1,58.963,30.983h3.094A11.582,11.582,0,0,1,73.639,42.565Z" transform="translate(-41.181 -30.983)" fill="#ffdc72"/>
      <path id="Path_135616" data-name="Path 135616" d="M42.368,326.718H39.991a1.5,1.5,0,0,1-1.5-1.5V305.879a1.5,1.5,0,0,1,1.5-1.5h2.377a1.5,1.5,0,0,1,1.5,1.5v19.344A1.5,1.5,0,0,1,42.368,326.718Z" transform="translate(-33.677 -261.88)" fill="#d4cfd5"/>
      <path id="Path_135617" data-name="Path 135617" d="M439.941,326.718h-2.377a1.5,1.5,0,0,1-1.5-1.5V305.879a1.5,1.5,0,0,1,1.5-1.5h2.377a1.5,1.5,0,0,1,1.5,1.5v19.344A1.5,1.5,0,0,1,439.941,326.718Z" transform="translate(-369.443 -261.88)" fill="#d4cfd5"/>
      <path id="Path_135618" data-name="Path 135618" d="M82.523,280.812H9.144A1.644,1.644,0,0,1,7.5,279.168v-4.945a1.644,1.644,0,0,1,1.644-1.644H82.524a1.644,1.644,0,0,1,1.644,1.644v4.945A1.645,1.645,0,0,1,82.523,280.812Z" transform="translate(-7.5 -235.019)" fill="#f7f8f4"/>
      <path id="Path_135619" data-name="Path 135619" d="M62.452,31A11.581,11.581,0,0,0,51.267,42.57V66.78H47.38V42.57A11.582,11.582,0,0,1,58.962,30.988h3.094c.132,0,.264,0,.4.008Z" transform="translate(-41.18 -30.987)" fill="#ffb74d"/>
      <path id="Path_135620" data-name="Path 135620" d="M59.313,243.583H29.631a1.1,1.1,0,0,1-1.1-1.1v-3.356a3.045,3.045,0,0,1,3.045-3.045h25.8a3.045,3.045,0,0,1,3.045,3.045v3.356A1.1,1.1,0,0,1,59.313,243.583Z" transform="translate(-25.261 -204.196)" fill="#ffdc72"/>
      <path id="Path_135621" data-name="Path 135621" d="M319.642,66.775H293.384V42.565a11.582,11.582,0,0,1,11.582-11.582h3.094a11.582,11.582,0,0,1,11.582,11.582v24.21Z" transform="translate(-248.94 -30.983)" fill="#ffdc72"/>
      <path id="Path_135622" data-name="Path 135622" d="M308.454,31A11.58,11.58,0,0,0,297.267,42.57V66.78H293.38V42.57a11.582,11.582,0,0,1,11.582-11.582h3.1c.132,0,.266,0,.4.008Z" transform="translate(-248.936 -30.987)" fill="#ffb74d"/>
      <path id="Path_135623" data-name="Path 135623" d="M305.316,243.583H275.634a1.1,1.1,0,0,1-1.1-1.1v-3.356a3.045,3.045,0,0,1,3.045-3.045h25.8a3.045,3.045,0,0,1,3.045,3.045v3.356A1.1,1.1,0,0,1,305.316,243.583Z" transform="translate(-233.019 -204.196)" fill="#ffdc72"/>
      <path id="Path_135624" data-name="Path 135624" d="M29.559,438.465H18.52a.319.319,0,0,1-.319-.319v-2.4a4.406,4.406,0,0,1,4.406-4.406h2.865a4.406,4.406,0,0,1,4.406,4.406v2.4A.319.319,0,0,1,29.559,438.465Z" transform="translate(-16.537 -369.1)" fill="#d4cfd5"/>
      <path id="Path_135625" data-name="Path 135625" d="M13.031,280.813H9.145A1.645,1.645,0,0,1,7.5,279.168v-4.945a1.645,1.645,0,0,1,1.645-1.645h3.887a1.645,1.645,0,0,0-1.645,1.645v4.945A1.645,1.645,0,0,0,13.031,280.813Z" transform="translate(-7.5 -235.019)" fill="#eee"/>
      <path id="Path_135626" data-name="Path 135626" d="M427.132,438.465h-11.04a.319.319,0,0,1-.319-.319v-2.4a4.406,4.406,0,0,1,4.406-4.406h2.865a4.406,4.406,0,0,1,4.406,4.406v2.4A.319.319,0,0,1,427.132,438.465Z" transform="translate(-352.303 -369.1)" fill="#d4cfd5"/>
      <path id="Path_135627" data-name="Path 135627" d="M33.519,243.581H29.632a1.1,1.1,0,0,1-1.1-1.1v-3.356a3.045,3.045,0,0,1,3.046-3.046h3.887a3.045,3.045,0,0,0-3.046,3.046v3.356A1.1,1.1,0,0,0,33.519,243.581Z" transform="translate(-25.261 -204.193)" fill="#ffb74d"/>
      <path id="Path_135628" data-name="Path 135628" d="M279.519,243.581h-3.887a1.1,1.1,0,0,1-1.1-1.1v-3.356a3.045,3.045,0,0,1,3.046-3.046h3.887a3.045,3.045,0,0,0-3.046,3.046v3.356A1.1,1.1,0,0,0,279.519,243.581Z" transform="translate(-233.017 -204.193)" fill="#ffb74d"/>
      <g id="Group_92362" data-name="Group 92362" transform="translate(1.663 62.24)">
        <path id="Path_135629" data-name="Path 135629" d="M22.087,435.745v2.4a.318.318,0,0,0,.319.319H18.519a.318.318,0,0,1-.319-.319v-2.4a4.407,4.407,0,0,1,4.406-4.407h2.865a3.977,3.977,0,0,1,.511.031A4.4,4.4,0,0,0,22.087,435.745Z" transform="translate(-18.2 -431.338)" fill="#c5bec6"/>
        <path id="Path_135630" data-name="Path 135630" d="M419.657,435.745v2.4a.318.318,0,0,0,.319.319h-3.887a.318.318,0,0,1-.319-.319v-2.4a4.407,4.407,0,0,1,4.407-4.407h2.864a3.977,3.977,0,0,1,.511.031A4.4,4.4,0,0,0,419.657,435.745Z" transform="translate(-353.963 -431.338)" fill="#c5bec6"/>
      </g>
    </g>
    <g id="Group_92364" data-name="Group 92364" transform="translate(0 23.488)">
      <path id="Path_135631" data-name="Path 135631" d="M76.189,61.046H75.73V59.583a4.217,4.217,0,0,0-2.7-3.928V36.236A12.762,12.762,0,0,0,60.287,23.488h-3.1A12.762,12.762,0,0,0,44.444,36.236V55.572a4.218,4.218,0,0,0-2.93,4.011v1.463H37.486V59.583a4.217,4.217,0,0,0-2.7-3.928V36.236A12.762,12.762,0,0,0,22.041,23.488H18.948A12.762,12.762,0,0,0,6.2,36.236v3.046a1.166,1.166,0,1,0,2.332,0V36.236A10.428,10.428,0,0,1,18.948,25.82h3.094A10.428,10.428,0,0,1,32.457,36.236V55.372H8.532V44.567a1.166,1.166,0,0,0-2.332,0v11a4.218,4.218,0,0,0-2.93,4.011v1.463H2.811A2.814,2.814,0,0,0,0,63.857V68.8a2.814,2.814,0,0,0,2.811,2.811H4.819V86.28A5.579,5.579,0,0,0,1.664,91.3v2.4a1.486,1.486,0,0,0,1.485,1.485h11.04A1.486,1.486,0,0,0,15.673,93.7V91.3a5.579,5.579,0,0,0-3.155-5.02V71.613H58a1.166,1.166,0,0,0,0-2.332H2.811a.479.479,0,0,1-.479-.479V63.857a.479.479,0,0,1,.479-.479h.5a2.271,2.271,0,0,0,2.224,1.828H35.219a2.271,2.271,0,0,0,2.224-1.828h4.114a2.271,2.271,0,0,0,2.224,1.828H73.463a2.271,2.271,0,0,0,2.224-1.828h.5a.479.479,0,0,1,.479.479V68.8a.479.479,0,0,1-.479.479h-12.9a1.166,1.166,0,0,0,0,2.332h3.341V86.28a5.58,5.58,0,0,0-3.155,5.02v2.4a1.486,1.486,0,0,0,1.485,1.485H76A1.486,1.486,0,0,0,77.481,93.7V91.3a5.579,5.579,0,0,0-3.155-5.02V71.613h1.864A2.814,2.814,0,0,0,79,68.8V63.857a2.814,2.814,0,0,0-2.811-2.811ZM13.341,92.853H4V91.3a3.244,3.244,0,0,1,3.24-3.24H10.1a3.244,3.244,0,0,1,3.24,3.24v1.553ZM10.186,85.73l-.086,0H7.236l-.085,0V71.613h3.035ZM57.192,25.82h3.1A10.428,10.428,0,0,1,70.7,36.236V55.372H46.776V36.236A10.428,10.428,0,0,1,57.192,25.82ZM35.154,62.874H5.6V59.583A1.881,1.881,0,0,1,7.48,57.7h25.8a1.881,1.881,0,0,1,1.879,1.879Zm38.244,0H43.846V59.583A1.881,1.881,0,0,1,45.724,57.7h25.8A1.881,1.881,0,0,1,73.4,59.583Zm1.75,29.978H65.8V91.3a3.244,3.244,0,0,1,3.24-3.24h2.865a3.244,3.244,0,0,1,3.24,3.24v1.553ZM71.993,85.73l-.085,0H69.044l-.085,0V71.613h3.035Z" transform="translate(0 -23.488)"/>
      <path id="Path_135632" data-name="Path 135632" d="M87.8,107.25h12.5a1.166,1.166,0,0,0,0-2.332H87.8a1.166,1.166,0,0,0,0,2.332Z" transform="translate(-73.163 -92.259)"/>
      <path id="Path_135633" data-name="Path 135633" d="M87.8,147.466h12.5a1.166,1.166,0,1,0,0-2.332H87.8a1.166,1.166,0,0,0,0,2.332Z" transform="translate(-73.163 -126.223)"/>
      <path id="Path_135634" data-name="Path 135634" d="M87.8,187.681h12.5a1.166,1.166,0,1,0,0-2.332H87.8a1.166,1.166,0,1,0,0,2.332Z" transform="translate(-73.163 -160.186)"/>
      <path id="Path_135635" data-name="Path 135635" d="M333.8,107.25h12.5a1.166,1.166,0,0,0,0-2.332H333.8a1.166,1.166,0,1,0,0,2.332Z" transform="translate(-280.922 -92.259)"/>
      <path id="Path_135636" data-name="Path 135636" d="M333.8,147.466h12.5a1.166,1.166,0,0,0,0-2.332H333.8a1.166,1.166,0,1,0,0,2.332Z" transform="translate(-280.922 -126.223)"/>
      <path id="Path_135637" data-name="Path 135637" d="M333.8,187.681h12.5a1.166,1.166,0,0,0,0-2.332H333.8a1.166,1.166,0,1,0,0,2.332Z" transform="translate(-280.922 -160.186)"/>
    </g>
  </g>
</svg>
