<svg xmlns="http://www.w3.org/2000/svg" width="79" height="77.507" viewBox="0 0 79 77.507">
  <g id="t2-ic8" transform="translate(-92 -95.103)">
    <path id="Path_135694" data-name="Path 135694" d="M2.017,0h.366A2.017,2.017,0,0,1,4.4,2.017V7.986H0V2.017A2.017,2.017,0,0,1,2.017,0Z" transform="translate(104.187 101.604) rotate(45)" fill="#5038a1"/>
    <path id="Path_135695" data-name="Path 135695" d="M135.038,126.443l-.259-.259a2.017,2.017,0,0,0-2.852,0l-1.507,1.506a2.016,2.016,0,0,1,2.852,0l.259.259a2.017,2.017,0,0,1,0,2.852l1.507-1.507A2.017,2.017,0,0,0,135.038,126.443Z" transform="translate(-29.166 -23.147)" fill="#8c6df2"/>
    <path id="Path_135696" data-name="Path 135696" d="M2.017,0h.366A2.017,2.017,0,0,1,4.4,2.017V7.986H0V2.018A2.017,2.017,0,0,1,2.017,0Z" transform="translate(113.518 102.137) rotate(45)" fill="#5038a1"/>
    <path id="Path_135697" data-name="Path 135697" d="M173.787,128.658l-.259-.259a2.016,2.016,0,0,0-2.852,0l-1.507,1.507a2.016,2.016,0,0,1,2.852,0l.259.259a2.017,2.017,0,0,1,0,2.852l1.507-1.507A2.017,2.017,0,0,0,173.787,128.658Z" transform="translate(-58.582 -24.828)" fill="#8c6df2"/>
    <path id="Path_135698" data-name="Path 135698" d="M0,0H4.4V5.968A2.017,2.017,0,0,1,2.383,7.985H2.017A2.017,2.017,0,0,1,0,5.968V0Z" transform="translate(126.466 135.195) rotate(-135)" fill="#5038a1"/>
    <path id="Path_135699" data-name="Path 135699" d="M237.8,229.21l.259.259a2.017,2.017,0,0,1,0,2.852l-1.507,1.507a2.017,2.017,0,0,0,0-2.852l-.259-.259a2.016,2.016,0,0,0-2.852,0l1.507-1.507a2.017,2.017,0,0,1,2.852,0Z" transform="translate(-107.378 -101.359)" fill="#8c6df2"/>
    <path id="Path_135700" data-name="Path 135700" d="M0,0H4.4V5.969A2.017,2.017,0,0,1,2.383,7.985H2.017A2.017,2.017,0,0,1,0,5.968V0Z" transform="translate(125.934 125.861) rotate(-135)" fill="#5038a1"/>
    <path id="Path_135701" data-name="Path 135701" d="M235.59,190.461l.259.259a2.017,2.017,0,0,1,0,2.852l-1.507,1.507a2.017,2.017,0,0,0,0-2.852l-.259-.259a2.017,2.017,0,0,0-2.852,0l1.507-1.507A2.017,2.017,0,0,1,235.59,190.461Z" transform="translate(-105.697 -71.943)" fill="#8c6df2"/>
    <path id="Path_135702" data-name="Path 135702" d="M202.455,198.667l4.125-4.125-.7-23.27-9.343,9.343Z" transform="translate(-79.355 -57.824)" fill="#ffb74d"/>
    <path id="Path_135703" data-name="Path 135703" d="M100.125,142.761,96,146.886l17.894,5.872,9.3-9.3Z" transform="translate(-3.036 -36.18)" fill="#ffb74d"/>
    <path id="Path_135704" data-name="Path 135704" d="M228.078,171.273l-2.3,2.3.705,23.27,2.3-2.3Z" transform="translate(-101.558 -57.824)" fill="#ffdc72"/>
    <path id="Path_135705" data-name="Path 135705" d="M105.88,142.761l-2.3,2.3,23.067.7,2.3-2.3Z" transform="translate(-8.792 -36.18)" fill="#ffdc72"/>
    <path id="Path_135706" data-name="Path 135706" d="M111.294,207.081l-10.564,2.728-.916,3.361,7.837,1.1C106.976,211.772,108.455,209.92,111.294,207.081Z" transform="translate(-5.932 -85.008)" fill="#ffb74d"/>
    <path id="Path_135707" data-name="Path 135707" d="M150.826,233.1c-2.705,2.706-4.572,4.263-7.191,3.642l1.1,7.837,3.361-.917Z" transform="translate(-39.198 -104.76)" fill="#ffb74d"/>
    <path id="Path_135708" data-name="Path 135708" d="M109.69,209.746q.147-.033.274-.05a28.882,28.882,0,0,1,2.391-2.615l-10.564,2.728-.58,2.127Z" transform="translate(-6.992 -85.008)" fill="#ffdc72"/>
    <path id="Path_135709" data-name="Path 135709" d="M155.527,235.769l-2.189,8.476,2.126-.58,2.727-10.561a27.953,27.953,0,0,1-2.59,2.366C155.583,235.561,155.559,235.66,155.527,235.769Z" transform="translate(-46.564 -104.763)" fill="#ffdc72"/>
    <path id="Path_135710" data-name="Path 135710" d="M166.918,99.934c-1.731-1.731-5.254-1.012-10.225,3.959l-6.409,6.41-9.3,9.3-5.5,5.5c-2.839,2.839-4.318,4.691-3.643,7.191l1.358,1.359L134.566,135c2.619.62,4.486-.936,7.191-3.641l5.55-5.549,9.343-9.343,6.312-6.312C167.931,105.188,168.649,101.665,166.918,99.934Z" transform="translate(-30.128 -3.022)" fill="#fff"/>
    <path id="Path_135711" data-name="Path 135711" d="M167.084,103.385c-.491,1.784-1.933,4.042-4.612,6.72l-6.312,6.31-9.343,9.343-5.55,5.55c-2.04,2.04-3.6,3.427-5.373,3.719a3,3,0,0,1-2.6-.857l-.578-.578-.739-.739a4.167,4.167,0,0,0-.136,2.7l1.359,1.359,1.358,1.358c2.619.62,4.486-.936,7.191-3.641l5.549-5.55,9.343-9.343,6.312-6.312c4.8-4.8,5.633-8.249,4.127-10.039Z" transform="translate(-30.124 -6.287)" fill="#edebe8"/>
    <path id="Path_135712" data-name="Path 135712" d="M2.017,0h.366A2.017,2.017,0,0,1,4.4,2.017V7.985H0V2.017A2.017,2.017,0,0,1,2.017,0Z" transform="translate(158.814 166.118) rotate(-135)" fill="#ffb74d"/>
    <path id="Path_135713" data-name="Path 135713" d="M360.544,369.14l.259.259a2.017,2.017,0,0,0,2.852,0l1.507-1.507a2.016,2.016,0,0,1-2.852,0l-.259-.259a2.017,2.017,0,0,1,0-2.852l-1.507,1.507A2.017,2.017,0,0,0,360.544,369.14Z" transform="translate(-203.416 -204.725)" fill="#ffdc72"/>
    <path id="Path_135714" data-name="Path 135714" d="M2.017,0h.366A2.017,2.017,0,0,1,4.4,2.017V7.985H0V2.017A2.017,2.017,0,0,1,2.017,0Z" transform="translate(149.479 165.584) rotate(-135)" fill="#ffb74d"/>
    <path id="Path_135715" data-name="Path 135715" d="M321.8,366.925l.259.259a2.016,2.016,0,0,0,2.852,0l1.507-1.507a2.017,2.017,0,0,1-2.852,0l-.259-.259a2.017,2.017,0,0,1,0-2.852l-1.507,1.507A2.017,2.017,0,0,0,321.8,366.925Z" transform="translate(-174 -203.044)" fill="#ffdc72"/>
    <path id="Path_135716" data-name="Path 135716" d="M0,0H4.4V5.968A2.017,2.017,0,0,1,2.383,7.985H2.017A2.017,2.017,0,0,1,0,5.968V0H0Z" transform="translate(136.534 132.515) rotate(45)" fill="#ffb74d"/>
    <path id="Path_135717" data-name="Path 135717" d="M257.777,266.373l-.259-.259a2.017,2.017,0,0,1,0-2.852l1.507-1.507a2.017,2.017,0,0,0,0,2.852l.259.259a2.017,2.017,0,0,0,2.852,0l-1.507,1.507A2.017,2.017,0,0,1,257.777,266.373Z" transform="translate(-125.204 -126.513)" fill="#ffdc72"/>
    <path id="Path_135718" data-name="Path 135718" d="M0,0H4.4V5.968A2.017,2.017,0,0,1,2.383,7.985H2.017A2.017,2.017,0,0,1,0,5.968V0H0Z" transform="translate(137.068 141.846) rotate(45)" fill="#ffb74d"/>
    <path id="Path_135719" data-name="Path 135719" d="M260,305.12l-.258-.259a2.017,2.017,0,0,1,0-2.852l1.507-1.507a2.017,2.017,0,0,0,0,2.852l.259.259a2.017,2.017,0,0,0,2.852,0l-1.507,1.507A2.017,2.017,0,0,1,260,305.12Z" transform="translate(-126.889 -155.928)" fill="#ffdc72"/>
    <path id="Path_135720" data-name="Path 135720" d="M277.875,226.989l-4.125,4.125.7,23.27,9.343-9.343Z" transform="translate(-137.975 -100.121)" fill="#5038a1"/>
    <path id="Path_135721" data-name="Path 135721" d="M326.172,337.732l4.125-4.125L312.4,327.736l-9.3,9.3Z" transform="translate(-160.259 -176.603)" fill="#5038a1"/>
    <path id="Path_135722" data-name="Path 135722" d="M274.455,260.139l2.3-2.3-.705-23.27-2.3,2.3Z" transform="translate(-137.975 -105.877)" fill="#8c6df2"/>
    <path id="Path_135723" data-name="Path 135723" d="M326.172,359.791l2.3-2.3-23.067-.7-2.3,2.3Z" transform="translate(-160.259 -198.662)" fill="#8c6df2"/>
    <path id="Path_135724" data-name="Path 135724" d="M364.522,282.252l10.564-2.728.916-3.361-7.837-1.1C368.841,277.562,367.361,279.414,364.522,282.252Z" transform="translate(-206.884 -136.615)" fill="#5038a1"/>
    <path id="Path_135725" data-name="Path 135725" d="M338.509,242.722c2.705-2.705,4.572-4.261,7.191-3.641l-1.1-7.837-3.361.917Z" transform="translate(-187.136 -103.351)" fill="#5038a1"/>
    <path id="Path_135726" data-name="Path 135726" d="M367.187,286.953q-.147.033-.274.05a28.88,28.88,0,0,1-2.391,2.615l10.564-2.728.58-2.127Z" transform="translate(-206.884 -143.981)" fill="#8c6df2"/>
    <path id="Path_135727" data-name="Path 135727" d="M341.174,241.114l2.189-8.476-2.126.58-2.727,10.562a27.945,27.945,0,0,1,2.59-2.366C341.117,241.322,341.142,241.223,341.174,241.114Z" transform="translate(-187.136 -104.409)" fill="#8c6df2"/>
    <path id="Path_135728" data-name="Path 135728" d="M231.356,298.422c1.731,1.731,5.254,1.012,10.225-3.959l6.41-6.41,9.3-9.3,5.5-5.5c2.839-2.839,4.319-4.691,3.643-7.191l-1.36-1.359-1.358-1.358c-2.619-.62-4.486.936-7.191,3.641l-5.549,5.549-9.343,9.343-6.312,6.312c-4.97,4.971-5.688,8.494-3.958,10.225Z" transform="translate(-105.146 -127.623)" fill="#fff"/>
    <path id="Path_135729" data-name="Path 135729" d="M231.188,298.236c.491-1.784,1.933-4.042,4.612-6.72l6.312-6.31,9.343-9.343L257,270.314c2.041-2.041,3.6-3.427,5.373-3.719a3,3,0,0,1,2.6.857l.578.578.739.739a4.167,4.167,0,0,0,.136-2.7l-1.359-1.359-1.358-1.358c-2.619-.62-4.486.936-7.191,3.641l-5.549,5.549-9.343,9.343-6.312,6.312c-4.8,4.8-5.633,8.249-4.127,10.039Z" transform="translate(-105.148 -127.623)" fill="#edebe8"/>
    <g id="Group_92380" data-name="Group 92380" transform="translate(92 95.103)">
      <path id="Path_135730" data-name="Path 135730" d="M128.188,136.689l-.055-1.811,3.234-3.234a2.984,2.984,0,0,0,0-4.215l-.259-.259a2.983,2.983,0,0,0-3.227-.655l-.037-1.214,2.991-2.99a2.98,2.98,0,0,0,0-4.215l-.259-.259a2.987,2.987,0,0,0-2.981-.743l-.1-3.259,6.016-6.016a18.81,18.81,0,0,0,4.724-6.7c.676-1.987.4-3.721-.765-4.889s-2.9-1.44-4.889-.765a18.8,18.8,0,0,0-6.7,4.723l-6.115,6.115-3.167-.1a2.972,2.972,0,0,0-.715-3.06l-.259-.259a2.98,2.98,0,0,0-4.215,0l-3.069,3.069-1.171-.035a2.977,2.977,0,0,0-.619-3.308l-.259-.259a2.984,2.984,0,0,0-4.215,0l-3.311,3.313-1.65-.05a.965.965,0,0,0-.71.282l-4.126,4.125a.963.963,0,0,0,.381,1.6l16.4,5.383-4.2,4.2-10.309,2.662a.963.963,0,0,0-.689.679l-.917,3.361a.963.963,0,0,0,.795,1.207l7.518,1.058,2.261,2.261,1.058,7.518a.963.963,0,0,0,1.208.795l3.361-.917a.963.963,0,0,0,.679-.689l2.662-10.307,4.255-4.255,5.435,16.563a.963.963,0,0,0,1.6.381l4.125-4.125a.963.963,0,0,0,.282-.71Zm-15.413-32.437a1.053,1.053,0,0,1,1.489,0l.259.259a1.053,1.053,0,0,1,0,1.49l-.141.141-3.394-.1Zm-9.333-.533a1.055,1.055,0,0,1,1.49,0l.259.259a1.053,1.053,0,0,1,0,1.49l-.385.384-3.395-.1Zm-5.967,3.838,20.422.619-7.3,7.3-15.842-5.2Zm30.781,20.976a1.054,1.054,0,0,1,1.49,0l.259.259a1.055,1.055,0,0,1,0,1.49l-1.951,1.951-.1-3.395Zm-.533-9.333a1.053,1.053,0,0,1,1.489,0l.259.259a1.054,1.054,0,0,1,0,1.49l-1.708,1.708-.1-3.395Zm-.476-17.649A17.279,17.279,0,0,1,133.2,97.29c1.29-.438,2.266-.337,2.906.3s.741,1.617.3,2.906a17.279,17.279,0,0,1-4.262,5.957l-21.2,21.2c-2.66,2.66-4.138,3.767-6.032,3.437l-2.321-2.321c-.375-1.83.743-3.314,3.45-6.021ZM95.581,125.594l6.843-1.767a6.741,6.741,0,0,0-1.83,4.306l-5.493-.773Zm12.527,12.526-1.767.482-.777-5.519a6.831,6.831,0,0,0,4.311-1.813Zm15.42.934-5.251-16,5.381-5.381,1.966-1.966.626,20.624Z" transform="translate(-92 -95.103)" fill="#17171d"/>
      <path id="Path_135731" data-name="Path 135731" d="M251.228,109.548a2.842,2.842,0,0,1,1.277-.67,1.044,1.044,0,0,1,.783.019c.054.054.129.316.019.783a2.844,2.844,0,0,1-.67,1.277A.963.963,0,1,0,254,112.32a4.764,4.764,0,0,0,1.184-2.2A2.4,2.4,0,0,0,252.065,107a4.758,4.758,0,0,0-2.2,1.184.963.963,0,0,0,1.363,1.362Z" transform="translate(-211.629 -104.053)" fill="#17171d"/>
      <path id="Path_135732" data-name="Path 135732" d="M273.1,253.866a.963.963,0,0,0-.637-.692l-16.4-5.383,4.2-4.2,10.309-2.662a.963.963,0,0,0,.689-.679l.917-3.361a.963.963,0,0,0-.795-1.207l-7.518-1.058-2.261-2.261-1.058-7.518a.963.963,0,0,0-1.208-.795l-3.361.917a.963.963,0,0,0-.679.689l-2.662,10.306-4.255,4.255-5.435-16.562a.963.963,0,0,0-1.6-.381l-4.125,4.125a.963.963,0,0,0-.282.71l.055,1.811-3.234,3.234a2.984,2.984,0,0,0,0,4.215l.259.259a2.983,2.983,0,0,0,3.227.655l.037,1.213-2.989,2.99a2.98,2.98,0,0,0,0,4.215l.259.259a2.986,2.986,0,0,0,2.981.743l.1,3.259-6.017,6.016a18.81,18.81,0,0,0-4.724,6.7c-.676,1.987-.4,3.721.765,4.889a3.919,3.919,0,0,0,2.857,1.129,6.341,6.341,0,0,0,2.032-.363,18.811,18.811,0,0,0,6.7-4.723l6.116-6.116,3.167.1a2.972,2.972,0,0,0,.715,3.06l.259.259a2.98,2.98,0,0,0,4.215,0l3.069-3.069,1.171.035a2.977,2.977,0,0,0,.619,3.308l.259.259a2.984,2.984,0,0,0,4.215,0l3.312-3.312,1.65.05h.029a.963.963,0,0,0,.681-.282l4.125-4.125a.963.963,0,0,0,.255-.9ZM269.541,239.2l-6.843,1.767a6.741,6.741,0,0,0,1.831-4.306l5.493.773Zm-12.527-12.526,1.767-.482.777,5.52a6.828,6.828,0,0,0-4.311,1.809Zm-20.148,9.588a1.054,1.054,0,0,1-1.49,0l-.259-.259a1.055,1.055,0,0,1,0-1.49l1.951-1.951.1,3.395Zm.533,9.333a1.053,1.053,0,0,1-1.489,0l-.259-.259a1.054,1.054,0,0,1,0-1.49l1.708-1.709.1,3.4Zm1.473-17.131,2.722-2.722,5.251,16-5.381,5.381-1.966,1.966Zm-1,34.779a17.279,17.279,0,0,1-5.957,4.262c-1.289.438-2.266.337-2.906-.3s-.741-1.617-.3-2.906a17.279,17.279,0,0,1,4.262-5.957l21.2-21.2c2.356-2.356,3.784-3.494,5.4-3.494a3.7,3.7,0,0,1,.636.057l2.321,2.321c.375,1.83-.743,3.314-3.45,6.021Zm14.471-2.7a1.053,1.053,0,0,1-1.489,0l-.259-.259a1.053,1.053,0,0,1,0-1.49l.141-.141,3.394.1Zm9.333.533a1.055,1.055,0,0,1-1.49,0l-.259-.259a1.053,1.053,0,0,1,0-1.49l.385-.385,3.4.1Zm5.967-3.838-20.422-.619,7.3-7.3,15.842,5.2Z" transform="translate(-194.122 -192.187)" fill="#17171d"/>
      <path id="Path_135733" data-name="Path 135733" d="M242.778,384.458a2.842,2.842,0,0,1-1.277.67,1.045,1.045,0,0,1-.783-.019c-.054-.054-.129-.316-.019-.783a2.842,2.842,0,0,1,.67-1.277.963.963,0,1,0-1.362-1.363,4.764,4.764,0,0,0-1.184,2.2,2.669,2.669,0,0,0,.533,2.586,2.333,2.333,0,0,0,1.7.641,3.894,3.894,0,0,0,.886-.108,4.758,4.758,0,0,0,2.2-1.184.963.963,0,1,0-1.363-1.362Z" transform="translate(-203.378 -312.448)" fill="#17171d"/>
      <path id="Path_135734" data-name="Path 135734" d="M319.7,124.053a9.265,9.265,0,0,1,6.543-2.681h.074A9.325,9.325,0,0,1,333,137.124l-.434-3.744a.963.963,0,1,0-1.914.223l.7,6.039a.963.963,0,0,0,1.127.837l5.762-1.033a.963.963,0,0,0-.34-1.9l-3.209.575a11.253,11.253,0,0,0-8.367-18.679h-.089a11.18,11.18,0,0,0-7.894,3.235.963.963,0,1,0,1.352,1.373Z" transform="translate(-263.612 -113.582)" fill="#17171d"/>
      <path id="Path_135735" data-name="Path 135735" d="M134.619,334.435A9.326,9.326,0,1,1,122.2,320.52l.19,3.765a.963.963,0,0,0,.961.915h.048a.963.963,0,0,0,.915-1.01l-.305-6.074a.963.963,0,0,0-1.07-.909l-5.818.653a.964.964,0,1,0,.215,1.915l3.239-.364A11.252,11.252,0,0,0,127.7,338.6q.423.031.842.031a11.171,11.171,0,0,0,7.336-2.736.963.963,0,1,0-1.259-1.459Z" transform="translate(-110.421 -263.707)" fill="#17171d"/>
    </g>
  </g>
</svg>
