<svg id="t2-ic5" xmlns="http://www.w3.org/2000/svg" width="79" height="79" viewBox="0 0 79 79">
  <circle id="Ellipse_4340" data-name="Ellipse 4340" cx="38.343" cy="38.343" r="38.343" transform="translate(1.157 1.157)" fill="#ffdc72"/>
  <path id="Path_135601" data-name="Path 135601" d="M244.817,7.5q-1.027,0-2.04.054a38.343,38.343,0,0,1,0,76.577q1.014.053,2.04.054a38.343,38.343,0,1,0,0-76.686Z" transform="translate(-205.317 -6.343)" fill="#ffb74d"/>
  <circle id="Ellipse_4341" data-name="Ellipse 4341" cx="29.879" cy="29.879" r="29.879" transform="translate(9.621 9.621)" fill="#f4fbff"/>
  <path id="Path_135602" data-name="Path 135602" d="M242.533,62.357c-.827,0-1.647.035-2.457.1a29.878,29.878,0,0,1,0,59.555c.811.066,1.63.1,2.457.1a29.879,29.879,0,1,0,0-59.757Z" transform="translate(-203.033 -52.736)" fill="#daf1f4"/>
  <circle id="Ellipse_4342" data-name="Ellipse 4342" cx="3.089" cy="3.089" r="3.089" transform="translate(36.411 36.411)" fill="#8c6df2"/>
  <g id="Group_92361" data-name="Group 92361" transform="translate(0)">
    <path id="Path_135603" data-name="Path 135603" d="M249.657,99.962a1.157,1.157,0,0,0,1.157-1.157v-1.7a1.157,1.157,0,0,0-2.314,0v1.7A1.157,1.157,0,0,0,249.657,99.962Z" transform="translate(-210.157 -81.144)"/>
    <path id="Path_135604" data-name="Path 135604" d="M351.356,141.138a1.157,1.157,0,0,0-1.636,0l-1.2,1.2a1.157,1.157,0,0,0,1.636,1.637l1.2-1.2A1.158,1.158,0,0,0,351.356,141.138Z" transform="translate(-294.456 -119.074)"/>
    <path id="Path_135605" data-name="Path 135605" d="M390.385,248.5a1.157,1.157,0,0,0,0,2.314h1.7a1.157,1.157,0,1,0,0-2.314Z" transform="translate(-329.171 -210.158)"/>
    <path id="Path_135606" data-name="Path 135606" d="M349.577,348.519a1.157,1.157,0,1,0-1.637,1.637l1.2,1.2a1.157,1.157,0,1,0,1.637-1.637Z" transform="translate(-293.967 -294.457)"/>
    <path id="Path_135607" data-name="Path 135607" d="M247.683,390.386v1.7a1.157,1.157,0,1,0,2.314,0v-1.7a1.157,1.157,0,0,0-2.314,0Z" transform="translate(-209.466 -329.172)"/>
    <path id="Path_135608" data-name="Path 135608" d="M141.76,347.941l-1.2,1.2a1.157,1.157,0,0,0,1.636,1.637l1.2-1.2a1.157,1.157,0,0,0-1.636-1.637Z" transform="translate(-118.585 -293.969)"/>
    <path id="Path_135609" data-name="Path 135609" d="M97.105,247.684a1.157,1.157,0,0,0,0,2.314h1.7a1.157,1.157,0,0,0,0-2.314Z" transform="translate(-81.144 -209.467)"/>
    <path id="Path_135610" data-name="Path 135610" d="M143.975,141.762l-1.2-1.2a1.157,1.157,0,1,0-1.637,1.637l1.2,1.2a1.157,1.157,0,0,0,1.637-1.636Z" transform="translate(-119.074 -118.586)"/>
    <path id="Path_135611" data-name="Path 135611" d="M198.89,165.515l8.243,4.239a1.157,1.157,0,0,0,1.058-2.058l-8.24-4.237a4.246,4.246,0,0,0-3-4.923v-11.8a1.157,1.157,0,0,0-2.314,0v11.8a4.261,4.261,0,0,0-2.927,2.927h-5.744a1.157,1.157,0,0,0,0,2.314h5.744a4.242,4.242,0,0,0,7.185,1.739Zm-3.1-.964a1.931,1.931,0,1,1,1.931-1.931A1.934,1.934,0,0,1,195.789,164.551Z" transform="translate(-156.289 -123.119)"/>
    <path id="Path_135612" data-name="Path 135612" d="M115.771,84.733a1.157,1.157,0,0,0,1.066-1.242,31.037,31.037,0,1,0,0,4.8,1.157,1.157,0,0,0-2.308-.177,28.719,28.719,0,1,1,0-4.45,1.156,1.156,0,0,0,1.242,1.065Z" transform="translate(-46.393 -46.393)"/>
    <path id="Path_135613" data-name="Path 135613" d="M164.254,11.569a39.512,39.512,0,0,0-49.233-5.338,1.157,1.157,0,0,0,1.25,1.948,37.18,37.18,0,1,1,9.256,66.913,1.157,1.157,0,0,0-.671,2.215,39.5,39.5,0,0,0,39.4-65.738Z" transform="translate(-96.823)"/>
    <path id="Path_135614" data-name="Path 135614" d="M24.5,121.636A37.193,37.193,0,0,1,15.823,58.93a1.157,1.157,0,0,0-1.475-1.784,39.508,39.508,0,0,0,9.212,66.607,1.157,1.157,0,0,0,.935-2.117Z" transform="translate(0 -48.105)"/>
  </g>
</svg>
