<svg xmlns="http://www.w3.org/2000/svg" xmlns:xlink="http://www.w3.org/1999/xlink" width="295" height="490" viewBox="0 0 295 490">
  <defs>
    <clipPath id="clip-path">
      <rect id="Rectangle_7704" data-name="Rectangle 7704" width="295" height="490" transform="translate(285 3552)" fill="#ffdc72"/>
    </clipPath>
  </defs>
  <g id="t1-i11" transform="translate(-285 -3552)" clip-path="url(#clip-path)">
    <g id="Group_92092" data-name="Group 92092" transform="translate(-428.152 2807.396)">
      <g id="freepik--background-complete--inject-49">
        <rect id="Rectangle_31837" data-name="Rectangle 31837" width="500" height="0.25" transform="translate(615.153 1131.53)" fill="#ebebeb"/>
        <rect id="Rectangle_31838" data-name="Rectangle 31838" width="33.12" height="0.25" transform="translate(1031.933 1147.62)" fill="#ebebeb"/>
        <rect id="Rectangle_31839" data-name="Rectangle 31839" width="8.69" height="0.25" transform="translate(937.683 1150.34)" fill="#ebebeb"/>
        <rect id="Rectangle_31840" data-name="Rectangle 31840" width="19.19" height="0.25" transform="translate(1011.743 1138.34)" fill="#ebebeb"/>
        <rect id="Rectangle_31841" data-name="Rectangle 31841" width="43.19" height="0.25" transform="translate(667.613 1140.02)" fill="#ebebeb"/>
        <rect id="Rectangle_31842" data-name="Rectangle 31842" width="6.33" height="0.25" transform="translate(719.713 1140.02)" fill="#ebebeb"/>
        <rect id="Rectangle_31843" data-name="Rectangle 31843" width="93.68" height="0.25" transform="translate(746.623 1144.24)" fill="#ebebeb"/>
        <rect id="Rectangle_31844" data-name="Rectangle 31844" width="500" height="0.25" transform="translate(615.153 1198.295)" fill="#ebebeb"/>
        <rect id="Rectangle_31845" data-name="Rectangle 31845" width="33.12" height="0.25" transform="translate(665.253 1214.385)" fill="#ebebeb"/>
        <rect id="Rectangle_31846" data-name="Rectangle 31846" width="8.69" height="0.25" transform="translate(783.933 1217.105)" fill="#ebebeb"/>
        <rect id="Rectangle_31847" data-name="Rectangle 31847" width="19.19" height="0.25" transform="translate(699.373 1205.105)" fill="#ebebeb"/>
        <rect id="Rectangle_31848" data-name="Rectangle 31848" width="43.19" height="0.25" transform="translate(1019.503 1206.786)" fill="#ebebeb"/>
        <rect id="Rectangle_31849" data-name="Rectangle 31849" width="6.33" height="0.25" transform="translate(1004.263 1206.786)" fill="#ebebeb"/>
        <rect id="Rectangle_31850" data-name="Rectangle 31850" width="93.68" height="0.25" transform="translate(890.003 1211.005)" fill="#ebebeb"/>
        <path id="Path_134319" data-name="Path 134319" d="M852.153,1086.93H659.063a5.711,5.711,0,0,1-5.7-5.71V769.765a5.709,5.709,0,0,1,5.7-5.66h193.09a5.71,5.71,0,0,1,5.71,5.71h0v311.4A5.711,5.711,0,0,1,852.153,1086.93ZM659.063,764.3a5.459,5.459,0,0,0-5.45,5.46V1081.22a5.461,5.461,0,0,0,5.45,5.46h193.09a5.471,5.471,0,0,0,5.46-5.46V769.765a5.47,5.47,0,0,0-5.46-5.46Z" fill="#ebebeb"/>
        <path id="Path_134320" data-name="Path 134320" d="M1068.463,1086.93h-193.1a5.72,5.72,0,0,1-5.71-5.71V769.765a5.72,5.72,0,0,1,5.71-5.66h193.1a5.709,5.709,0,0,1,5.69,5.66V1081.22A5.71,5.71,0,0,1,1068.463,1086.93ZM875.363,764.3a5.469,5.469,0,0,0-5.46,5.46V1081.22a5.47,5.47,0,0,0,5.46,5.46h193.1a5.471,5.471,0,0,0,5.46-5.46V769.765a5.47,5.47,0,0,0-5.46-5.46Z" fill="#ebebeb"/>
        <path id="Path_134321" data-name="Path 134321" d="M946.153,799.445H690.343l16.68,36.57a11.762,11.762,0,0,0,10.54,7.2h293.3a11.743,11.743,0,0,0,10.53-7.2l16.69-36.57Z" fill="#ebebeb"/>
        <path id="Path_134322" data-name="Path 134322" d="M1038.073,799.445l-16.67,36.57a11.751,11.751,0,0,1-10.54,7.2h-37.49a11.732,11.732,0,0,1-10.53-7.19l-16.69-36.58Z" fill="#e0e0e0"/>
        <path id="Path_134323" data-name="Path 134323" d="M949.093,836.485H842.383a6.34,6.34,0,0,1-5.16-3.57l-10.56-23.17c-.91-2-.06-3.58,1.89-3.58h106.71a6.319,6.319,0,0,1,5.16,3.58l10.57,23.17C951.893,834.885,951.043,836.485,949.093,836.485Z" fill="#e0e0e0"/>
        <path id="Path_134324" data-name="Path 134324" d="M901.153,832.985h-14a4,4,0,0,1-3.29-2.29h0c-.58-1.26,0-2.28,1.21-2.28h14a4,4,0,0,1,3.29,2.28h0C902.913,831.955,902.363,832.985,901.153,832.985Z" fill="#f0f0f0"/>
        <path id="Path_134325" data-name="Path 134325" d="M826.763,836.485H720.053a6.333,6.333,0,0,1-5.16-3.57l-10.57-23.17c-.9-2,0-3.58,1.89-3.58h106.71a6.319,6.319,0,0,1,5.16,3.58l10.57,23.17C829.553,834.885,828.7,836.485,826.763,836.485Z" fill="#e0e0e0"/>
        <path id="Path_134326" data-name="Path 134326" d="M778.793,832.985h-14a4.061,4.061,0,0,1-3.3-2.29h0c-.57-1.26,0-2.28,1.21-2.28h14a4.058,4.058,0,0,1,3.3,2.28h0C780.573,831.955,780.033,832.985,778.793,832.985Z" fill="#f0f0f0"/>
        <path id="Path_134327" data-name="Path 134327" d="M682.993,796.415h360.26v3.62a2.7,2.7,0,0,1-2.7,2.7H685.683a2.7,2.7,0,0,1-2.7-2.7v-3.62Z" fill="#f5f5f5"/>
        <rect id="Rectangle_31851" data-name="Rectangle 31851" width="32.04" height="34.71" rx="2.91" transform="translate(972.717 1046.87)" fill="#e6e6e6"/>
        <path id="Path_134328" data-name="Path 134328" d="M985.147,1055.92c0,2.55-1.76,4.61-3.94,4.61s-3.94-2.06-3.94-4.61,1.76-4.61,3.94-4.61S985.147,1053.38,985.147,1055.92Z" fill="#f0f0f0"/>
        <rect id="Rectangle_31852" data-name="Rectangle 31852" width="0.73" height="2.63" transform="translate(979.677 1054.61)" fill="#e0e0e0"/>
        <rect id="Rectangle_31853" data-name="Rectangle 31853" width="0.73" height="2.63" transform="translate(982.007 1054.61)" fill="#e0e0e0"/>
        <path id="Path_134329" data-name="Path 134329" d="M999.957,1055.92c0,2.55-1.76,4.61-3.94,4.61s-3.94-2.06-3.94-4.61,1.77-4.61,3.94-4.61S999.957,1053.38,999.957,1055.92Z" fill="#f0f0f0"/>
        <rect id="Rectangle_31854" data-name="Rectangle 31854" width="0.73" height="2.63" transform="translate(994.487 1054.61)" fill="#e0e0e0"/>
        <rect id="Rectangle_31855" data-name="Rectangle 31855" width="0.73" height="2.63" transform="translate(996.817 1054.61)" fill="#e0e0e0"/>
        <path id="Path_134330" data-name="Path 134330" d="M985.147,1072.35c0,2.55-1.76,4.61-3.94,4.61s-3.94-2.06-3.94-4.61,1.76-4.61,3.94-4.61S985.147,1069.81,985.147,1072.35Z" fill="#f0f0f0"/>
        <rect id="Rectangle_31856" data-name="Rectangle 31856" width="0.73" height="2.63" transform="translate(979.677 1071.04)" fill="#e0e0e0"/>
        <rect id="Rectangle_31857" data-name="Rectangle 31857" width="0.73" height="2.63" transform="translate(982.007 1071.04)" fill="#e0e0e0"/>
        <path id="Path_134331" data-name="Path 134331" d="M999.957,1072.35c0,2.55-1.76,4.61-3.94,4.61s-3.94-2.06-3.94-4.61,1.77-4.61,3.94-4.61S999.957,1069.81,999.957,1072.35Z" fill="#f0f0f0"/>
        <rect id="Rectangle_31858" data-name="Rectangle 31858" width="0.73" height="2.63" transform="translate(994.487 1071.04)" fill="#e0e0e0"/>
        <rect id="Rectangle_31859" data-name="Rectangle 31859" width="0.73" height="2.63" transform="translate(996.817 1071.04)" fill="#e0e0e0"/>
      </g>
      <g id="freepik--Shadow--inject-49">
        <ellipse id="freepik--path--inject-49" cx="193.89" cy="11.32" rx="193.89" ry="11.32" transform="translate(671.263 1159.053)" fill="#f5f5f5"/>
      </g>
      <g id="freepik--Windows--inject-49">
        <rect id="Rectangle_31860" data-name="Rectangle 31860" width="96.38" height="167.475" rx="34" transform="translate(897.723 866.345)" fill="#5038a1"/>
        <rect id="Rectangle_31861" data-name="Rectangle 31861" width="96.38" height="167.475" rx="34" transform="translate(897.723 866.345)" fill="#fff" opacity="0.8" style="isolation: isolate"/>
        <rect id="Rectangle_31862" data-name="Rectangle 31862" width="79.74" height="149.155" rx="29.78" transform="translate(906.043 879.955)" opacity="0.1" style="isolation: isolate"/>
        <rect id="Rectangle_31863" data-name="Rectangle 31863" width="75.74" height="145.155" rx="27.78" transform="translate(908.033 881.955)" fill="#ffb74d"/>
        <path id="Path_134332" data-name="Path 134332" d="M983.783,909.735v89.6a27.791,27.791,0,0,1-27.78,27.8h-20.18a27.8,27.8,0,0,1-27.79-27.78V909.735a27.79,27.79,0,0,1,27.79-27.78h20.17a27.78,27.78,0,0,1,27.72,25.87C983.763,908.455,983.783,909.1,983.783,909.735Z" fill="#fff" opacity="0.5" style="isolation: isolate"/>
        <path id="Path_134333" data-name="Path 134333" d="M974.943,886.925c6.86,7.08,7.09,13.1,7.09,13.1-4.91-8.82-9.07-10.69-9.07-10.69h-54.72c-6,4-9.23,13.28-9.43,13.86,1.52-8.51,7.45-16.27,7.45-16.27h-12.48a31,31,0,0,1,27.93-17.57h28.44a31,31,0,0,1,27.93,17.58Z" opacity="0.1" style="isolation: isolate"/>
        <path id="Path_134334" data-name="Path 134334" d="M987.153,885.225h-82.49a31,31,0,0,1,27.05-15.88h28.44A31,31,0,0,1,987.153,885.225Z" fill="#5038a1"/>
        <path id="Path_134335" data-name="Path 134335" d="M987.153,885.225h-82.49a31,31,0,0,1,27.05-15.88h28.44A31,31,0,0,1,987.153,885.225Z" fill="#fff" opacity="0.8" style="isolation: isolate"/>
        <path id="Path_134336" data-name="Path 134336" d="M933.943,880.1h0a2.791,2.791,0,0,0,2.78,2.8h15.89a2.791,2.791,0,0,0,2.79-2.79v-.01h0a2.79,2.79,0,0,0-2.79-2.79h-15.88A2.79,2.79,0,0,0,933.943,880.1Z" opacity="0.1" style="isolation: isolate"/>
        <path id="Path_134337" data-name="Path 134337" d="M952.283,882.875h-15.23a1.78,1.78,0,0,1-1.78-1.78h0a1.78,1.78,0,0,1,1.78-1.78h15.23a1.78,1.78,0,0,1,1.78,1.78h0A1.78,1.78,0,0,1,952.283,882.875Z" fill="#fff" opacity="0.7" style="isolation: isolate"/>
        <path id="Path_134338" data-name="Path 134338" d="M960.153,869.345h-28.44a31,31,0,0,0-31,31V999.82a31,31,0,0,0,31,31h28.44a31,31,0,0,0,31-31V900.345A31,31,0,0,0,960.153,869.345Zm28,132.275a28,28,0,0,1-28,28h-28.44a28,28,0,0,1-28-28V902.1a28,28,0,0,1,28-28h28.44a28,28,0,0,1,28,28Z" opacity="0.1" style="isolation: isolate"/>
        <path id="Path_134339" data-name="Path 134339" d="M983.783,919.741v22.5h-30.91a10.41,10.41,0,1,1-.645-20.81q.322-.011.645,0h.18a11.28,11.28,0,0,1,20.92-5.71,13.3,13.3,0,0,1,2.39-.22,12.76,12.76,0,0,1,7.35,2.31C983.763,918.461,983.783,919.111,983.783,919.741Z" fill="#f0f0f0"/>
        <path id="Path_134340" data-name="Path 134340" d="M941.213,1008.57a6.1,6.1,0,0,1-5.91,6.09h-22.65a27.579,27.579,0,0,1-4.62-15.33V982.76a5.04,5.04,0,0,1,.55,0,11.258,11.258,0,0,1,9.63,5.43,13.29,13.29,0,0,1,2.38-.23,12.91,12.91,0,0,1,12.91,12.91v.01a12.723,12.723,0,0,1-.13,1.86,6.241,6.241,0,0,1,1.75-.25A6.1,6.1,0,0,1,941.213,1008.57Z" fill="#f0f0f0"/>
        <rect id="Rectangle_31864" data-name="Rectangle 31864" width="96.38" height="167.475" rx="34" transform="translate(745.713 866.345)" fill="#5038a1"/>
        <rect id="Rectangle_31865" data-name="Rectangle 31865" width="96.38" height="167.475" rx="34" transform="translate(745.713 866.345)" fill="#fff" opacity="0.8" style="isolation: isolate"/>
        <rect id="Rectangle_31866" data-name="Rectangle 31866" width="79.74" height="149.155" rx="29.78" transform="translate(754.033 879.955)" opacity="0.1" style="isolation: isolate"/>
        <rect id="Rectangle_31867" data-name="Rectangle 31867" width="75.74" height="145.155" rx="27.78" transform="translate(756.023 881.955)" fill="#ffb74d"/>
        <path id="Path_134341" data-name="Path 134341" d="M831.773,909.735v89.6a27.791,27.791,0,0,1-27.78,27.8h-20.18a27.8,27.8,0,0,1-27.79-27.78V909.735a27.79,27.79,0,0,1,27.79-27.78h20.17a27.78,27.78,0,0,1,27.72,25.87C831.753,908.455,831.773,909.1,831.773,909.735Z" fill="#fff" opacity="0.5" style="isolation: isolate"/>
        <path id="Path_134342" data-name="Path 134342" d="M822.933,886.925c6.86,7.08,7.09,13.1,7.09,13.1-4.91-8.82-9.07-10.69-9.07-10.69h-54.72c-6,4-9.23,13.28-9.43,13.86,1.52-8.51,7.45-16.27,7.45-16.27h-12.48a31,31,0,0,1,27.93-17.57h28.39a31,31,0,0,1,27.93,17.58Z" opacity="0.1" style="isolation: isolate"/>
        <path id="Path_134343" data-name="Path 134343" d="M835.153,885.225h-82.5a31,31,0,0,1,27.05-15.88h28.39A31,31,0,0,1,835.153,885.225Z" fill="#5038a1"/>
        <path id="Path_134344" data-name="Path 134344" d="M835.153,885.225h-82.5a31,31,0,0,1,27.05-15.88h28.39A31,31,0,0,1,835.153,885.225Z" fill="#fff" opacity="0.8" style="isolation: isolate"/>
        <path id="Path_134345" data-name="Path 134345" d="M781.933,880.1h0a2.791,2.791,0,0,0,2.78,2.8H800.6a2.79,2.79,0,0,0,2.79-2.79v-.01h0a2.79,2.79,0,0,0-2.79-2.79h-15.88a2.79,2.79,0,0,0-2.79,2.79Z" opacity="0.1" style="isolation: isolate"/>
        <path id="Path_134346" data-name="Path 134346" d="M800.273,882.875h-15.23a1.78,1.78,0,0,1-1.78-1.78h0a1.78,1.78,0,0,1,1.78-1.78h15.23a1.79,1.79,0,0,1,1.79,1.78h0A1.791,1.791,0,0,1,800.273,882.875Z" fill="#fff" opacity="0.7" style="isolation: isolate"/>
        <path id="Path_134347" data-name="Path 134347" d="M808.093,869.345H779.7a31,31,0,0,0-31,31V999.82a31,31,0,0,0,31,31h28.39a31,31,0,0,0,31-31V900.345A31,31,0,0,0,808.093,869.345Zm28,132.275a28,28,0,0,1-28,28H779.7a28,28,0,0,1-28-28V902.1a28,28,0,0,1,28-28h28.39a28,28,0,0,1,28,28Z" opacity="0.1" style="isolation: isolate"/>
        <path id="Path_134348" data-name="Path 134348" d="M800.433,934.391a4.34,4.34,0,0,0-4.34-4.34,4.231,4.231,0,0,0-1.24.18,9.717,9.717,0,0,0,.1-1.33,9.19,9.19,0,0,0-9.19-9.19h0a8.662,8.662,0,0,0-1.7.16,8,8,0,0,0-14.91,4.06h-.13a7.41,7.41,0,0,0-.545,14.81c.182.007.363.007.545,0H796.2A4.331,4.331,0,0,0,800.433,934.391Z" fill="#f0f0f0"/>
        <path id="Path_134349" data-name="Path 134349" d="M821.913,972.981a2.41,2.41,0,0,0-2.4-2.4,2.592,2.592,0,0,0-.69.1,5.909,5.909,0,0,0,.05-.74,5.08,5.08,0,0,0-5.08-5.08h0a4.775,4.775,0,0,0-.94.09,4.44,4.44,0,0,0-8.24,2.24h-.08a4.1,4.1,0,1,0-.405,8.19,3.9,3.9,0,0,0,.405,0h15.05A2.4,2.4,0,0,0,821.913,972.981Z" fill="#f0f0f0"/>
      </g>
      <g id="freepik--Character--inject-49">
        <path id="Path_134350" data-name="Path 134350" d="M955.8,1088.57h-26.81l-6.45-47.56a5.939,5.939,0,0,0-5.78-4.58h-6.2a5.94,5.94,0,0,0-5.94,5.94h0v54.08a7.88,7.88,0,0,0,7.88,7.88h43.3a7.88,7.88,0,0,0,0-15.76Z" fill="#5038a1"/>
        <path id="Path_134351" data-name="Path 134351" d="M955.8,1088.57h-26.81l-6.45-47.56a5.939,5.939,0,0,0-5.78-4.58h-6.2a5.94,5.94,0,0,0-5.94,5.94h0v54.08a7.88,7.88,0,0,0,7.88,7.88h43.3a7.88,7.88,0,0,0,0-15.76Z" fill="#fff" opacity="0.5" style="isolation: isolate"/>
        <path id="Path_134352" data-name="Path 134352" d="M949.589,1088.57h-26.8l-6.45-47.56a6,6,0,0,0-5.78-4.58h0a5.94,5.94,0,0,0-5.94,5.94h0v54.08a7.88,7.88,0,0,0,7.88,7.88h37.09a7.88,7.88,0,0,0,0-15.76Z" opacity="0.2" style="isolation: isolate"/>
        <path id="Path_134353" data-name="Path 134353" d="M919.489,1046.64h46.44a1.46,1.46,0,0,1,1.22,2.27l-2.15,3.3a3.651,3.651,0,0,1-3.06,1.66h-41.58Z" fill="#5038a1"/>
        <path id="Path_134354" data-name="Path 134354" d="M967.159,1048.91l-2.15,3.3a3.661,3.661,0,0,1-3.06,1.65h-41.59l-.88-7.22h46.45a1.46,1.46,0,0,1,1.23,2.27Z" fill="#fff" opacity="0.5" style="isolation: isolate"/>
        <path id="Path_134355" data-name="Path 134355" d="M960.949,1048.91l-2.16,3.3a3.639,3.639,0,0,1-3.06,1.65h-35.37l-.88-7.22h40.24a1.47,1.47,0,0,1,1.23,2.27Z" opacity="0.2" style="isolation: isolate"/>
        <rect id="Rectangle_31868" data-name="Rectangle 31868" width="90.85" height="37.96" transform="translate(849.479 1124.42)" fill="#ffb74d"/>
        <rect id="Rectangle_31869" data-name="Rectangle 31869" width="90.85" height="37.96" transform="translate(849.479 1124.42)" fill="#fff" opacity="0.4" style="isolation: isolate"/>
        <rect id="Rectangle_31870" data-name="Rectangle 31870" width="27.72" height="37.96" transform="translate(849.479 1124.42)" fill="#fff" opacity="0.2" style="isolation: isolate"/>
        <path id="Path_134356" data-name="Path 134356" d="M956.459,1113.08H841.779l6.21,13.91H947.6Z" fill="#5038a1"/>
        <path id="Path_134357" data-name="Path 134357" d="M956.459,1113.08l-8.86,13.9h-99.61l-6.2-13.9Z" fill="#fff" opacity="0.5" style="isolation: isolate"/>
        <path id="Path_134358" data-name="Path 134358" d="M894.4,1113.08l-8.87,13.9h-37.54l-6.2-13.9Z" fill="#fff" opacity="0.5" style="isolation: isolate"/>
        <path id="Path_134359" data-name="Path 134359" d="M941.019,1160.79h-93.43l-4.43,6.9h104.07Z" fill="#5038a1"/>
        <path id="Path_134360" data-name="Path 134360" d="M947.229,1167.69H843.159l4.43-6.9h93.43Z" fill="#fff" opacity="0.5" style="isolation: isolate"/>
        <path id="Path_134361" data-name="Path 134361" d="M889.6,1167.69h-46.44l4.43-6.9H883.4Z" fill="#fff" opacity="0.5" style="isolation: isolate"/>
        <path id="Path_134362" data-name="Path 134362" d="M920.9,1086.4h-85l-8-106.21a6.081,6.081,0,0,1,4.15-6.25,5.67,5.67,0,0,1,1.94-.32h54a10.879,10.879,0,0,1,10.51,8,82,82,0,0,1,2.76,23.51s12.79,35.72,18.42,72.3C920.159,1080.44,920.549,1083.43,920.9,1086.4Z" fill="#263238"/>
        <path id="Path_134363" data-name="Path 134363" d="M920.9,1086.4h-85l-8-106.21a6.081,6.081,0,0,1,4.15-6.25,5.67,5.67,0,0,1,1.94-.32h54a10.879,10.879,0,0,1,10.51,8,82,82,0,0,1,2.76,23.51s12.79,35.72,18.42,72.3C920.159,1080.44,920.549,1083.43,920.9,1086.4Z" fill="#fff" opacity="0.2" style="isolation: isolate"/>
        <path id="Path_134364" data-name="Path 134364" d="M843.159,973.94s9.16,4.33,9.84,29.65h40.66s1.87-24.31-8-29.65Z" fill="#fff" opacity="0.8" style="isolation: isolate"/>
        <path id="Path_134365" data-name="Path 134365" d="M919.679,1077.45c-5.45-2.17-13.1-4-23.64-4.35-18.86-.67-29.19,4.95-34.19,9.1-5.18-38.18-19.1-77.05-19.1-77.05a81.654,81.654,0,0,0-2.84-23.48,10.879,10.879,0,0,0-7.91-7.73,6.08,6.08,0,0,0-4.15,6.25l8,106.21h85C920.549,1083.43,920.159,1080.44,919.679,1077.45Z" opacity="0.2" style="isolation: isolate"/>
        <path id="Path_134366" data-name="Path 134366" d="M966.959,1095.27v5a12.8,12.8,0,0,1-12.74,12.86H844.089a8.531,8.531,0,0,1-8.52-8.54h0v-22.12h118.59a12.8,12.8,0,0,1,12.8,12.8Z" fill="#263238"/>
        <path id="Path_134367" data-name="Path 134367" d="M966.959,1095.27v5a12.8,12.8,0,0,1-12.74,12.86H844.089a8.531,8.531,0,0,1-8.52-8.54h0v-22.12h118.59a12.8,12.8,0,0,1,12.8,12.8Z" fill="#fff" opacity="0.2" style="isolation: isolate"/>
        <path id="Path_134368" data-name="Path 134368" d="M896.039,1095.27v5a12.81,12.81,0,0,1-12.76,12.86h-39.19a8.531,8.531,0,0,1-8.52-8.54h0v-22.12h47.66A12.81,12.81,0,0,1,896.039,1095.27Z" opacity="0.2" style="isolation: isolate"/>
        <path id="Path_134369" data-name="Path 134369" d="M908.629,1036.43c-1,2.2-27.92,1.46-29.5,0s23.63-21.38,28.94-21.12S911.519,1030.13,908.629,1036.43Z" fill="#5038a1"/>
        <path id="Path_134370" data-name="Path 134370" d="M908.629,1036.43c-1,2.2-27.92,1.46-29.5,0s23.63-21.38,28.94-21.12S911.519,1030.13,908.629,1036.43Z" opacity="0.4" style="isolation: isolate"/>
        <path id="Path_134371" data-name="Path 134371" d="M898.159,969.36s5.47-6.59,12.79-4.13,16.72,22.3,8.22,30.73-31.82,2.87-31.82,2.87-1.7-22.2,1.93-26.55A9,9,0,0,1,898.159,969.36Z" fill="#263238"/>
        <path id="Path_134372" data-name="Path 134372" d="M921.819,1002.26s8,11.69,8,14.58c0,.26-1.1,1.74-6.08-3.57-3.16-3.37-5.62-6.8-7.79-8l-.56,1.62-2.36,6.88s2.34,2,5.59,4.34c5.61,4.09,13.94,9.3,17.59,7.34,4.75-2.54-5.5-22.21-14-28a31.824,31.824,0,0,0-5.21-2.42c-1.74-.57-3.36-.75-3.89.25a10.668,10.668,0,0,0-.95,4.91,10.323,10.323,0,0,0,.07,1.27Z" fill="#ebb376"/>
        <path id="Path_134373" data-name="Path 134373" d="M916.989,995.13c-.05,2-1,4.21-4.84,5.16a10.71,10.71,0,0,1,.95-4.92C913.629,994.34,915.249,994.53,916.989,995.13Z" opacity="0.2" style="isolation: isolate"/>
        <path id="Path_134374" data-name="Path 134374" d="M915.969,1005.3c4.13,2.38,12.92,11,12.92,11l-2-6.07,7.69.55s5.82,11.34,2.19,15.74-25.11-12.24-25.11-12.24Z" fill="#5038a1"/>
        <path id="Path_134375" data-name="Path 134375" d="M936.779,1026.56c-1.91,2.34-8.83-1.23-14.94-5.11-5.41-3.44-10.17-7.13-10.17-7.13l2.36-4.94,1.94-4.08c4.13,2.38,12.93,11,12.93,11l-2-6.07,7.68.55S940.4,1022.13,936.779,1026.56Z" opacity="0.3" style="isolation: isolate"/>
        <path id="Path_134376" data-name="Path 134376" d="M921.839,1021.45c-5.41-3.44-10.17-7.13-10.17-7.13l3-2.42S921.5,1016.2,921.839,1021.45Z" opacity="0.3" style="isolation: isolate"/>
        <path id="Path_134377" data-name="Path 134377" d="M966.5,1136.14l-5.83,1.41-2.95-8.05-2.68-7.32,6.64-2.84,2.56,8.89Z" fill="#ebb376"/>
        <path id="Path_134378" data-name="Path 134378" d="M959.259,1137.13c-.14-.64,7.88-2,7.88-2s6,3.77,11,3.74,3,3.44-2.24,4.71l-13,3.15C959.159,1147.61,960.709,1143.85,959.259,1137.13Z" fill="#263238"/>
        <path id="Path_134379" data-name="Path 134379" d="M970.819,1136.22a14.419,14.419,0,0,1-2.56-.3h-.07l-.06-.06a.085.085,0,0,1,0-.05.336.336,0,0,1,0-.1c0-.09.24-2.09,1.2-2.79a1.29,1.29,0,0,1,1-.22c.4.09.62.27.67.54.08.42-.38,1-.94,1.47a3.377,3.377,0,0,1,1.82-.23.89.89,0,0,1,.55.43.79.79,0,0,1,0,.89A2.123,2.123,0,0,1,970.819,1136.22Zm-1.87-.61c1.29.21,2.84.3,3.14-.1,0,0,.1-.14-.05-.43a.467.467,0,0,0-.29-.22A5.338,5.338,0,0,0,968.949,1135.61Zm1.08-2.54a.807.807,0,0,0-.49.17,3.526,3.526,0,0,0-.95,2c1.07-.72,2.05-1.61,2-2,0-.11-.22-.17-.34-.2Z" fill="#263238"/>
        <path id="Path_134380" data-name="Path 134380" d="M964.239,1128.23l-6.52,1.27-2.68-7.32,6.64-2.84Z" opacity="0.2" style="isolation: isolate"/>
        <path id="Path_134381" data-name="Path 134381" d="M963.649,1123.98l-8.08,3s-21.57-53.93-26-54.12-49.57,20.56-60.88,9.05,5-39.21,5-39.21,27.21-3.89,29.26,2.26a42.751,42.751,0,0,1,1.15,5.51c.31,1.88.52,3.46.52,3.46h0c.84-.21,28.16-7.26,38.92,0C954.529,1061.33,963.649,1123.98,963.649,1123.98Z" fill="#5038a1"/>
        <path id="Path_134382" data-name="Path 134382" d="M917.149,1159.14l-5.81-1.48,1.12-8.34,1.03-7.64,7.19.64-1.87,8.91Z" fill="#ebb376"/>
        <path id="Path_134383" data-name="Path 134383" d="M909.769,1157.38c0-.66,8.14-.05,8.14-.05s4.94,5.14,9.78,6.34,2.09,4.08-3.34,4l-13.41-.16C907.079,1167.48,909.529,1164.23,909.769,1157.38Z" fill="#263238"/>
        <path id="Path_134384" data-name="Path 134384" d="M922.159,1159.46a10.018,10.018,0,0,1-3.38-1.07h-.05a.215.215,0,0,1,0-.08h0a.156.156,0,0,1,0-.1c0-.09.74-2,1.84-2.42a1.281,1.281,0,0,1,1.05,0c.37.18.55.42.53.69,0,.43-.62.85-1.28,1.2a3.243,3.243,0,0,1,1.82.22.9.9,0,0,1,.43.55.8.8,0,0,1-.21.87A1.134,1.134,0,0,1,922.159,1159.46Zm-2.64-1.19c1.19.52,2.68,1,3.06.67,0,0,.14-.11.06-.43a.418.418,0,0,0-.23-.28,5.17,5.17,0,0,0-2.86.04Zm1.47-2.22a.975.975,0,0,0-.32.06,3.517,3.517,0,0,0-1.41,1.73c1.21-.44,2.37-1.06,2.4-1.43,0-.11-.18-.22-.29-.27a.835.835,0,0,0-.35-.09Z" fill="#263238"/>
        <path id="Path_134385" data-name="Path 134385" d="M918.769,1151.41l-6.35-1.93,1.05-7.72,7.2.61Z" opacity="0.2" style="isolation: isolate"/>
        <path id="Path_134386" data-name="Path 134386" d="M952.229,1124l11.77-4.01.51,4.83-8.93,3.15Z" fill="#5038a1"/>
        <path id="Path_134387" data-name="Path 134387" d="M888.229,1084.69s1.84,0,30.38-1.29c0,0-4.27,35.68-6.59,62.39l8.53,1.46s20.39-57.2,20.17-66.28-10.64-11.75-10.64-11.75S909.749,1080.97,888.229,1084.69Z" fill="#5038a1"/>
        <path id="Path_134388" data-name="Path 134388" d="M888.229,1084.69s1.84,0,30.38-1.29c0,0-4.27,35.68-6.59,62.39l8.53,1.46s20.39-57.2,20.17-66.28-10.64-11.75-10.64-11.75S909.749,1080.97,888.229,1084.69Z" opacity="0.3" style="isolation: isolate"/>
        <path id="Path_134389" data-name="Path 134389" d="M910.769,1143.2l11.73,1.34-2.27,4.59-9.49-1.21Z" fill="#5038a1"/>
        <path id="Path_134390" data-name="Path 134390" d="M904.659,1053.94l-15.91,3.31s8.79-4.86,15.39-6.77C904.449,1052.36,904.659,1053.94,904.659,1053.94Z" opacity="0.3" style="isolation: isolate"/>
        <path id="Path_134391" data-name="Path 134391" d="M874.389,1038.48l-.66,4.23,29.26,2.25.77-5Z" fill="#263238"/>
        <path id="Path_134392" data-name="Path 134392" d="M874.389,1038.48l-.66,4.23,29.26,2.25.77-5Z" opacity="0.2" style="isolation: isolate"/>
        <rect id="Rectangle_31871" data-name="Rectangle 31871" width="7.4" height="1.45" transform="translate(882.149 1045.418) rotate(-84.13)" fill="#5038a1"/>
        <rect id="Rectangle_31872" data-name="Rectangle 31872" width="4.87" height="6.42" transform="translate(890.187 1044.421) rotate(-86.32)" fill="#fff"/>
        <rect id="Rectangle_31873" data-name="Rectangle 31873" width="7.4" height="1.45" transform="translate(900.107 1046.225) rotate(-84.12)" fill="#5038a1"/>
        <path id="Path_134393" data-name="Path 134393" d="M874.389,1038.48s3.63-36.21,9.67-39.55a67.392,67.392,0,0,1,31.91,6.37s-3,18-6.36,21.54-5.85,13.12-5.85,13.12Z" fill="#5038a1"/>
        <g id="Group_92091" data-name="Group 92091" opacity="0.9">
          <path id="Path_134394" data-name="Path 134394" d="M874.389,1038.48s3.63-36.21,9.67-39.55a67.392,67.392,0,0,1,31.91,6.37s-3,18-6.36,21.54-5.85,13.12-5.85,13.12Z" fill="#fff"/>
        </g>
        <path id="Path_134395" data-name="Path 134395" d="M912.269,1003.66c-1,2.54-4.21,8.7-12.37,8.21-9.3-.55-12.1-11.06-12.55-13A69.159,69.159,0,0,1,912.269,1003.66Z" fill="#ebb376"/>
        <path id="Path_134396" data-name="Path 134396" d="M903.259,1001.52c-.12,1.75.82,2.25.82,2.25a3.542,3.542,0,0,1-4.21,3.69c-5.42-1.09-6.5-7.85-6.5-7.85,4.13-1.19,5.46-5.49,5.88-8.09a13.836,13.836,0,0,0,.2-2l7,5.41a26.3,26.3,0,0,0-2,3.09A9.211,9.211,0,0,0,903.259,1001.52Z" fill="#ebb376"/>
        <path id="Path_134397" data-name="Path 134397" d="M906.429,994.89a26.375,26.375,0,0,0-2,3.09,9.215,9.215,0,0,0-1.19,3.54c-4.18-.51-4-9.94-4-9.94v-.06a13.845,13.845,0,0,0,.2-2Z" opacity="0.2" style="isolation: isolate"/>
        <path id="Path_134398" data-name="Path 134398" d="M904.919,972.3c7.55-.34,10.16,3.59,11.06,11.35,1.13,9.69-.72,16.69-10.25,15C892.779,996.44,892.379,972.85,904.919,972.3Z" fill="#ebb376"/>
        <path id="Path_134399" data-name="Path 134399" d="M911.079,983.44a16.257,16.257,0,0,0,2.34,3,2.081,2.081,0,0,1-1.95.94Z" fill="#d58745"/>
        <path id="Path_134400" data-name="Path 134400" d="M906.429,983.03c.05.62-.25,1.15-.67,1.17s-.78-.45-.82-1.07.26-1.14.67-1.17S906.389,982.41,906.429,983.03Z" fill="#263238"/>
        <path id="Path_134401" data-name="Path 134401" d="M905.439,982l1.31-.62S906.159,982.56,905.439,982Z" fill="#263238"/>
        <path id="Path_134402" data-name="Path 134402" d="M914.159,982.38c0,.62-.26,1.14-.68,1.17s-.78-.45-.82-1.07.26-1.14.67-1.17S914.079,981.76,914.159,982.38Z" fill="#263238"/>
        <path id="Path_134403" data-name="Path 134403" d="M913.159,981.35l1.31-.62S913.849,981.91,913.159,981.35Z" fill="#263238"/>
        <path id="Path_134404" data-name="Path 134404" d="M902.939,979.55a.364.364,0,0,1-.2-.06.35.35,0,0,1-.112-.482l.012-.018a4.271,4.271,0,0,1,3.46-1.61.359.359,0,0,1,.35.37h0a.349.349,0,0,1-.349.35h-.021a3.589,3.589,0,0,0-2.84,1.29A.38.38,0,0,1,902.939,979.55Z" fill="#263238"/>
        <path id="Path_134405" data-name="Path 134405" d="M914.509,978.45a.365.365,0,0,1-.25-.11,3.18,3.18,0,0,0-2.53-1.08.36.36,0,0,1-.12-.71,3.837,3.837,0,0,1,3.15,1.28.35.35,0,0,1,.015.495l-.015.015A.385.385,0,0,1,914.509,978.45Z" fill="#263238"/>
        <path id="Path_134406" data-name="Path 134406" d="M897.239,985.39s3.25-6.36,2.5-11.13c0,0,14.69-6.78,16.11,8.38,0,0,.86-13.55-12.13-13.27s-12.09,19.26-5.14,24.62C898.579,993.99,895.229,989.36,897.239,985.39Z" fill="#263238"/>
        <path id="Path_134407" data-name="Path 134407" d="M898.539,986.93a3.309,3.309,0,0,0-3.7-2.87h0c-2.33.36-3.23,5.21,2.64,6.11C898.329,990.29,898.759,989.46,898.539,986.93Z" fill="#ebb376"/>
        <path id="Path_134408" data-name="Path 134408" d="M910.159,991.62a4.06,4.06,0,0,1-3.92-3,.36.36,0,1,1,.7-.17,3.261,3.261,0,0,0,3.64,2.41.37.37,0,0,1,.39.33.36.36,0,0,1-.327.39h0A4.043,4.043,0,0,1,910.159,991.62Z" fill="#263238"/>
        <path id="Path_134409" data-name="Path 134409" d="M952.229,1124l11.77-4.01.51,4.83-8.93,3.15Z" fill="#fff" opacity="0.8" style="isolation: isolate"/>
        <path id="Path_134410" data-name="Path 134410" d="M910.769,1143.2l11.73,1.34-2.27,4.59-9.49-1.21Z" fill="#fff" opacity="0.8" style="isolation: isolate"/>
        <path id="Path_134411" data-name="Path 134411" d="M889.439,998.5s2.63,24.83-15,35.7c0,0,2.07-23.5,6.36-33.48C880.749,1000.72,883.539,998.3,889.439,998.5Z" fill="#5038a1"/>
        <path id="Path_134412" data-name="Path 134412" d="M888.479,1012.54a35.417,35.417,0,0,1-7.64,16.19,27.774,27.774,0,0,1-6.45,5.47s.35-4,1.07-9.39c.25-1.85.53-3.87.86-5.94.22-1.4.46-2.82.73-4.24.43-2.35.91-4.68,1.46-6.85a46.555,46.555,0,0,1,2.24-7.06s2.79-2.42,8.69-2.22A49.881,49.881,0,0,1,888.479,1012.54Z" opacity="0.3" style="isolation: isolate"/>
        <path id="Path_134413" data-name="Path 134413" d="M908.629,1001.52s2.12,23.57,0,34.91c0,0,8.65-17.47,7.34-31.13Z" fill="#5038a1"/>
        <path id="Path_134414" data-name="Path 134414" d="M908.629,1001.52s2.12,23.57,0,34.91c0,0,8.65-17.47,7.34-31.13Z" opacity="0.3" style="isolation: isolate"/>
        <path id="Path_134415" data-name="Path 134415" d="M880.749,1016.3s-2.19,6-5.29,8.51c.25-1.85.53-3.87.86-5.94.22-1.4.46-2.82.73-4.24C878.459,1013.82,879.839,1014.06,880.749,1016.3Z" opacity="0.2" style="isolation: isolate"/>
        <path id="Path_134416" data-name="Path 134416" d="M870.229,1037.13l4.52,5.25s.34,2.94,2.39,3.75,12.72,1.79,14,1.79-.09-4.14-.08-5.33-6.18-3.41-7.79-3.68a21.546,21.546,0,0,0-4.74.2l-4.79-5.84Z" fill="#ebb376"/>
        <path id="Path_134417" data-name="Path 134417" d="M880.749,1000.72c-5.71,4.31-18.17,20.34-18.57,24.29s10.59,16.79,10.59,16.79l5.34-4.53s-8-9.28-7.61-11.36,10.25-9.61,10.25-9.61,1.85-2.34,2.52-8.78S880.749,1000.72,880.749,1000.72Z" fill="#5038a1"/>
        <path id="Path_134418" data-name="Path 134418" d="M880.749,1000.72c-5.71,4.31-18.17,20.34-18.57,24.29s10.59,16.79,10.59,16.79l5.34-4.53s-8-9.28-7.61-11.36,10.25-9.61,10.25-9.61,1.85-2.34,2.52-8.78S880.749,1000.72,880.749,1000.72Z" opacity="0.3" style="isolation: isolate"/>
        <path id="Path_134419" data-name="Path 134419" d="M876.009,1088.57h-26.85l-6.45-47.56a5.939,5.939,0,0,0-5.78-4.58h-6.2a5.94,5.94,0,0,0-5.94,5.94h0v54.08a7.88,7.88,0,0,0,7.88,7.88h43.3a7.88,7.88,0,0,0,0-15.76Z" fill="#5038a1"/>
        <path id="Path_134420" data-name="Path 134420" d="M876.009,1088.57h-26.85l-6.45-47.56a5.939,5.939,0,0,0-5.78-4.58h-6.2a5.94,5.94,0,0,0-5.94,5.94h0v54.08a7.88,7.88,0,0,0,7.88,7.88h43.3a7.88,7.88,0,0,0,0-15.76Z" fill="#fff" opacity="0.5" style="isolation: isolate"/>
        <path id="Path_134421" data-name="Path 134421" d="M869.8,1088.57H843l-6.46-47.56a5.93,5.93,0,0,0-5.77-4.58h0a5.94,5.94,0,0,0-5.94,5.94h0v54.08a7.88,7.88,0,0,0,7.88,7.88H869.8a7.88,7.88,0,0,0,0-15.76Z" fill="#fff" opacity="0.2" style="isolation: isolate"/>
        <path id="Path_134422" data-name="Path 134422" d="M839.7,1046.64h46.46a1.47,1.47,0,0,1,1.23,2.27l-2.15,3.3a3.673,3.673,0,0,1-3.06,1.66h-41.61Z" fill="#5038a1"/>
        <path id="Path_134423" data-name="Path 134423" d="M887.359,1048.91l-2.15,3.3a3.661,3.661,0,0,1-3.06,1.65h-41.58l-.88-7.22h46.47a1.46,1.46,0,0,1,1.2,2.27Z" fill="#fff" opacity="0.5" style="isolation: isolate"/>
        <path id="Path_134424" data-name="Path 134424" d="M881.159,1048.91l-2.15,3.3a3.639,3.639,0,0,1-3.06,1.65h-35.38l-.88-7.22h40.24a1.46,1.46,0,0,1,1.23,2.27Z" fill="#fff" opacity="0.2" style="isolation: isolate"/>
      </g>
      <g id="freepik--Seating--inject-49">
        <path id="Path_134425" data-name="Path 134425" d="M849.415,1088.57h-26.8l-6.45-47.56a5.929,5.929,0,0,0-5.77-4.58h-6.23a5.94,5.94,0,0,0-5.94,5.94h0v54.08a7.88,7.88,0,0,0,7.88,7.88h43.36a7.88,7.88,0,0,0,0-15.76Z" fill="#5038a1"/>
        <path id="Path_134426" data-name="Path 134426" d="M849.415,1088.57h-26.8l-6.45-47.56a5.929,5.929,0,0,0-5.77-4.58h-6.23a5.94,5.94,0,0,0-5.94,5.94h0v54.08a7.88,7.88,0,0,0,7.88,7.88h43.36a7.88,7.88,0,0,0,0-15.76Z" fill="#fff" opacity="0.5" style="isolation: isolate"/>
        <path id="Path_134427" data-name="Path 134427" d="M843.165,1088.57h-26.8l-6.45-47.56a6,6,0,0,0-5.75-4.58h0a5.94,5.94,0,0,0-5.94,5.94h0v54.08a7.88,7.88,0,0,0,7.88,7.88h37.06a7.88,7.88,0,0,0,0-15.76Z" opacity="0.2" style="isolation: isolate"/>
        <path id="Path_134428" data-name="Path 134428" d="M813.1,1046.64h46.44a1.47,1.47,0,0,1,1.23,2.27l-2.16,3.3a3.649,3.649,0,0,1-3.06,1.66h-41.57Z" fill="#5038a1"/>
        <path id="Path_134429" data-name="Path 134429" d="M860.765,1048.91l-2.15,3.3a3.661,3.661,0,0,1-3.06,1.65h-41.58l-.87-7.22h46.44a1.459,1.459,0,0,1,1.22,2.27Z" fill="#fff" opacity="0.5" style="isolation: isolate"/>
        <path id="Path_134430" data-name="Path 134430" d="M854.565,1048.91l-2.16,3.3a3.63,3.63,0,0,1-3.06,1.65h-35.37l-.87-7.22h40.23a1.47,1.47,0,0,1,1.23,2.27Z" opacity="0.2" style="isolation: isolate"/>
        <rect id="Rectangle_31874" data-name="Rectangle 31874" width="90.85" height="37.96" transform="translate(743.095 1124.42)" fill="#ffb74d"/>
        <rect id="Rectangle_31875" data-name="Rectangle 31875" width="90.85" height="37.96" transform="translate(743.095 1124.42)" fill="#fff" opacity="0.4" style="isolation: isolate"/>
        <rect id="Rectangle_31876" data-name="Rectangle 31876" width="27.72" height="37.96" transform="translate(743.095 1124.42)" fill="#fff" opacity="0.2" style="isolation: isolate"/>
        <path id="Path_134431" data-name="Path 134431" d="M850.075,1113.08H735.4l6.21,13.91h99.61Z" fill="#5038a1"/>
        <path id="Path_134432" data-name="Path 134432" d="M850.075,1113.08l-8.86,13.9h-99.61l-6.2-13.9Z" fill="#fff" opacity="0.5" style="isolation: isolate"/>
        <path id="Path_134433" data-name="Path 134433" d="M788.015,1113.08l-8.86,13.9h-37.55l-6.2-13.9Z" fill="#fff" opacity="0.5" style="isolation: isolate"/>
        <path id="Path_134434" data-name="Path 134434" d="M834.635,1160.79h-93.42l-4.44,6.9h104.07Z" fill="#5038a1"/>
        <path id="Path_134435" data-name="Path 134435" d="M840.845,1167.69H736.775l4.43-6.9h93.43Z" fill="#fff" opacity="0.5" style="isolation: isolate"/>
        <path id="Path_134436" data-name="Path 134436" d="M783.225,1167.69h-46.45l4.43-6.9h35.81Z" fill="#fff" opacity="0.5" style="isolation: isolate"/>
        <path id="Path_134437" data-name="Path 134437" d="M814.515,1086.4h-85l-8-106.21a6.061,6.061,0,0,1,4.14-6.25,5.673,5.673,0,0,1,1.94-.32h54a10.869,10.869,0,0,1,10.5,8,81.267,81.267,0,0,1,2.78,23.51s12.79,35.72,18.42,72.3Q813.985,1081.945,814.515,1086.4Z" fill="#263238"/>
        <path id="Path_134438" data-name="Path 134438" d="M814.515,1086.4h-85l-8-106.21a6.061,6.061,0,0,1,4.14-6.25,5.673,5.673,0,0,1,1.94-.32h54a10.869,10.869,0,0,1,10.5,8,81.267,81.267,0,0,1,2.78,23.51s12.79,35.72,18.42,72.3Q813.985,1081.945,814.515,1086.4Z" fill="#fff" opacity="0.2" style="isolation: isolate"/>
        <path id="Path_134439" data-name="Path 134439" d="M736.775,973.94s9.16,4.33,9.84,29.65h40.66s1.87-24.31-8-29.65Z" fill="#fff" opacity="0.8" style="isolation: isolate"/>
        <path id="Path_134440" data-name="Path 134440" d="M813.295,1077.45c-5.45-2.17-13.09-4-23.64-4.35-18.86-.67-29.19,4.95-34.19,9.1-5.18-38.18-19.1-77.07-19.1-77.07a81.3,81.3,0,0,0-2.84-23.48,10.876,10.876,0,0,0-7.91-7.73,6.061,6.061,0,0,0-4.14,6.25l8,106.21h85C814.165,1083.43,813.755,1080.44,813.295,1077.45Z" opacity="0.2" style="isolation: isolate"/>
        <path id="Path_134441" data-name="Path 134441" d="M860.575,1095.27v5a12.8,12.8,0,0,1-12.8,12.8H737.715a8.531,8.531,0,0,1-8.55-8.51v-22.09h118.61a12.8,12.8,0,0,1,12.8,12.8Z" fill="#263238"/>
        <path id="Path_134442" data-name="Path 134442" d="M860.575,1095.27v5a12.8,12.8,0,0,1-12.8,12.8H737.715a8.531,8.531,0,0,1-8.55-8.51v-22.09h118.61a12.8,12.8,0,0,1,12.8,12.8Z" fill="#fff" opacity="0.2" style="isolation: isolate"/>
        <path id="Path_134443" data-name="Path 134443" d="M789.655,1095.27v5a12.81,12.81,0,0,1-12.8,12.8h-39.14a8.531,8.531,0,0,1-8.55-8.51v-22.09h47.67a12.809,12.809,0,0,1,12.82,12.8Z" opacity="0.2" style="isolation: isolate"/>
        <path id="Path_134444" data-name="Path 134444" d="M783.575,1022.24c-.79-.2-6.44-2.21-8.56,5.42s1.76,53.47,5.55,55.36,14.31-2.63,14.31-2.63l-2.14-1.78s-8.37,4.36-9.16,3.56-5.21-11.47-4.78-23.53,1.22-28.51,1.22-28.51Z" fill="#ffb74d"/>
        <path id="Path_134445" data-name="Path 134445" d="M783.575,1022.24c-.79-.2-6.44-2.21-8.56,5.42s1.76,53.47,5.55,55.36,14.31-2.63,14.31-2.63l-2.14-1.78s-8.37,4.36-9.16,3.56-5.21-11.47-4.78-23.53,1.22-28.51,1.22-28.51Z" opacity="0.2" style="isolation: isolate"/>
        <path id="Path_134446" data-name="Path 134446" d="M841.925,1079.03c0,.26-1.75,3.48-7.85,4.76h0a23.443,23.443,0,0,1-3.21.45c-28.48,2.09-40.88.4-43.43-2.66-2.14-2.59-10.31-53.54-9.91-57,.06-.49,3.22-7.52,10.49-9.05h.06a15.722,15.722,0,0,1,1.6-.23c2.56-.22,5-.35,7.37-.42h.06c9.55-.27,16.89.55,19.22,1.42,3.15,1.17,9.23,15.26,14.67,29.8C836.815,1061.7,841.925,1077.8,841.925,1079.03Z" fill="#ffb74d"/>
        <path id="Path_134447" data-name="Path 134447" d="M841.925,1079.03c0,.26-1.75,3.48-7.85,4.76h0a54.4,54.4,0,0,1-7.36.45c-18,0-26.31-2.46-27.69-4.76s-15.59-61.81-11-63.92h.06a15.722,15.722,0,0,1,1.6-.23c13.06-1.11,23.74-.09,26.65,1C822.835,1018.72,841.925,1076.66,841.925,1079.03Z" fill="#fff" opacity="0.2" style="isolation: isolate"/>
        <path id="Path_134448" data-name="Path 134448" d="M839.225,1078.42s-28.55,3.95-33.5-3.37c0,0-5.93-20.17-5.74-22.94s22.75-3,28.69-2.11c4.43.69,7.89,4.06,10.66,9.68.58,1.18,1.14,2.47,1.66,3.85.32.84.63,1.71.93,2.62C845.055,1075.63,839.225,1078.42,839.225,1078.42Z" fill="#ffb74d"/>
        <path id="Path_134449" data-name="Path 134449" d="M830.975,1046.13c-10.68,1.7-32.05,3.59-35.54-7.62-4.68-15.06-9.09-18.22-13.29-19,0,0,1.53-3.37,14.88-4.64h.06c9.55-.27,16.89.55,19.22,1.42C819.455,1017.47,825.535,1031.56,830.975,1046.13Z" opacity="0.2" style="isolation: isolate"/>
        <path id="Path_134450" data-name="Path 134450" d="M778.795,1022.13c3.79-4.42,9.52-5.52,14.27,6.58s8.3,15.6,22.42,14.67,15.13-.39,12.28-11.7-8.39-16.15-9.6-16.85a8.155,8.155,0,0,0-3.67-.51s-22.28-2.55-28.79.51a5.92,5.92,0,0,0-4.51,2.9A27.732,27.732,0,0,0,778.795,1022.13Z" fill="#ffb74d"/>
        <path id="Path_134451" data-name="Path 134451" d="M812.975,1025.4l4,3.2a1.769,1.769,0,0,1,.279,2.487l-.019.023-2.42,2.92a1.781,1.781,0,0,1-2.39.32l-4.29-3a1.76,1.76,0,0,1-.444-2.449,1.71,1.71,0,0,1,.134-.171l2.72-3.08A1.769,1.769,0,0,1,812.975,1025.4Z" fill="#fff" opacity="0.2" style="isolation: isolate"/>
        <path id="Path_134452" data-name="Path 134452" d="M810.275,1028.44h.73l.65,2.83h-.69Z" opacity="0.2" style="isolation: isolate"/>
        <path id="Path_134453" data-name="Path 134453" d="M813.815,1028.42h.73l.65,2.84h-.69Z" opacity="0.2" style="isolation: isolate"/>
        <path id="Path_134454" data-name="Path 134454" d="M840.995,1063.53a24.934,24.934,0,0,1-7.87,1.44c-7.72.39-20.62-.2-23.42-1s-7.64-10.11-7.64-10.11,5.14,5,6.13,5.75c.82.66,23.38.23,31.14.06C839.915,1060.86,840.475,1062.13,840.995,1063.53Z" opacity="0.2" style="isolation: isolate"/>
        <rect id="Rectangle_31877" data-name="Rectangle 31877" width="31.3" height="6.37" transform="translate(766.865 1078.62)" fill="#fff"/>
        <path id="Path_134455" data-name="Path 134455" d="M786.495,1079.13a6.005,6.005,0,0,0,0,5.23,3.347,3.347,0,0,0,0-5.23Z" fill="#263238"/>
        <path id="Path_134456" data-name="Path 134456" d="M813.735,1081.8a3.5,3.5,0,0,1-3.49,3.51h-44.02v-.66h18.22a2.86,2.86,0,0,0,0-5.71h-18.23v-.65h44a3.509,3.509,0,0,1,3.52,3.5Z" fill="#5038a1"/>
        <path id="Path_134457" data-name="Path 134457" d="M766.865,1080.33l13.11.36-13.11.21,17.5.67-17.5.64,15.9.89-15.9.65,11.5.36-11.5.29v-5.23l15.98.59Z" opacity="0.2" style="isolation: isolate"/>
        <path id="Path_134458" data-name="Path 134458" d="M813.735,1081.8a3.5,3.5,0,0,1-3.49,3.51h-44.02v-.66h18.22a2.86,2.86,0,0,0,0-5.71h-18.23v-.65h44a3.509,3.509,0,0,1,3.52,3.5Z" fill="#fff" opacity="0.6" style="isolation: isolate"/>
        <path id="Path_134459" data-name="Path 134459" d="M788.1,1081.8a3.5,3.5,0,0,1-3.49,3.51h-18.4v-.66h18.22a2.86,2.86,0,0,0,0-5.71h-18.22v-.65h18.38A3.509,3.509,0,0,1,788.1,1081.8Z" opacity="0.2" style="isolation: isolate"/>
        <path id="Path_134460" data-name="Path 134460" d="M796.655,1081.8a3.52,3.52,0,0,1-3.51,3.51h-6a3.51,3.51,0,0,0,0-7h6A3.51,3.51,0,0,1,796.655,1081.8Z" fill="#5038a1"/>
        <rect id="Rectangle_31878" data-name="Rectangle 31878" width="31.3" height="6.37" transform="translate(770.585 1071.6)" fill="#fff"/>
        <path id="Path_134461" data-name="Path 134461" d="M790.225,1072.13a6.006,6.006,0,0,0,0,5.23,3.347,3.347,0,0,0,0-5.23Z" fill="#5038a1"/>
        <path id="Path_134462" data-name="Path 134462" d="M817.465,1074.78a3.52,3.52,0,0,1-3.51,3.51h-44v-.66h18.21a2.86,2.86,0,1,0,.339-5.71,2.709,2.709,0,0,0-.339,0h-18.22v-.66h44A3.52,3.52,0,0,1,817.465,1074.78Z" fill="#263238"/>
        <path id="Path_134463" data-name="Path 134463" d="M770.585,1073.31l13.11.35-13.11.22,17.5.67-17.5.64,15.9.89-15.9.64,11.51.37-11.51.28v-5.23l15.98.6Z" opacity="0.2" style="isolation: isolate"/>
        <path id="Path_134464" data-name="Path 134464" d="M791.835,1074.78a3.519,3.519,0,0,1-3.52,3.51h-18.37v-.66h18.22a2.86,2.86,0,1,0,.339-5.71,2.709,2.709,0,0,0-.339,0h-18.22v-.66h18.37A3.529,3.529,0,0,1,791.835,1074.78Z" opacity="0.2" style="isolation: isolate"/>
        <path id="Path_134465" data-name="Path 134465" d="M813.165,1074.78a3.52,3.52,0,0,1-3.51,3.51h-17.06a3.593,3.593,0,0,0,2.49-1,3.52,3.52,0,0,0-2.49-6h17.09A3.519,3.519,0,0,1,813.165,1074.78Z" fill="#fff" opacity="0.6" style="isolation: isolate"/>
        <path id="Path_134466" data-name="Path 134466" d="M769.625,1088.57h-26.8l-6.46-47.56a5.939,5.939,0,0,0-5.78-4.58h-6.2a5.94,5.94,0,0,0-5.94,5.94h0v54.08a7.88,7.88,0,0,0,7.88,7.88h43.3a7.88,7.88,0,0,0,0-15.76Z" fill="#5038a1"/>
        <path id="Path_134467" data-name="Path 134467" d="M769.625,1088.57h-26.8l-6.46-47.56a5.939,5.939,0,0,0-5.78-4.58h-6.2a5.94,5.94,0,0,0-5.94,5.94h0v54.08a7.88,7.88,0,0,0,7.88,7.88h43.3a7.88,7.88,0,0,0,0-15.76Z" fill="#fff" opacity="0.5" style="isolation: isolate"/>
        <path id="Path_134468" data-name="Path 134468" d="M763.415,1088.57h-26.8l-6.45-47.56a6,6,0,0,0-5.78-4.58h0a5.94,5.94,0,0,0-5.94,5.94h0v54.08a7.88,7.88,0,0,0,7.88,7.88h37.09a7.88,7.88,0,0,0,0-15.76Z" fill="#fff" opacity="0.2" style="isolation: isolate"/>
        <path id="Path_134469" data-name="Path 134469" d="M733.315,1046.64h46.44a1.47,1.47,0,0,1,1.23,2.27l-2.16,3.3a3.65,3.65,0,0,1-3.06,1.66h-41.6Z" fill="#5038a1"/>
        <path id="Path_134470" data-name="Path 134470" d="M780.975,1048.91l-2.15,3.3a3.661,3.661,0,0,1-3.06,1.65h-41.6l-.88-7.22h46.45a1.459,1.459,0,0,1,1.24,2.27Z" fill="#fff" opacity="0.5" style="isolation: isolate"/>
        <path id="Path_134471" data-name="Path 134471" d="M774.775,1048.91l-2.16,3.3a3.63,3.63,0,0,1-3.06,1.65h-35.39l-.88-7.22h40.24a1.47,1.47,0,0,1,1.25,2.27Z" fill="#fff" opacity="0.2" style="isolation: isolate"/>
      </g>
    </g>
  </g>
</svg>
