<svg xmlns="http://www.w3.org/2000/svg" width="137" height="115" viewBox="0 0 137 115">
  <g id="t2-ic1" transform="translate(-338 -3637)">
    <path id="Rectangle_32055" data-name="Rectangle 32055" d="M2.5,2.5v110h90V2.5H2.5M0,0H95V115H0Z" transform="translate(380 3637)" fill="#ffdc72"/>
    <g id="guideline" transform="translate(334.331 3651)">
      <g id="Group_92076" data-name="Group 92076" transform="translate(4.932 70.33)">
        <path id="Path_134296" data-name="Path 134296" d="M25.417,425.467H17.235a5.9,5.9,0,0,1-5.9-5.9h-.168v5.677a6.067,6.067,0,0,0,6.067,6.067h8.182v-5.845Z" transform="translate(-11.168 -419.231)" fill="#5038a1"/>
        <path id="Path_134297" data-name="Path 134297" d="M184.327,417.566v5.9a.337.337,0,0,1-.337.337H147.316v5.846H189a.842.842,0,0,0,.842-.842v-11.24Z" transform="translate(-124.385 -417.565)" fill="#5038a1"/>
      </g>
      <g id="Group_92077" data-name="Group 92077" transform="translate(4.932 70.669)">
        <path id="Path_134298" data-name="Path 134298" d="M16.88,425.63a6.066,6.066,0,0,1-5.711-6.056v5.677a6.067,6.067,0,0,0,6.067,6.067h5.7a6.066,6.066,0,0,1-6.054-5.688Z" transform="translate(-11.169 -419.574)" fill="#2e205c"/>
      </g>
      <g id="Group_92079" data-name="Group 92079" transform="translate(4.932 11.259)">
        <path id="Path_134299" data-name="Path 134299" d="M389.579,66.848H373.4v52.5a.842.842,0,0,1-.842.842h-4.5v5.728h21.521a.842.842,0,0,0,.842-.842V67.69a.842.842,0,0,0-.842-.842Z" transform="translate(-307.947 -66.848)" fill="#dee4f0"/>
        <g id="Group_92078" data-name="Group 92078" transform="translate(60.111 0)">
          <path id="Path_134300" data-name="Path 134300" d="M399.781,66.848v.111a.833.833,0,0,1,.411-.111Z" transform="translate(-394.438 -66.848)" fill="#c8effe"/>
          <path id="Path_134301" data-name="Path 134301" d="M372.97,387.892v-5a.833.833,0,0,1-.411.111h-4.5v5.728h5.754A.842.842,0,0,1,372.97,387.892Z" transform="translate(-368.058 -329.663)" fill="#c8effe"/>
        </g>
        <path id="Path_134302" data-name="Path 134302" d="M17.236,383.554a6.067,6.067,0,0,0,0,12.133h8.182v-6.4H34.1v6.4H70.774a.505.505,0,0,0,.505-.505V383.554H17.236Z" transform="translate(-11.169 -330.211)" fill="#fff"/>
      </g>
      <path id="Path_134303" data-name="Path 134303" d="M25.417,389.283h1.565a6.067,6.067,0,0,1,6.057-5.728h-15.8a6.067,6.067,0,1,0,0,12.133h8.182Z" transform="translate(-6.237 -318.953)" fill="#f2fbff"/>
      <path id="Path_134304" data-name="Path 134304" d="M25.418,395.681a6.066,6.066,0,0,1,.278-12.126h-8.46a6.067,6.067,0,0,0,0,12.133h8.182v-.007Z" transform="translate(-6.238 -318.953)" fill="#ffb74d"/>
      <g id="Group_92080" data-name="Group 92080" transform="translate(19.181 70.33)">
        <path id="Path_134305" data-name="Path 134305" d="M104.448,431.731V417.566H95.765v14.165a.477.477,0,0,0,.748.392l3.593-2.487,3.593,2.487A.477.477,0,0,0,104.448,431.731Z" transform="translate(-95.765 -417.566)" fill="#ffb74d"/>
      </g>
      <g id="Group_92082" data-name="Group 92082" transform="translate(19.181 70.33)" style="mix-blend-mode: multiply;isolation: isolate">
        <g id="Group_92081" data-name="Group 92081">
          <path id="Path_134306" data-name="Path 134306" d="M99.51,417.566H95.765v14.165a.477.477,0,0,0,.748.392l3-2.074Z" transform="translate(-95.765 -417.566)" fill="#ffb74d"/>
        </g>
      </g>
      <g id="Group_92083" data-name="Group 92083" transform="translate(4.932 1.263)">
        <path id="Path_134307" data-name="Path 134307" d="M17.237,7.5a6.067,6.067,0,0,0-6.067,6.067V76.905a6.067,6.067,0,0,1,6.067-6.067H75.781A.842.842,0,0,0,76.624,70V8.342a.842.842,0,0,0-.842-.842Z" transform="translate(-11.17 -7.5)" fill="#5038a1"/>
      </g>
      <g id="Group_92084" data-name="Group 92084" transform="translate(4.932 1.263)">
        <path id="Path_134308" data-name="Path 134308" d="M17.237,70.839h6.4V7.5h-6.4a6.067,6.067,0,0,0-6.067,6.067V76.905A6.066,6.066,0,0,1,17.237,70.839Z" transform="translate(-11.17 -7.5)" fill="#8c6df2"/>
      </g>
      <g id="Group_92085" data-name="Group 92085" transform="translate(4.932 1.263)">
        <path id="Path_134309" data-name="Path 134309" d="M15.516,13.567A6.067,6.067,0,0,1,21.583,7.5H17.236a6.067,6.067,0,0,0-6.067,6.067V76.905a6.068,6.068,0,0,1,4.347-5.818Z" transform="translate(-11.169 -7.5)" fill="#5038a1"/>
      </g>
      <g id="Group_92086" data-name="Group 92086" transform="translate(22.965 6.829)">
        <path id="Path_134310" data-name="Path 134310" d="M118.236,92.247V41.05a.505.505,0,0,1,.505-.505h40.844a.505.505,0,0,1,.505.505v51.2a.505.505,0,0,1-.505.505H118.741A.505.505,0,0,1,118.236,92.247Z" transform="translate(-118.236 -40.545)" fill="#af96ff"/>
      </g>
      <g id="Group_92087" data-name="Group 92087" transform="translate(22.965 6.829)">
        <path id="Path_134311" data-name="Path 134311" d="M123.923,92.247V41.05a.505.505,0,0,1,.505-.505h-5.687a.505.505,0,0,0-.505.505v51.2a.505.505,0,0,0,.505.505h5.687A.505.505,0,0,1,123.923,92.247Z" transform="translate(-118.236 -40.545)" fill="#8c6df2"/>
      </g>
      <g id="Group_92088" data-name="Group 92088" transform="translate(34.542 16.774)">
        <path id="Path_134312" data-name="Path 134312" d="M186.97,108.137v-8.044a.505.505,0,0,1,.505-.505h17.691a.505.505,0,0,1,.505.505v8.044a.505.505,0,0,1-.505.505h-17.69A.505.505,0,0,1,186.97,108.137Z" transform="translate(-186.97 -99.588)" fill="#ffdc72"/>
      </g>
      <g id="Group_92089" data-name="Group 92089" transform="translate(34.542 16.774)">
        <path id="Path_134313" data-name="Path 134313" d="M192.7,108.137v-8.044a.505.505,0,0,1,.505-.505h-5.726a.505.505,0,0,0-.505.505v8.044a.505.505,0,0,0,.505.505H193.2A.505.505,0,0,1,192.7,108.137Z" transform="translate(-186.97 -99.588)" fill="#ffb74d"/>
      </g>
      <g id="Group_92090" data-name="Group 92090" transform="translate(3.669 0)">
        <path id="Path_134314" data-name="Path 134314" d="M87.406,54.429a1.263,1.263,0,0,0,1.263-1.263V12.1A2.108,2.108,0,0,0,86.564,10H71.649V2.105A2.108,2.108,0,0,0,69.544,0H11a7.338,7.338,0,0,0-7.33,7.33V76.346A7.338,7.338,0,0,0,11,83.676h6.918V84.5a1.739,1.739,0,0,0,2.73,1.431l2.874-1.989L26.4,85.926a1.74,1.74,0,0,0,2.73-1.431v-.819H69.544a2.108,2.108,0,0,0,2.105-2.105V71.594H86.564a2.108,2.108,0,0,0,2.105-2.105V59.061a1.263,1.263,0,1,0-2.526,0V69.067H66.306v-3.2h3.238a2.108,2.108,0,0,0,2.105-2.105V60.425h8.087a1.263,1.263,0,1,0,0-2.526H71.649v-4.82h8.087a1.263,1.263,0,1,0,0-2.526H71.649v-4.82h8.087a1.263,1.263,0,1,0,0-2.526H71.649v-4.82h8.087a1.263,1.263,0,1,0,0-2.526H71.649v-4.82h8.087a1.263,1.263,0,1,0,0-2.526H71.649v-4.82h8.087a1.263,1.263,0,1,0,0-2.526H71.649V12.522H86.143V53.165a1.263,1.263,0,0,0,1.263,1.264ZM6.2,7.33a4.809,4.809,0,0,1,4.8-4.8h5.137V63.339H11a7.3,7.3,0,0,0-4.8,1.8V7.33ZM11,65.865h2.928a7.317,7.317,0,0,0,0,9.607H11a4.8,4.8,0,1,1,0-9.607Zm6.919,15.284H11a4.809,4.809,0,0,1-4.8-4.8V76.2A7.3,7.3,0,0,0,11,78h6.918v3.151ZM26.6,82.995l-2.359-1.633a1.263,1.263,0,0,0-1.438,0l-2.359,1.633v-11.4H26.6Zm42.523-11.4v9.556h-40V78h4.579a1.263,1.263,0,1,0,0-2.526H29.126V70.33a1.263,1.263,0,0,0-1.263-1.263H19.181a1.263,1.263,0,0,0-1.263,1.263v4.886a4.8,4.8,0,0,1,1.542-9.351H63.78v3.2H53.466a1.263,1.263,0,1,0,0,2.526H63.78v3.879H39.6A1.263,1.263,0,1,0,39.6,78H64.538a1.77,1.77,0,0,0,1.769-1.769V71.594Zm0-8.255H18.663V2.526h50.46Z" transform="translate(-3.669 0)"/>
        <path id="Path_134315" data-name="Path 134315" d="M112.5,87.779h40.844a1.77,1.77,0,0,0,1.769-1.769V49.038a1.263,1.263,0,1,0-2.526,0V85.252H113.262V35.571h39.328v7.572a1.263,1.263,0,1,0,2.526,0v-8.33a1.77,1.77,0,0,0-1.769-1.769H112.5a1.77,1.77,0,0,0-1.769,1.769v51.2A1.77,1.77,0,0,0,112.5,87.779Z" transform="translate(-92.703 -27.479)"/>
        <path id="Path_134316" data-name="Path 134316" d="M200.7,93.857a1.77,1.77,0,0,0-1.769-1.769h-17.69a1.77,1.77,0,0,0-1.769,1.769V101.9a1.77,1.77,0,0,0,1.769,1.769h17.69A1.77,1.77,0,0,0,200.7,101.9Zm-2.526,7.286H182V94.614h16.175Z" transform="translate(-149.86 -76.578)"/>
        <path id="Path_134317" data-name="Path 134317" d="M199.434,270.532h-18.7a1.263,1.263,0,1,0,0,2.526h18.7a1.263,1.263,0,1,0,0-2.526Z" transform="translate(-149.86 -224.966)"/>
        <path id="Path_134318" data-name="Path 134318" d="M199.434,237.925h-18.7a1.263,1.263,0,1,0,0,2.526h18.7a1.263,1.263,0,1,0,0-2.526Z" transform="translate(-149.86 -197.851)"/>
      </g>
    </g>
  </g>
</svg>
