<svg xmlns="http://www.w3.org/2000/svg" width="79" height="78.999" viewBox="0 0 79 78.999">
  <g id="t2-ic3" transform="translate(0 -0.501)">
    <path id="Path_134859" data-name="Path 134859" d="M410.667,216.826a3.086,3.086,0,0,1,0,4.365l-7.855,7.855-1.222-7.506,4.714-4.714a3.084,3.084,0,0,1,4.363,0Zm0,0" transform="translate(-339.626 -182.182)" fill="#fafaff"/>
    <path id="Path_134860" data-name="Path 134860" d="M223.74,47.127a3.085,3.085,0,0,1,0,4.363L219.026,56.2l-7.506-1.222,7.855-7.855a3.086,3.086,0,0,1,4.365,0Zm0,0" transform="translate(-178.883 -38.667)" fill="#fafaff"/>
    <g id="Group_92238" data-name="Group 92238" transform="translate(1.542 11.986)">
      <path id="Path_134861" data-name="Path 134861" d="M60.971,82.014,41.944,101.041l-26.9-19.476a3.663,3.663,0,0,1,2.738-6.582Zm0,0" transform="translate(-12.988 -74.935)" fill="#8c6df2"/>
      <path id="Path_134862" data-name="Path 134862" d="M27.228,309.483l.156.083a102.993,102.993,0,0,0-5.1,9.725l-.152-.07-10.645-7.369a3.444,3.444,0,0,1,2.932-6.136Zm0,0" transform="translate(-9.999 -269.988)" fill="#8c6df2"/>
      <path id="Path_134863" data-name="Path 134863" d="M131.6,403.317a3.444,3.444,0,0,1-6.136,2.932L118.1,395.6l-.071-.152a104.284,104.284,0,0,0,9.472-4.95l.336,0Zm0,0" transform="translate(-101.359 -341.81)" fill="#8c6df2"/>
      <path id="Path_134864" data-name="Path 134864" d="M294.427,234.705a3.663,3.663,0,0,1-6.582,2.738l-19.477-26.9L287.4,191.519Zm0,0" transform="translate(-228.502 -173.531)" fill="#8c6df2"/>
    </g>
    <path id="Path_134865" data-name="Path 134865" d="M133.962,11.791c-2.543-2.541-8.157-1.2-13.469,2.9-2.1,1.624.19-.533-38.241,37.9a40.028,40.028,0,0,0-5.53,7.431A124.537,124.537,0,0,0,68.34,77.413a125.232,125.232,0,0,0,17.139-8.23A40.721,40.721,0,0,0,93.163,63.5c38.244-38.245,36.223-36.076,37.9-38.241,4.1-5.313,5.442-10.926,2.9-13.469Zm0,0" transform="translate(-57.796 -8.457)" fill="#fafaff"/>
    <path id="Path_134866" data-name="Path 134866" d="M238.739,254.661a1.543,1.543,0,1,0,2.182,0A1.541,1.541,0,0,0,238.739,254.661Zm0,0" transform="translate(-201.52 -214.561)"/>
    <path id="Path_134867" data-name="Path 134867" d="M61.753,5.015c-2.648,2.05-3.369,3.106-12.76,12.4L43.364,16.5l2.583-2.583A4.629,4.629,0,0,0,39.4,7.368l-7.3,7.3L6.586,10.51A5.206,5.206,0,0,0,2.7,19.865L28.127,38.281l-4.761,4.761a38.717,38.717,0,0,0-5.113,6.678L6.393,46.233a4.987,4.987,0,0,0-4.245,8.885l9.722,6.73c-1.692,3.735-2.721,6.436-2.769,6.561a1.543,1.543,0,0,0,1.99,1.99c.125-.047,2.826-1.076,6.561-2.769l6.731,9.722a4.987,4.987,0,0,0,8.885-4.246L29.781,61.248a38.743,38.743,0,0,0,6.678-5.113l4.761-4.761L59.635,76.8a5.207,5.207,0,0,0,9.355-3.89L64.836,47.4l7.3-7.3a4.629,4.629,0,0,0-6.546-6.547L63,36.136l-.916-5.629c9.3-9.4,10.343-10.1,12.394-12.752l.008-.01c4.759-6.168,5.873-12.4,2.769-15.5s-9.334-1.99-15.5,2.772ZM41.582,9.551a1.543,1.543,0,0,1,2.183,2.181L39.61,15.887l-3.753-.611ZM4.507,17.365a2.12,2.12,0,0,1,1.585-3.809L46.3,20.1,30.337,36.071ZM3.642,49.673a1.9,1.9,0,0,1,1.881-.48l11.092,3.262c-1.134,1.987-2.279,4.181-3.42,6.556l-9.289-6.43a1.9,1.9,0,0,1-.263-2.908ZM29.828,75.858A1.9,1.9,0,0,1,26.92,75.6l-6.43-9.29c2.377-1.143,4.572-2.288,6.556-3.42l3.261,11.091a1.9,1.9,0,0,1-.479,1.881ZM67.768,35.735a1.543,1.543,0,0,1,2.181,2.183l-5.725,5.725-.611-3.753ZM65.944,73.407a2.12,2.12,0,0,1-3.809,1.586L43.429,49.164,59.4,33.2ZM34.276,53.952a38.858,38.858,0,0,1-7.386,5.45,114.328,114.328,0,0,1-13.535,6.743,112.865,112.865,0,0,1,6.892-13.783,38.2,38.2,0,0,1,5.3-7.138c37.69-37.6,35.457-35.66,37.745-37.49a8.012,8.012,0,0,1,6.326,2.146,8.014,8.014,0,0,1,2.147,6.326c-1.833,2.293.083.081-37.49,37.745Zm40.13-41.8a10.183,10.183,0,0,0-7.058-7.058c2.233-1.133,5.993-2.4,7.726-.669,1.368,1.369,1.028,4.382-.668,7.727Zm0,0" transform="translate(0 0)"/>
    <path id="Path_134868" data-name="Path 134868" d="M271.394,198.092l-4.364,4.363a1.543,1.543,0,0,0,2.182,2.182l4.363-4.364a1.543,1.543,0,0,0-2.182-2.182Zm0,0" transform="translate(-225.446 -166.721)"/>
    <path id="Path_134869" data-name="Path 134869" d="M327.956,141.522l-4.366,4.365a1.543,1.543,0,0,0,2.182,2.182l4.365-4.365a1.543,1.543,0,1,0-2.182-2.182Zm0,0" transform="translate(-273.28 -118.88)"/>
  </g>
</svg>
