<svg xmlns="http://www.w3.org/2000/svg" width="190" height="362" viewBox="0 0 190 362">
  <g id="t2-im1" transform="translate(-180 -710)">
    <rect id="Rectangle_31819" data-name="Rectangle 31819" width="190" height="362" transform="translate(180 710)" fill="none"/>
    <g id="Group_92240" data-name="Group 92240" transform="translate(-1078.573 111.041)">
      <g id="freepik--character-2--inject-31">
        <path id="Path_134870" data-name="Path 134870" d="M1419.936,694.709a61.545,61.545,0,0,0,17.894.967c2.642-12.834,3.085-38.4,3.085-38.4-15.786-2.283-21.668-.627-21.668-.627C1422.96,665.9,1419.936,694.709,1419.936,694.709Z" fill="#fff"/>
        <path id="Path_134871" data-name="Path 134871" d="M1419.936,694.709a61.545,61.545,0,0,0,17.894.967c2.642-12.834,3.085-38.4,3.085-38.4-15.786-2.283-21.668-.627-21.668-.627C1422.96,665.9,1419.936,694.709,1419.936,694.709Z" opacity="0.1" style="isolation: isolate"/>
        <path id="Path_134872" data-name="Path 134872" d="M1426.98,711.79l7.847-15.209s-1.142-6.808-1.152-8.083,5.759-5.584,6.643-5.594,5.45,7.98,5.09,10.849-4.658,5.45-4.658,5.45l-3.908,15.682Z" fill="#e2877b"/>
        <path id="Path_134873" data-name="Path 134873" d="M1426.98,703.183l3.455-5.862,11.1,6.448-2.252,5.275Z" fill="#407bff"/>
        <path id="Path_134874" data-name="Path 134874" d="M1426.98,703.183l3.455-5.862,11.1,6.448-2.252,5.275Z" fill="#fff" opacity="0.8" style="isolation: isolate"/>
        <path id="Path_134875" data-name="Path 134875" d="M1385.559,708.5c1.254,3.887,19.281,30.295,28.793,32.465s26.563-32.259,26.563-32.259l-14.562-8.772s-7.846,15.867-12.577,16.269c-3.661.318-18.458-21.215-25.122-25.637C1380.386,685.073,1384.3,704.612,1385.559,708.5Z" fill="#12263f"/>
        <path id="Path_134876" data-name="Path 134876" d="M1385.559,708.5c1.254,3.887,19.281,30.295,28.793,32.465s26.563-32.259,26.563-32.259l-14.562-8.772s-7.846,15.867-12.577,16.269c-3.661.318-18.458-21.215-25.122-25.637C1380.386,685.073,1384.3,704.612,1385.559,708.5Z" opacity="0.3" style="isolation: isolate"/>
        <path id="Path_134877" data-name="Path 134877" d="M1392.5,928.741l8.34.884-1.563,18-8.34-.884Z" fill="#e2877b"/>
        <path id="Path_134878" data-name="Path 134878" d="M1349.967,927.4h8.093l-.668,18.726h-8.083Z" fill="#e2877b"/>
        <path id="Path_134879" data-name="Path 134879" d="M1359.87,945.709c1.995,1.789,6.685,3.671,12.916,5.028,1.389.309.946,3.661-2.447,3.661s-10.808-.257-13.266-.257c-3.99,0-6.3.2-9.481.247a1.316,1.316,0,0,1-.217-.021,1.215,1.215,0,0,1-.966-1.419l1.594-7.2a.7.7,0,0,1,.689-.556h9.821A1.941,1.941,0,0,1,1359.87,945.709Z" fill="#12263f"/>
        <path id="Path_134880" data-name="Path 134880" d="M1359.068,946.315a.2.2,0,0,1-.144-.164.165.165,0,0,1,.093-.185c.288-.186,2.9-1.79,3.794-1.327a.588.588,0,0,1,.33.535,1.155,1.155,0,0,1-.4,1.028,2.44,2.44,0,0,1-1.552.411A9.718,9.718,0,0,1,1359.068,946.315Zm3.322-1.378a7.7,7.7,0,0,0-2.766,1.111,3.927,3.927,0,0,0,2.879-.144.79.79,0,0,0,.257-.689c-.01-.154-.072-.226-.123-.226a.41.41,0,0,0-.247-.052Z" fill="#ffb74d"/>
        <path id="Path_134881" data-name="Path 134881" d="M1359.017,946.356a.2.2,0,0,1-.093-.174c.011-.114.206-2.438,1.142-3.2a1.026,1.026,0,0,1,.812-.246.627.627,0,0,1,.617.5c.165.854-1.45,2.633-2.283,3.086h-.092A.2.2,0,0,1,1359.017,946.356Zm1.3-3.167a4.5,4.5,0,0,0-.957,2.53c.833-.627,1.861-1.975,1.759-2.5-.011-.051-.031-.195-.278-.195h-.093A.662.662,0,0,0,1360.313,943.189Z" fill="#ffb74d"/>
        <path id="Path_134882" data-name="Path 134882" d="M1401.519,945.451c1.995,1.79,6.684,3.672,12.916,5.029,1.388.309.946,3.661-2.448,3.661s-10.808-.257-13.266-.257c-3.99,0-6.3.2-9.481.247a1.217,1.217,0,0,1-1.183-1.44l1.594-7.2a.7.7,0,0,1,.689-.556h9.821A1.949,1.949,0,0,1,1401.519,945.451Z" fill="#12263f"/>
        <path id="Path_134883" data-name="Path 134883" d="M1400.675,946.058a.2.2,0,0,1-.144-.164.165.165,0,0,1,.093-.185c.288-.186,2.9-1.79,3.794-1.327a.587.587,0,0,1,.33.535,1.155,1.155,0,0,1-.4,1.028,2.44,2.44,0,0,1-1.552.411A9.717,9.717,0,0,1,1400.675,946.058Zm3.363-1.378a7.705,7.705,0,0,0-2.807,1.111,3.932,3.932,0,0,0,2.879-.144.79.79,0,0,0,.257-.689c-.01-.154-.072-.226-.123-.226a.412.412,0,0,0-.247-.052Z" fill="#ffb74d"/>
        <path id="Path_134884" data-name="Path 134884" d="M1400.634,946.14a.2.2,0,0,1-.092-.174c.01-.114.2-2.438,1.141-3.2a1.028,1.028,0,0,1,.812-.246.627.627,0,0,1,.617.5c.165.853-1.45,2.632-2.283,3.085h-.092A.2.2,0,0,1,1400.634,946.14Zm1.759-3.352a.665.665,0,0,0-.463.206,4.5,4.5,0,0,0-.957,2.529c.833-.627,1.862-1.974,1.759-2.5-.01-.052-.031-.2-.278-.2h-.092Z" fill="#ffb74d"/>
        <path id="Path_134885" data-name="Path 134885" d="M1349.618,937.07h8.093l.35-9.656h-8.093Z" opacity="0.2" style="isolation: isolate"/>
        <path id="Path_134886" data-name="Path 134886" d="M1351.006,856.345c-1.4,25.267-4.772,83.759-4.772,83.759h14.84s8.339-60.9,12.072-86.608c1.522-10.468,3.27-30.068,4.751-48.517,12.824,34.47,10.911,134.5,10.911,134.5l14.531,1.8c9.162-70.236-3.013-155.856-7.127-178.13H1353.3C1353.248,768.781,1352.59,828.878,1351.006,856.345Z" fill="#12263f"/>
        <g id="Group_92239" data-name="Group 92239" opacity="0.3">
          <path id="Path_134887" data-name="Path 134887" d="M1351.006,856.345c-1.4,25.267-4.772,83.759-4.772,83.759h14.84s8.339-60.9,12.072-86.608c1.522-10.468,3.27-30.068,4.751-48.517,12.824,34.47,10.911,134.5,10.911,134.5l14.531,1.8c9.162-70.236-3.013-155.856-7.127-178.13H1353.3C1353.248,768.781,1352.59,828.878,1351.006,856.345Z"/>
        </g>
        <path id="Path_134888" data-name="Path 134888" d="M1397.786,766.652H1377.27l-.792,6.859c8.813,2.921,21.462,0,21.462,0Z" opacity="0.4" style="isolation: isolate"/>
        <path id="Path_134889" data-name="Path 134889" d="M1391.574,766.663h-8.144v8.072a50.917,50.917,0,0,0,8.144-.226Z" fill="#fff" opacity="0.1" style="isolation: isolate"/>
        <path id="Path_134890" data-name="Path 134890" d="M1379.09,789.708s4.8,17.379,3.6,33.833a114.792,114.792,0,0,0-4.792-18.562Z" opacity="0.2" style="isolation: isolate"/>
        <path id="Path_134891" data-name="Path 134891" d="M1365.413,671.4c-6.139,1.851-6.458-6.026-6.458-6.026C1364.375,662.583,1371.552,669.545,1365.413,671.4Z" fill="#12263f"/>
        <path id="Path_134892" data-name="Path 134892" d="M1373.907,689.526c-5.111,1.553-11.815-5.244-11.815-5.244,2.684-5.821,1.244-16.814,1.244-16.814l11.106,8.957a8.227,8.227,0,0,0,2.828,8.648S1379.018,687.973,1373.907,689.526Z" fill="#e2877b"/>
        <path id="Path_134893" data-name="Path 134893" d="M1374.493,680.981a8.863,8.863,0,0,1-.051-4.556l-4.216-3.4-4.391-.185S1367.768,679.9,1374.493,680.981Z" opacity="0.2" style="isolation: isolate"/>
        <path id="Path_134894" data-name="Path 134894" d="M1366.164,693.012s8.957,18.994,12.69,32.188-3.085,41.987-3.085,41.987c10.232,3.476,21.266,1.059,21.544,1.121a306.459,306.459,0,0,0-3.085-40.373c-3.024-19.22-11.189-37.833-11.189-37.833l-7.723-.576-9.193,3.486" fill="#407bff"/>
        <path id="Path_134895" data-name="Path 134895" d="M1366.164,693.012s8.957,18.994,12.69,32.188-3.085,41.987-3.085,41.987c10.232,3.476,21.266,1.059,21.544,1.121a306.459,306.459,0,0,0-3.085-40.373c-3.024-19.22-11.189-37.833-11.189-37.833l-7.723-.576-9.193,3.486" fill="#fff" opacity="0.8" style="isolation: isolate"/>
        <path id="Path_134896" data-name="Path 134896" d="M1375.3,689.526l-3.209,2.705,4.731,3.424s1.737,6.54,4.884,21.1,2.119,36.157,2.119,36.157l3.928,7.352,4.278-7.352s-1.995-26.974-4.412-35.869-9.255-22.192-9.255-22.192l.555-5.059Z" fill="#8c6df2" style="isolation: isolate"/>
        <path id="Path_134897" data-name="Path 134897" d="M1382.7,692.457l-7.219-2.046-4.432,7.116-8.947-13.245,12,3.939,3.167-3.147Z" fill="#fff"/>
        <path id="Path_134898" data-name="Path 134898" d="M1391.07,729.478c1.461,8.494,1.934,19.394,2.242,22.623.844,8.937.288,42.594.288,42.594s10.356-.647,9.842-5.892-2.592-70.319-6.119-85.219-20.053-18.511-20.053-18.511C1384.006,695.11,1388.489,714.443,1391.07,729.478Z" fill="#12263f"/>
        <path id="Path_134899" data-name="Path 134899" d="M1377.27,685.073c6.376,9.533,10.736,27.457,13.369,42.08,1.4-8.4,1.871-24.433,1.871-24.433l-5.707-3.63,4.175-2.211c-2.684-4.432-8.042-8.628-10.284-10.6C1378.627,685.454,1377.27,685.073,1377.27,685.073Z" fill="#12263f"/>
        <path id="Path_134900" data-name="Path 134900" d="M1377.27,685.073c6.376,9.533,10.736,27.457,13.369,42.08,1.4-8.4,1.871-24.433,1.871-24.433l-5.707-3.63,4.175-2.211c-2.684-4.432-8.042-8.628-10.284-10.6C1378.627,685.454,1377.27,685.073,1377.27,685.073Z" fill="#fff" opacity="0.1" style="isolation: isolate"/>
        <path id="Path_134901" data-name="Path 134901" d="M1386.391,650.562c-3.259.638-.575,7.394-.575,7.394,4.689-1.347,4.113-7.394,4.113-7.394S1389.651,649.924,1386.391,650.562Z" fill="#12263f"/>
        <path id="Path_134902" data-name="Path 134902" d="M1385.867,650.171c-2.221-3.321-9.276-5.213-15.076-3.681s-7.733,17.574-7.579,19.641.535,9.235,9.616,11.97,12.288-6.232,13.039-10.51C1385.867,667.591,1388.088,653.493,1385.867,650.171Z" fill="#e2877b"/>
        <path id="Path_134903" data-name="Path 134903" d="M1357.927,660.311s-.062-12.6,3.568-17.246c3.034-3.887,6.252-.277,6.252-.277,6.489-5.06,21.544-4.33,24.023,5.337,1.851,7.239-16.762.823-16.762.823-1.029,5.049-5.481,3.157-5.481,3.157.2,12.72-5.955,9.039-5.811,8.854Z" fill="#12263f"/>
        <path id="Path_134904" data-name="Path 134904" d="M1359.047,659.384a.246.246,0,0,0,.114.33l0,0a.257.257,0,0,0,.356-.075c1.995-3.126,11.846.587,13.307,1.152l-.124.874a1.3,1.3,0,0,0,1.028,1.44l3.929.8a1.079,1.079,0,0,0,.267,0,1.272,1.272,0,0,0,.71-.216,1.3,1.3,0,0,0,.545-.823c.051-.267.1-.555.154-.833a1.585,1.585,0,0,1,1.954.247l-.124.885v.006a1.285,1.285,0,0,0,1.091,1.454l3.424.5h.185a1.249,1.249,0,0,0,.761-.247,1.283,1.283,0,0,0,.514-.843c.072-.525.144-1.173.206-1.9a1.286,1.286,0,0,0-1.09-1.378l-3.363-.5a1.253,1.253,0,0,0-.956.237,1.3,1.3,0,0,0-.514.853v.329a2.059,2.059,0,0,0-1.944-.277,3.077,3.077,0,0,0,.072-.412,1.285,1.285,0,0,0-1.028-1.46l-4-.864a1.3,1.3,0,0,0-1.028.2,1.338,1.338,0,0,0-.535.884l-.061.484c-1.893-.741-11.631-4.33-13.811-.905A.25.25,0,0,0,1359.047,659.384Zm22.614,3.858.267-1.821a.781.781,0,0,1,.3-.514.846.846,0,0,1,.462-.144h.114l3.362.5a.77.77,0,0,1,.658.823c-.061.73-.133,1.368-.2,1.882a.765.765,0,0,1-.3.5.8.8,0,0,1-.575.133l-3.425-.493A.781.781,0,0,1,1381.661,663.242Zm-8.443-1.522.247-1.882a.782.782,0,0,1,.329-.535.753.753,0,0,1,.442-.134.506.506,0,0,1,.165,0l3.99.864a.761.761,0,0,1,.6.874c-.082.545-.205,1.234-.318,1.862a.764.764,0,0,1-.329.483.784.784,0,0,1-.587.113l-3.928-.8A.772.772,0,0,1,1373.218,661.72Z"/>
        <path id="Path_134905" data-name="Path 134905" d="M1376.345,659.992c.421.072.678.658.565,1.3s-.524,1.1-.956,1.028-.72-.658-.566-1.285C1375.5,660.383,1375.923,659.92,1376.345,659.992Z" fill="#12263f"/>
        <path id="Path_134906" data-name="Path 134906" d="M1384.324,661.267c.422.072.679.658.566,1.286s-.535,1.1-.956,1.028-.72-.658-.566-1.3C1383.471,661.658,1383.9,661.2,1384.324,661.267Z" fill="#12263f"/>
        <path id="Path_134907" data-name="Path 134907" d="M1379.234,668.219a3.758,3.758,0,0,0,3.188,0,22.878,22.878,0,0,1-2.129-6.026Z" fill="#dc5753"/>
        <path id="Path_134908" data-name="Path 134908" d="M1373.918,657.03h0a.4.4,0,0,1,.329-.432,3.826,3.826,0,0,1,3.352.967h0a.421.421,0,0,1,.086.092.391.391,0,0,1-.652.433,3.084,3.084,0,0,0-2.663-.741.369.369,0,0,1-.37-.144A.471.471,0,0,1,1373.918,657.03Z" fill="#12263f"/>
        <path id="Path_134909" data-name="Path 134909" d="M1377.63,671.324h0a.2.2,0,0,0,.195-.195h0a.068.068,0,0,0,0-.021.185.185,0,0,0-.195-.174,5.616,5.616,0,0,1-4.432-2.386h0a.2.2,0,0,0-.268,0,.206.206,0,0,0-.072.278,5.906,5.906,0,0,0,4.762,2.591h0Z" fill="#12263f"/>
        <path id="Path_134910" data-name="Path 134910" d="M1385.836,658.439a3.085,3.085,0,0,0-2.766.175h0a.4.4,0,0,1-.535-.093h0l0-.005a.38.38,0,0,1,.1-.529,3.8,3.8,0,0,1,3.486-.268h0a.329.329,0,0,1,0,.638A.382.382,0,0,1,1385.836,658.439Z" fill="#12263f"/>
        <path id="Path_134911" data-name="Path 134911" d="M1383.327,736.923c1.244,20.227-8.875,58.832-8.875,58.832-14.325,3.4-31.806-1.152-31.806-1.152s6.139-46.409,5.923-53.166-8.823-45.926-3.147-48.332,16.67-8.823,16.67-8.823C1376.283,698.277,1382.124,717.446,1383.327,736.923Z" fill="#12263f"/>
        <path id="Path_134912" data-name="Path 134912" d="M1359.757,700.344l7.847.617-4.278,6.263s13.851,13.255,19.795,27.765c-1.46-18.829-7.352-37.174-21.081-50.707,0,0-1.892,1.121-4.494,2.591A52.881,52.881,0,0,1,1359.757,700.344Z" fill="#12263f"/>
        <path id="Path_134913" data-name="Path 134913" d="M1359.757,700.344l7.847.617-4.278,6.263s13.851,13.255,19.795,27.765c-1.46-18.829-7.352-37.174-21.081-50.707,0,0-1.892,1.121-4.494,2.591A52.881,52.881,0,0,1,1359.757,700.344Z" fill="#fff" opacity="0.1" style="isolation: isolate"/>
        <path id="Path_134914" data-name="Path 134914" d="M1358.842,750.991h0a.339.339,0,0,0,.319.358l25.76,2.17.267-.267.823.072.216.308h.267c.011-.133.144-.133.144-.318l3.312-39.931h-2.6v-1.728l-24.681-2.056a.349.349,0,0,0-.37.308Z" fill="#36256b"/>
        <path id="Path_134915" data-name="Path 134915" d="M1391.79,717.456s.165-1.943.247-2.9a2.808,2.808,0,0,0-2.242-2.622c-.586,7.024-2.838,37.658-2.838,37.658s-.247,2.005-.422,4.113a3.34,3.34,0,0,0,2.458-3.085C1389.641,742.99,1391.79,717.456,1391.79,717.456Z" fill="#8c6df2"/>
        <path id="Path_134916" data-name="Path 134916" d="M1391.79,717.456s.165-1.943.247-2.9a2.808,2.808,0,0,0-2.242-2.622c-.586,7.024-2.838,37.658-2.838,37.658s-.247,2.005-.422,4.113a3.34,3.34,0,0,0,2.458-3.085C1389.641,742.99,1391.79,717.456,1391.79,717.456Z" opacity="0.2" style="isolation: isolate"/>
        <path id="Path_134917" data-name="Path 134917" d="M1388.016,750.6a2.16,2.16,0,0,0-1.11-2.4l-25.452-2.149-1.543,4.565,26.614,2.16A2.579,2.579,0,0,0,1388.016,750.6Z" fill="#407bff"/>
        <path id="Path_134918" data-name="Path 134918" d="M1388.016,750.6a2.16,2.16,0,0,0-1.11-2.4l-25.452-2.149-1.543,4.565,26.614,2.16A2.579,2.579,0,0,0,1388.016,750.6Z" fill="#fff" opacity="0.6" style="isolation: isolate"/>
        <path id="Path_134919" data-name="Path 134919" d="M1360.313,746.044l3.085-36.311a.089.089,0,0,1,.072-.061l25.112,2.118.185.308.782.062.154-.278h.38c.062,0,.062.072.062.072l-3.085,36.311a.071.071,0,0,1-.072.062h-.329l-.165-.154-.781-.072-.2.134-25.132-2.119A.072.072,0,0,1,1360.313,746.044Z" fill="#5038a1"/>
        <path id="Path_134920" data-name="Path 134920" d="M1367.4,715.41l17.657,1.491-1.255,14.87-17.657-1.481Zm16.649,2.406-15.816-1.3-1.08,12.814,15.816,1.326Z" opacity="0.3" style="isolation: isolate"/>
        <path id="Path_134921" data-name="Path 134921" d="M1391.451,721.487a4.6,4.6,0,0,0-1.9-2.673,7.535,7.535,0,0,0,.092-1.152,3.348,3.348,0,0,1,1.933,2.324Z" opacity="0.3" style="isolation: isolate"/>
        <path id="Path_134922" data-name="Path 134922" d="M1389.538,744.142a4.536,4.536,0,0,0-1.9-2.674c.051-.761.1-.884.1-1.162a3.375,3.375,0,0,1,1.933,2.334Z" opacity="0.3" style="isolation: isolate"/>
        <rect id="Rectangle_32045" data-name="Rectangle 32045" width="36.136" height="0.782" transform="translate(1385.724 748.138) rotate(-85.19)" opacity="0.3" style="isolation: isolate"/>
        <rect id="Rectangle_32046" data-name="Rectangle 32046" width="1.717" height="12.433" transform="translate(1368.232 736.48) rotate(-85.19)" fill="#407bff"/>
        <rect id="Rectangle_32047" data-name="Rectangle 32047" width="1.717" height="6.952" transform="translate(1370.656 740.444) rotate(-85.19)" fill="#407bff"/>
        <path id="Path_134923" data-name="Path 134923" d="M1378.987,749.376c-8.967-.761-16.217-1.234-16.217-1.234l23.8,2.057S1382.792,749.746,1378.987,749.376Z" opacity="0.3" style="isolation: isolate"/>
        <path id="Path_134924" data-name="Path 134924" d="M1378.915,750.271l-16.278-1.368,23.857,2.221S1382.72,750.59,1378.915,750.271Z" opacity="0.3" style="isolation: isolate"/>
        <path id="Path_134925" data-name="Path 134925" d="M1378.843,751.083l-16.392-1.388,23.971,2.262S1382.648,751.423,1378.843,751.083Z" opacity="0.3" style="isolation: isolate"/>
        <path id="Path_134926" data-name="Path 134926" d="M1384.767,749.078c-.3,3.579-.391,4.73-.391,4.73l-1.4-1.81-1.676,1.574.391-4.679C1382.443,748.954,1383.841,749,1384.767,749.078Z" fill="#ffb74d"/>
        <path id="Path_134927" data-name="Path 134927" d="M1384.767,749.078c-.3,3.579-.391,4.73-.391,4.73l-1.4-1.81-1.676,1.574.391-4.679C1382.443,748.954,1383.841,749,1384.767,749.078Z" opacity="0.2" style="isolation: isolate"/>
        <path id="Path_134928" data-name="Path 134928" d="M1379.018,748.533c-8.926-.761-16.453-1.111-16.453-1.111l24.073,1.892S1382.864,748.852,1379.018,748.533Z" opacity="0.3" style="isolation: isolate"/>
        <path id="Path_134929" data-name="Path 134929" d="M1359.942,750.528a2.635,2.635,0,0,0,1.862-2.057,2.98,2.98,0,0,0-.083-2.242l-1.408-.123Z" fill="#407bff"/>
        <path id="Path_134930" data-name="Path 134930" d="M1363.644,738.836l16.773-3.415s4.607-5.162,5.584-5.964,7.949.987,8.514,1.676-2.786,9.255-5.275,10.767-7.2-.226-7.2-.226l-14.685,6.787Z" fill="#e2877b"/>
        <path id="Path_134931" data-name="Path 134931" d="M1370.462,748.111l6.252-1.049.627-13.235-5.882.35Z" fill="#fff"/>
        <path id="Path_134932" data-name="Path 134932" d="M1370.462,748.111l6.252-1.049.627-13.235-5.882.35Z" fill="#407bff"/>
        <path id="Path_134933" data-name="Path 134933" d="M1370.462,748.111l6.252-1.049.627-13.235-5.882.35Z" fill="#fff" opacity="0.8" style="isolation: isolate"/>
        <path id="Path_134934" data-name="Path 134934" d="M1351.129,709.373c-.534,3.332-2.93,21.668,2.211,23.652,6.088,2.366,20.187-.812,20.187-.812l-1.4,18.017s-26.243,6.663-34.521.586-4.638-28.588-3.3-35.787c1.367-7.4,5.316-22.222,15.137-23.251C1354.06,691.285,1351.89,704.694,1351.129,709.373Z" fill="#12263f"/>
        <path id="Path_134935" data-name="Path 134935" d="M1351.129,709.373c-.534,3.332-2.93,21.668,2.211,23.652,6.088,2.366,20.187-.812,20.187-.812l-1.4,18.017s-26.243,6.663-34.521.586-4.638-28.588-3.3-35.787c1.367-7.4,5.316-22.222,15.137-23.251C1354.06,691.285,1351.89,704.694,1351.129,709.373Z" opacity="0.3" style="isolation: isolate"/>
        <path id="Path_134936" data-name="Path 134936" d="M1365,666.532c-2.427,2.921-6.242.155-7.4-2.056-1.522-2.88-1.039-7.045,2.293-7.045,4.154.021,5.779,4.515,5.779,4.515S1367.429,663.612,1365,666.532Z" fill="#e2877b"/>
      </g>
      <g id="freepik--Paper--inject-31">
        <rect id="Rectangle_32048" data-name="Rectangle 32048" width="75.863" height="56.594" rx="5.681" transform="translate(1261.573 605.96)" fill="#8c6df2"/>
        <path id="Path_134937" data-name="Path 134937" d="M1311.249,653.8c1.46,26.587,32.413,29.1,32.413,29.1-23.234-9.145-21.4-28.659-21.4-28.659Z" fill="#8c6df2" fill-rule="evenodd"/>
        <rect id="Rectangle_32049" data-name="Rectangle 32049" width="66.953" height="47.683" rx="1.225" transform="translate(1266.028 610.426)" fill="#fff" opacity="0.39" style="isolation: isolate"/>
        <path id="Path_134938" data-name="Path 134938" d="M1291.412,619.382h-7.585v-1.348a2.774,2.774,0,0,1,2.773-2.774h0Z" fill="#8c6df2"/>
        <path id="Path_134939" data-name="Path 134939" d="M1291.412,619.382h-7.585v-1.348a2.774,2.774,0,0,1,2.773-2.774h0Z" opacity="0.5" style="isolation: isolate"/>
        <path id="Path_134940" data-name="Path 134940" d="M1286.623,652.708h25.7c-5.614-9.546,2.662-23.447,1.76-33.549a4.256,4.256,0,0,0-4.233-3.9H1286.6c4.266,9.947-6.683,25.908-1.214,36.757A1.371,1.371,0,0,0,1286.623,652.708Z" fill="#8c6df2"/>
        <path id="Path_134941" data-name="Path 134941" d="M1286.623,652.708h25.7c-5.614-9.546,2.662-23.447,1.76-33.549a4.256,4.256,0,0,0-4.233-3.9H1286.6c4.266,9.947-6.683,25.908-1.214,36.757A1.371,1.371,0,0,0,1286.623,652.708Z" opacity="0.3" style="isolation: isolate"/>
        <path id="Path_134942" data-name="Path 134942" d="M1286.489,652.719h0a2.439,2.439,0,0,0,2.439-2.44v-.913h25.83v.913h0a2.439,2.439,0,0,1-2.439,2.44h-25.83Z" fill="#8c6df2"/>
        <path id="Path_134943" data-name="Path 134943" d="M1286.489,652.719h0a2.439,2.439,0,0,0,2.439-2.44v-.913h25.83v.913h0a2.439,2.439,0,0,1-2.439,2.44h-25.83Z" opacity="0.5" style="isolation: isolate"/>
        <rect id="Rectangle_32050" data-name="Rectangle 32050" width="18.3" height="1.526" transform="translate(1292.203 620.44)" opacity="0.3" style="isolation: isolate"/>
        <rect id="Rectangle_32051" data-name="Rectangle 32051" width="18.3" height="1.526" transform="translate(1291.345 625.831)" opacity="0.3" style="isolation: isolate"/>
        <rect id="Rectangle_32052" data-name="Rectangle 32052" width="18.3" height="1.526" transform="translate(1290.354 629.907)" opacity="0.3" style="isolation: isolate"/>
        <rect id="Rectangle_32053" data-name="Rectangle 32053" width="18.3" height="1.526" transform="translate(1289.374 633.995)" opacity="0.3" style="isolation: isolate"/>
        <circle id="Ellipse_4164" data-name="Ellipse 4164" cx="2.818" cy="2.818" r="2.818" transform="translate(1288.594 640.533)" opacity="0.3" style="isolation: isolate"/>
      </g>
    </g>
  </g>
</svg>
