<svg xmlns="http://www.w3.org/2000/svg" width="79" height="79.844" viewBox="0 0 79 79.844">
  <g id="t2-ic10" transform="translate(-16 -16.698)">
    <g id="Group_92382" data-name="Group 92382" transform="translate(16 16.698)">
      <path id="Path_135736" data-name="Path 135736" d="M47.7,234.49v-8.009l.72-7.916a13.166,13.166,0,0,0-4.3-10.979l-4.551-4.1a5.267,5.267,0,0,0-7.247.191l-.417.417h0V189.615a7.792,7.792,0,0,0-7.792-7.792H24v24.8l10.533,19.86v8.009Z" transform="translate(-22.683 -154.646)" fill="#ffcca6"/>
      <path id="Path_135737" data-name="Path 135737" d="M27.85,296.458h0a1.317,1.317,0,0,1-1.317-1.317V289.1a1.315,1.315,0,0,0-.154-.617L16.307,269.5A2.633,2.633,0,0,1,16,268.262V257.317A1.317,1.317,0,0,1,17.317,256h0a1.317,1.317,0,0,1,1.317,1.317v10.618a1.315,1.315,0,0,0,.154.617L28.86,287.543a2.633,2.633,0,0,1,.307,1.234v6.365A1.317,1.317,0,0,1,27.85,296.458Z" transform="translate(-16 -216.615)"/>
      <path id="Path_135738" data-name="Path 135738" d="M41.017,228.383h0a1.317,1.317,0,0,1-1.317-1.317v-6.633l.011-.239.714-7.856a11.9,11.9,0,0,0-3.874-9.881L32,198.362a3.948,3.948,0,0,0-3.38-.945,1.318,1.318,0,0,0-.853,2.026l3.812,5.718a1.317,1.317,0,0,1-2.18,1.477l-.011-.016-5.267-7.9,0,0h0v0h0v0h0a1.314,1.314,0,0,1-.214-.726V183.508a6.483,6.483,0,0,0-3.3-5.642,1.319,1.319,0,0,0-1.971,1.144v4.965a1.317,1.317,0,0,1-1.317,1.317h0A1.317,1.317,0,0,1,16,183.974v-6.83a2.638,2.638,0,0,1,3.144-2.583,9.112,9.112,0,0,1,7.388,8.82c0,.042,0,.084,0,.127v10.034a1.324,1.324,0,0,0,1.59,1.288,6.583,6.583,0,0,1,5.638,1.575l4.551,4.1a14.55,14.55,0,0,1,4.735,12.077l-.709,7.8q-.005.059-.005.119v6.573A1.317,1.317,0,0,1,41.017,228.383Z" transform="translate(-16 -148.539)"/>
      <path id="Path_135739" data-name="Path 135739" d="M340.072,234.49v-8.009l-.72-7.916a13.166,13.166,0,0,1,4.3-10.979l4.551-4.1a5.267,5.267,0,0,1,7.247.191l.417.417h0V189.615a7.792,7.792,0,0,1,7.792-7.792h.108v24.8l-10.533,19.86v8.009Z" transform="translate(-286.089 -154.646)" fill="#ffcca6"/>
      <path id="Path_135740" data-name="Path 135740" d="M346.569,227.806h0a1.317,1.317,0,0,1-1.317-1.317V219.8a1.316,1.316,0,0,1,.154-.617l10.38-19.57V176.568a6.481,6.481,0,0,0-5.267,6.364v14.476a1.315,1.315,0,0,1-.214.726h0v0h0v0h0l0,0-5.267,7.9a1.317,1.317,0,0,1-1.852.359,1.352,1.352,0,0,1-.493-1.49,1.126,1.126,0,0,1,.154-.33l4.651-6.977a3.95,3.95,0,0,0-5.072.179l-4.551,4.1a11.905,11.905,0,0,0-3.874,9.881l.72,7.916.005.119v6.693a1.317,1.317,0,0,1-1.317,1.317h0a1.317,1.317,0,0,1-1.317-1.317v-6.633L331.372,212a14.55,14.55,0,0,1,4.735-12.077l4.551-4.1a6.584,6.584,0,0,1,7.228-1.055V182.931a9.108,9.108,0,0,1,9.108-9.108h.127a1.317,1.317,0,0,1,1.3,1.316v24.8a1.316,1.316,0,0,1-.154.617l-10.38,19.57v6.365A1.317,1.317,0,0,1,346.569,227.806Z" transform="translate(-279.419 -147.963)"/>
      <g id="Group_92381" data-name="Group 92381" transform="translate(13.347 0)">
        <path id="Path_135741" data-name="Path 135741" d="M123.345,73.611a31.663,31.663,0,0,1-14.728-20.9L105.1,35.1l24.836-11.176L154.768,35.1l-3.522,17.61a31.663,31.663,0,0,1-14.728,20.9l-6.586,3.952Z" transform="translate(-103.778 -22.736)" fill="#8c6df2"/>
        <path id="Path_135742" data-name="Path 135742" d="M123.247,72.841a1.317,1.317,0,0,1-.677-.188L115.984,68.7a32.984,32.984,0,0,1-15.342-21.77L97.12,29.322a1.317,1.317,0,0,1,.751-1.459l24.3-10.933a2.633,2.633,0,0,1,2.161,0l24.3,10.933a1.317,1.317,0,0,1,.751,1.459L146.6,43.2a1.317,1.317,0,0,1-1.549,1.033h0a1.317,1.317,0,0,1-1.033-1.549l2.364-11.821a1.317,1.317,0,0,0-.751-1.459l-21.843-9.829a1.317,1.317,0,0,0-1.081,0L100.864,29.4a1.316,1.316,0,0,0-.751,1.459l3.11,15.553a30.344,30.344,0,0,0,14.115,20.029l5.231,3.139a1.317,1.317,0,0,0,1.355,0l5.231-3.139A30.344,30.344,0,0,0,143,47.643a1.315,1.315,0,0,1,1.535-.976h0a1.319,1.319,0,0,1,1.021,1.607A32.983,32.983,0,0,1,130.511,68.7l-6.586,3.952A1.318,1.318,0,0,1,123.247,72.841Z" transform="translate(-97.094 -16.698)"/>
        <path id="Path_135743" data-name="Path 135743" d="M221.469,57.193l-5.619-2.528a1.317,1.317,0,0,0-1.081,0l-5.619,2.528a1.317,1.317,0,0,1-1.741-.66h0a1.317,1.317,0,0,1,.66-1.741l6.159-2.772a2.633,2.633,0,0,1,2.161,0l6.159,2.772a1.317,1.317,0,0,1,.66,1.741h0A1.317,1.317,0,0,1,221.469,57.193Z" transform="translate(-189.156 -46.013)"/>
        <path id="Path_135744" data-name="Path 135744" d="M219.93,288.908a1.313,1.313,0,0,1-.677-.188l-3.876-2.326q-1.034-.621-2.01-1.33a1.317,1.317,0,0,1-.25-1.892h0a1.316,1.316,0,0,1,1.8-.238q.881.64,1.816,1.2l2.522,1.513a1.317,1.317,0,0,0,1.355,0l2.522-1.513q.934-.561,1.816-1.2a1.316,1.316,0,0,1,1.8.238h0a1.317,1.317,0,0,1-.25,1.892q-.975.708-2.01,1.33l-3.877,2.326A1.314,1.314,0,0,1,219.93,288.908Z" transform="translate(-193.777 -238.907)"/>
      </g>
    </g>
    <path id="Path_135745" data-name="Path 135745" d="M189.554,141.034l3.221-4.839a1.762,1.762,0,0,0-1.37-2.372l-4.885.479a2.71,2.71,0,0,0-1.685.335l-3.768,2.178-11.85-2.633-3.822,2.557,9.089,5.343-6.583,5.267-5.267-1.389L160,147.132l6.583,6.809Z" transform="translate(-120.3 -97.848)" fill="#fafeff"/>
    <path id="Path_135746" data-name="Path 135746" d="M159.9,148.574a1.316,1.316,0,0,1-.947-.4l-6.583-6.809a1.317,1.317,0,0,1,.411-2.118l2.633-1.173a1.317,1.317,0,0,1,.871-.07l4.626,1.22,4.573-3.658-7.441-4.374a1.317,1.317,0,0,1-.065-2.229L161.8,126.4a1.316,1.316,0,0,1,1.018-.191l11.35,2.522,3.324-1.922a4,4,0,0,1,2.345-.518l4.756-.466a1.3,1.3,0,0,1,.284,0,3.078,3.078,0,0,1,2.424,4.2,1.317,1.317,0,0,1-.114.211l-3.221,4.839a1.316,1.316,0,0,1-.451.419l-22.971,12.907A1.316,1.316,0,0,1,159.9,148.574Zm-4.33-7.688,4.57,4.726,21.809-12.254,2.949-4.43a.462.462,0,0,0-.067-.27.472.472,0,0,0-.188-.187l-4.678.459a1.3,1.3,0,0,1-.285,0,1.394,1.394,0,0,0-.871.168l-3.768,2.178a1.316,1.316,0,0,1-.944.145L162.8,128.9l-1.611,1.078,7.281,4.28a1.317,1.317,0,0,1,.155,2.163l-6.583,5.267a1.315,1.315,0,0,1-1.158.245l-4.819-1.271Z" transform="translate(-113.617 -91.164)"/>
  </g>
</svg>
